<?xml version="1.0" encoding="UTF-8"?>
<svg width="110px" height="110px" viewBox="0 0 110 110" version="1.1" xmlns="http://www.w3.org/2000/svg" xmlns:xlink="http://www.w3.org/1999/xlink">
    <!-- Generator: Sketch 46.2 (44496) - http://www.bohemiancoding.com/sketch -->
    <title>Artboard 6</title>
    <desc>Created with Sketch.</desc>
    <defs>
        <linearGradient x1="0%" y1="49.9993671%" x2="100%" y2="49.9993671%" id="linearGradient-1">
            <stop stop-color="#59A5FF" offset="0%"></stop>
            <stop stop-color="#16CAFF" offset="50.89%"></stop>
            <stop stop-color="#00E1FF" offset="100%"></stop>
        </linearGradient>
        <linearGradient x1="0%" y1="50%" x2="100%" y2="50%" id="linearGradient-2">
            <stop stop-color="#59A5FF" offset="0%"></stop>
            <stop stop-color="#16CAFF" offset="50.89%"></stop>
            <stop stop-color="#00E1FF" offset="100%"></stop>
        </linearGradient>
        <linearGradient x1="2.20637192e-05%" y1="49.9998145%" x2="100.000135%" y2="49.9998145%" id="linearGradient-3">
            <stop stop-color="#59A5FF" offset="0%"></stop>
            <stop stop-color="#16CAFF" offset="50.89%"></stop>
            <stop stop-color="#00E1FF" offset="100%"></stop>
        </linearGradient>
    </defs>
    <g id="ui--1.8" stroke="none" stroke-width="1" fill="none" fill-rule="evenodd">
        <g id="Artboard-6" fill-rule="nonzero">
            <g id="Group">
                <path d="M54.8,0 C85.1,0 109.6,24.5 109.6,54.8 C109.6,85.1 85.1,109.6 54.8,109.6 C24.5,109.6 0,85.1 0,54.8 C0,24.5 24.5,0 54.8,0 Z" id="XMLID_3075_" fill="#FFFFFF" opacity="0.3"></path>
                <path d="M55.2,4.8 C83,4.8 105.5,27.3 105.5,55.1 C105.5,82.9 83,105.5 55.2,105.5 C27.4,105.5 4.8,83 4.8,55.2 C4.8,27.4 27.4,4.8 55.2,4.8 Z" id="XMLID_3093_" fill="#FFFFFF"></path>
                <path d="M90,83.4 C95.5,83.4 100,87.9 100,93.4 C100,98.9 95.5,103.4 90,103.4 C84.5,103.4 80,98.9 80,93.4 C80,87.9 84.5,83.4 90,83.4 Z" id="XMLID_3095_" fill="#FFFFFF"></path>
                <path d="M90,85.5 C94.4,85.5 97.9,89.1 97.9,93.4 C97.9,97.8 94.3,101.3 90,101.3 C85.6,101.3 82.1,97.7 82.1,93.4 C82.1,89.1 85.6,85.5 90,85.5 Z" id="XMLID_3097_" fill="url(#linearGradient-1)"></path>
                <polygon id="XMLID_3099_" fill="#FFFFFF" points="84.8 90.3 88.2 90.3 90.3 95.1 93.1 90.3 95.9 90.3 95.9 91.7 94.5 91.7 91 98.6 89.6 98.6"></polygon>
                <g id="XMLID_3073_" transform="translate(29.000000, 18.000000)">
                    <g id="XMLID_3109_" transform="translate(13.000000, 53.000000)" fill="url(#linearGradient-2)">
                        <polygon id="XMLID_3114_" points="0.1 5.7 2.6 15.2 29.2 15.2 30.7 0.3 12.5 11.6"></polygon>
                    </g>
                    <g id="XMLID_3105_" transform="translate(9.000000, 28.000000)" fill="url(#linearGradient-3)">
                        <path d="M37.6,14.7 C36.3,12.6 35.4,14.5 33.7,12.5 C31.9,10.5 36.7,7.5 32.8,2.8 C30.2,-0.4 22.1,0.8 13.9,4.5 C5.7,8.2 -2.7,19.1 2.4,27 C5.6,31.9 16.5,33.2 24.8,29.2 C33.2,25.2 39.6,17.9 37.6,14.7 Z M29.7,19.8 C28.2,19.8 27,18.6 27,17.1 C27,15.6 28.2,14.4 29.7,14.4 C31.2,14.4 32.4,15.6 32.4,17.1 C32.3,18.6 31.1,19.8 29.7,19.8 Z" id="XMLID_3106_"></path>
                    </g>
                    <g id="XMLID_3102_" transform="translate(9.000000, 28.000000)" fill="#0087BB">
                        <path d="M13.8,4.5 C7.1,7.5 0.3,15.3 0.8,22.3 L31.4,1.7 C28,6.66133815e-16 21,1.3 13.8,4.5 Z" id="XMLID_3103_"></path>
                    </g>
                    <g id="XMLID_3074_" fill="url(#linearGradient-2)">
                        <polygon id="XMLID_3101_" points="0.4 16.9 10.8 35.4 0.4 40.2 3.4 47.3 47.2 26.7 44.1 20.6 37.6 24 28.4 0.8"></polygon>
                    </g>
                </g>
            </g>
        </g>
    </g>
</svg>