<?xml version="1.0" encoding="utf-8"?>
<!-- Generator: Adobe Illustrator 18.0.0, SVG Export Plug-In . SVG Version: 6.00 Build 0)  -->
<!DOCTYPE svg PUBLIC "-//W3C//DTD SVG 1.1//EN" "http://www.w3.org/Graphics/SVG/1.1/DTD/svg11.dtd">
<svg version="1.1" xmlns="http://www.w3.org/2000/svg" xmlns:xlink="http://www.w3.org/1999/xlink" width="100" height="100" viewBox="0 0 100 100">
<!-- 清除 -->
<svg viewBox="0 0 22 25" width="22" height="25" x="0" y="0" xml:space="preserve">
<g>
	<g>
		<path fill="#FFFFFF" d="M3.2,6.5L0,20.7l4,0.9l0,0.1L5.2,22l0-0.1l3.5,0.8l0,0.1l1.2,0.3l0-0.1l3.5,0.8l0,0.1l1.2,0.3l0-0.1l4,0.9
			L22,10.8L3.2,6.5z M17.9,23.5l-2.7-0.6l0.8-3.5l-1.2-0.3l-0.8,3.5l-3.5-0.8l1-4.5L10.1,17l-1,4.5l-3.5-0.8l0.8-3.5l-1.2-0.3
			l-0.8,3.5l-2.8-0.6l1.5-6.8l16.3,3.7L17.9,23.5z M3.4,11.7l0.8-3.6l16.3,3.7l-0.8,3.6L3.4,11.7z M13,1.5l2.6,0.6l-1.2,5.6L15.6,8
			l1.4-6.8L12,0l-1.4,6.7L11.8,7L13,1.5z"/>
	</g>
</g>
</svg>

<!-- 更改尺寸 -->
<svg viewBox="0 0 20 20" width="20" height="20" x="0" y="30" xml:space="preserve">
<g>
	<g>
		<g>
			<path fill="#FFFFFF" d="M17.2,0H2.8C1.3,0,0,1.3,0,2.8v14.4C0,18.8,1.3,20,2.8,20h14.4c1.5,0,2.8-1.3,2.8-2.8V2.8
				C20,1.3,18.8,0,17.2,0z M2.8,18.5c-0.7,0-1.3-0.6-1.3-1.3V7.1h10.3c0.7,0,1.3,0.6,1.3,1.3v10.1H2.8z M18.5,17.2
				c0,0.7-0.6,1.3-1.3,1.3h-2.6V8.3c0-1.5-1.3-2.8-2.8-2.8H1.5V2.8c0-0.7,0.6-1.3,1.3-1.3h14.4c0.7,0,1.3,0.6,1.3,1.3V17.2z"/>
		</g>
	</g>
</g>
</svg>

<!-- 用户 -->
<svg viewBox="0 0 19 21" width="19" height="20" x="0" y="60" xml:space="preserve">
<g>
	<path fill="#52FDFF" d="M19,20.9c-0.2-3.4-2.1-6.4-5.1-8c1.6-1.4,2.6-3.4,2.6-5.6c0-4-3.1-7.2-7-7.2
		c-3.9,0-7,3.3-7,7.2c0,2.2,0.9,4.2,2.6,5.6c-2.9,1.6-4.8,4.7-5.1,8L0,21h1.5l0-0.1c0.2-3.1,2.2-5.9,5.1-7.1c1,0.5,2,0.7,3,0.7
		c1,0,2-0.2,3-0.7c2.8,1.2,4.8,4,5.1,7.1l0,0.1H19L19,20.9z M15.1,7.2c0,3.2-2.5,5.7-5.6,5.7C6.5,13,4,10.4,4,7.2
		c0-3.2,2.5-5.7,5.6-5.7C12.6,1.5,15.1,4.1,15.1,7.2z"/>
</g>
</svg>

</svg>
