<?xml version="1.0" encoding="UTF-8"?>
<svg width="20px" height="20px" viewBox="0 0 20 20" version="1.1" xmlns="http://www.w3.org/2000/svg" xmlns:xlink="http://www.w3.org/1999/xlink">
    <!-- Generator: Sketch 46.2 (44496) - http://www.bohemiancoding.com/sketch -->
    <title>Artboard 4</title>
    <desc>Created with Sketch.</desc>
    <defs></defs>
    <g id="Page-1" stroke="none" stroke-width="1" fill="none" fill-rule="evenodd">
        <g id="Artboard-4" fill-rule="nonzero" fill="#FFFFFF">
            <g id="XMLID_3797_">
                <path d="M19.2,9.5 L11.6,16.3 L7.6,12.9 L6.7,13.8 L10.8,18.8 L11.6,19.8 L12.5,18.8 L20,10.4 L19.2,9.5 Z M1.6,16.5 L1.6,3.5 C1.6,2.5 2.4,1.6 3.5,1.6 L16.6,1.6 C17.6,1.6 18.5,2.4 18.5,3.5 L18.5,7.1 L20,7.1 L20,3.5 C20,1.6 18.4,0 16.5,0 L3.5,0 C1.5,0 0,1.6 0,3.5 L0,16.6 C0,18.5 1.5,20 3.5,20 L5.7,20 L5.7,18.4 L3.5,18.4 C2.4,18.4 1.6,17.6 1.6,16.5 Z" id="Shape"></path>
            </g>
        </g>
    </g>
</svg>