<?xml version="1.0" encoding="UTF-8"?>
<svg width="20px" height="43px" viewBox="0 0 20 43" version="1.1" xmlns="http://www.w3.org/2000/svg" xmlns:xlink="http://www.w3.org/1999/xlink">
    <!-- Generator: Sketch 44.1 (41455) - http://www.bohemiancoding.com/sketch -->
    <title>Artboard</title>
    <desc>Created with Sketch.</desc>
    <defs>
        <linearGradient x1="3.78268495%" y1="3.78268495%" x2="100%" y2="100%" id="linearGradient-1">
            <stop stop-color="#5EA2FF" offset="0%"></stop>
            <stop stop-color="#00D5FF" offset="73.5534621%"></stop>
            <stop stop-color="#00E3FF" offset="100%"></stop>
        </linearGradient>
    </defs>
    <g id="Page-1" stroke="none" stroke-width="1" fill="none" fill-rule="evenodd">
        <g id="Artboard-2-Copy" transform="translate(-1025.000000, -165.000000)">
            <g id="Group-3" transform="translate(1025.000000, 165.000000)" fill="url(#linearGradient-1)">
                <g id="关闭-copy" transform="translate(2.000000, 2.000000)">
                    <polygon id="Fill-1" points="15.5931445 1.29073828 14.7092578 0.406851562 8 7.11610937 1.29332031 0.409429687 0.409433594 1.29331641 7.11611328 7.99999609 0.406855469 14.7092539 1.29074219 15.5931406 8 8.88388281 14.7066797 15.5905625 15.5905664 14.7066758 8.88388672 7.99999609"></polygon>
                </g>
            </g>
            <g id="Group-3-Copy" transform="translate(1025.000000, 185.000000)" fill="#FFFFFF">
                <g id="关闭-copy" transform="translate(2.000000, 2.000000)">
                    <polygon id="Fill-1" points="15.5931445 1.29073828 14.7092578 0.406851562 8 7.11610937 1.29332031 0.409429687 0.409433594 1.29331641 7.11611328 7.99999609 0.406855469 14.7092539 1.29074219 15.5931406 8 8.88388281 14.7066797 15.5905625 15.5905664 14.7066758 8.88388672 7.99999609"></polygon>
                </g>
            </g>
        </g>
        <g id="Artboard"></g>
    </g>
</svg>