<?xml version="1.0" encoding="UTF-8"?>
<svg width="93px" height="40px" viewBox="0 0 93 40" version="1.1" xmlns="http://www.w3.org/2000/svg" xmlns:xlink="http://www.w3.org/1999/xlink">
    <!-- Generator: Sketch 46.2 (44496) - http://www.bohemiancoding.com/sketch -->
    <title>LOGO-彩色 Copy</title>
    <desc>Created with Sketch.</desc>
    <defs></defs>
    <g id="Symbols" stroke="none" stroke-width="1" fill="none" fill-rule="evenodd">
        <g id="LOGO-彩色-Copy">
            <g id="Group" transform="translate(31.267241, 35.200000)" fill-rule="nonzero" fill="#FFFFFF">
                <path d="M3.18009119,0.898723404 L1.09658317,0.898723404 L1.09658317,3.26808511 L3.18009119,3.26808511 L3.18009119,2.45106383 L3.9476994,2.61446809 L3.9476994,3.06382979 C3.9476994,3.3906383 3.87459386,3.63574468 3.76493554,3.75829787 C3.65527722,3.88085106 3.43596059,3.96255319 3.10698564,3.96255319 L1.09658317,3.96255319 C0.767608217,3.96255319 0.548291584,3.88085106 0.438633267,3.75829787 C0.32897495,3.63574468 0.255869406,3.3906383 0.255869406,3.06382979 L0.255869406,1.10297872 C0.255869406,0.776170213 0.32897495,0.53106383 0.438633267,0.408510638 C0.548291584,0.285957447 0.767608217,0.204255319 1.09658317,0.204255319 L3.10698564,0.204255319 C3.43596059,0.204255319 3.65527722,0.285957447 3.76493554,0.408510638 C3.87459386,0.53106383 3.9476994,0.776170213 3.9476994,1.10297872 L3.9476994,1.4706383 L3.18009119,1.59319149 L3.18009119,0.898723404 Z" id="Shape"></path>
                <polygon id="Shape" points="5.55602138 3.96255319 5.55602138 0.204255319 6.3236296 0.204255319 6.3236296 1.67489362 8.77266534 1.67489362 8.77266534 0.204255319 9.54027356 0.204255319 9.54027356 3.96255319 8.77266534 3.96255319 8.77266534 2.3693617 6.3236296 2.3693617 6.3236296 3.96255319"></polygon>
                <path d="M12.0258621,0.245106383 L12.0258621,3.26808511 L14.2555812,3.26808511 L14.2555812,0.245106383 L15.0231894,0.245106383 L15.0231894,3.10468085 C15.0231894,3.43148936 14.9500838,3.67659574 14.8404255,3.79914894 C14.7307672,3.92170213 14.5114506,4.00340426 14.1824756,4.00340426 L12.0624148,4.00340426 C11.7334399,4.00340426 11.5141233,3.92170213 11.4044649,3.79914894 C11.2948066,3.67659574 11.2217011,3.43148936 11.2217011,3.10468085 L11.2217011,0.245106383 L12.0258621,0.245106383 Z" id="Shape"></path>
                <path d="M15.9735615,3.96255319 L17.8743056,0.204255319 L18.6419138,0.204255319 L20.542658,3.96255319 L19.6653915,3.96255319 L19.263311,3.14553191 L17.1432502,3.14553191 L16.7411697,3.96255319 L15.9735615,3.96255319 Z M17.4722251,2.49191489 L18.934336,2.49191489 L18.2032806,0.980425532 L17.4722251,2.49191489 Z" id="Shape"></path>
                <path d="M21.6026884,3.96255319 L21.6026884,0.204255319 L22.15098,0.204255319 L24.4903574,2.41021277 C24.5634629,2.49191489 24.6365685,2.53276596 24.709674,2.61446809 C24.7827796,2.69617021 24.8193324,2.73702128 24.8924379,2.8187234 C24.8924379,2.61446809 24.8558851,2.45106383 24.8558851,2.3693617 L24.8558851,2.16510638 L24.8558851,0.204255319 L25.5503878,0.204255319 L25.5503878,3.96255319 L25.0020962,3.96255319 L22.5530605,1.63404255 C22.4799549,1.59319149 22.4434022,1.51148936 22.4068494,1.4706383 C22.3702966,1.42978723 22.3337438,1.38893617 22.2971911,1.30723404 C22.2971911,1.42978723 22.3337438,1.55234043 22.3337438,1.63404255 L22.3337438,1.92 L22.3337438,3.92170213 L21.6026884,3.92170213 L21.6026884,3.96255319 Z" id="Shape"></path>
                <path d="M30.3753537,0.898723404 L27.926318,0.898723404 L27.926318,3.26808511 L30.3753537,3.26808511 L30.3753537,2.45106383 L29.0960067,2.45106383 L29.0960067,1.79744681 L31.142962,1.79744681 L31.142962,3.10468085 C31.142962,3.43148936 31.0698564,3.67659574 30.9601981,3.79914894 C30.8505398,3.92170213 30.6312231,4.00340426 30.3022482,4.00340426 L27.9994235,4.00340426 C27.6704486,4.00340426 27.451132,3.92170213 27.3414736,3.79914894 C27.2318153,3.67659574 27.1587098,3.43148936 27.1587098,3.10468085 L27.1587098,1.14382979 C27.1587098,0.817021277 27.2318153,0.571914894 27.3414736,0.449361702 C27.451132,0.326808511 27.6704486,0.245106383 27.9994235,0.245106383 L30.3022482,0.245106383 C30.6312231,0.245106383 30.8505398,0.326808511 30.9601981,0.449361702 C31.0698564,0.571914894 31.142962,0.776170213 31.142962,1.10297872 L31.142962,1.18468085 L30.3753537,1.34808511 L30.3753537,0.898723404 Z" id="Shape"></path>
                <polygon id="Shape" points="32.7878367 3.96255319 32.7878367 0.204255319 33.5554449 0.204255319 33.5554449 1.75659574 35.4196363 0.204255319 36.5527722 0.204255319 34.3230531 1.96085106 36.8086417 3.92170213 35.5658474 3.92170213 33.5554449 2.28765957 33.5554449 3.92170213 32.7878367 3.92170213"></polygon>
                <polygon id="Shape" points="37.9417776 3.96255319 37.9417776 0.204255319 38.7093858 0.204255319 38.7093858 3.96255319"></polygon>
                <polygon id="Shape" points="41.9625825 0.898723404 41.9625825 3.96255319 41.1949743 3.96255319 41.1949743 0.898723404 39.6597579 0.898723404 39.6597579 0.245106383 43.497799 0.245106383 43.497799 0.898723404"></polygon>
                <path d="M44.3385127,2.85957447 L44.4481711,2.85957447 C44.5212766,2.85957447 44.5578294,2.85957447 44.5578294,2.90042553 C44.5943821,2.9412766 44.5943821,3.02297872 44.5943821,3.10468085 L44.5943821,3.67659574 C44.5943821,3.79914894 44.5943821,3.88085106 44.5578294,3.88085106 C44.5212766,3.92170213 44.4481711,3.92170213 44.3385127,3.92170213 L43.7536684,3.92170213 C43.6805628,3.92170213 43.6440101,3.92170213 43.6440101,3.88085106 C43.6074573,3.84 43.6074573,3.75829787 43.6074573,3.67659574 L43.6074573,3.10468085 C43.6074573,2.98212766 43.6074573,2.9412766 43.6440101,2.90042553 C43.6805628,2.85957447 43.7536684,2.85957447 43.8633267,2.85957447 L44.3385127,2.85957447 Z" id="Shape"></path>
                <path d="M48.8345037,0.898723404 L46.7509957,0.898723404 L46.7509957,3.26808511 L48.8345037,3.26808511 L48.8345037,2.45106383 L49.6021119,2.61446809 L49.6021119,3.06382979 C49.6021119,3.3906383 49.5290064,3.63574468 49.4193481,3.75829787 C49.3096898,3.88085106 49.0903731,3.96255319 48.7613982,3.96255319 L46.7875485,3.96255319 C46.4585735,3.96255319 46.2392569,3.88085106 46.1295986,3.75829787 C46.0199403,3.63574468 45.9468347,3.3906383 45.9468347,3.06382979 L45.9468347,1.10297872 C45.9468347,0.776170213 46.0199403,0.53106383 46.1295986,0.408510638 C46.2392569,0.285957447 46.4585735,0.204255319 46.7875485,0.204255319 L48.7979509,0.204255319 C49.1269259,0.204255319 49.3462425,0.285957447 49.4559008,0.408510638 C49.5655592,0.53106383 49.6386647,0.776170213 49.6386647,1.10297872 L49.6386647,1.4706383 L48.8710565,1.59319149 L48.8710565,0.898723404 L48.8345037,0.898723404 Z" id="Shape"></path>
                <path d="M51.1373284,1.10297872 C51.1373284,0.776170213 51.2104339,0.53106383 51.3200922,0.408510638 C51.4297506,0.285957447 51.6490672,0.204255319 51.9780421,0.204255319 L54.4270779,0.204255319 C54.7560528,0.204255319 54.9753695,0.285957447 55.0850278,0.408510638 C55.1946861,0.53106383 55.2677916,0.776170213 55.2677916,1.10297872 L55.2677916,3.06382979 C55.2677916,3.3906383 55.1946861,3.63574468 55.0850278,3.75829787 C54.9753695,3.88085106 54.7560528,3.96255319 54.4270779,3.96255319 L51.9780421,3.96255319 C51.6490672,3.96255319 51.4297506,3.88085106 51.3200922,3.75829787 C51.2104339,3.63574468 51.1373284,3.3906383 51.1373284,3.06382979 L51.1373284,1.10297872 Z M51.9049366,3.26808511 L54.4636306,3.26808511 L54.4636306,0.898723404 L51.9049366,0.898723404 L51.9049366,3.26808511 Z" id="Shape"></path>
                <path d="M56.9126664,3.96255319 L56.9126664,0.204255319 L57.5340635,0.204255319 L59.1058327,2.45106383 L60.6410492,0.204255319 L61.2624463,0.204255319 L61.2624463,3.96255319 L60.5313908,3.96255319 L60.5313908,1.63404255 L60.5313908,1.4706383 C60.5313908,1.38893617 60.5313908,1.30723404 60.5679436,1.22553191 C60.5313908,1.30723404 60.4948381,1.38893617 60.4582853,1.4706383 C60.4217325,1.55234043 60.3851798,1.59319149 60.3851798,1.63404255 L59.1423855,3.51319149 L58.9961744,3.51319149 L57.7533801,1.63404255 C57.7168274,1.55234043 57.6802746,1.51148936 57.6437218,1.42978723 C57.6071691,1.34808511 57.5706163,1.30723404 57.5706163,1.26638298 L57.5706163,1.4706383 L57.5706163,1.67489362 L57.5706163,4.00340426 L56.9126664,4.00340426 L56.9126664,3.96255319 Z" id="Shape"></path>
            </g>
            <g id="img_logo_1" transform="translate(31.267241, 17.600000)">
                <g id="Page-1">
                    <g id="Group-3" fill="#FFFFFF">
                        <path d="M15.6465681,15.8812706 L15.6465681,0.188533125 L19.2430379,0.188533125 L19.2430379,14.4864019 C19.2430379,15.4937269 18.8352946,15.8812706 17.6487733,15.8812706 L15.6465681,15.8812706 Z M12.6433588,15.3000581 L12.6433588,0.188533125 L14.2376234,0.188533125 L14.2376234,15.3388331 L12.6433588,15.3388331 L12.6433588,15.3000581 Z M7.52663399,2.62970812 L3.85595722,2.62970812 L3.67063729,3.83070187 L-3.94717647e-05,3.83070187 L0.593221152,0.188533125 L10.5300406,0.188533125 L11.2715177,3.83070187 L7.67504782,3.83070187 L7.52663399,2.62970812 Z M1.63132856,15.8812706 C0.519211593,15.8812706 0.0370639871,15.4551581 0.0370639871,14.4864019 L0.0370639871,4.91557688 L11.3086211,4.91557688 L11.3086211,11.2703456 C11.3086211,12.4715456 10.9377839,12.9364331 9.71415919,12.9364331 L5.70994601,12.9364331 L5.70994601,11.2703456 L6.8593638,11.2703456 C7.63794436,11.2703456 7.71195392,11.1152456 7.71195392,10.4566894 L7.71195392,6.46554563 L3.4482139,6.46554563 L3.4482139,13.6339706 C3.4482139,14.2151831 3.63353383,14.4476269 4.189691,14.4476269 L11.2715177,14.4476269 L11.2715177,15.8424956 L1.63132856,15.8424956 L1.63132856,15.8812706 Z M40.5369617,3.06480263 L36.1110047,3.06480263 L36.1110047,2.40708518 L25.6219519,2.40708518 L25.6219519,3.06480263 L21.195797,3.06480263 L21.195797,0.859090631 L28.6346912,0.859090631 L28.5602488,0.278618421 L32.9119614,0.278618421 L33.0980674,0.859090631 L40.5369617,0.859090631 L40.5369617,3.06480263 Z M21.2329467,8.69672998 L24.3141986,8.11566957 L21.2329467,7.61213886 L21.2329467,5.7138982 L29.9198522,7.10840196 L36.1195059,6.02381084 C36.3422065,5.98504598 36.4165059,5.7138982 36.3791586,5.59780984 C36.3791586,5.55904499 36.3048592,5.44275042 36.1195059,5.44275042 L22.9034978,5.44275042 C21.789797,5.44275042 21.2329467,5.01654323 21.2329467,4.20330608 L21.2329467,3.62203947 L26.3188996,3.62203947 C26.3188996,4.12577638 26.4673008,4.20330608 26.9870015,4.20330608 L40.5369617,4.20330608 L40.5369617,6.25639996 C40.5369617,7.03107845 40.1287101,7.53460915 39.0150093,7.72822723 L36.156458,8.23196413 L40.5000096,8.96787776 L40.5000096,10.8661184 L30.5508044,9.20026069 L21.195797,10.8661184 L21.195797,8.69672998 L21.2329467,8.69672998 Z M40.5369617,11.1447368 L40.5369617,14.483587 C40.5369617,15.4931366 40.053289,15.88125 38.8630148,15.88125 L21.195797,15.88125 L21.195797,11.1447368 L40.5369617,11.1447368 Z M36.3339789,13.6683008 L36.3339789,12.7364566 L25.3615589,12.7364566 L25.3615589,14.5224397 L35.4784941,14.5224397 C36.2595373,14.483587 36.3339789,14.328383 36.3339789,13.6683008 Z M61.7182922,4.99302375 L61.7182922,14.4862987 C61.7182922,15.455055 61.2732481,15.8811675 60.1238303,15.8811675 L50.8546758,15.8811675 L50.8546758,4.99302375 L51.5961529,4.99302375 L51.5961529,0.18843 L55.6005634,0.18843 L55.6005634,1.00208625 L61.6811888,1.00208625 L61.6811888,2.59083 L55.6005634,2.59083 L55.6005634,4.99302375 L61.7182922,4.99302375 Z M57.9734085,13.6726425 L57.9734085,6.54319875 L54.4882491,6.54319875 L54.4882491,14.4862987 L57.1577245,14.4862987 C57.8622955,14.4862987 57.9734085,14.331405 57.9734085,13.6726425 Z M49.1119974,13.3238737 L49.7050606,15.8811675 L46.9613783,15.8811675 L46.3681176,13.3238737 L49.1119974,13.3238737 Z M45.1817937,15.8811675 L42.5121209,15.8811675 L43.0311746,12.1226737 L42.5121209,12.1226737 L42.5121209,0.18843 L49.7050606,0.18843 L49.7050606,10.5729112 C49.7050606,11.73513 49.2973173,12.1614487 48.110796,12.1614487 L46.8502652,12.1614487 L46.8502652,1.73839875 L45.2560007,1.73839875 L45.2560007,11.6965612 L45.8490639,11.6965612 L45.1817937,15.8811675 Z" id="Combined-Shape"></path>
                    </g>
                    <g id="Group-12" transform="translate(42.391594, 0.000000)"></g>
                </g>
            </g>
            <g id="Page-1">
                <g id="Group-6">
                    <g id="Group-3">
                        <polygon id="Clip-8" fill="#FFFFFF" points="14.2326365 36.9275578 7.05992905 33.488476 8.56035194 38.9979381 23.8578047 38.9979381 24.7355967 30.3465872"></polygon>
                        <path d="M21.8175491,26.9929128 C20.9566739,26.9929128 20.2593273,26.2879105 20.2593273,25.4186451 C20.2593273,24.548905 20.9566739,23.8439027 21.8175491,23.8439027 C22.6784244,23.8439027 23.375771,24.548905 23.375771,25.4186451 C23.375771,26.2879105 22.6784244,26.9929128 21.8175491,26.9929128 M25.6877286,23.7067003 C24.4471659,23.5486088 23.9406029,22.9404554 24.096613,21.9653209 C24.2526232,20.9901865 25.6158323,19.0223519 23.0839568,16.8570217 L26.7849686,15.086208 L25.0317341,11.543631 L21.4279937,13.4131925 L16.1682901,0.0304930791 L9.39820173e-05,9.4770486 L6.03890843,20.1047796 L0.0973653688,22.9584958 L1.6555872,27.0911859 L6.35327828,24.8252089 C6.35327828,24.8252089 4.12731422,29.3149101 6.78747519,32.0409189 C6.78747519,32.0409189 9.75166798,35.2663636 16.1255283,33.737197 C22.4993887,32.2080305 25.6510756,27.9381381 26.2177871,26.8258012 C26.7849686,25.713939 26.9278213,23.8643169 25.6877286,23.7067003" id="Fill-1" fill="#FFFFFF"></path>
                        <path d="M6.35478199,24.8176129 L23.0426987,16.8907289 L5.48121915,28.573827 C5.48121915,28.573827 5.38065839,26.5889014 6.35478199,24.8176129" id="Fill-4" fill="#F2F2F2"></path>
                    </g>
                </g>
                <g id="Group-9" transform="translate(6.996049, 30.060104)"></g>
            </g>
        </g>
    </g>
</svg>