<?xml version="1.0" encoding="UTF-8"?>
<svg width="34px" height="34px" viewBox="0 0 34 34" version="1.1" xmlns="http://www.w3.org/2000/svg" xmlns:xlink="http://www.w3.org/1999/xlink">
    <!-- Generator: Sketch 46.2 (44496) - http://www.bohemiancoding.com/sketch -->
    <title>Group 4</title>
    <desc>Created with Sketch.</desc>
    <defs>
        <linearGradient x1="0%" y1="0%" x2="101.999998%" y2="100.999999%" id="linearGradient-1">
            <stop stop-color="#5EA2FF" offset="0%"></stop>
            <stop stop-color="#00D5FF" offset="62.5956633%"></stop>
            <stop stop-color="#00E3FF" offset="100%"></stop>
        </linearGradient>
    </defs>
    <g id="Page-1" stroke="none" stroke-width="1" fill="none" fill-rule="evenodd">
        <g id="Artboard-4" transform="translate(-2499.000000, -310.000000)">
            <g id="Group-7-Copy-8" transform="translate(2469.000000, 118.000000)">
                <g id="Group-70" transform="translate(30.000000, 192.000000)">
                    <g id="Group-4">
                        <g id="Group-3" stroke="url(#linearGradient-1)" stroke-width="2.195456">
                            <rect id="Rectangle-22" x="1.097728" y="1.097728" width="31.804544" height="31.804544" rx="3.2768"></rect>
                        </g>
                        <g id="文件夹" transform="translate(5.000000, 6.000000)" fill-rule="nonzero" fill="url(#linearGradient-1)">
                            <path d="M21.75,5.13333333 L21,5.13333333 L21,3.66666667 C21,2.45164022 19.9926407,1.46666667 18.75,1.46666667 L10.479,1.46666667 C9.71925,1.46666667 7.461,0 6.72675,0 L2.25,0 C1.00735931,-3.25665421e-16 1.52179594e-16,0.98497355 0,2.2 L0,19.8 C1.52179594e-16,21.0150264 1.00735931,22 2.25,22 L21.75,22 C22.9926407,22 24,21.0150264 24,19.8 L24,7.33333333 C24,6.11830688 22.9926407,5.13333333 21.75,5.13333333 Z M3,20.5333333 C2.17157288,20.5333333 1.5,19.8766843 1.5,19.0666667 L1.5,2.93333333 C1.5,2.1233157 2.17157288,1.46666667 3,1.46666667 L6.744,1.46666667 C7.4685,1.46666667 9.7245,2.93333333 10.47975,2.93333333 L18,2.93333333 C18.8284271,2.93333333 19.5,3.58998237 19.5,4.4 L19.5,5.13333333 L6,5.13333333 C4.75735931,5.13333333 3.75,6.11830688 3.75,7.33333333 L3.75,20.5333333 L3,20.5333333 Z M22.5,19.0666667 C22.5,19.8766843 21.8284271,20.5333333 21,20.5333333 L5.25,20.5333333 L5.25,8.06666667 C5.25,7.25664903 5.92157288,6.6 6.75,6.6 L21,6.6 C21.8284271,6.6 22.5,7.25664903 22.5,8.06666667 L22.5,19.0666667 Z" id="Shape"></path>
                        </g>
                    </g>
                </g>
            </g>
        </g>
    </g>
</svg>