<?xml version="1.0" encoding="UTF-8"?>
<svg width="34px" height="34px" viewBox="0 0 34 34" version="1.1" xmlns="http://www.w3.org/2000/svg" xmlns:xlink="http://www.w3.org/1999/xlink">
    <!-- Generator: Sketch 46.2 (44496) - http://www.bohemiancoding.com/sketch -->
    <title>Group 43</title>
    <desc>Created with Sketch.</desc>
    <defs>
        <linearGradient x1="0%" y1="0%" x2="101.999998%" y2="100.999999%" id="linearGradient-1">
            <stop stop-color="#5EA2FF" offset="0%"></stop>
            <stop stop-color="#00D5FF" offset="62.5956633%"></stop>
            <stop stop-color="#00E3FF" offset="100%"></stop>
        </linearGradient>
    </defs>
    <g id="Page-1" stroke="none" stroke-width="1" fill="none" fill-rule="evenodd">
        <g id="Artboard-4" transform="translate(-2499.000000, -252.000000)">
            <g id="Group-7-Copy-8" transform="translate(2469.000000, 118.000000)">
                <g id="Group-71" transform="translate(30.000000, 134.000000)">
                    <g id="Group-43">
                        <g id="Group-42">
                            <g id="字体传奇" transform="translate(5.000000, 5.000000)" fill-rule="nonzero" fill="url(#linearGradient-1)">
                                <path d="M19.4788095,4.47668197 C19.6288865,4.20073701 19.7673709,3.96713334 19.8920829,3.77458288 C20.0164975,3.58206545 20.1476829,3.46911132 20.280982,3.43575353 C20.4899141,3.39337921 21.1588205,3.69766178 22.2858186,4.34447279 C23.4126186,4.99134986 23.9772902,5.46625261 23.9772902,5.7666049 C23.969793,6.15038472 23.7065966,6.34554435 23.1879654,6.34934252 C22.6693342,6.35314068 22.2101196,6.38273334 21.8094297,6.43660123 C21.409004,6.49050215 21.0563361,6.60989665 20.7506333,6.7895994 C20.4450627,6.96930215 20.0125673,7.25165444 19.4531801,7.63543426 L18.8511875,8.04870766 C18.7175581,8.14115169 18.619037,8.15522142 18.5573746,8.09237004 C18.4955801,8.02948564 18.5046627,7.91009114 18.5880572,7.73554068 L19.064281,6.75749665 C19.1310957,6.61501591 19.3698517,6.01817555 19.7791287,4.96568747 L3.82373058,4.96568747 C3.8571214,5.39953701 3.88020764,5.78202876 3.89302232,6.11312967 C3.905837,6.44423059 3.88278379,6.74590399 3.82373058,7.02191499 C3.71589571,7.54814252 3.44639113,8.0332838 3.01515076,8.47614986 C2.58387736,8.91898288 2.09355076,9.12814619 1.54294892,9.10251683 C1.14249021,9.09478839 0.789558099,8.94596637 0.484020484,8.65714068 C0.178548924,8.36831499 0.0181012179,8.03846912 0.00138929125,7.66750399 C-0.0152896078,7.29657188 0.11820764,6.91794435 0.401914062,6.53287646 C0.494358099,6.41612417 0.75874342,6.16072233 1.1976792,5.76789298 C1.63664801,5.3751627 1.93574525,5.02989298 2.09355076,4.73337188 C2.25145535,4.43691683 2.36051223,4.13656454 2.41949938,3.83102692 C2.47855259,3.52555536 2.49011223,3.23550766 2.45678746,2.9595627 C2.42339663,2.68361775 2.51448654,2.57581591 2.73273241,2.63361408 C2.83280581,2.6670049 2.97148837,2.83640307 3.14600581,3.14187463 C3.32058929,3.44734619 3.50541131,3.89143426 3.69792874,4.47668197 L11.2064058,4.47668197 C10.9560242,4.41898288 10.7175985,4.31755536 10.4915911,4.17639573 C10.2656498,4.0352361 10.1525636,3.64501591 10.1525636,3.01098655 L10.1898517,2.14592967 C10.156626,1.58631132 9.99997645,1.17686912 9.72016727,0.917537013 C9.44039113,0.658270958 9.23760214,0.499210407 9.11163516,0.441379215 C8.98599847,0.383614077 8.8781636,0.286083802 8.78571957,0.152553527 C8.69327553,0.0190232514 9.09878746,-0.0271492256 10.0012645,0.0152250863 C11.6723251,0.107669123 12.6937342,0.508127839 13.0660535,1.21911132 C13.4384719,1.93019389 13.590993,2.50262692 13.5229893,2.93641041 C13.4562737,3.32920674 13.2869416,3.66162876 13.0147287,3.93245444 C12.7427801,4.20334619 12.5258553,4.34708197 12.3589342,4.36372784 L11.7570076,4.47668197 L19.4787434,4.47668197 L19.4788095,4.47668197 Z M10.4916572,14.2916691 L10.4916572,13.126326 L10.3412498,10.4694599 C10.4581342,10.3269792 10.7342443,10.3140985 11.1691508,10.4322379 L12.3974443,10.6953682 L13.2871067,10.9840948 C13.3949416,10.8082233 13.4898957,10.6478416 13.569459,10.5014636 C13.6489232,10.3551847 13.8721232,9.78529481 14.2393563,8.79057188 L7.04533425,8.79057188 L5.01476911,8.86627096 L4.56295259,8.15010215 L6.7435948,8.30024527 L13.9889416,8.31305995 C14.1983691,7.97938288 14.3857012,7.68154068 14.5523911,7.4235627 C14.7193453,7.16565077 14.8759287,7.01669665 15.0224719,6.97818655 C15.1686186,6.93964343 15.4177122,7.00517004 15.7680352,7.17199206 C17.2056242,7.89846545 18.0758664,8.40421591 18.3815691,8.68914435 C18.6871397,8.97403977 18.8409489,9.17048747 18.8447141,9.27828931 C18.8488095,9.38605811 18.6303654,9.48365444 18.1865746,9.56711499 L17.0595104,9.71600307 C16.3406994,9.84950032 15.3125526,10.3384728 13.9764242,11.1830526 C14.1522957,11.2754966 14.2537893,11.4024875 14.2831177,11.5655444 C14.3125122,11.7285022 14.0559875,11.9224067 13.5119911,12.148282 L13.5119911,14.2917022 L18.5881232,14.2917022 C19.114582,13.5654269 19.5330407,13.0134049 19.8422113,12.6372875 C20.151481,12.2612691 20.3889489,12.0674306 20.557059,12.0545499 C20.7254333,12.0418012 20.9665673,12.1482159 21.2837306,12.3741572 C22.0024095,12.9170966 22.5747764,13.4086122 23.0007654,13.846359 C23.4268865,14.2841058 23.6130627,14.5497132 23.5591948,14.6420911 C23.5052939,14.7345682 23.3949489,14.7794196 23.2267067,14.7794196 L13.5131141,14.7794196 L13.5131141,21.0340398 C13.5131141,21.4523664 13.4501306,21.849093 13.3256829,22.2251774 C13.201004,22.6010636 12.8660388,22.8797499 12.3232975,23.0568434 C11.7801599,23.2378673 11.300237,23.3597058 10.8818443,23.4277755 C10.4635177,23.4932361 10.1335397,23.5176104 9.89227369,23.5035737 C9.64975259,23.4932031 9.50337461,23.4560801 9.45327186,23.3828581 C9.40316911,23.3122453 9.37242048,23.1376288 9.35960581,22.8567297 C9.34679113,22.5782416 9.24021131,22.2649755 9.03993241,21.92357 C8.83971957,21.5796214 8.38413792,21.2920838 7.67437645,21.0585132 L6.85932324,20.7952177 C6.63334892,20.7286343 6.53964984,20.6388324 6.57700397,20.5257132 C6.61429204,20.412759 6.73371957,20.3652324 6.93393241,20.3820765 L8.12500397,20.4950306 C8.9193159,20.5784581 9.45208287,20.6028655 9.7228425,20.5707297 C9.99356911,20.5386599 10.1912719,20.4566526 10.3119544,20.3270856 C10.432604,20.1973866 10.4942994,19.9202196 10.4942994,19.4940985 L10.4942994,14.7810049 L2.9613159,14.7810049 L1.04373792,14.85677 L0.589312227,14.1418563 L2.69557645,14.2919333 L10.4916902,14.2917022 L10.4916572,14.2916691 Z" id="Shape"></path>
                            </g>
                            <rect id="Rectangle-22" stroke="url(#linearGradient-1)" stroke-width="2.195456" x="1.097728" y="1.097728" width="31.804544" height="31.804544" rx="3.2768"></rect>
                        </g>
                    </g>
                </g>
            </g>
        </g>
    </g>
</svg>