<?xml version="1.0" encoding="UTF-8"?>
<svg width="20px" height="22px" viewBox="0 0 20 22" version="1.1" xmlns="http://www.w3.org/2000/svg" xmlns:xlink="http://www.w3.org/1999/xlink">
    <!-- Generator: Sketch 43.1 (39012) - http://www.bohemiancoding.com/sketch -->
    <title>16px印刷2-1 copy 2</title>
    <desc>Created with Sketch.</desc>
    <defs></defs>
    <g id="Symbols" stroke="none" stroke-width="1" fill="none" fill-rule="evenodd">
        <g id="16px印刷2-1-copy-2">
            <g id="创客贴icon-2种状态--01-copy" transform="translate(0.000000, 1.000000)">
                <g id="Group">
                    <g id="图层_2" transform="translate(1.347656, 1.699219)">
                        <g id="Group">
                            <path d="M11.9140625,0.953125 L5.35351563,0.953125 C4.6640625,0.953125 4.10351563,1.51367187 4.10351563,2.203125 L4.10351563,3.11914062 L13.1640625,3.11914062 L13.1640625,2.203125 C13.1640625,1.51367187 12.6035156,0.953125 11.9140625,0.953125 Z" id="Shape"></path>
                            <g id="Shape">
                                <path d="M11.9140625,9.0703125 L5.35351563,9.0703125 C4.6640625,9.0703125 4.10351563,9.63085938 4.10351563,10.3203125 L4.10351563,14.3984375 C4.10351563,15.0878906 4.6640625,15.6484375 5.35351563,15.6484375 L11.9140625,15.6484375 C12.6035156,15.6484375 13.1640625,15.0878906 13.1640625,14.3984375 L13.1640625,10.3203125 C13.1640625,9.63085938 12.6035156,9.0703125 11.9140625,9.0703125 Z"></path>
                                <path d="M13.1640625,2.203125 C13.1640625,1.51367187 12.6035156,0.953125 11.9140625,0.953125 L5.35351563,0.953125 C4.6640625,0.953125 4.10351563,1.51367187 4.10351563,2.203125 L4.10351563,3.11914062 L13.1640625,3.11914062 L13.1640625,2.203125 Z"></path>
                                <path d="M15.1113281,4.05664063 L2.19335937,4.05664063 C1.50390625,4.05664063 0.943359375,4.6171875 0.943359375,5.30664063 L0.943359375,10.640625 C0.943359375,11.3300781 1.50390625,11.890625 2.19335937,11.890625 L3.16601562,11.890625 L3.16601562,10.3203125 C3.16601562,9.11328125 4.14648437,8.1328125 5.35351562,8.1328125 L11.9140625,8.1328125 C13.1210937,8.1328125 14.1015625,9.11328125 14.1015625,10.3203125 L14.1015625,11.890625 L15.1113281,11.890625 C15.8007812,11.890625 16.3613281,11.3300781 16.3613281,10.640625 L16.3613281,5.30664063 C16.3613281,4.6171875 15.8007812,4.05664063 15.1113281,4.05664063 Z"></path>
                                <path d="M15.1113281,3.11914062 L14.1015625,3.11914062 L14.1015625,2.203125 C14.1015625,0.99609375 13.1210937,0.015625 11.9140625,0.015625 L5.35351562,0.015625 C4.14648437,0.015625 3.16601562,0.99609375 3.16601562,2.203125 L3.16601562,3.11914062 L2.19335937,3.11914062 C0.986328125,3.11914062 0.005859375,4.09960937 0.005859375,5.30664062 L0.005859375,10.640625 C0.005859375,11.8476562 0.986328125,12.828125 2.19335937,12.828125 L3.16601562,12.828125 L3.16601562,14.3984375 C3.16601562,15.6054687 4.14648437,16.5859375 5.35351562,16.5859375 L11.9140625,16.5859375 C13.1210937,16.5859375 14.1015625,15.6054687 14.1015625,14.3984375 L14.1015625,12.828125 L15.1113281,12.828125 C16.3183594,12.828125 17.2988281,11.8476562 17.2988281,10.640625 L17.2988281,5.30664062 C17.2988281,4.1015625 16.3183594,3.11914062 15.1113281,3.11914062 Z M4.10351562,2.203125 C4.10351562,1.51367187 4.6640625,0.953125 5.35351562,0.953125 L11.9140625,0.953125 C12.6035156,0.953125 13.1640625,1.51367187 13.1640625,2.203125 L13.1640625,3.11914062 L4.10351562,3.11914062 L4.10351562,2.203125 Z M13.1640625,14.3984375 C13.1640625,15.0878906 12.6035156,15.6484375 11.9140625,15.6484375 L5.35351562,15.6484375 C4.6640625,15.6484375 4.10351562,15.0878906 4.10351562,14.3984375 L4.10351562,10.3203125 C4.10351562,9.63085937 4.6640625,9.0703125 5.35351562,9.0703125 L11.9140625,9.0703125 C12.6035156,9.0703125 13.1640625,9.63085937 13.1640625,10.3203125 L13.1640625,14.3984375 Z M16.3613281,10.640625 C16.3613281,11.3300781 15.8007812,11.890625 15.1113281,11.890625 L14.1015625,11.890625 L14.1015625,10.3203125 C14.1015625,9.11328125 13.1210937,8.1328125 11.9140625,8.1328125 L5.35351562,8.1328125 C4.14648437,8.1328125 3.16601562,9.11328125 3.16601562,10.3203125 L3.16601562,11.890625 L2.19335937,11.890625 C1.50390625,11.890625 0.943359375,11.3300781 0.943359375,10.640625 L0.943359375,5.30664062 C0.943359375,4.6171875 1.50390625,4.05664062 2.19335937,4.05664062 L15.1113281,4.05664062 C15.8007812,4.05664062 16.3613281,4.6171875 16.3613281,5.30664062 L16.3613281,10.640625 Z" fill="#FFFFFF"></path>
                            </g>
                            <path d="M5.9453125,11.3691406 L11.3535156,11.3691406 C11.6132812,11.3691406 11.8222656,11.1601562 11.8222656,10.9003906 C11.8222656,10.640625 11.6132812,10.4316406 11.3535156,10.4316406 L5.9453125,10.4316406 C5.68554687,10.4316406 5.4765625,10.640625 5.4765625,10.9003906 C5.4765625,11.1601562 5.68554688,11.3691406 5.9453125,11.3691406 Z" id="Shape" fill="#FFFFFF"></path>
                            <path d="M11.3535156,12.859375 L5.9453125,12.859375 C5.68554687,12.859375 5.4765625,13.0683594 5.4765625,13.328125 C5.4765625,13.5878906 5.68554687,13.796875 5.9453125,13.796875 L11.3535156,13.796875 C11.6132812,13.796875 11.8222656,13.5878906 11.8222656,13.328125 C11.8222656,13.0683594 11.6132813,12.859375 11.3535156,12.859375 Z" id="Shape" fill="#FFFFFF"></path>
                            <ellipse id="Oval" fill="#FFFFFF" cx="13.34375" cy="6.63476563" rx="1" ry="1"></ellipse>
                            <ellipse id="Oval" fill="#FFFFFF" cx="14.8925781" cy="6.63476563" rx="1" ry="1"></ellipse>
                        </g>
                    </g>
                </g>
            </g>
        </g>
    </g>
</svg>