<?xml version="1.0" encoding="UTF-8"?>
<svg width="132px" height="38px" viewBox="0 0 132 38" version="1.1" xmlns="http://www.w3.org/2000/svg" xmlns:xlink="http://www.w3.org/1999/xlink">
    <!-- Generator: Sketch 46.2 (44496) - http://www.bohemiancoding.com/sketch -->
    <title>Group 28</title>
    <desc>Created with Sketch.</desc>
    <defs></defs>
    <g id="Symbols" stroke="none" stroke-width="1" fill="none" fill-rule="evenodd">
        <g id="Artboard-4" fill-rule="nonzero" fill="#FFFFFF">
            <g id="Group-28">
                <g id="Group-9">
                    <g id="headerIcon">
                        <g id="Group-41" transform="translate(80.000000, 0.000000)">
                            <g id="下载-(3)">
                                <path d="M9.63213762,15.53908 L9.63213762,7.7143 L8.34784462,7.7143 L8.34784462,15.53908 L6.55437736,13.74358 L5.64630633,14.65262 L8.98997114,18 L12.333636,14.65262 L11.4255649,13.74358 L9.63213762,15.53908 Z M14.0851299,4.51382 C13.7747148,1.97124 11.6137758,0 8.9900111,0 C6.36624639,0 4.20530744,1.97126 3.89489234,4.51382 C1.72074806,4.65822 0,6.465 0,8.67858 C0,10.98634 1.86872364,12.85714 4.17392231,12.85714 L6.42142508,12.85714 L6.42142508,11.57142 L4.17392231,11.57142 C2.58047281,11.57142 1.28429301,10.27378 1.28429301,8.67858 C1.28429301,7.16312 2.46825749,5.89684 3.98017758,5.79702 L5.04057936,5.72608 L5.16973585,4.66952 C5.40553385,2.7403 7.0472697,1.2857 8.99003108,1.2857 C10.9327925,1.2857 12.5745083,2.74028 12.8102863,4.66948 L12.9394428,5.72604 L13.9998246,5.79698 C15.5117847,5.89682 16.6957492,7.16308 16.6957492,8.67856 C16.6957492,10.27378 15.3995494,11.5714 13.8061199,11.5714 L11.5586171,11.5714 L11.5586171,12.85712 L13.8061199,12.85712 C16.1113185,12.85712 17.9800422,10.98632 17.9800422,8.67856 C17.9800422,6.46498 16.2592941,4.6582 14.0851498,4.5138 L14.0851299,4.51382 Z" id="Shape"></path>
                            </g>
                        </g>
                        <g id="Group-41-Copy" opacity="0.649999976" transform="translate(80.000000, 20.000000)">
                            <g id="下载-(3)">
                                <path d="M9.63213762,15.53908 L9.63213762,7.7143 L8.34784462,7.7143 L8.34784462,15.53908 L6.55437736,13.74358 L5.64630633,14.65262 L8.98997114,18 L12.333636,14.65262 L11.4255649,13.74358 L9.63213762,15.53908 Z M14.0851299,4.51382 C13.7747148,1.97124 11.6137758,0 8.9900111,0 C6.36624639,0 4.20530744,1.97126 3.89489234,4.51382 C1.72074806,4.65822 0,6.465 0,8.67858 C0,10.98634 1.86872364,12.85714 4.17392231,12.85714 L6.42142508,12.85714 L6.42142508,11.57142 L4.17392231,11.57142 C2.58047281,11.57142 1.28429301,10.27378 1.28429301,8.67858 C1.28429301,7.16312 2.46825749,5.89684 3.98017758,5.79702 L5.04057936,5.72608 L5.16973585,4.66952 C5.40553385,2.7403 7.0472697,1.2857 8.99003108,1.2857 C10.9327925,1.2857 12.5745083,2.74028 12.8102863,4.66948 L12.9394428,5.72604 L13.9998246,5.79698 C15.5117847,5.89682 16.6957492,7.16308 16.6957492,8.67856 C16.6957492,10.27378 15.3995494,11.5714 13.8061199,11.5714 L11.5586171,11.5714 L11.5586171,12.85712 L13.8061199,12.85712 C16.1113185,12.85712 17.9800422,10.98632 17.9800422,8.67856 C17.9800422,6.46498 16.2592941,4.6582 14.0851498,4.5138 L14.0851299,4.51382 Z" id="Shape"></path>
                            </g>
                        </g>
                        <g id="Group-46" transform="translate(0.000000, 4.000000)">
                            <g id="Page-1">
                                <path d="M9,9.58135714 C8.79525,9.58135714 8.598,9.49960714 8.45325,9.35485714 L1.13925,2.04085714 C0.837,1.73935714 0.837,1.24960714 1.13925,0.947357143 C1.4415,0.645107143 1.93125,0.645107143 2.2335,0.947357143 L8.99925,7.71385714 L15.7665,0.931607143 C16.068,0.629357143 16.55775,0.628607143 16.86,0.930107143 C17.16225,1.23235714 17.163,1.72210714 16.8615,2.02435714 L9.5475,9.35410714 C9.40275,9.49960714 9.2055,9.58135714 9.00075,9.58135714 L9,9.58135714 Z" id="Fill-2"></path>
                            </g>
                        </g>
                        <g id="Group-46-Copy" opacity="0.649999976" transform="translate(0.000000, 24.000000)">
                            <g id="Page-1">
                                <path d="M9,9.58135714 C8.79525,9.58135714 8.598,9.49960714 8.45325,9.35485714 L1.13925,2.04085714 C0.837,1.73935714 0.837,1.24960714 1.13925,0.947357143 C1.4415,0.645107143 1.93125,0.645107143 2.2335,0.947357143 L8.99925,7.71385714 L15.7665,0.931607143 C16.068,0.629357143 16.55775,0.628607143 16.86,0.930107143 C17.16225,1.23235714 17.163,1.72210714 16.8615,2.02435714 L9.5475,9.35410714 C9.40275,9.49960714 9.2055,9.58135714 9.00075,9.58135714 L9,9.58135714 Z" id="Fill-2"></path>
                            </g>
                        </g>
                        <g id="Page-1" transform="translate(21.000000, 1.000000)">
                            <path d="M13.6908613,5.87824219 C12.6411543,4.82853516 11.2455098,4.25042969 9.760998,4.25042969 L3.12201367,4.25042969 L6.42685742,0.94560547 L5.5429707,0.06173828 L0.73041211,4.87427734 L5.54529492,9.6891406 L6.42918164,8.8052734 L3.12435742,5.50042969 L9.760998,5.50042969 C10.911623,5.50042969 11.9933613,5.94851562 12.8069746,6.76212891 C13.6205879,7.57574219 14.0686738,8.6575 14.0686738,9.808125 C14.0686738,10.95875 13.6205879,12.0404883 12.8069941,12.8541016 C11.9933613,13.6677148 10.911623,14.1158008 9.760998,14.1158008 L6.74873242,14.1158008 L6.74873242,15.3658008 L9.760998,15.3658008 C11.2455098,15.3658008 12.6411543,14.7876953 13.6908613,13.7379883 C14.7405684,12.6882812 15.3186738,11.2926172 15.3186738,9.8081055 C15.3186738,8.3236133 14.7405684,6.92794922 13.6908613,5.87824219" id="Fill-1"></path>
                        </g>
                        <g id="Page-1-Copy-4" opacity="0.649999976" transform="translate(21.000000, 21.000000)">
                            <path d="M13.6908613,5.87824219 C12.6411543,4.82853516 11.2455098,4.25042969 9.760998,4.25042969 L3.12201367,4.25042969 L6.42685742,0.94560547 L5.5429707,0.06173828 L0.73041211,4.87427734 L5.54529492,9.6891406 L6.42918164,8.8052734 L3.12435742,5.50042969 L9.760998,5.50042969 C10.911623,5.50042969 11.9933613,5.94851562 12.8069746,6.76212891 C13.6205879,7.57574219 14.0686738,8.6575 14.0686738,9.808125 C14.0686738,10.95875 13.6205879,12.0404883 12.8069941,12.8541016 C11.9933613,13.6677148 10.911623,14.1158008 9.760998,14.1158008 L6.74873242,14.1158008 L6.74873242,15.3658008 L9.760998,15.3658008 C11.2455098,15.3658008 12.6411543,14.7876953 13.6908613,13.7379883 C14.7405684,12.6882812 15.3186738,11.2926172 15.3186738,9.8081055 C15.3186738,8.3236133 14.7405684,6.92794922 13.6908613,5.87824219" id="Fill-1"></path>
                        </g>
                        <g id="Page-1" transform="translate(41.000000, 1.000000)">
                            <path d="M10.472,0.06172852 L9.5881133,0.94561523 L12.8929375,4.25043945 L6.25397266,4.25043945 C4.76946094,4.25043945 3.37379687,4.82854492 2.32408984,5.87825195 C1.27438281,6.92795898 0.69627734,8.3236035 0.69627734,9.8081152 C0.69627734,11.292627 1.27438281,12.688291 2.32408984,13.7379785 C3.37379687,14.7876855 4.76946094,15.365791 6.25397266,15.365791 L9.2662187,15.365791 L9.2662187,14.115791 L6.25397266,14.115791 C5.10334766,14.115791 4.02158984,13.6677246 3.20797656,12.8541113 C2.39436328,12.040498 1.94627734,10.9587402 1.94627734,9.8081152 C1.94627734,8.6574902 2.39436328,7.57573242 3.20797656,6.76211914 C4.02158984,5.94852539 5.10334766,5.50043945 6.25397266,5.50043945 L12.8906133,5.50043945 L9.5857891,8.8052637 L10.4696758,9.6891504 L15.2845391,4.87426758 L10.472,0.06172852 Z" id="Fill-1"></path>
                        </g>
                        <g id="Page-1-Copy-5" opacity="0.649999976" transform="translate(41.000000, 21.000000)">
                            <path d="M10.472,0.06172852 L9.5881133,0.94561523 L12.8929375,4.25043945 L6.25397266,4.25043945 C4.76946094,4.25043945 3.37379687,4.82854492 2.32408984,5.87825195 C1.27438281,6.92795898 0.69627734,8.3236035 0.69627734,9.8081152 C0.69627734,11.292627 1.27438281,12.688291 2.32408984,13.7379785 C3.37379687,14.7876855 4.76946094,15.365791 6.25397266,15.365791 L9.2662187,15.365791 L9.2662187,14.115791 L6.25397266,14.115791 C5.10334766,14.115791 4.02158984,13.6677246 3.20797656,12.8541113 C2.39436328,12.040498 1.94627734,10.9587402 1.94627734,9.8081152 C1.94627734,8.6574902 2.39436328,7.57573242 3.20797656,6.76211914 C4.02158984,5.94852539 5.10334766,5.50043945 6.25397266,5.50043945 L12.8906133,5.50043945 L9.5857891,8.8052637 L10.4696758,9.6891504 L15.2845391,4.87426758 L10.472,0.06172852 Z" id="Fill-1"></path>
                        </g>
                        <g id="Page-1" transform="translate(61.000000, 2.000000)">
                            <g id="Group-5" transform="translate(0.187500, 0.105469)">
                                <path d="M6.93655078,14.6650313 C6.00203906,14.6650313 5.09514453,14.4818672 4.2410625,14.1206172 C3.41643359,13.7718281 2.67596484,13.2726289 2.04024219,12.6369062 C1.40451953,12.0011836 0.905320312,11.2607148 0.55653125,10.4361055 C0.19528125,9.58202344 0.0121171875,8.67512891 0.0121171875,7.74059766 C0.0121171875,6.80608594 0.19528125,5.89919141 0.55653125,5.04510937 C0.905320312,4.22048047 1.40451953,3.48001172 2.04024219,2.84428906 C2.67596484,2.20856641 3.41643359,1.70936719 4.2410625,1.36059766 C5.09514453,0.999347656 6.00203906,0.816164063 6.93655078,0.816164063 C7.367625,0.816164063 7.79934375,0.856125 8.21967578,0.934933594 L7.98934375,2.16352734 C7.64475391,2.0989375 7.29055469,2.06616406 6.93655078,2.06616406 C5.42084766,2.06616406 3.99588672,2.65641797 2.92410937,3.72817578 C1.85235156,4.79993359 1.26211719,6.22489453 1.26211719,7.74059766 C1.26211719,9.25630078 1.85235156,10.6812617 2.92410937,11.7530391 C3.99588672,12.8247969 5.42084766,13.4150313 6.93655078,13.4150313 C8.45225391,13.4150313 9.87721484,12.8247969 10.9489922,11.7530391 C12.02075,10.6812617 12.6109844,9.25630078 12.6109844,7.74059766 C12.6109844,7.38089063 12.5771562,7.02102734 12.510457,6.67104688 L13.7383477,6.43700391 C13.8197148,6.86395703 13.8609844,7.30255078 13.8609844,7.74059766 C13.8609844,8.67512891 13.6778203,9.58202344 13.3165703,10.4361055 C12.9677812,11.2607148 12.468582,12.0011836 11.8328594,12.6369062 C11.1971367,13.2726289 10.456668,13.7718281 9.63203906,14.1206172 C8.77795703,14.4818672 7.8710625,14.6650313 6.93655078,14.6650313" id="Fill-1"></path>
                                <polygon id="Fill-3" points="9.90342188 0.00571289062 9.90342188 1.25571289 12.5601992 1.25571289 5.19127344 8.62862305 6.07539453 9.51225586 13.4437148 2.1399707 13.4437148 4.80124023 14.6937148 4.80124023 14.6937148 0.00571289062"></polygon>
                            </g>
                        </g>
                        <g id="Page-1-Copy-6" opacity="0.649999976" transform="translate(61.000000, 22.000000)">
                            <g id="Group-5" transform="translate(0.187500, 0.105469)">
                                <path d="M6.93655078,14.6650313 C6.00203906,14.6650313 5.09514453,14.4818672 4.2410625,14.1206172 C3.41643359,13.7718281 2.67596484,13.2726289 2.04024219,12.6369062 C1.40451953,12.0011836 0.905320312,11.2607148 0.55653125,10.4361055 C0.19528125,9.58202344 0.0121171875,8.67512891 0.0121171875,7.74059766 C0.0121171875,6.80608594 0.19528125,5.89919141 0.55653125,5.04510937 C0.905320312,4.22048047 1.40451953,3.48001172 2.04024219,2.84428906 C2.67596484,2.20856641 3.41643359,1.70936719 4.2410625,1.36059766 C5.09514453,0.999347656 6.00203906,0.816164063 6.93655078,0.816164063 C7.367625,0.816164063 7.79934375,0.856125 8.21967578,0.934933594 L7.98934375,2.16352734 C7.64475391,2.0989375 7.29055469,2.06616406 6.93655078,2.06616406 C5.42084766,2.06616406 3.99588672,2.65641797 2.92410937,3.72817578 C1.85235156,4.79993359 1.26211719,6.22489453 1.26211719,7.74059766 C1.26211719,9.25630078 1.85235156,10.6812617 2.92410937,11.7530391 C3.99588672,12.8247969 5.42084766,13.4150313 6.93655078,13.4150313 C8.45225391,13.4150313 9.87721484,12.8247969 10.9489922,11.7530391 C12.02075,10.6812617 12.6109844,9.25630078 12.6109844,7.74059766 C12.6109844,7.38089063 12.5771562,7.02102734 12.510457,6.67104688 L13.7383477,6.43700391 C13.8197148,6.86395703 13.8609844,7.30255078 13.8609844,7.74059766 C13.8609844,8.67512891 13.6778203,9.58202344 13.3165703,10.4361055 C12.9677812,11.2607148 12.468582,12.0011836 11.8328594,12.6369062 C11.1971367,13.2726289 10.456668,13.7718281 9.63203906,14.1206172 C8.77795703,14.4818672 7.8710625,14.6650313 6.93655078,14.6650313" id="Fill-1"></path>
                                <polygon id="Fill-3" points="9.90342188 0.00571289062 9.90342188 1.25571289 12.5601992 1.25571289 5.19127344 8.62862305 6.07539453 9.51225586 13.4437148 2.1399707 13.4437148 4.80124023 14.6937148 4.80124023 14.6937148 0.00571289062"></polygon>
                            </g>
                        </g>
                    </g>
                    <g id="Group-8" transform="translate(98.000000, 0.000000)">
                        <path d="M16.1524488,7.96055461 C11.6748379,5.56183448 8.07675767,3.56290103 3.75906143,1.1641809 C2.95948805,0.684436872 2,1.32409557 2,2.20362629 L2,15.7963737 C2,16.6759044 2.95948805,17.3155631 3.75906143,16.8358191 C8.15671501,14.437099 11.7547952,12.3582082 16.1524488,9.95948805 C16.9520222,9.47974403 16.9520222,8.3603413 16.1524488,7.96055461 Z M3.35927474,15.636459 C3.35927474,11.0788908 3.35927474,6.84115188 3.35927474,2.28358363 C7.51705631,4.52238908 11.4349659,6.6812372 15.5927474,9 C11.4349659,11.2388055 7.51705631,13.3976536 3.35927474,15.636459 Z" id="Shape"></path>
                    </g>
                    <g id="Group-8-Copy-2" opacity="0.65" transform="translate(98.000000, 20.000000)">
                        <path d="M16.1524488,7.96055461 C11.6748379,5.56183448 8.07675767,3.56290103 3.75906143,1.1641809 C2.95948805,0.684436872 2,1.32409557 2,2.20362629 L2,15.7963737 C2,16.6759044 2.95948805,17.3155631 3.75906143,16.8358191 C8.15671501,14.437099 11.7547952,12.3582082 16.1524488,9.95948805 C16.9520222,9.47974403 16.9520222,8.3603413 16.1524488,7.96055461 Z M3.35927474,15.636459 C3.35927474,11.0788908 3.35927474,6.84115188 3.35927474,2.28358363 C7.51705631,4.52238908 11.4349659,6.6812372 15.5927474,9 C11.4349659,11.2388055 7.51705631,13.3976536 3.35927474,15.636459 Z" id="Shape"></path>
                    </g>
                </g>
                <g id="Group-27" transform="translate(116.000000, 0.000000)">
                    <g id="XMLID_2256_" transform="translate(1.000000, 1.000000)">
                        <path d="M9.71052632,3.6 L1.42105263,3.6 C0.631578947,3.6 0,4.24 0,4.96 L0,14.56 C0,15.36 0.631578947,16 1.42105263,16 L9.71052632,16 C10.5,16 11.1315789,15.36 11.1315789,14.64 L11.1315789,5.04 C11.1315789,4.24 10.5,3.6 9.71052632,3.6 Z M10.3421053,14.56 C10.3421053,14.88 10.0263158,15.2 9.63157895,15.2 L1.5,15.2 C1.10526316,15.2 0.789473684,14.96 0.789473684,14.56 L0.789473684,5.04 C0.789473684,4.72 1.10526316,4.4 1.5,4.4 L9.71052632,4.4 C10.1052632,4.4 10.4210526,4.72 10.4210526,5.04 L10.3421053,14.56 L10.3421053,14.56 Z M13.5,0 L2.68421053,0 L2.68421053,0.8 L14.1315789,0.8 L14.1315789,13.28 L15,13.28 L15,1.44 C15,0.64 14.3684211,0 13.5,0 Z" id="Shape"></path>
                    </g>
                </g>
                <g id="Group-24" transform="translate(116.000000, 20.000000)" opacity="0.65">
                    <g id="XMLID_2256_-Copy" transform="translate(1.000000, 1.000000)">
                        <path d="M9.71052632,3.6 L1.42105263,3.6 C0.631578947,3.6 0,4.24 0,4.96 L0,14.56 C0,15.36 0.631578947,16 1.42105263,16 L9.71052632,16 C10.5,16 11.1315789,15.36 11.1315789,14.64 L11.1315789,5.04 C11.1315789,4.24 10.5,3.6 9.71052632,3.6 Z M10.3421053,14.56 C10.3421053,14.88 10.0263158,15.2 9.63157895,15.2 L1.5,15.2 C1.10526316,15.2 0.789473684,14.96 0.789473684,14.56 L0.789473684,5.04 C0.789473684,4.72 1.10526316,4.4 1.5,4.4 L9.71052632,4.4 C10.1052632,4.4 10.4210526,4.72 10.4210526,5.04 L10.3421053,14.56 L10.3421053,14.56 Z M13.5,0 L2.68421053,0 L2.68421053,0.8 L14.1315789,0.8 L14.1315789,13.28 L15,13.28 L15,1.44 C15,0.64 14.3684211,0 13.5,0 Z" id="Shape"></path>
                    </g>
                </g>
            </g>
        </g>
    </g>
</svg>