<?xml version="1.0" encoding="UTF-8"?>
<svg width="16px" height="16px" viewBox="0 0 16 16" version="1.1" xmlns="http://www.w3.org/2000/svg" xmlns:xlink="http://www.w3.org/1999/xlink">
    <!-- Generator: Sketch 46.2 (44496) - http://www.bohemiancoding.com/sketch -->
    <title>VIP</title>
    <desc>Created with Sketch.</desc>
    <defs>
        <linearGradient x1="0%" y1="0%" x2="101.999998%" y2="100.999999%" id="linearGradient-1">
            <stop stop-color="#5EA2FF" offset="0%"></stop>
            <stop stop-color="#00D5FF" offset="62.5956633%"></stop>
            <stop stop-color="#00E3FF" offset="100%"></stop>
        </linearGradient>
    </defs>
    <g id="Symbols" stroke="none" stroke-width="1" fill="none" fill-rule="evenodd">
        <g id="VIP">
            <g id="Group-3">
                <path d="M8,16 C3.581722,16 0,12.418278 0,8 C0,3.581722 3.581722,0 8,0 C12.418278,0 16,3.581722 16,8 C16,12.418278 12.418278,16 8,16 Z M8,15 C11.8659932,15 15,11.8659932 15,8 C15,4.13400675 11.8659932,1 8,1 C4.13400675,1 1,4.13400675 1,8 C1,11.8659932 4.13400675,15 8,15 Z" id="Oval-3" fill="#07AEFC" fill-rule="nonzero"></path>
                <g id="会员-(1)" transform="translate(3.200000, 4.000000)" fill="url(#linearGradient-1)">
                    <g id="Group">
                        <g id="Group-2" transform="translate(0.200000, 0.000000)">
                            <polygon id="Shape" points="0.00629751678 0.0127318792 2.86694198 0.0127318792 2.86694198 0.759284252 0.00629751678 0.759284252 0.00629751678 0.0127318792"></polygon>
                            <path d="M2.86694199,4.34071714 L2.86694199,0.692160686 L0.722176902,0.692160686 L0.722176902,0.692160686 L0.722176902,8.99349965 L2.86693054,8.99349965 L9.98896999,0.0127318792 L6.41197685,0.00874897013 L2.86694199,4.34071714 Z" id="Combined-Shape"></path>
                        </g>
                    </g>
                </g>
            </g>
        </g>
    </g>
</svg>