<svg xmlns="http://www.w3.org/2000/svg" version="1.1" xmlns:xlink="http://www.w3.org/1999/xlink" overflow="hidden" style="top: 0; left: 0;" width="249.27357" height="53.098434" viewBox="0 0 249.27357 53.098434">
 <rect opacity="0" width="249.27357" height="53.098434"></rect>
 <g data-height="37.09428" data-width="148.37712" transform=" translate(50.448227, 0.0)">
  <g transform="scale(0.018112442) translate(0.0,0)" data-width="2048.0" data-height="37.09428">
   <path fill="#000" d="M944 1403v152h942v-146q-85 -723 -366 -1104q212 -246 504 -382q-70 -84 -130 -152q-271 171 -475 410q-226 -252 -611 -458q-36 52 -106 140q388 188 616 445q-272 383 -320 1095h-54zM80 1163l126 78q182 -268 363 -551q122 322 159 709h-672v152h832v-152
q-69 -517 -219 -868q134 -211 267 -432l-132 -102q-112 190 -218 365q-171 -313 -440 -571q-62 66 -124 112q313 294 471 611q-221 361 -413 649zM1718 1403h-573q51 -639 272 -966q238 359 301 966z" transform="scale(1,-1) translate(0,-2048.0)"></path>
  </g>
  <g transform="scale(0.018112442) translate(2048.0,0)" data-width="2048.0" data-height="37.09428">
   <path fill="#000" d="M1648 -261v86h-1412v682h172v-530h528v702h-892v152h892v360h-748v152h748v358h176v-358h754v-152h-754v-360h890v-152h-890v-702h536v530h172v-768h-172z" transform="scale(1,-1) translate(0,-2048.0)"></path>
  </g>
  <g transform="scale(0.018112442) translate(4096.0,0)" data-width="2048.0" data-height="37.09428">
   <path fill="#000" d="M756 1137q246 258 374 564l144 -44q-39 -83 -82 -160h660v-126q-139 -202 -335 -355q200 -104 503 -157q-32 -52 -70 -148q-363 91 -562 215q-219 -139 -560 -259q-38 64 -84 130q310 82 528 213q-135 109 -233 243q-80 -112 -171 -210q-44 44 -112 94zM26 729
q248 440 370 972l148 -28q-61 -234 -134 -439v-1497h-142v1149q-83 -178 -178 -327q-26 80 -64 170zM1840 353l90 -110q-478 -374 -1104 -526q-40 74 -80 130q626 148 1094 506zM568 169v1212h138v-1212h-138zM1660 591l94 -108q-344 -258 -822 -436q-48 74 -90 124
q500 162 818 420zM1466 795l96 -102q-306 -206 -652 -328q-32 60 -90 120q346 98 646 310zM1670 1373h-551l-2 -4q119 -171 277 -277q178 133 276 281z" transform="scale(1,-1) translate(0,-2048.0)"></path>
  </g>
  <g transform="scale(0.018112442) translate(6144.0,0)" data-width="2048.0" data-height="37.09428">
   <path fill="#000" d="M804 867q190 346 340 842l158 -46q-56 -161 -115 -308h809v-148h-234q-54 -648 -291 -960q194 -207 555 -330q-58 -56 -126 -156q-344 164 -533 364q-204 -208 -611 -396q-48 70 -118 142q419 175 623 382q-185 257 -254 689q-51 -105 -103 -201q-50 72 -100 126z
M144 899h500v500h-538v140h694v-888h-156v108h-344v-662q244 116 500 260q14 -96 32 -162q-260 -130 -534 -284q-74 -52 -116 -94l-108 138q70 64 70 180v764zM1108 1163q70 -507 258 -784q187 273 239 828h-478z" transform="scale(1,-1) translate(0,-2048.0)"></path>
  </g>
 </g>
</svg>