<?xml version="1.0" encoding="UTF-8"?>
<svg width="20px" height="40px" viewBox="0 0 20 40" version="1.1" xmlns="http://www.w3.org/2000/svg" xmlns:xlink="http://www.w3.org/1999/xlink">
    <!-- Generator: Sketch 44.1 (41455) - http://www.bohemiancoding.com/sketch -->
    <title>Artboard 7@2x</title>
    <desc>Created with Sketch.</desc>
    <defs>
        <linearGradient x1="0%" y1="0%" x2="101.999998%" y2="100.999999%" id="linearGradient-1">
            <stop stop-color="#5EA2FF" offset="0%"></stop>
            <stop stop-color="#00D5FF" offset="62.5956633%"></stop>
            <stop stop-color="#00E3FF" offset="100%"></stop>
        </linearGradient>
    </defs>
    <g id="Symbols" stroke="none" stroke-width="1" fill="none" fill-rule="evenodd">
        <g id="Artboard-7"></g>
        <g id="加粗" fill="#626262">
            <g transform="translate(4.000000, 2.000000)" id="Fill-1">
                <path d="M3.12745703,13.1637637 L6.83317969,13.1637637 C7.60271094,13.1637637 8.20007422,12.9647598 8.62530859,12.5663809 C9.05058203,12.1683535 9.26319922,11.6045254 9.26319922,10.8755215 C9.26319922,10.1601113 9.05058203,9.60989648 8.62530859,9.22513086 C8.20007422,8.84038477 7.60271094,8.64800195 6.83317969,8.64800195 L3.12745703,8.64800195 L3.12745703,13.1637637 Z M3.12745703,6.82548242 L6.48896094,6.82548242 C7.09644141,6.82548242 7.60271094,6.65337305 8.00771094,6.30911523 C8.41271094,5.96485742 8.61521094,5.46874414 8.61521094,4.82075586 C8.61521094,4.09175195 8.43294531,3.5788418 8.06845313,3.28173242 C7.70394141,2.98493555 7.1774375,2.83624414 6.48896094,2.83624414 L3.12745703,2.83624414 L3.12745703,6.82548242 Z M0.5961875,0.770736328 L6.85345313,0.770736328 C8.14944922,0.770736328 9.18884375,1.0678457 9.97194922,1.66173242 C10.7547422,2.25593164 11.1464414,3.15358789 11.1464414,4.35499414 C11.1464414,5.08399805 10.9673789,5.70856836 10.6098398,6.22813867 C10.2519688,6.74798242 9.74226172,7.14950586 9.08095313,7.43300195 L9.08095313,7.47350977 C9.97194922,7.66270898 10.6468516,8.08448633 11.1059531,8.73913477 C11.5647422,9.3940957 11.7944688,10.2142324 11.7944688,11.1995254 C11.7944688,11.7665176 11.6931992,12.296498 11.4906992,12.7891543 C11.2881992,13.2821035 10.9708555,13.7073574 10.5389609,14.064877 C10.1067539,14.422748 9.55335547,14.7062441 8.87845313,14.9154043 C8.20323828,15.1248379 7.40019141,15.2292715 6.46870703,15.2292715 L0.5961875,15.2292715 L0.5961875,0.770736328 Z"></path>
            </g>
        </g>
        <g id="加粗-copy" transform="translate(0.000000, 20.000000)" fill="url(#linearGradient-1)">
            <g id="加粗" transform="translate(4.000000, 2.000000)">
                <path d="M3.12745703,13.1637637 L6.83317969,13.1637637 C7.60271094,13.1637637 8.20007422,12.9647598 8.62530859,12.5663809 C9.05058203,12.1683535 9.26319922,11.6045254 9.26319922,10.8755215 C9.26319922,10.1601113 9.05058203,9.60989648 8.62530859,9.22513086 C8.20007422,8.84038477 7.60271094,8.64800195 6.83317969,8.64800195 L3.12745703,8.64800195 L3.12745703,13.1637637 Z M3.12745703,6.82548242 L6.48896094,6.82548242 C7.09644141,6.82548242 7.60271094,6.65337305 8.00771094,6.30911523 C8.41271094,5.96485742 8.61521094,5.46874414 8.61521094,4.82075586 C8.61521094,4.09175195 8.43294531,3.5788418 8.06845313,3.28173242 C7.70394141,2.98493555 7.1774375,2.83624414 6.48896094,2.83624414 L3.12745703,2.83624414 L3.12745703,6.82548242 Z M0.5961875,0.770736328 L6.85345313,0.770736328 C8.14944922,0.770736328 9.18884375,1.0678457 9.97194922,1.66173242 C10.7547422,2.25593164 11.1464414,3.15358789 11.1464414,4.35499414 C11.1464414,5.08399805 10.9673789,5.70856836 10.6098398,6.22813867 C10.2519688,6.74798242 9.74226172,7.14950586 9.08095313,7.43300195 L9.08095313,7.47350977 C9.97194922,7.66270898 10.6468516,8.08448633 11.1059531,8.73913477 C11.5647422,9.3940957 11.7944688,10.2142324 11.7944688,11.1995254 C11.7944688,11.7665176 11.6931992,12.296498 11.4906992,12.7891543 C11.2881992,13.2821035 10.9708555,13.7073574 10.5389609,14.064877 C10.1067539,14.422748 9.55335547,14.7062441 8.87845313,14.9154043 C8.20323828,15.1248379 7.40019141,15.2292715 6.46870703,15.2292715 L0.5961875,15.2292715 L0.5961875,0.770736328 Z" id="Fill-1"></path>
            </g>
        </g>
    </g>
</svg>