<?xml version="1.0" encoding="UTF-8"?>
<svg width="20px" height="40px" viewBox="0 0 20 40" version="1.1" xmlns="http://www.w3.org/2000/svg" xmlns:xlink="http://www.w3.org/1999/xlink">
    <!-- Generator: Sketch 44.1 (41455) - http://www.bohemiancoding.com/sketch -->
    <title>Artboard 6@2x</title>
    <desc>Created with Sketch.</desc>
    <defs>
        <linearGradient x1="0%" y1="0%" x2="101.999998%" y2="100.999999%" id="linearGradient-1">
            <stop stop-color="#5EA2FF" offset="0%"></stop>
            <stop stop-color="#00D5FF" offset="62.5956633%"></stop>
            <stop stop-color="#00E3FF" offset="100%"></stop>
        </linearGradient>
    </defs>
    <g id="Symbols" stroke="none" stroke-width="1" fill="none" fill-rule="evenodd">
        <g id="Artboard-3-Copy-7" font-size="8" font-family=".PingFangSC-Regular, .PingFang SC" fill="#626262" font-weight="normal">
            <text id="复制">
                <tspan x="1.824" y="13">复制</tspan>
            </text>
        </g>
        <g id="Artboard-3-Copy-8" transform="translate(0.000000, 20.000000)" fill="url(#linearGradient-1)">
            <path d="M4.048,7.56 C3.928,7.752 3.8,7.936 3.664,8.112 L8.368,8.112 L8.368,10.64 L5.2,10.64 C5.08,10.832 4.944,11.008 4.8,11.184 L8.384,11.184 L8.384,11.6 C7.984,12.112 7.456,12.528 6.8,12.864 C7.568,13.088 8.432,13.216 9.376,13.248 L9.24,13.776 C8.072,13.72 7.024,13.52 6.112,13.168 C5.168,13.52 4.032,13.728 2.688,13.808 L2.456,13.304 C3.616,13.256 4.608,13.112 5.432,12.872 C4.888,12.608 4.4,12.288 3.968,11.912 C3.64,12.136 3.264,12.352 2.848,12.544 L2.552,12.056 C3.472,11.688 4.144,11.216 4.576,10.64 L3.552,10.64 L3.552,8.248 C3.28,8.56 2.976,8.848 2.624,9.112 L2.28,8.664 C3.104,8.04 3.664,7.288 3.96,6.392 L4.528,6.488 C4.464,6.68 4.392,6.872 4.312,7.056 L8.992,7.056 L8.992,7.56 L4.048,7.56 Z M6.12,12.64 C6.76,12.376 7.28,12.048 7.672,11.656 L4.384,11.656 C4.896,12.056 5.472,12.384 6.12,12.64 Z M7.808,10.176 L7.808,9.584 L4.12,9.584 L4.12,10.176 L7.808,10.176 Z M4.12,9.152 L7.808,9.152 L7.808,8.568 L4.12,8.568 L4.12,9.152 Z M11.248,8.016 L12.368,8.016 L12.368,9.048 L10.432,9.048 L10.432,9.584 L12.368,9.584 L12.368,10.424 L10.792,10.424 L10.792,13.304 L11.352,13.304 L11.352,10.96 L12.368,10.96 L12.368,13.808 L12.944,13.808 L12.944,10.96 L13.952,10.96 L13.952,12.416 C13.952,12.624 13.832,12.728 13.608,12.728 L13.216,12.704 L13.36,13.248 L13.784,13.248 C14.264,13.248 14.504,13.008 14.504,12.536 L14.504,10.424 L12.944,10.424 L12.944,9.584 L14.672,9.584 L14.672,9.048 L12.944,9.048 L12.944,8.016 L14.44,8.016 L14.44,7.48 L12.944,7.48 L12.944,6.488 L12.368,6.488 L12.368,7.48 L11.44,7.48 C11.504,7.264 11.552,7.032 11.592,6.776 L11.048,6.688 C10.936,7.448 10.68,8.04 10.28,8.472 L10.744,8.808 C10.936,8.6 11.104,8.336 11.248,8.016 Z M15.144,7.208 L15.704,7.208 L15.704,12.152 L15.144,12.152 L15.144,7.208 Z M16.608,13.728 L15.432,13.728 L15.304,13.176 C15.688,13.2 16.056,13.216 16.408,13.216 C16.648,13.216 16.776,13.088 16.776,12.832 L16.776,6.488 L17.344,6.488 L17.344,12.976 C17.344,13.472 17.096,13.728 16.608,13.728 Z" id="复制"></path>
        </g>
        <g id="Artboard-6"></g>
    </g>
</svg>