<?xml version="1.0" encoding="utf-8"?>
<!-- Generator: Adobe Illustrator 21.0.0, SVG Export Plug-In . SVG Version: 6.00 Build 0)  -->
<svg version="1.1" id="图层_1" xmlns="http://www.w3.org/2000/svg" xmlns:xlink="http://www.w3.org/1999/xlink" x="0px" y="0px"
	 viewBox="0 0 600 100" style="enable-background:new 0 0 600 100;" xml:space="preserve" width="600px" height="100px">
<style type="text/css">
	.st0{fill:#515151;}
	.st1{fill:#06AEFC;}
	.st2{fill:#EC6727;}
	.st3{fill:#B4B3B3;}
	.st4{fill:#3D454D;}
	.st5{fill:#FFFFFF;}
	.st6{fill:#F20000;}
</style>
<g id="XMLID_9965_">
	<g>
		<path class="st0" d="M0,0v1.9h16.5V0H0z M10.4,4.3H0v1.9h10.4V4.3z M0,10.7h16.5V8.8H0V10.7z M0,15h10.4v-1.9H0V15z"/>
	</g>
</g>
<g id="XMLID_1_">
	<g>
		<path class="st1" d="M0,20v1.9h16.5V20H0z M10.4,24.3H0v1.9h10.4V24.3z M0,30.7h16.5v-1.9H0V30.7z M0,35h10.4v-1.9H0V35z"/>
	</g>
</g>
<g>
	<rect id="XMLID_10019_" x="30" class="st0" width="16.6" height="1.9"/>
	<rect id="XMLID_10008_" x="33.1" y="4.3" class="st0" width="10.4" height="1.9"/>
	<rect id="XMLID_10006_" x="30" y="8.8" class="st0" width="16.6" height="1.9"/>
	<rect id="XMLID_10004_" x="33.1" y="13.1" class="st0" width="10.4" height="1.9"/>
</g>
<g>
	<rect id="XMLID_2_" x="30" y="20" class="st1" width="16.6" height="1.9"/>
	<rect id="XMLID_3_" x="33.1" y="24.3" class="st1" width="10.4" height="1.9"/>
	<rect id="XMLID_4_" x="30" y="28.8" class="st1" width="16.6" height="1.9"/>
	<rect id="XMLID_5_" x="33.1" y="33.1" class="st1" width="10.4" height="1.9"/>
</g>
<g>
	<rect id="XMLID_10002_" x="60" class="st0" width="16.5" height="1.9"/>
	<rect id="XMLID_10000_" x="66.1" y="4.3" class="st0" width="10.4" height="1.9"/>
	<rect id="XMLID_9998_" x="60" y="8.8" class="st0" width="16.5" height="1.9"/>
	<rect id="XMLID_9978_" x="66.1" y="13.1" class="st0" width="10.4" height="1.9"/>
</g>
<g>
	<rect id="XMLID_6_" x="60" y="20" class="st1" width="16.5" height="1.9"/>
	<rect id="XMLID_7_" x="66.1" y="24.3" class="st1" width="10.4" height="1.9"/>
	<rect id="XMLID_8_" x="60" y="28.8" class="st1" width="16.5" height="1.9"/>
	<rect id="XMLID_9_" x="66.1" y="33.1" class="st1" width="10.4" height="1.9"/>
</g>
<g id="XMLID_3151_">
	<g>
		<path class="st0" d="M90,15.1l5.5-0.1V1H90V15.1z M91.4,2.6h2.9l0.3,11l-3.3,0.1L91.4,2.6z M97.2,7.8h1.3V4.4h-1.3V7.8z M97.2,3.3
			h1.3V0h-1.3V3.3z M97.2,16.5h1.3v-3.2h-1.3V16.5z M97.2,12h1.3V8.9h-1.3V12z M100,1v14.1l5.5-0.1V0.9L100,1z M101.4,2.6h2.9v1.6
			h-2.9V2.6z M101.4,5.3h3v2h-3V5.3z M101.4,8.5h3.1v1.8h-3.1V8.5z M101.3,13.7v-2.2h3.2l0.1,2.2H101.3z"/>
	</g>
</g>
<g id="XMLID_10_">
	<g>
		<path class="st1" d="M90,35.1l5.5-0.1V21H90V35.1z M91.4,22.6h2.9l0.3,11l-3.3,0.1L91.4,22.6z M97.2,27.8h1.3v-3.4h-1.3V27.8z
			 M97.2,23.3h1.3V20h-1.3V23.3z M97.2,36.5h1.3v-3.2h-1.3V36.5z M97.2,32h1.3v-3.1h-1.3V32z M100,21v14.1l5.5-0.1V20.9L100,21z
			 M101.4,22.6h2.9v1.6h-2.9V22.6z M101.4,25.3h3v2h-3V25.3z M101.4,28.5h3.1v1.8h-3.1V28.5z M101.3,33.7v-2.2h3.2l0.1,2.2H101.3z"
			/>
	</g>
</g>
<g>
	<path id="XMLID_3823_" class="st0" d="M121.3,0h14.1v5.5h-14.1C121.3,5.5,121.3,0,121.3,0z M133.9,1.3h-11.1v3.1h11.1V1.3z"/>
	<path id="XMLID_3162_" class="st0" d="M120,8.5V7.2h3.2v1.3H120z M124.4,8.5V7.2h3.2v1.3H124.4z M128.7,8.5V7.2h3.4v1.3H128.7z
		 M133.2,8.5V7.2h3.3v1.3H133.2z"/>
	<path id="XMLID_3159_" class="st0" d="M121.3,10h14.1v5.3h-14.1C121.3,15.3,121.3,10,121.3,10z M133.9,11.2l-11.1-0.1v3.3l11-0.3
		L133.9,11.2z"/>
	<path id="XMLID_3157_" class="st0" d="M131.1,10.8h1.2v3.7h-1.2V10.8z"/>
	<path id="XMLID_3155_" class="st0" d="M125,10.8h1.2v3.7H125V10.8z"/>
	<path id="XMLID_3153_" class="st0" d="M127.9,10.8h1.2v3.7h-1.2C127.9,14.5,127.9,10.8,127.9,10.8z"/>
</g>
<g>
	<path id="XMLID_11_" class="st1" d="M121.3,20h14.1v5.5h-14.1C121.3,25.5,121.3,20,121.3,20z M133.9,21.3h-11.1v3.1h11.1V21.3z"/>
	<path id="XMLID_12_" class="st1" d="M120,28.5v-1.3h3.2v1.3H120z M124.4,28.5v-1.3h3.2v1.3H124.4z M128.7,28.5v-1.3h3.4v1.3H128.7z
		 M133.2,28.5v-1.3h3.3v1.3H133.2z"/>
	<path id="XMLID_13_" class="st1" d="M121.3,30h14.1v5.3h-14.1C121.3,35.3,121.3,30,121.3,30z M133.9,31.2l-11.1-0.1v3.3l11-0.3
		L133.9,31.2z"/>
	<path id="XMLID_14_" class="st1" d="M131.1,30.8h1.2v3.7h-1.2V30.8z"/>
	<path id="XMLID_15_" class="st1" d="M125,30.8h1.2v3.7H125V30.8z"/>
	<path id="XMLID_16_" class="st1" d="M127.9,30.8h1.2v3.7h-1.2C127.9,34.5,127.9,30.8,127.9,30.8z"/>
</g>
<g id="XMLID_9907_">
	<g>
		<path class="st0" d="M152.1,0L152,0.9h0.4c0.6,0,0.9,0.1,1.1,0.3c0.1,0.2,0.1,0.7,0.1,1.3L152.1,13c-0.1,0.7-0.2,1.1-0.5,1.3
			c-0.2,0.2-0.6,0.3-1.1,0.3h-0.4l-0.1,0.8h5.4l0.1-0.9h-0.4c-0.6,0-0.9-0.1-1.1-0.3c-0.1-0.2-0.1-0.6,0-1.2l1.4-10.3
			c0.1-0.8,0.3-1.3,0.5-1.5s0.5-0.3,1-0.3h0.4l0.2-0.9C157.5,0,152.1,0,152.1,0z"/>
	</g>
</g>
<g id="XMLID_17_">
	<g>
		<path class="st1" d="M152.1,20l-0.1,0.9h0.4c0.6,0,0.9,0.1,1.1,0.3c0.1,0.2,0.1,0.7,0.1,1.3L152.1,33c-0.1,0.7-0.2,1.1-0.5,1.3
			c-0.2,0.2-0.6,0.3-1.1,0.3h-0.4l-0.1,0.8h5.4l0.1-0.9h-0.4c-0.6,0-0.9-0.1-1.1-0.3c-0.1-0.2-0.1-0.6,0-1.2l1.4-10.3
			c0.1-0.8,0.3-1.3,0.5-1.5s0.5-0.3,1-0.3h0.4l0.2-0.9C157.5,20,152.1,20,152.1,20z"/>
	</g>
</g>
<g id="XMLID_9910_">
	<path id="XMLID_9921_" class="st0" d="M180,0h5v0.8h-0.3c-0.5,0-0.9,0.1-1.1,0.2c-0.2,0.2-0.2,0.5-0.2,1v5.8c0,1.1,0.1,1.9,0.4,2.4
		c0.3,0.5,0.7,0.9,1.3,1.2s1.2,0.4,1.8,0.4c0.7,0,1.3-0.2,1.9-0.5c0.6-0.3,1.1-0.7,1.4-1.2s0.5-1.3,0.5-2.5V2.1
		c0-0.5-0.1-0.9-0.2-1.1c-0.2-0.2-0.5-0.3-1-0.3h-0.4v-0.8h4.4v0.8h-0.3c-0.5,0-0.8,0.1-1,0.3s-0.3,0.5-0.3,1v5.9
		c0,1.6-0.5,2.8-1.5,3.7s-2.2,1.3-3.7,1.3c-1.3,0-2.5-0.4-3.5-1.2s-1.6-1.9-1.5-3.5V1.9c0-0.5-0.1-0.9-0.2-1.1c-0.2,0.1-0.5,0-1,0
		H180V0z"/>
	<path id="XMLID_9919_" class="st0" d="M181.8,15.5v-1.2h9.9v1.2H181.8z"/>
</g>
<g id="XMLID_20_">
	<path id="XMLID_18_" class="st1" d="M180,20h5v0.8h-0.3c-0.5,0-0.9,0.1-1.1,0.2c-0.2,0.2-0.2,0.5-0.2,1v5.8c0,1.1,0.1,1.9,0.4,2.4
		s0.7,0.9,1.3,1.2c0.6,0.3,1.2,0.4,1.8,0.4c0.7,0,1.3-0.2,1.9-0.5c0.6-0.3,1.1-0.7,1.4-1.2s0.5-1.3,0.5-2.5v-5.5
		c0-0.5-0.1-0.9-0.2-1.1c-0.2-0.2-0.5-0.3-1-0.3h-0.4v-0.8h4.4v0.8h-0.3c-0.5,0-0.8,0.1-1,0.3c-0.2,0.2-0.3,0.5-0.3,1v5.9
		c0,1.6-0.5,2.8-1.5,3.7s-2.2,1.3-3.7,1.3c-1.3,0-2.5-0.4-3.5-1.2s-1.6-1.9-1.5-3.5v-6.3c0-0.5-0.1-0.9-0.2-1.1c-0.2,0.1-0.5,0-1,0
		H180V20z"/>
	<path id="XMLID_19_" class="st1" d="M181.8,35.5v-1.2h9.9v1.2H181.8z"/>
</g>
<g id="XMLID_9909_">
	<path id="XMLID_9906_" class="st0" d="M211.3,2c0.3,0,0.5,0,0.6,0.1c0.1,0,0.2,0.1,0.3,0.1c0.1,0.1,0.1,1.1,0.1,1.2
		c0,0.1,0-0.8,0-0.7v10.2c0,0.5-0.1-0.2-0.2-0.1c-0.1,0.2-0.3,0.3-0.6,0.4l-1.4,0.3V15h1.7c0.8,0,1.6,0,2.5,0c0.8,0,1.6,0,2.5,0
		s1.7-0.1,2.5-0.3s1.5-0.5,2-0.9c0.6-0.4,1-0.9,1.4-1.4c0.3-0.6,0.5-1.2,0.5-1.8c0-1.2-0.3-2.1-1-2.7s-1.7-1.1-2.9-1.4
		c0.9-0.3,1.5-0.7,2-1.2s0.7-1.1,0.7-1.7s-0.1-1.1-0.4-1.6c-0.3-0.4-0.7-0.8-1.1-1.1c-0.5-0.4-1-0.6-1.7-0.7S217.4,0,216.6,0
		c-0.3,0-0.8,0-1.7,0.1c-0.9,0-2.1,0.1-3.5,0.1L210,0.3v1.5L211.3,2z M214.6,1.9c0.6-0.1,1.1-0.2,1.8-0.2c1,0,1.8,0.2,2.4,0.7
		c0.6,0.5,0.9,1.1,0.9,2c0,1-0.3,0.7-0.9,1.3c-0.5,0.6-1.6,0.3-2.6,0.3s-0.8,0-1,0L214.6,1.9z M216.2,8C216.6,8,216,8,216.2,8
		c2.9,0,4,0.6,4,3c0,0.5,0.4-1.2,0.2-0.8s-0.4,1.8-0.7,2.1c-0.3,0.3-0.7,0.6-1.1,0.7c-0.4,0.2-0.9,0.3-1.4,0.3c-0.9,0-1.5-0.1-2-0.4
		c-0.5-0.3-0.7,0.3-0.7-0.3l0.7-4.6C215.6,8,215.9,8,216.2,8z"/>
</g>
<g id="XMLID_22_">
	<path id="XMLID_21_" class="st1" d="M211.3,22c0.3,0,0.5,0,0.6,0.1c0.1,0,0.2,0.1,0.3,0.1c0.1,0.1,0.1,1.1,0.1,1.2s0-0.8,0-0.7
		v10.2c0,0.5-0.1-0.2-0.2-0.1c-0.1,0.2-0.3,0.3-0.6,0.4l-1.4,0.3V35h1.7c0.8,0,1.6,0,2.5,0c0.8,0,1.6,0,2.5,0s1.7-0.1,2.5-0.3
		s1.5-0.5,2-0.9c0.6-0.4,1-0.9,1.4-1.4c0.3-0.6,0.5-1.2,0.5-1.8c0-1.2-0.3-2.1-1-2.7s-1.7-1.1-2.9-1.4c0.9-0.3,1.5-0.7,2-1.2
		s0.7-1.1,0.7-1.7s-0.1-1.1-0.4-1.6c-0.3-0.4-0.7-0.8-1.1-1.1c-0.5-0.4-1-0.6-1.7-0.7s-1.4-0.2-2.2-0.2c-0.3,0-0.8,0-1.7,0.1
		c-0.9,0-2.1,0.1-3.5,0.1l-1.4,0.1v1.5L211.3,22z M214.6,21.9c0.6-0.1,1.1-0.2,1.8-0.2c1,0,1.8,0.2,2.4,0.7c0.6,0.5,0.9,1.1,0.9,2
		c0,1-0.3,0.7-0.9,1.3c-0.5,0.6-1.6,0.3-2.6,0.3s-0.8,0-1,0L214.6,21.9z M216.2,28C216.6,28,216,28,216.2,28c2.9,0,4,0.6,4,3
		c0,0.5,0.4-1.2,0.2-0.8c-0.2,0.4-0.4,1.8-0.7,2.1s-0.7,0.6-1.1,0.7c-0.4,0.2-0.9,0.3-1.4,0.3c-0.9,0-1.5-0.1-2-0.4
		c-0.5-0.3-0.7,0.3-0.7-0.3l0.7-4.6C215.6,28,215.9,28,216.2,28z"/>
</g>
<g>
	<polygon id="XMLID_9941_" class="st0" points="241.4,16.3 240,16.3 240,0 241.4,0 	"/>
	<polygon id="XMLID_9939_" class="st0" points="253.8,15 243.4,15 243.4,13.5 253.8,13.4 	"/>
	<polygon id="XMLID_9937_" class="st0" points="253.8,11.7 243.4,11.7 243.4,10 253.8,10.1 	"/>
	<polygon id="XMLID_9935_" class="st0" points="252.5,5.4 244.7,5.4 244.7,4 252.5,4.1 	"/>
	<polygon id="XMLID_9933_" class="st0" points="257.1,16.3 255.9,16.3 255.8,0 257.2,0 	"/>
	<polygon id="XMLID_9931_" class="st0" points="245.9,8.4 242.3,4.7 245.6,1.1 246.8,2.2 243.8,4.7 247,7.1 	"/>
	<polygon id="XMLID_9915_" class="st0" points="251.4,8.3 250.2,7.1 253.3,4.7 250.1,2.3 251.3,1 254.9,4.7 	"/>
</g>
<g>
	<polygon id="XMLID_23_" class="st1" points="241.4,36.3 240,36.3 240,20 241.4,20 	"/>
	<polygon id="XMLID_24_" class="st1" points="253.8,35 243.4,35 243.4,33.5 253.8,33.4 	"/>
	<polygon id="XMLID_25_" class="st1" points="253.8,31.7 243.4,31.7 243.4,30 253.8,30.1 	"/>
	<polygon id="XMLID_26_" class="st1" points="252.5,25.4 244.7,25.4 244.7,24 252.5,24.1 	"/>
	<polygon id="XMLID_27_" class="st1" points="257.1,36.3 255.9,36.3 255.8,20 257.2,20 	"/>
	<polygon id="XMLID_28_" class="st1" points="245.9,28.4 242.3,24.7 245.6,21.1 246.8,22.2 243.8,24.7 247,27.1 	"/>
	<polygon id="XMLID_29_" class="st1" points="251.4,28.3 250.2,27.1 253.3,24.7 250.1,22.3 251.3,21 254.9,24.7 	"/>
</g>
<g id="XMLID_9912_">
	<g>
		<path class="st0" d="M278.8,7.3h7.5V5.5h-7.5V7.3z M278.8,15.5h7.5v-1.7h-7.5V15.5z M278.8,1.3v1.9h7.5V1.3H278.8z M278.8,11.5
			h7.5V9.8h-7.5V11.5z M276.5,5.1l1-1.4L273.7,0L270,3.7l0.9,1.4l2.3-2.4l0.1,11.2l-2.1-2.1L270,13l3.7,3.7l3.8-3.7l-1.2-1.3l-2,2.3
			l0.1-11.3L276.5,5.1z M273.7,2l0.4,0.4h-0.8L273.7,2z M273.9,14.6l-0.3-0.3h0.6L273.9,14.6z"/>
	</g>
</g>
<g id="XMLID_30_">
	<g>
		<path class="st1" d="M278.8,27.3h7.5v-1.8h-7.5V27.3z M278.8,35.5h7.5v-1.7h-7.5V35.5z M278.8,21.3v1.9h7.5v-1.9H278.8z
			 M278.8,31.5h7.5v-1.7h-7.5V31.5z M276.5,25.1l1-1.4l-3.8-3.7l-3.7,3.7l0.9,1.4l2.3-2.4l0.1,11.2l-2.1-2.1L270,33l3.7,3.7l3.8-3.7
			l-1.2-1.3l-2,2.3l0.1-11.3L276.5,25.1z M273.7,22l0.4,0.4h-0.8L273.7,22z M273.9,34.6l-0.3-0.3h0.6L273.9,34.6z"/>
	</g>
</g>
<g id="XMLID_9958_">
	<g>
		<polygon class="st2" points="312.7,0 308.3,9.8 303.6,0 300,0 306.9,14.5 308.5,14.5 314.9,0 		"/>
	</g>
</g>
<path id="XMLID_9962_" class="st3" d="M300,20l6.9,14.5h1.6l6.4-14.5h-2.3l-4.3,9.8l-4.7-9.8H300z"/>
<path id="XMLID_9280_" class="st0" d="M345,0h-5.9v12.2h5.9V0z M343.4,10.6h-2.7v-9h2.7V10.6z M337.5,3.1h-6v9.1h5.9V3.1H337.5z
	 M335.9,10.6h-2.8V4.7h2.7L335.9,10.6L335.9,10.6z M330,15.4h2.5v-1.6H330V15.4z M335.1,15.4h6.4v-1.6h-6.4V15.4z M344,15.4h2.5
	v-1.6H344V15.4z"/>
<path id="XMLID_9168_" class="st0" d="M375,5.3V0h-5.9v5.3h-1.6V1.5h-6v3.7H360v1.6h1.5v3.7h5.9V6.9h1.6v5.3h6V6.9h1.5V5.3H375z
	 M365.9,5.3h-0.8v1.6h0.8V9h-2.8V3.2h2.7L365.9,5.3L365.9,5.3z M373.4,10.6h-2.7V6.9h0.8V5.3h-0.8V1.6h2.7V10.6z"/>
<g>
	<path id="XMLID_9164_" class="st0" d="M391.5,3.2v12.2h5.9V3.2H391.5z M395.9,13.7h-2.8V4.8h2.7L395.9,13.7L395.9,13.7z"/>
	<path id="XMLID_9161_" class="st0" d="M399.1,3.2v9.1h5.9V3.2H399.1z M403.4,10.7h-2.7V4.8h2.7V10.7z"/>
	<rect id="XMLID_9363_" x="404" class="st0" width="2.5" height="1.6"/>
	<rect id="XMLID_9362_" x="395.1" class="st0" width="6.4" height="1.6"/>
	<rect id="XMLID_9361_" x="390" class="st0" width="2.5" height="1.6"/>
</g>
<g>
	<path id="XMLID_9158_" class="st0" d="M410,1.5v6.1h11.9V1.5H410z M420.3,6h-8.7V3.2h8.7V6z"/>
	<path id="XMLID_9155_" class="st0" d="M413,9.4v6.1h8.9V9.4H413z M420.3,13.8h-5.7V11h5.7V13.8z"/>
	<rect id="XMLID_9350_" x="423.4" y="14.3" class="st0" width="1.6" height="2.6"/>
	<rect id="XMLID_9349_" x="423.4" y="5.2" class="st0" width="1.6" height="6.5"/>
	<rect id="XMLID_9348_" x="423.4" class="st0" width="1.6" height="2.6"/>
</g>
<path id="XMLID_9152_" class="st0" d="M446.8,9.3V7.6h3.7V1.5h-3.7V0h-1.6v1.5h-3.7v6.1h3.7v1.7H440v6.1h5.2v1.5h1.6v-1.5h5.2V9.3
	H446.8z M443.1,6V3.2h5.7V6h-2V5.2h-1.6V6H443.1z M450.3,13.7h-8.7v-2.8h3.6v0.8h1.6v-0.8h3.6v2.8H450.3z"/>
<g>
	<path id="XMLID_9142_" class="st0" d="M473.1,9.4v6.1H485V9.4H473.1z M483.4,13.8h-8.7V11h8.7V13.8z"/>
	<path id="XMLID_9129_" class="st0" d="M473.1,1.5v6.1h8.9V1.5H473.1z M480.4,6h-5.7V3.2h5.7V6z"/>
	<rect id="XMLID_9341_" x="470" class="st0" width="1.6" height="2.6"/>
	<rect id="XMLID_9340_" x="470" y="5.2" class="st0" width="1.6" height="6.5"/>
	<rect id="XMLID_9301_" x="470" y="14.3" class="st0" width="1.6" height="2.6"/>
</g>
<g>
	<path id="XMLID_9114_" class="st0" d="M508.8,3.9v9h7.1v-9C515.9,3.9,508.8,3.9,508.8,3.9z M514.3,11.4H513v-5h-1.5v5h-1.3v-6h4
		L514.3,11.4L514.3,11.4z"/>
	<path id="XMLID_9118_" class="st0" d="M500,3.9v9h7.1v-9C507.1,3.9,500,3.9,500,3.9z M505.5,11.4h-1.2v-5h-1.5v5h-1.3v-6h4V11.4z"
		/>
	<rect id="XMLID_9294_" x="511.6" class="st0" width="1.5" height="3.3"/>
	<rect id="XMLID_9293_" x="511.6" y="14.3" class="st0" width="1.5" height="2.6"/>
	<rect id="XMLID_9292_" x="502.8" class="st0" width="1.5" height="3.3"/>
	<rect id="XMLID_9291_" x="502.8" y="14.3" class="st0" width="1.5" height="2.6"/>
</g>
<g>
	<path id="XMLID_9111_" class="st0" d="M533.9,9v7.2h8.8V9H533.9z M541.2,14.6h-5.8v-1.3h4.9v-1.5h-4.9v-1.3h5.8V14.6z"/>
	<path id="XMLID_8890_" class="st0" d="M533.9,0v7.2h8.8V0H533.9z M541.2,5.7h-5.8V4.4h4.9V2.8h-4.9V1.5h5.8V5.7z"/>
	<rect id="XMLID_9284_" x="543.3" y="11.8" class="st0" width="3.2" height="1.5"/>
	<rect id="XMLID_9283_" x="530" y="11.8" class="st0" width="2.5" height="1.5"/>
	<rect id="XMLID_9282_" x="543.3" y="2.8" class="st0" width="3.2" height="1.5"/>
	<rect id="XMLID_9281_" x="530" y="2.8" class="st0" width="2.5" height="1.5"/>
</g>
<g>
	<g id="XMLID_1076_">
		<path class="st4" d="M572,14.4c-3.9,0-6.8-3.1-8.4-6.1l-2.9,0.6l2.6-8l5.7,6.2l-2.3,0.6c1.1,1.9,3,3.8,5.3,3.8s4.1-1.9,5.3-3.8
			l-2.4-0.5l5.7-6.2l2.6,8l-2.9-0.6C578.8,11.4,575.9,14.4,572,14.4z"/>
		<path class="st5" d="M580.4,1.9l0.3,0.8l1.5,4.7l0.3,0.8L581.6,8L580,7.7c-1.4,2.9-4.2,6.2-8.1,6.2c-3.9,0-6.7-3.3-8.1-6.2
			l-1.5,0.4l-0.8,0.2l0.3-0.8l1.5-4.7l0.3-0.8l0.6,0.6l3.4,3.7l0.6,0.6L567.3,7l-1.4,0.3c1.2,2.3,3.4,4.7,6.1,4.7s4.9-2.4,6-4.6
			L576.7,7l-0.9-0.2l0.6-0.6l3.4-3.7L580.4,1.9 M580.8,0l-1.2,1.2L579,1.8l-3.4,3.7L575,6.1l-1.2,1.3l1.7,0.4l1,0.2
			c-1.1,1.6-2.7,3-4.5,3s-3.4-1.4-4.5-3l0.8-0.2l1.7-0.3l-1.2-1.3l-0.5-0.7l-3.4-3.6l-0.6-0.7L563.1,0l-0.5,1.6l-0.3,0.8l-1.5,4.8
			L560.5,8L560,9.6l1.7-0.4l0.9-0.2l0.8-0.2c1.6,3,4.6,6.1,8.6,6.1s7-3,8.6-6.1l0.8,0.2l0.9,0.2l1.7,0.4L583.4,8l-0.3-0.8l-1.5-4.7
			l-0.3-0.8L580.8,0L580.8,0z"/>
	</g>
</g>
<g>
	<g id="XMLID_1183_">
		<path class="st6" d="M572,34.4c-3.9,0-6.8-3.1-8.4-6.1l-2.9,0.6l2.6-8l5.7,6.2l-2.3,0.6c1.1,1.9,3,3.8,5.3,3.8
			c2.2,0,4.1-1.9,5.3-3.8l-2.4-0.5l5.7-6.2l2.6,8l-2.9-0.6C578.8,31.4,575.9,34.4,572,34.4z"/>
		<path class="st5" d="M580.4,21.9l0.3,0.8l1.5,4.7l0.3,0.8l-0.9-0.2l-1.6-0.3c-1.4,2.9-4.2,6.2-8.1,6.2c-3.9,0-6.7-3.3-8.1-6.2
			l-1.5,0.4l-0.8,0.2l0.3-0.8l1.5-4.7l0.3-0.8l0.6,0.6l3.4,3.7l0.6,0.6l-0.9,0.1l-1.4,0.3c1.2,2.3,3.4,4.7,6.1,4.7s4.9-2.4,6-4.6
			l-1.3-0.4l-0.9-0.2l0.6-0.6l3.4-3.7L580.4,21.9 M580.8,20l-1.2,1.2l-0.6,0.6l-3.4,3.7l-0.6,0.6l-1.2,1.3l1.7,0.4l1,0.2
			c-1.1,1.6-2.7,3-4.5,3s-3.4-1.4-4.5-3l0.8-0.2l1.7-0.3l-1.2-1.3l-0.5-0.7l-3.4-3.6l-0.6-0.7l-1.2-1.2l-0.5,1.6l-0.3,0.8l-1.5,4.8
			l-0.3,0.8l-0.5,1.6l1.7-0.4l0.9-0.2l0.8-0.2c1.6,3,4.6,6.1,8.6,6.1s7-3,8.6-6.1l0.8,0.2l0.9,0.2l1.7,0.4l-0.6-1.6l-0.3-0.8
			l-1.5-4.7l-0.3-0.8L580.8,20L580.8,20z"/>
	</g>
</g>
</svg>
