<?xml version="1.0" encoding="UTF-8"?>
<svg width="20px" height="40px" viewBox="0 0 20 40" version="1.1" xmlns="http://www.w3.org/2000/svg" xmlns:xlink="http://www.w3.org/1999/xlink">
    <!-- Generator: Sketch 44.1 (41455) - http://www.bohemiancoding.com/sketch -->
    <title>Artboard 7@2x</title>
    <desc>Created with Sketch.</desc>
    <defs>
        <linearGradient x1="0%" y1="0%" x2="101.999998%" y2="100.999999%" id="linearGradient-1">
            <stop stop-color="#5EA2FF" offset="0%"></stop>
            <stop stop-color="#00D5FF" offset="62.5956633%"></stop>
            <stop stop-color="#00E3FF" offset="100%"></stop>
        </linearGradient>
    </defs>
    <g id="Symbols" stroke="none" stroke-width="1" fill="none" fill-rule="evenodd">
        <g id="Artboard-7"></g>
        <g id="斜体" fill="#626262">
            <g id="Page-1" transform="translate(5.000000, 2.000000)">
                <path d="M2.99530078,0.734011719 C4.10205859,0.754890625 5.22967578,0.817527344 6.33643359,0.817527344 C7.31789844,0.817527344 8.32024219,0.754890625 9.38526172,0.733953125 L9.28084766,1.36041797 C8.04879687,1.38131641 7.547625,1.42305469 7.35969531,2.42541797 L5.60557422,11.7179961 C5.33412891,13.1797539 5.27147266,13.6182695 5.27147266,13.9106328 C5.27147266,14.5997344 5.73088672,14.6623711 6.94203906,14.68325 L6.85850391,15.3097148 C5.93967578,15.2888359 4.81205859,15.2261992 3.70530078,15.2261992 C2.72385547,15.2261992 1.72149219,15.2888359 0.614734375,15.3097148 L0.719167969,14.68325 C1.97207812,14.6623711 2.47325,14.6206133 2.70295703,13.3467852 L4.39442187,4.34657031 C4.66588672,2.86393359 4.72854297,2.42541797 4.72854297,2.13305469 C4.72854297,1.44395312 4.12295703,1.38131641 2.91178516,1.36041797 L2.99530078,0.734011719 Z" id="Fill-1"></path>
            </g>
        </g>
        <g id="斜体-copy" transform="translate(0.000000, 20.000000)" fill="url(#linearGradient-1)">
            <g id="Page-1" transform="translate(5.000000, 2.000000)">
                <path d="M2.99530078,0.734011719 C4.10205859,0.754890625 5.22967578,0.817527344 6.33643359,0.817527344 C7.31789844,0.817527344 8.32024219,0.754890625 9.38526172,0.733953125 L9.28084766,1.36041797 C8.04879687,1.38131641 7.547625,1.42305469 7.35969531,2.42541797 L5.60557422,11.7179961 C5.33412891,13.1797539 5.27147266,13.6182695 5.27147266,13.9106328 C5.27147266,14.5997344 5.73088672,14.6623711 6.94203906,14.68325 L6.85850391,15.3097148 C5.93967578,15.2888359 4.81205859,15.2261992 3.70530078,15.2261992 C2.72385547,15.2261992 1.72149219,15.2888359 0.614734375,15.3097148 L0.719167969,14.68325 C1.97207812,14.6623711 2.47325,14.6206133 2.70295703,13.3467852 L4.39442187,4.34657031 C4.66588672,2.86393359 4.72854297,2.42541797 4.72854297,2.13305469 C4.72854297,1.44395312 4.12295703,1.38131641 2.91178516,1.36041797 L2.99530078,0.734011719 Z" id="Fill-1"></path>
            </g>
        </g>
    </g>
</svg>