<?xml version="1.0" encoding="UTF-8"?>
<svg width="24px" height="24px" viewBox="0 0 24 24" version="1.1" xmlns="http://www.w3.org/2000/svg" xmlns:xlink="http://www.w3.org/1999/xlink">
    <!-- Generator: Sketch 46.2 (44496) - http://www.bohemiancoding.com/sketch -->
    <title>锁定 copy@2x</title>
    <desc>Created with Sketch.</desc>
    <defs>
        <linearGradient x1="0%" y1="0%" x2="101.999998%" y2="100.999999%" id="linearGradient-1">
            <stop stop-color="#5EA2FF" offset="0%"></stop>
            <stop stop-color="#00D5FF" offset="62.5956633%"></stop>
            <stop stop-color="#00E3FF" offset="100%"></stop>
        </linearGradient>
    </defs>
    <g id="Symbols" stroke="none" stroke-width="1" fill="none" fill-rule="evenodd">
        <g id="锁定-copy">
            <g id="解锁" transform="translate(5.000000, 3.000000)" fill="url(#linearGradient-1)">
                <g id="Group-4" transform="translate(0.203125, 0.347656)">
                    <path d="M1.25113281,14.9321875 L12.3426172,14.9321875 L12.3426172,7.088125 L1.25113281,7.088125 L1.25113281,14.9321875 Z M3.043125,5.838125 L3.043125,4.35693359 C3.043125,2.64375 4.436875,1.25 6.15003906,1.25 L7.44371094,1.25 C9.14261393,1.25 10.5273986,2.6206423 10.5503359,4.31419786 C10.5505284,4.32841405 10.550625,5.82386393 10.550625,5.838125 L11.800625,5.838125 C11.800625,5.8219841 11.8005378,4.32464567 11.8003637,4.3085321 C11.787983,3.16284689 11.3360278,2.08761009 10.5245117,1.27611328 C9.70160156,0.453203125 8.60748047,0 7.44371094,0 L6.15003906,0 C4.98626953,0 3.89214844,0.453203125 3.06923828,1.27611328 C2.24630859,2.09904297 1.793125,3.19314453 1.793125,4.35693359 L1.793125,5.838125 L0.0011328125,5.838125 L0.0011328125,16.1821875 L13.5926172,16.1821875 L13.5926172,5.838125 L3.043125,5.838125 Z" id="Fill-1"></path>
                    <path d="M6.796875,9.25601953 C7.31380859,9.25601953 7.734375,9.67656641 7.734375,10.1935195 C7.734375,10.7104727 7.31380859,11.1310195 6.796875,11.1310195 C6.27994141,11.1310195 5.859375,10.7104727 5.859375,10.1935195 C5.859375,9.67656641 6.27994141,9.25601953 6.796875,9.25601953 M6.171875,12.2898867 L6.171875,14.060707 L7.421875,14.060707 L7.421875,12.2898867 C8.32447266,12.0203164 8.984375,11.1826016 8.984375,10.1935195 C8.984375,8.98732813 8.00306641,8.00601953 6.796875,8.00601953 C5.59068359,8.00601953 4.609375,8.98732813 4.609375,10.1935195 C4.609375,11.1826016 5.26927734,12.0203164 6.171875,12.2898867" id="Fill-3"></path>
                </g>
            </g>
            <circle id="Oval-7" stroke="url(#linearGradient-1)" cx="12" cy="12" r="11"></circle>
        </g>
    </g>
</svg>