<?xml version="1.0" encoding="UTF-8"?>
<svg width="20px" height="40px" viewBox="0 0 20 40" version="1.1" xmlns="http://www.w3.org/2000/svg" xmlns:xlink="http://www.w3.org/1999/xlink">
    <!-- Generator: Sketch 44.1 (41455) - http://www.bohemiancoding.com/sketch -->
    <title>Artboard</title>
    <desc>Created with Sketch.</desc>
    <defs>
        <linearGradient x1="36.9723689%" y1="4.2109933%" x2="59.4141124%" y2="75.8431893%" id="linearGradient-1">
            <stop stop-color="#5EA2FF" offset="0%"></stop>
            <stop stop-color="#00D5FF" offset="62.5956633%"></stop>
            <stop stop-color="#00E3FF" offset="100%"></stop>
        </linearGradient>
    </defs>
    <g id="Symbols" stroke="none" stroke-width="1" fill="none" fill-rule="evenodd">
        <g id="图层置底" fill="#626262">
            <g transform="translate(2.000000, 3.000000)">
                <polygon id="Fill-1" points="0.506289062 13.8961523 8.54285156 13.8961523 8.54285156 12.6461523 0.506289062 12.6461523"></polygon>
                <polygon id="Fill-2" points="0.506289062 9.72962891 8.54285156 9.72962891 8.54285156 8.47962891 0.506289062 8.47962891"></polygon>
                <polygon id="Fill-3" points="0.506289062 5.56308594 8.54285156 5.56308594 8.54285156 4.31308594 0.506289062 4.31308594"></polygon>
                <polygon id="Fill-4" points="0.506289062 1.3965625 15.4974805 1.3965625 15.4974805 0.1465625 0.506289062 0.1465625"></polygon>
                <polygon id="Fill-5" points="15.1396152 10.070832 13.0037559 12.2066914 13.0037559 2.85251172 11.7537559 2.85251172 11.7537559 12.0521406 9.61789648 9.91628125 8.73400977 10.800168 12.456041 14.5221797 16.023502 10.9547188"></polygon>
            </g>
        </g>
        <g id="图层置底-copy" transform="translate(0.000000, 20.000000)" fill="url(#linearGradient-1)">
            <g id="图层置底" transform="translate(2.000000, 3.000000)">
                <polygon id="Fill-1" points="0.506289062 13.8961523 8.54285156 13.8961523 8.54285156 12.6461523 0.506289062 12.6461523"></polygon>
                <polygon id="Fill-2" points="0.506289062 9.72962891 8.54285156 9.72962891 8.54285156 8.47962891 0.506289062 8.47962891"></polygon>
                <polygon id="Fill-3" points="0.506289062 5.56308594 8.54285156 5.56308594 8.54285156 4.31308594 0.506289062 4.31308594"></polygon>
                <polygon id="Fill-4" points="0.506289062 1.3965625 15.4974805 1.3965625 15.4974805 0.1465625 0.506289062 0.1465625"></polygon>
                <polygon id="Fill-5" points="15.1396152 10.070832 13.0037559 12.2066914 13.0037559 2.85251172 11.7537559 2.85251172 11.7537559 12.0521406 9.61789648 9.91628125 8.73400977 10.800168 12.456041 14.5221797 16.023502 10.9547188"></polygon>
            </g>
        </g>
        <g id="Artboard"></g>
    </g>
</svg>