<?xml version="1.0" encoding="UTF-8"?>
<svg width="20px" height="20px" viewBox="0 0 20 20" version="1.1" xmlns="http://www.w3.org/2000/svg" xmlns:xlink="http://www.w3.org/1999/xlink">
    <!-- Generator: Sketch 44.1 (41455) - http://www.bohemiancoding.com/sketch -->
    <title>上移图层@2x</title>
    <desc>Created with Sketch.</desc>
    <defs></defs>
    <g id="Symbols" stroke="none" stroke-width="1" fill="none" fill-rule="evenodd">
        <g id="上移图层" fill="#626262">
            <g transform="translate(2.000000, 2.000000)">
                <polygon id="Fill-1" points="0.506289062 14.8726367 15.4974805 14.8726367 15.4974805 13.6226367 0.506289062 13.6226367"></polygon>
                <polygon id="Fill-2" points="0.506289062 10.7061133 8.54285156 10.7061133 8.54285156 9.45611328 0.506289062 9.45611328"></polygon>
                <path d="M11.6421484,4.67266797 C10.7539258,3.78444531 9.57298828,3.29528516 8.316875,3.29528516 L6.34449219,3.29528516 L8.40306641,1.23671094 L7.51917969,0.352824219 L3.95171875,3.92028516 L7.67373047,7.64229687 L8.55761719,6.75842969 L6.34449219,4.54528516 L8.316875,4.54528516 C10.2206641,4.54528516 11.7695313,6.09415234 11.7695313,7.99796094 L11.7695313,11.7369844 L13.0195313,11.7369844 L13.0195313,7.99796094 C13.0195313,6.74182812 12.5303711,5.56089062 11.6421484,4.67266797" id="Fill-3"></path>
            </g>
        </g>
    </g>
</svg>