<?xml version="1.0" encoding="UTF-8"?>
<svg width="20px" height="20px" viewBox="0 0 20 20" version="1.1" xmlns="http://www.w3.org/2000/svg" xmlns:xlink="http://www.w3.org/1999/xlink">
    <!-- Generator: Sketch 44.1 (41455) - http://www.bohemiancoding.com/sketch -->
    <title>下移图层@2x</title>
    <desc>Created with Sketch.</desc>
    <defs></defs>
    <g id="Symbols" stroke="none" stroke-width="1" fill="none" fill-rule="evenodd">
        <g id="下移图层" fill="#626262">
            <g transform="translate(2.000000, 3.000000)">
                <polygon id="Fill-1" points="0.506289062 1.43544922 15.4974805 1.43544922 15.4974805 0.185449219 0.506289062 0.185449219"></polygon>
                <polygon id="Fill-2" points="0.506289062 5.60199219 8.54285156 5.60199219 8.54285156 4.35199219 0.506289062 4.35199219"></polygon>
                <path d="M11.7695313,7.06014844 C11.7695313,8.96395703 10.2206641,10.5128047 8.316875,10.5128047 L6.34449219,10.5128047 L8.55761719,8.29967969 L7.67373047,7.41579297 L3.95171875,11.1378047 L7.51917969,14.7052852 L8.40306641,13.8213984 L6.34449219,11.7628047 L8.316875,11.7628047 C9.57298828,11.7628047 10.7539258,11.2736445 11.6421484,10.3854219 C12.5303711,9.49721875 13.0195313,8.31626172 13.0195313,7.06014844 L13.0195313,3.321125 L11.7695313,3.321125 L11.7695313,7.06014844 Z" id="Fill-3"></path>
            </g>
        </g>
    </g>
</svg>