<?xml version="1.0" encoding="UTF-8"?>
<svg width="20px" height="40px" viewBox="0 0 20 40" version="1.1" xmlns="http://www.w3.org/2000/svg" xmlns:xlink="http://www.w3.org/1999/xlink">
    <!-- Generator: Sketch 44.1 (41455) - http://www.bohemiancoding.com/sketch -->
    <title>Artboard 2@2x</title>
    <desc>Created with Sketch.</desc>
    <defs>
        <linearGradient x1="0%" y1="0%" x2="101.999998%" y2="100.999999%" id="linearGradient-1">
            <stop stop-color="#5EA2FF" offset="0%"></stop>
            <stop stop-color="#00D5FF" offset="62.5956633%"></stop>
            <stop stop-color="#00E3FF" offset="100%"></stop>
        </linearGradient>
    </defs>
    <g id="Symbols" stroke="none" stroke-width="1" fill="none" fill-rule="evenodd">
        <g id="透明度" fill="#626262">
            <g transform="translate(2.000000, 2.000000)">
                <path d="M12.569082,14.357832 L12.569082,12.569082 L10.7414453,12.569082 L10.7414453,14.357832 L8.91380859,14.357832 L8.91380859,12.569082 L7.08619141,12.569082 L7.08619141,14.357832 L5.25855469,14.357832 L5.25855469,12.569082 L3.43091797,12.569082 L3.43091797,14.357832 L1.64216797,14.357832 L1.64216797,12.569082 L3.43091797,12.569082 L3.43091797,10.7414453 L1.64216797,10.7414453 L1.64216797,8.91382812 L3.43091797,8.91382812 L3.43091797,7.08617187 L1.64216797,7.08617187 L1.64216797,5.25855469 L3.43091797,5.25855469 L3.43091797,3.43091797 L1.64216797,3.43091797 L1.64216797,1.64216797 L3.43091797,1.64216797 L3.43091797,3.43091797 L5.25855469,3.43091797 L5.25855469,1.64216797 L7.08619141,1.64216797 L7.08619141,3.43091797 L8.91380859,3.43091797 L8.91380859,1.64216797 L10.7414453,1.64216797 L10.7414453,3.43091797 L12.569082,3.43091797 L12.569082,1.64216797 L14.357832,1.64216797 L14.357832,3.43091797 L12.569082,3.43091797 L12.569082,5.25855469 L14.357832,5.25855469 L14.357832,7.08617187 L12.569082,7.08617187 L12.569082,8.91382812 L14.357832,8.91382812 L14.357832,10.7414453 L12.569082,10.7414453 L12.569082,12.569082 L14.357832,12.569082 L14.357832,14.357832 L12.569082,14.357832 Z M0.548417969,15.451582 L15.451582,15.451582 L15.451582,0.548417969 L0.548417969,0.548417969 L0.548417969,15.451582 Z" id="Fill-1"></path>
                <polygon id="Fill-2" points="5.25855469 5.25855469 7.08619141 5.25855469 7.08619141 3.43091797 5.25855469 3.43091797"></polygon>
                <polygon id="Fill-3" points="8.91380859 5.25855469 10.7414453 5.25855469 10.7414453 3.43091797 8.91380859 3.43091797"></polygon>
                <polygon id="Fill-4" points="3.43091797 7.08619141 5.25855469 7.08619141 5.25855469 5.25855469 3.43091797 5.25855469"></polygon>
                <polygon id="Fill-5" points="7.08619141 7.08617187 8.91382812 7.08617187 8.91382812 5.25853516 7.08619141 5.25853516"></polygon>
                <polygon id="Fill-6" points="10.7414453 7.08617187 12.569082 7.08617187 12.569082 5.25853516 10.7414453 5.25853516"></polygon>
                <polygon id="Fill-7" points="5.25855469 8.91380859 7.08619141 8.91380859 7.08619141 7.08617187 5.25855469 7.08617187"></polygon>
                <polygon id="Fill-8" points="8.91380859 8.91380859 10.7414453 8.91380859 10.7414453 7.08617187 8.91380859 7.08617187"></polygon>
                <polygon id="Fill-9" points="3.43091797 10.7414648 5.25855469 10.7414648 5.25855469 8.91382813 3.43091797 8.91382813"></polygon>
                <polygon id="Fill-10" points="7.08619141 10.7414453 8.91382812 10.7414453 8.91382812 8.91380859 7.08619141 8.91380859"></polygon>
                <polygon id="Fill-11" points="10.7414453 10.7414453 12.569082 10.7414453 12.569082 8.91380859 10.7414453 8.91380859"></polygon>
                <polygon id="Fill-12" points="5.25855469 12.569082 7.08619141 12.569082 7.08619141 10.7414453 5.25855469 10.7414453"></polygon>
                <polygon id="Fill-13" points="8.91380859 12.569082 10.7414453 12.569082 10.7414453 10.7414453 8.91380859 10.7414453"></polygon>
            </g>
        </g>
        <g id="透明度-copy" transform="translate(0.000000, 20.000000)" fill="url(#linearGradient-1)">
            <g id="透明度" transform="translate(2.000000, 2.000000)">
                <path d="M12.569082,14.357832 L12.569082,12.569082 L10.7414453,12.569082 L10.7414453,14.357832 L8.91380859,14.357832 L8.91380859,12.569082 L7.08619141,12.569082 L7.08619141,14.357832 L5.25855469,14.357832 L5.25855469,12.569082 L3.43091797,12.569082 L3.43091797,14.357832 L1.64216797,14.357832 L1.64216797,12.569082 L3.43091797,12.569082 L3.43091797,10.7414453 L1.64216797,10.7414453 L1.64216797,8.91382812 L3.43091797,8.91382812 L3.43091797,7.08617187 L1.64216797,7.08617187 L1.64216797,5.25855469 L3.43091797,5.25855469 L3.43091797,3.43091797 L1.64216797,3.43091797 L1.64216797,1.64216797 L3.43091797,1.64216797 L3.43091797,3.43091797 L5.25855469,3.43091797 L5.25855469,1.64216797 L7.08619141,1.64216797 L7.08619141,3.43091797 L8.91380859,3.43091797 L8.91380859,1.64216797 L10.7414453,1.64216797 L10.7414453,3.43091797 L12.569082,3.43091797 L12.569082,1.64216797 L14.357832,1.64216797 L14.357832,3.43091797 L12.569082,3.43091797 L12.569082,5.25855469 L14.357832,5.25855469 L14.357832,7.08617187 L12.569082,7.08617187 L12.569082,8.91382812 L14.357832,8.91382812 L14.357832,10.7414453 L12.569082,10.7414453 L12.569082,12.569082 L14.357832,12.569082 L14.357832,14.357832 L12.569082,14.357832 Z M0.548417969,15.451582 L15.451582,15.451582 L15.451582,0.548417969 L0.548417969,0.548417969 L0.548417969,15.451582 Z" id="Fill-1"></path>
                <polygon id="Fill-2" points="5.25855469 5.25855469 7.08619141 5.25855469 7.08619141 3.43091797 5.25855469 3.43091797"></polygon>
                <polygon id="Fill-3" points="8.91380859 5.25855469 10.7414453 5.25855469 10.7414453 3.43091797 8.91380859 3.43091797"></polygon>
                <polygon id="Fill-4" points="3.43091797 7.08619141 5.25855469 7.08619141 5.25855469 5.25855469 3.43091797 5.25855469"></polygon>
                <polygon id="Fill-5" points="7.08619141 7.08617187 8.91382812 7.08617187 8.91382812 5.25853516 7.08619141 5.25853516"></polygon>
                <polygon id="Fill-6" points="10.7414453 7.08617187 12.569082 7.08617187 12.569082 5.25853516 10.7414453 5.25853516"></polygon>
                <polygon id="Fill-7" points="5.25855469 8.91380859 7.08619141 8.91380859 7.08619141 7.08617187 5.25855469 7.08617187"></polygon>
                <polygon id="Fill-8" points="8.91380859 8.91380859 10.7414453 8.91380859 10.7414453 7.08617187 8.91380859 7.08617187"></polygon>
                <polygon id="Fill-9" points="3.43091797 10.7414648 5.25855469 10.7414648 5.25855469 8.91382813 3.43091797 8.91382813"></polygon>
                <polygon id="Fill-10" points="7.08619141 10.7414453 8.91382812 10.7414453 8.91382812 8.91380859 7.08619141 8.91380859"></polygon>
                <polygon id="Fill-11" points="10.7414453 10.7414453 12.569082 10.7414453 12.569082 8.91380859 10.7414453 8.91380859"></polygon>
                <polygon id="Fill-12" points="5.25855469 12.569082 7.08619141 12.569082 7.08619141 10.7414453 5.25855469 10.7414453"></polygon>
                <polygon id="Fill-13" points="8.91380859 12.569082 10.7414453 12.569082 10.7414453 10.7414453 8.91380859 10.7414453"></polygon>
            </g>
        </g>
        <g id="Artboard-2"></g>
    </g>
</svg>