<?xml version="1.0" encoding="UTF-8"?>
<svg width="20px" height="40px" viewBox="0 0 20 40" version="1.1" xmlns="http://www.w3.org/2000/svg" xmlns:xlink="http://www.w3.org/1999/xlink">
    <!-- Generator: Sketch 46.2 (44496) - http://www.bohemiancoding.com/sketch -->
    <title>Artboard 2</title>
    <desc>Created with Sketch.</desc>
    <defs>
        <linearGradient x1="0%" y1="0%" x2="101.999998%" y2="100.999999%" id="linearGradient-1">
            <stop stop-color="#5EA2FF" offset="0%"></stop>
            <stop stop-color="#00D5FF" offset="62.5956633%"></stop>
            <stop stop-color="#00E3FF" offset="100%"></stop>
        </linearGradient>
    </defs>
    <g id="Symbols" stroke="none" stroke-width="1" fill="none" fill-rule="evenodd">
        <g id="Artboard-2" fill-rule="nonzero">
            <g id="Group-44-Copy-2">
                <g id="d_水平翻转" fill="#666666">
                    <path d="M8.902,16.554 L1,16.554 L8.902,3 L8.902,16.554 L8.902,16.554 Z M11.8,5.493 L17.857,15.87 L11.8,15.87 L11.8,5.493 L11.8,5.493 Z M11.125,3 L11.125,16.554 L19,16.554 L11.098,3 L11.125,3 Z" id="Shape"></path>
                </g>
                <g id="Group-41-Copy" transform="translate(0.000000, 20.000000)" fill="url(#linearGradient-1)">
                    <g id="d_水平翻转">
                        <path d="M8.902,16.554 L1,16.554 L8.902,3 L8.902,16.554 L8.902,16.554 Z M11.8,5.493 L17.857,15.87 L11.8,15.87 L11.8,5.493 L11.8,5.493 Z M11.125,3 L11.125,16.554 L19,16.554 L11.098,3 L11.125,3 Z" id="Shape"></path>
                    </g>
                </g>
            </g>
        </g>
    </g>
</svg>