<?xml version="1.0" encoding="UTF-8"?>
<svg width="20px" height="40px" viewBox="0 0 20 40" version="1.1" xmlns="http://www.w3.org/2000/svg" xmlns:xlink="http://www.w3.org/1999/xlink">
    <!-- Generator: Sketch 46.2 (44496) - http://www.bohemiancoding.com/sketch -->
    <title>Artboard 4</title>
    <desc>Created with Sketch.</desc>
    <defs>
        <linearGradient x1="0%" y1="0%" x2="101.999998%" y2="100.999999%" id="linearGradient-1">
            <stop stop-color="#5EA2FF" offset="0%"></stop>
            <stop stop-color="#00D5FF" offset="62.5956633%"></stop>
            <stop stop-color="#00E3FF" offset="100%"></stop>
        </linearGradient>
    </defs>
    <g id="Page-19" stroke="none" stroke-width="1" fill="none" fill-rule="evenodd">
        <g id="Artboard-4" fill-rule="nonzero">
            <g id="Group-44-Copy">
                <g id="d_水平翻转" fill="#666666">
                    <path d="M9.024,16.05525 L2,16.05525 L9.024,4.00725 L9.024,16.05525 L9.024,16.05525 Z M11.6,6.22325 L16.984,15.44725 L11.6,15.44725 L11.6,6.22325 L11.6,6.22325 Z M11,4.00725 L11,16.05525 L18,16.05525 L10.976,4.00725 L11,4.00725 Z" id="Shape"></path>
                </g>
                <g id="Group-41-Copy" transform="translate(0.000000, 20.000000)" fill="url(#linearGradient-1)">
                    <g id="d_水平翻转">
                        <path d="M9.024,16.05525 L2,16.05525 L9.024,4.00725 L9.024,16.05525 L9.024,16.05525 Z M11.6,6.22325 L16.984,15.44725 L11.6,15.44725 L11.6,6.22325 L11.6,6.22325 Z M11,4.00725 L11,16.05525 L18,16.05525 L10.976,4.00725 L11,4.00725 Z" id="Shape"></path>
                    </g>
                </g>
            </g>
        </g>
    </g>
</svg>