<?xml version="1.0" encoding="UTF-8"?>
<svg width="20px" height="40px" viewBox="0 0 20 40" version="1.1" xmlns="http://www.w3.org/2000/svg" xmlns:xlink="http://www.w3.org/1999/xlink">
    <!-- Generator: Sketch 46.2 (44496) - http://www.bohemiancoding.com/sketch -->
    <title>Artboard 4</title>
    <desc>Created with Sketch.</desc>
    <defs>
        <linearGradient x1="0%" y1="0%" x2="101.999998%" y2="100.999999%" id="linearGradient-1">
            <stop stop-color="#5EA2FF" offset="0%"></stop>
            <stop stop-color="#00D5FF" offset="62.5956633%"></stop>
            <stop stop-color="#00E3FF" offset="100%"></stop>
        </linearGradient>
    </defs>
    <g id="Page-19" stroke="none" stroke-width="1" fill="none" fill-rule="evenodd">
        <g id="Artboard-4" fill-rule="nonzero">
            <g id="Group-45-Copy">
                <g id="Group-42" fill="#666666">
                    <g id="d_水平翻转-copy" transform="translate(10.000000, 10.031250) rotate(-270.000000) translate(-10.000000, -10.031250) translate(2.000000, 4.000000)">
                        <path d="M7.024,12.05525 L0,12.05525 L7.024,0.00725 L7.024,12.05525 L7.024,12.05525 Z M9.6,2.22325 L14.984,11.44725 L9.6,11.44725 L9.6,2.22325 L9.6,2.22325 Z M9,0.00725 L9,12.05525 L16,12.05525 L8.976,0.00725 L9,0.00725 Z" id="Shape"></path>
                    </g>
                </g>
                <g id="Group-47" transform="translate(0.000000, 20.000000)" fill="url(#linearGradient-1)">
                    <g id="Group-42-Copy" transform="translate(3.000000, 2.000000)">
                        <g id="d_水平翻转-copy" transform="translate(6.562500, 8.000000) rotate(-270.000000) translate(-6.562500, -8.000000) translate(-1.437500, 1.500000)">
                            <path d="M7.024,12.05525 L0,12.05525 L7.024,0.00725 L7.024,12.05525 L7.024,12.05525 Z M9.6,2.22325 L14.984,11.44725 L9.6,11.44725 L9.6,2.22325 L9.6,2.22325 Z M9,0.00725 L9,12.05525 L16,12.05525 L8.976,0.00725 L9,0.00725 Z" id="Shape"></path>
                        </g>
                    </g>
                </g>
            </g>
        </g>
    </g>
</svg>