<?xml version="1.0" encoding="UTF-8"?>
<svg width="16px" height="36px" viewBox="0 0 16 36" version="1.1" xmlns="http://www.w3.org/2000/svg" xmlns:xlink="http://www.w3.org/1999/xlink">
    <!-- Generator: Sketch 44.1 (41455) - http://www.bohemiancoding.com/sketch -->
    <title>Group</title>
    <desc>Created with Sketch.</desc>
    <defs>
        <linearGradient x1="36.9723689%" y1="4.2109933%" x2="59.4141124%" y2="75.8431893%" id="linearGradient-1">
            <stop stop-color="#5EA2FF" offset="0%"></stop>
            <stop stop-color="#00D5FF" offset="62.5956633%"></stop>
            <stop stop-color="#00E3FF" offset="100%"></stop>
        </linearGradient>
    </defs>
    <g id="Page-1" stroke="none" stroke-width="1" fill="none" fill-rule="evenodd">
        <g id="Artboard" transform="translate(-1654.000000, -288.000000)" fill-rule="nonzero">
            <g id="Group" transform="translate(1654.000000, 288.000000)">
                <g id="阴影" transform="translate(0.000000, 20.000000)" fill="#626262">
                    <path d="M15.4905708,2.90481314 L13.0951869,2.90481314 L13.0951869,0.509429175 C13.0951869,0.232987484 12.8693706,0.00650511628 12.5929289,0.00650511628 L0.510095307,0.00650511628 C0.232321353,0.00650511628 0.00650511628,0.232987484 0.00650511628,0.509429175 L0.00650511628,12.5915967 C0.00650511628,12.8693706 0.232321353,13.0951869 0.51009529,13.0951869 L2.90481312,13.0951869 L2.90481312,15.4899047 C2.90481314,15.7676786 3.13062938,15.9934949 3.4077372,15.9934949 L15.4905708,15.9934949 C15.7670125,15.9934949 15.9934949,15.7676786 15.9934949,15.4899047 L15.9934949,3.40707107 C15.9934949,3.13062938 15.7670125,2.90481314 15.4905708,2.90481314 Z M1.01368548,1.01301935 L12.0880065,1.01301935 L12.0880065,12.0880065 L1.01368548,12.0880065 L1.01368548,1.01301935 Z M3.91199349,14.9863145 L3.91199349,13.9171846 L4.98112343,14.9863145 L3.91199349,14.9863145 Z M6.41928639,14.9863145 L4.52815873,13.0951869 L5.49803611,13.0951869 L7.38849764,14.9863145 L6.41928639,14.9863145 Z M8.82599447,14.9863145 L6.93553294,13.0951869 L7.75619841,13.0951869 L9.64732607,14.9863145 L8.82599447,14.9863145 Z M11.085489,14.9863145 L9.19436135,13.0951869 L10.0656523,13.0951869 L11.9561138,14.9863145 L11.085489,14.9863145 Z M13.3936107,14.9863145 L11.5031491,13.0951869 L12.3238146,13.0951869 L14.2156084,14.9863145 L13.3936107,14.9863145 Z M14.9856484,14.3208561 L13.0951869,12.4290623 L13.0951869,11.459851 L14.9856484,13.3503126 L14.9856484,14.3208561 Z M14.9856484,11.9128157 L13.0951869,10.0223542 L13.0951869,9.20168874 L14.9856484,11.0921503 L14.9856484,11.9128157 Z M14.9856484,9.65398732 L13.0951869,7.76285965 L13.0951869,6.89223484 L14.9856484,8.78269637 L14.9856484,9.65398732 Z M14.9856484,7.34586567 L13.0951869,5.45540414 L13.0951869,4.63407252 L14.9856484,6.52453405 L14.9856484,7.34586567 Z M14.9856484,5.08637111 L13.8106047,3.91066124 L14.9856484,3.91066124 L14.9856484,5.08637111 Z" id="Shape"></path>
                </g>
                <g id="阴影" fill="url(#linearGradient-1)">
                    <path d="M15.4905708,2.90481314 L13.0951869,2.90481314 L13.0951869,0.509429175 C13.0951869,0.232987484 12.8693706,0.00650511628 12.5929289,0.00650511628 L0.510095307,0.00650511628 C0.232321353,0.00650511628 0.00650511628,0.232987484 0.00650511628,0.509429175 L0.00650511628,12.5915967 C0.00650511628,12.8693706 0.232321353,13.0951869 0.51009529,13.0951869 L2.90481312,13.0951869 L2.90481312,15.4899047 C2.90481314,15.7676786 3.13062938,15.9934949 3.4077372,15.9934949 L15.4905708,15.9934949 C15.7670125,15.9934949 15.9934949,15.7676786 15.9934949,15.4899047 L15.9934949,3.40707107 C15.9934949,3.13062938 15.7670125,2.90481314 15.4905708,2.90481314 Z M1.01368548,1.01301935 L12.0880065,1.01301935 L12.0880065,12.0880065 L1.01368548,12.0880065 L1.01368548,1.01301935 Z M3.91199349,14.9863145 L3.91199349,13.9171846 L4.98112343,14.9863145 L3.91199349,14.9863145 Z M6.41928639,14.9863145 L4.52815873,13.0951869 L5.49803611,13.0951869 L7.38849764,14.9863145 L6.41928639,14.9863145 Z M8.82599447,14.9863145 L6.93553294,13.0951869 L7.75619841,13.0951869 L9.64732607,14.9863145 L8.82599447,14.9863145 Z M11.085489,14.9863145 L9.19436135,13.0951869 L10.0656523,13.0951869 L11.9561138,14.9863145 L11.085489,14.9863145 Z M13.3936107,14.9863145 L11.5031491,13.0951869 L12.3238146,13.0951869 L14.2156084,14.9863145 L13.3936107,14.9863145 Z M14.9856484,14.3208561 L13.0951869,12.4290623 L13.0951869,11.459851 L14.9856484,13.3503126 L14.9856484,14.3208561 Z M14.9856484,11.9128157 L13.0951869,10.0223542 L13.0951869,9.20168874 L14.9856484,11.0921503 L14.9856484,11.9128157 Z M14.9856484,9.65398732 L13.0951869,7.76285965 L13.0951869,6.89223484 L14.9856484,8.78269637 L14.9856484,9.65398732 Z M14.9856484,7.34586567 L13.0951869,5.45540414 L13.0951869,4.63407252 L14.9856484,6.52453405 L14.9856484,7.34586567 Z M14.9856484,5.08637111 L13.8106047,3.91066124 L14.9856484,3.91066124 L14.9856484,5.08637111 Z" id="Shape"></path>
                </g>
            </g>
        </g>
    </g>
</svg>