<?xml version="1.0" encoding="UTF-8"?>
<svg width="20px" height="40px" viewBox="0 0 20 40" version="1.1" xmlns="http://www.w3.org/2000/svg" xmlns:xlink="http://www.w3.org/1999/xlink">
    <!-- Generator: Sketch 46.2 (44496) - http://www.bohemiancoding.com/sketch -->
    <title>Artboard 4</title>
    <desc>Created with Sketch.</desc>
    <defs>
        <linearGradient x1="0%" y1="0%" x2="101.999998%" y2="100.999999%" id="linearGradient-1">
            <stop stop-color="#5EA2FF" offset="0%"></stop>
            <stop stop-color="#00D5FF" offset="62.5956633%"></stop>
            <stop stop-color="#00E3FF" offset="100%"></stop>
        </linearGradient>
    </defs>
    <g id="Page-19" stroke="none" stroke-width="1" fill="none" fill-rule="evenodd">
        <g id="Artboard-4" fill-rule="nonzero">
            <g id="Group-51" transform="translate(0.000000, 20.000000)" fill="url(#linearGradient-1)">
                <g id="Group-43-Copy" transform="translate(2.000000, 2.000000)">
                    <g id="投影-copy-2">
                        <path d="M14.5226793,2.21853334 L14.4602464,2.21853334 L14.4602464,1.95137194 C14.4602464,0.874914562 13.5861854,0 12.5107782,0 L1.95180939,0 C0.877963036,0 0.00390206439,0.874914562 0.00390206439,1.95137194 L0.00390206439,12.5206523 C0.00390206439,13.5955473 0.877963052,14.4720242 1.95337022,14.4720242 L2.44190787,14.4720242 L2.44190787,14.6048237 C2.44190787,15.375061 3.06623714,16 3.83572297,16 L14.5242402,16 C15.293726,16 15.9180553,15.375061 15.9180553,14.6048237 L15.9180553,3.61214725 C15.9164944,2.84190997 15.2921652,2.21853334 14.5226793,2.21853334 Z M0.985659848,12.5206523 L0.985659848,1.95137194 C0.985659848,1.41704913 1.41956869,0.982716531 1.95337022,0.982716531 L12.5123391,0.982716531 C13.0461406,0.982716531 13.4800495,1.41704911 13.4800494,1.95137194 L13.4800494,12.5206523 C13.4800494,13.0549751 13.0461406,13.4893077 12.5123391,13.4893077 L1.95180939,13.4893077 C1.41956869,13.4877453 0.985659832,13.0534128 0.985659848,12.5206523 Z" id="Shape"></path>
                    </g>
                </g>
            </g>
            <g id="Group-50" fill="#5E5C5C">
                <g id="投影-copy" transform="translate(2.000000, 2.000000)">
                    <path d="M14.5226793,2.21853334 L14.4602464,2.21853334 L14.4602464,1.95137194 C14.4602464,0.874914562 13.5861854,0 12.5107782,0 L1.95180939,0 C0.877963036,0 0.00390206439,0.874914562 0.00390206439,1.95137194 L0.00390206439,12.5206523 C0.00390206439,13.5955473 0.877963052,14.4720242 1.95337022,14.4720242 L2.44190787,14.4720242 L2.44190787,14.6048237 C2.44190787,15.375061 3.06623714,16 3.83572297,16 L14.5242402,16 C15.293726,16 15.9180553,15.375061 15.9180553,14.6048237 L15.9180553,3.61214725 C15.9164944,2.84190997 15.2921652,2.21853334 14.5226793,2.21853334 Z M0.985659848,12.5206523 L0.985659848,1.95137194 C0.985659848,1.41704913 1.41956869,0.982716531 1.95337022,0.982716531 L12.5123391,0.982716531 C13.0461406,0.982716531 13.4800495,1.41704911 13.4800494,1.95137194 L13.4800494,12.5206523 C13.4800494,13.0549751 13.0461406,13.4893077 12.5123391,13.4893077 L1.95180939,13.4893077 C1.41956869,13.4877453 0.985659832,13.0534128 0.985659848,12.5206523 Z" id="Shape"></path>
                </g>
            </g>
        </g>
    </g>
</svg>