<?xml version="1.0" encoding="UTF-8"?>
<svg width="20px" height="40px" viewBox="0 0 20 40" version="1.1" xmlns="http://www.w3.org/2000/svg" xmlns:xlink="http://www.w3.org/1999/xlink">
    <!-- Generator: Sketch 44.1 (41455) - http://www.bohemiancoding.com/sketch -->
    <title>Artboard 2@2x</title>
    <desc>Created with Sketch.</desc>
    <defs>
        <linearGradient x1="0%" y1="0%" x2="101.999998%" y2="100.999999%" id="linearGradient-1">
            <stop stop-color="#5EA2FF" offset="0%"></stop>
            <stop stop-color="#00D5FF" offset="62.5956633%"></stop>
            <stop stop-color="#00E3FF" offset="100%"></stop>
        </linearGradient>
    </defs>
    <g id="Symbols" stroke="none" stroke-width="1" fill="none" fill-rule="evenodd">
        <g id="左右翻转" fill="#626262">
            <g transform="translate(2.000000, 2.000000)">
                <path d="M11.2307227,14.2960352 L14.2111719,14.2960352 L14.2111719,1.67660156 L11.2307227,1.67660156 L11.2307227,14.2960352 Z M9.98072266,15.5460352 L15.4611719,15.5460352 L15.4611719,0.426601563 L9.98072266,0.426601563 L9.98072266,15.5460352 Z" id="Fill-1"></path>
                <path d="M7.43724609,1.86767578 L8.53099609,1.86767578 L8.53099609,0.504824219 L7.43724609,0.504824219 L7.43724609,1.86767578 Z M7.43724609,4.59337891 L8.53099609,4.59337891 L8.53099609,3.23052734 L7.43724609,3.23052734 L7.43724609,4.59337891 Z M7.43724609,7.31910156 L8.53099609,7.31910156 L8.53099609,5.95625 L7.43724609,5.95625 L7.43724609,7.31910156 Z M7.43724609,10.0447852 L8.53099609,10.0447852 L8.53099609,8.68193359 L7.43724609,8.68193359 L7.43724609,10.0447852 Z M7.43724609,12.7704883 L8.53099609,12.7704883 L8.53099609,11.4076367 L7.43724609,11.4076367 L7.43724609,12.7704883 Z" id="Fill-2"></path>
                <polygon id="Fill-3" points="7.43724609 15.4922656 8.53099609 15.4922656 8.53099609 14.1333398 7.43724609 14.1333398"></polygon>
                <path d="M1.79355469,14.3155664 L4.77400391,14.3155664 L4.77400391,12.7877734 L1.79355469,12.7877734 L1.79355469,14.3155664 Z M1.79355469,5.9821875 L4.77400391,5.9821875 L4.77400391,4.45439453 L1.79355469,4.45439453 L1.79355469,5.9821875 Z M1.79355469,11.5377734 L4.77400391,11.5377734 L4.77400391,10.0099805 L1.79355469,10.0099805 L1.79355469,11.5377734 Z M1.79355469,8.75998047 L4.77400391,8.75998047 L4.77400391,7.2321875 L1.79355469,7.2321875 L1.79355469,8.75998047 Z M1.79355469,3.20439453 L4.77400391,3.20439453 L4.77400391,1.69613281 L1.79355469,1.69613281 L1.79355469,3.20439453 Z M0.543554688,15.5655664 L6.02400391,15.5655664 L6.02400391,0.446132813 L0.543554688,0.446132813 L0.543554688,15.5655664 Z" id="Fill-4"></path>
            </g>
        </g>
        <g id="左右翻转-copy" transform="translate(0.000000, 20.000000)" fill="url(#linearGradient-1)">
            <g id="左右翻转" transform="translate(2.000000, 2.000000)">
                <path d="M11.2307227,14.2960352 L14.2111719,14.2960352 L14.2111719,1.67660156 L11.2307227,1.67660156 L11.2307227,14.2960352 Z M9.98072266,15.5460352 L15.4611719,15.5460352 L15.4611719,0.426601563 L9.98072266,0.426601563 L9.98072266,15.5460352 Z" id="Fill-1"></path>
                <path d="M7.43724609,1.86767578 L8.53099609,1.86767578 L8.53099609,0.504824219 L7.43724609,0.504824219 L7.43724609,1.86767578 Z M7.43724609,4.59337891 L8.53099609,4.59337891 L8.53099609,3.23052734 L7.43724609,3.23052734 L7.43724609,4.59337891 Z M7.43724609,7.31910156 L8.53099609,7.31910156 L8.53099609,5.95625 L7.43724609,5.95625 L7.43724609,7.31910156 Z M7.43724609,10.0447852 L8.53099609,10.0447852 L8.53099609,8.68193359 L7.43724609,8.68193359 L7.43724609,10.0447852 Z M7.43724609,12.7704883 L8.53099609,12.7704883 L8.53099609,11.4076367 L7.43724609,11.4076367 L7.43724609,12.7704883 Z" id="Fill-2"></path>
                <polygon id="Fill-3" points="7.43724609 15.4922656 8.53099609 15.4922656 8.53099609 14.1333398 7.43724609 14.1333398"></polygon>
                <path d="M1.79355469,14.3155664 L4.77400391,14.3155664 L4.77400391,12.7877734 L1.79355469,12.7877734 L1.79355469,14.3155664 Z M1.79355469,5.9821875 L4.77400391,5.9821875 L4.77400391,4.45439453 L1.79355469,4.45439453 L1.79355469,5.9821875 Z M1.79355469,11.5377734 L4.77400391,11.5377734 L4.77400391,10.0099805 L1.79355469,10.0099805 L1.79355469,11.5377734 Z M1.79355469,8.75998047 L4.77400391,8.75998047 L4.77400391,7.2321875 L1.79355469,7.2321875 L1.79355469,8.75998047 Z M1.79355469,3.20439453 L4.77400391,3.20439453 L4.77400391,1.69613281 L1.79355469,1.69613281 L1.79355469,3.20439453 Z M0.543554688,15.5655664 L6.02400391,15.5655664 L6.02400391,0.446132813 L0.543554688,0.446132813 L0.543554688,15.5655664 Z" id="Fill-4"></path>
            </g>
        </g>
        <g id="Artboard-2"></g>
    </g>
</svg>