<?xml version="1.0" encoding="UTF-8"?>
<svg width="20px" height="40px" viewBox="0 0 20 40" version="1.1" xmlns="http://www.w3.org/2000/svg" xmlns:xlink="http://www.w3.org/1999/xlink">
    <!-- Generator: Sketch 44.1 (41455) - http://www.bohemiancoding.com/sketch -->
    <title>Artboard 7@2x</title>
    <desc>Created with Sketch.</desc>
    <defs>
        <linearGradient x1="0%" y1="0%" x2="101.999998%" y2="100.999999%" id="linearGradient-1">
            <stop stop-color="#5EA2FF" offset="0%"></stop>
            <stop stop-color="#00D5FF" offset="62.5956633%"></stop>
            <stop stop-color="#00E3FF" offset="100%"></stop>
        </linearGradient>
    </defs>
    <g id="Symbols" stroke="none" stroke-width="1" fill="none" fill-rule="evenodd">
        <g id="Artboard-7"></g>
        <g id="下划线" fill="#626262">
            <g id="Page-1" transform="translate(2.000000, 2.000000)">
                <polygon id="Fill-1" points="0.490410156 15.4255273 15.477832 15.4255273 15.477832 14.1755273 0.490410156 14.1755273"></polygon>
                <path d="M2.92609961,2.5582207 C2.92609961,1.26275195 2.26037695,1.24476367 1.54066992,1.24476367 L1.32477148,1.24476367 L1.32477148,0.704900391 C2.09844336,0.704900391 3.05205664,0.776873047 4.1855918,0.776873047 C5.26516211,0.776873047 6.16479102,0.704900391 6.88445898,0.704978516 L6.88445898,1.24476367 L6.66854102,1.24476367 C5.94885352,1.24476367 5.22914648,1.26275195 5.22914648,2.5582207 L5.22914648,8.76564258 C5.22914648,11.0507012 6.07481055,12.6340605 8.6477207,12.6340605 C11.0227598,12.6340605 12.0663145,11.1226738 12.0663145,8.69368945 L12.0663145,2.5582207 C12.0663145,1.26275195 11.3826035,1.24476367 10.7708457,1.24476367 L10.4110215,1.24476367 L10.4110605,0.704900391 C11.1307676,0.704900391 11.8684824,0.776873047 12.5881699,0.776873047 C13.2898887,0.776873047 13.9736191,0.704900391 14.6752402,0.704978516 L14.6752402,1.24476367 L14.2974082,1.24476367 C13.8116074,1.24476367 13.1458652,1.26275195 13.1458652,2.5582207 L13.1458652,8.29783008 C13.1458652,12.3641582 10.9867637,13.5336699 8.30586523,13.5336699 C4.85129492,13.5336699 2.92609961,12.2741973 2.92609961,9.0535332 L2.92609961,2.5582207 Z" id="Fill-2"></path>
            </g>
        </g>
        <g id="下划线-copy" transform="translate(0.000000, 20.000000)" fill="url(#linearGradient-1)">
            <g id="Page-1" transform="translate(2.000000, 2.000000)">
                <polygon id="Fill-1" points="0.490410156 15.4255273 15.477832 15.4255273 15.477832 14.1755273 0.490410156 14.1755273"></polygon>
                <path d="M2.92609961,2.5582207 C2.92609961,1.26275195 2.26037695,1.24476367 1.54066992,1.24476367 L1.32477148,1.24476367 L1.32477148,0.704900391 C2.09844336,0.704900391 3.05205664,0.776873047 4.1855918,0.776873047 C5.26516211,0.776873047 6.16479102,0.704900391 6.88445898,0.704978516 L6.88445898,1.24476367 L6.66854102,1.24476367 C5.94885352,1.24476367 5.22914648,1.26275195 5.22914648,2.5582207 L5.22914648,8.76564258 C5.22914648,11.0507012 6.07481055,12.6340605 8.6477207,12.6340605 C11.0227598,12.6340605 12.0663145,11.1226738 12.0663145,8.69368945 L12.0663145,2.5582207 C12.0663145,1.26275195 11.3826035,1.24476367 10.7708457,1.24476367 L10.4110215,1.24476367 L10.4110605,0.704900391 C11.1307676,0.704900391 11.8684824,0.776873047 12.5881699,0.776873047 C13.2898887,0.776873047 13.9736191,0.704900391 14.6752402,0.704978516 L14.6752402,1.24476367 L14.2974082,1.24476367 C13.8116074,1.24476367 13.1458652,1.26275195 13.1458652,2.5582207 L13.1458652,8.29783008 C13.1458652,12.3641582 10.9867637,13.5336699 8.30586523,13.5336699 C4.85129492,13.5336699 2.92609961,12.2741973 2.92609961,9.0535332 L2.92609961,2.5582207 Z" id="Fill-2"></path>
            </g>
        </g>
    </g>
</svg>