<?xml version="1.0" encoding="UTF-8"?>
<svg width="20px" height="20px" viewBox="0 0 20 20" version="1.1" xmlns="http://www.w3.org/2000/svg" xmlns:xlink="http://www.w3.org/1999/xlink">
    <!-- Generator: Sketch 44.1 (41455) - http://www.bohemiancoding.com/sketch -->
    <title>素材上下居中@2x</title>
    <desc>Created with Sketch.</desc>
    <defs></defs>
    <g id="Symbols" stroke="none" stroke-width="1" fill="none" fill-rule="evenodd">
        <g id="素材上下居中" fill="#626262">
            <g transform="translate(2.000000, 3.000000)" id="Fill-1">
                <path d="M9.87070313,12.6430273 L12.3182227,12.6430273 L12.3182227,1.30214844 L9.87070313,1.30214844 L9.87070313,12.6430273 Z M3.62160156,10.7964648 L6.06912109,10.7964648 L6.06912109,3.14869141 L3.62160156,3.14869141 L3.62160156,10.7964648 Z M15.4428516,6.34757813 L13.5682227,6.34757813 L13.5682227,0.0521484375 L8.62070313,0.0521484375 L8.62070313,6.34757813 L7.31912109,6.34757813 L7.31912109,1.89869141 L2.37160156,1.89869141 L2.37160156,6.34757813 L0.496972656,6.34757813 L0.496972656,7.59757813 L2.37160156,7.59757813 L2.37160156,12.0464648 L7.31912109,12.0464648 L7.31912109,7.59757813 L8.62070313,7.59757813 L8.62070313,13.8930273 L13.5682227,13.8930273 L13.5682227,7.59757813 L15.4428516,7.59757813 L15.4428516,6.34757813 Z"></path>
            </g>
        </g>
    </g>
</svg>