<?xml version="1.0" encoding="UTF-8"?>
<svg width="230px" height="240px" viewBox="0 0 230 240" version="1.1" xmlns="http://www.w3.org/2000/svg" xmlns:xlink="http://www.w3.org/1999/xlink">
    <!-- Generator: Sketch 42 (36781) - http://www.bohemiancoding.com/sketch -->
    <title>登录注册</title>
    <desc>Created with Sketch.</desc>
    <defs>
        <linearGradient x1="0%" y1="0%" x2="101.999998%" y2="100.999999%" id="linearGradient-1">
            <stop stop-color="#5EA2FF" offset="0%"></stop>
            <stop stop-color="#00D5FF" offset="62.5956633%"></stop>
            <stop stop-color="#00E3FF" offset="100%"></stop>
        </linearGradient>
        <path d="M80,40.7272727 C80,62.0914577 62.0916978,80 40.7272727,80 C17.9083022,80 0,62.0914577 0,40.7272727 C0,17.9085423 17.9083022,0 40.7272727,0 C62.0916978,0 80,17.9085423 80,40.7272727 Z" id="path-2"></path>
        <filter x="-50%" y="-50%" width="200%" height="200%" filterUnits="objectBoundingBox" id="filter-3">
            <feOffset dx="0" dy="1" in="SourceAlpha" result="shadowOffsetOuter1"></feOffset>
            <feGaussianBlur stdDeviation="4" in="shadowOffsetOuter1" result="shadowBlurOuter1"></feGaussianBlur>
            <feColorMatrix values="0 0 0 0 0   0 0 0 0 0   0 0 0 0 0  0 0 0 0.16 0" type="matrix" in="shadowBlurOuter1"></feColorMatrix>
        </filter>
    </defs>
    <g id="Page-1" stroke="none" stroke-width="1" fill="none" fill-rule="evenodd">
        <g id="登录注册">
            <g id="疑问线" transform="translate(26.000000, 10.000000)" fill="#BFBFBF">
                <g id="Page-1">
                    <g id="Group-8">
                        <path d="M8,10.6981 C7.655,10.6981 7.375,10.4181 7.375,10.0731 L7.375,8.5851 C7.375,8.2391 7.655,7.9601 8,7.9601 C8.926,7.9601 9.68,7.2061 9.68,6.2801 C9.68,5.3541 8.926,4.6001 8,4.6001 C7.074,4.6001 6.32,5.3541 6.32,6.2801 C6.32,6.6251 6.04,6.9051 5.695,6.9051 C5.35,6.9051 5.07,6.6251 5.07,6.2801 C5.07,4.6641 6.385,3.3501 8,3.3501 C9.615,3.3501 10.93,4.6641 10.93,6.2801 C10.93,7.6811 9.941,8.8551 8.625,9.1421 L8.625,10.0731 C8.625,10.4181 8.345,10.6981 8,10.6981" id="Fill-2"></path>
                        <path d="M8.7917,12.136 C8.7917,12.578 8.4337,12.936 7.9917,12.936 C7.5507,12.936 7.1927,12.578 7.1927,12.136 C7.1927,11.694 7.5507,11.336 7.9917,11.336 C8.4337,11.336 8.7917,11.694 8.7917,12.136" id="Fill-4"></path>
                        <path d="M7.9989,2.114 C6.4299,2.114 4.9539,2.725 3.8449,3.835 C2.7349,4.944 2.1239,6.42 2.1239,7.989 C2.1239,9.558 2.7349,11.034 3.8449,12.143 C4.9539,13.253 6.4299,13.864 7.9989,13.864 C9.5679,13.864 11.0439,13.253 12.1529,12.143 C13.2629,11.034 13.8739,9.558 13.8739,7.989 C13.8739,6.42 13.2629,4.944 12.1529,3.835 C11.0439,2.725 9.5679,2.114 7.9989,2.114 M7.9989,15.114 C7.0369,15.114 6.1039,14.926 5.2249,14.554 C4.3769,14.195 3.6149,13.681 2.9609,13.027 C2.3069,12.373 1.7929,11.611 1.4339,10.763 C1.0619,9.884 0.8739,8.951 0.8739,7.989 C0.8739,7.027 1.0619,6.094 1.4339,5.215 C1.7929,4.367 2.3069,3.605 2.9609,2.951 C3.6149,2.297 4.3769,1.783 5.2249,1.424 C6.1039,1.052 7.0369,0.864 7.9989,0.864 C8.9609,0.864 9.8939,1.052 10.7729,1.424 C11.6209,1.783 12.3829,2.297 13.0369,2.951 C13.6909,3.605 14.2049,4.367 14.5639,5.215 C14.9359,6.094 15.1239,7.027 15.1239,7.989 C15.1239,8.951 14.9359,9.884 14.5639,10.763 C14.2049,11.611 13.6909,12.373 13.0369,13.027 C12.3829,13.681 11.6209,14.195 10.7729,14.554 C9.8939,14.926 8.9609,15.114 7.9989,15.114" id="Fill-6"></path>
                    </g>
                </g>
            </g>
            <g id="疑问面" transform="translate(26.000000, 26.000000)" fill="url(#linearGradient-1)">
                <g id="Page-1">
                    <path d="M8.625,9.1425 L8.625,10.0735 C8.625,10.4185 8.345,10.6985 8,10.6985 C7.655,10.6985 7.375,10.4185 7.375,10.0735 L7.375,8.5845 C7.375,8.2395 7.655,7.9595 8,7.9595 C8.926,7.9595 9.68,7.2065 9.68,6.2795 C9.68,5.3535 8.926,4.6005 8,4.6005 C7.074,4.6005 6.32,5.3535 6.32,6.2795 C6.32,6.6255 6.04,6.9045 5.695,6.9045 C5.35,6.9045 5.07,6.6255 5.07,6.2795 C5.07,4.6645 6.385,3.3505 8,3.3505 C9.615,3.3505 10.93,4.6645 10.93,6.2795 C10.93,7.6805 9.941,8.8555 8.625,9.1425 M7.992,12.9355 C7.55,12.9355 7.192,12.5775 7.192,12.1355 C7.192,11.6945 7.55,11.3365 7.992,11.3365 C8.434,11.3365 8.792,11.6945 8.792,12.1355 C8.792,12.5775 8.434,12.9355 7.992,12.9355 M8,0.8055 C4.049,0.8055 0.846,4.0085 0.846,7.9595 C0.846,11.9105 4.049,15.1145 8,15.1145 C11.951,15.1145 15.154,11.9105 15.154,7.9595 C15.154,4.0085 11.951,0.8055 8,0.8055" id="Fill-2"></path>
                </g>
            </g>
            <g id="Page-1" transform="translate(14.000000, 10.000000)"></g>
            <path d="M21.2033333,25.3775 C21.0273333,25.3775 20.852,25.3108333 20.718,25.1768333 L14.202,18.6755 C14.0726667,18.5468333 14,18.3715 14,18.1895 C14,18.0068333 14.0726667,17.8315 14.2013333,17.7028333 L20.7026667,11.2015 C20.9713333,10.9328333 21.4066667,10.9328333 21.6746667,11.2015 C21.9433333,11.4701667 21.9433333,11.9055 21.6746667,12.1741667 L15.6606667,18.1881667 L21.6886667,24.2035 C21.958,24.4715 21.958,24.9068333 21.69,25.1755 C21.556,25.3101667 21.3793333,25.3775 21.2033333,25.3775" id="Fill-2" fill="#BFBFBF"></path>
            <path d="M21.2033333,41.3775 C21.0273333,41.3775 20.852,41.3108333 20.718,41.1768333 L14.202,34.6755 C14.0726667,34.5468333 14,34.3715 14,34.1895 C14,34.0068333 14.0726667,33.8315 14.2013333,33.7028333 L20.7026667,27.2015 C20.9713333,26.9328333 21.4066667,26.9328333 21.6746667,27.2015 C21.9433333,27.4701667 21.9433333,27.9055 21.6746667,28.1741667 L15.6606667,34.1881667 L21.6886667,40.2035 C21.958,40.4715 21.958,40.9068333 21.69,41.1755 C21.556,41.3101667 21.3793333,41.3775 21.2033333,41.3775" id="Fill-2" fill="#9B9B9B"></path>
            <g id="Group-3" transform="translate(12.000000, 55.000000)" fill="#BFBFBF">
                <g id="微信-(1)" transform="translate(0.000000, 0.600001)">
                    <path d="M13.5605821,5.34902287 C13.7734719,5.34902287 13.9810395,5.3583368 14.1925988,5.37829522 C13.7149272,2.34461538 10.7397921,0.00681912682 7.13929314,0.00681912682 C3.20615385,0.00681912682 0.0181288981,2.79700624 0.0181288981,6.23783784 C0.0181288981,8.16182952 1.0160499,9.88224532 2.58079002,11.0265281 C2.38120582,12.0271102 2.13239085,13.3430353 2.16831601,13.2991268 C2.22286902,13.2791684 3.59866944,12.5154262 4.4635343,12.0151351 C5.28981289,12.3065281 6.19193347,12.4701871 7.13929314,12.4701871 C7.23908524,12.4701871 7.33621622,12.467526 7.43600832,12.4648649 C7.32557173,12.0350936 7.26835759,11.5946778 7.26835759,11.1343035 C7.26702703,7.93962578 10.0838254,5.34902287 13.5605821,5.34902287 Z M9.93613306,3.31459459 C10.4284407,3.31459459 10.8262786,3.71243243 10.8262786,4.20340956 C10.8262786,4.69571726 10.4271102,5.09488565 9.93613306,5.09488565 C9.44515593,5.09488565 9.04598753,4.69438669 9.04598753,4.20340956 C9.04598753,3.71243243 9.44515593,3.31459459 9.93613306,3.31459459 Z M4.46885655,5.09488565 C3.97654886,5.09488565 3.58004158,4.69438669 3.58004158,4.20340956 C3.58004158,3.71243243 3.97787942,3.31459459 4.46885655,3.31459459 C4.95983368,3.31459459 5.35900208,3.71243243 5.35900208,4.20340956 C5.35900208,4.69571726 4.95983368,5.09488565 4.46885655,5.09488565 Z M19.9818711,10.9427027 C19.9818711,8.06336798 17.2502287,5.72956341 13.8799168,5.72956341 C10.5082744,5.72956341 7.77530146,8.06469854 7.77530146,10.9427027 C7.77530146,13.8220374 10.5082744,16.1585031 13.8799168,16.1585031 C14.7966736,16.1585031 15.6655301,15.9841996 16.4479002,15.6741788 C17.2528898,16.1039501 18.1297297,16.556341 18.1736383,16.5696466 C18.2042412,16.6029106 18.0312682,15.7606653 17.843659,14.9104366 C19.1502703,13.9497713 19.9818711,12.5313929 19.9818711,10.9427027 Z M11.5900208,9.79841996 C11.0977131,9.79841996 10.6985447,9.40058212 10.6985447,8.90960499 C10.6985447,8.41862786 11.0977131,8.0181289 11.5900208,8.0181289 C12.0809979,8.0181289 12.4788358,8.41862786 12.4788358,8.90960499 C12.4788358,9.40058212 12.0809979,9.79841996 11.5900208,9.79841996 Z M16.0394179,9.79841996 C15.5484407,9.79841996 15.1479418,9.40058212 15.1479418,8.90960499 C15.1479418,8.41862786 15.5484407,8.0181289 16.0394179,8.0181289 C16.530395,8.0181289 16.930894,8.41862786 16.930894,8.90960499 C16.930894,9.40058212 16.530395,9.79841996 16.0394179,9.79841996 Z" id="Shape"></path>
                </g>
            </g>
            <g id="Group-3-Copy" transform="translate(12.000000, 79.000000)" fill="url(#linearGradient-1)">
                <path d="M13.5605821,5.94902389 C13.7734719,5.94902389 13.9810395,5.95833782 14.1925988,5.97829624 C13.7149272,2.9446164 10.7397921,0.606820144 7.13929314,0.606820144 C3.20615385,0.606820144 0.0181288981,3.39700725 0.0181288981,6.83783886 C0.0181288981,8.76183054 1.0160499,10.4822463 2.58079002,11.6265291 C2.38120582,12.6271112 2.13239085,13.9430364 2.16831601,13.8991278 C2.22286902,13.8791694 3.59866944,13.1154272 4.4635343,12.6151362 C5.28981289,12.9065291 6.19193347,13.0701881 7.13929314,13.0701881 C7.23908524,13.0701881 7.33621622,13.067527 7.43600832,13.0648659 C7.32557173,12.6350946 7.26835759,12.1946788 7.26835759,11.7343046 C7.26702703,8.5396268 10.0838254,5.94902389 13.5605821,5.94902389 Z M9.93613306,3.91459561 C10.4284407,3.91459561 10.8262786,4.31243345 10.8262786,4.80341058 C10.8262786,5.29571827 10.4271102,5.69488667 9.93613306,5.69488667 C9.44515593,5.69488667 9.04598753,5.29438771 9.04598753,4.80341058 C9.04598753,4.31243345 9.44515593,3.91459561 9.93613306,3.91459561 Z M4.46885655,5.69488667 C3.97654886,5.69488667 3.58004158,5.29438771 3.58004158,4.80341058 C3.58004158,4.31243345 3.97787942,3.91459561 4.46885655,3.91459561 C4.95983368,3.91459561 5.35900208,4.31243345 5.35900208,4.80341058 C5.35900208,5.29571827 4.95983368,5.69488667 4.46885655,5.69488667 Z M19.9818711,11.5427037 C19.9818711,8.663369 17.2502287,6.32956443 13.8799168,6.32956443 C10.5082744,6.32956443 7.77530146,8.66469956 7.77530146,11.5427037 C7.77530146,14.4220384 10.5082744,16.7585041 13.8799168,16.7585041 C14.7966736,16.7585041 15.6655301,16.5842006 16.4479002,16.2741798 C17.2528898,16.7039511 18.1297297,17.156342 18.1736383,17.1696476 C18.2042412,17.2029116 18.0312682,16.3606663 17.843659,15.5104376 C19.1502703,14.5497723 19.9818711,13.1313939 19.9818711,11.5427037 Z M11.5900208,10.398421 C11.0977131,10.398421 10.6985447,10.0005831 10.6985447,9.50960601 C10.6985447,9.01862888 11.0977131,8.61812992 11.5900208,8.61812992 C12.0809979,8.61812992 12.4788358,9.01862888 12.4788358,9.50960601 C12.4788358,10.0005831 12.0809979,10.398421 11.5900208,10.398421 Z M16.0394179,10.398421 C15.5484407,10.398421 15.1479418,10.0005831 15.1479418,9.50960601 C15.1479418,9.01862888 15.5484407,8.61812992 16.0394179,8.61812992 C16.530395,8.61812992 16.930894,9.01862888 16.930894,9.50960601 C16.930894,10.0005831 16.530395,10.398421 16.0394179,10.398421 Z" id="Shape"></path>
            </g>
            <g id="小成功面" transform="translate(42.000000, 10.000000)" fill="#07AEFC">
                <g id="Page-1">
                    <path d="M12.3795,6.1903 L7.2485,11.3213 C7.1265,11.4433 6.9665,11.5043 6.8065,11.5043 C6.6465,11.5043 6.4865,11.4433 6.3645,11.3213 L3.6655,8.6223 C3.4215,8.3783 3.4215,7.9823 3.6655,7.7383 C3.9095,7.4943 4.3055,7.4943 4.5495,7.7383 L6.8065,9.9953 L11.4955,5.3063 C11.7395,5.0623 12.1355,5.0623 12.3795,5.3063 C12.6235,5.5503 12.6235,5.9463 12.3795,6.1903 M8.0005,0.8053 C4.0485,0.8053 0.8455,4.0083 0.8455,7.9593 C0.8455,11.9113 4.0485,15.1143 8.0005,15.1143 C11.9515,15.1143 15.1545,11.9113 15.1545,7.9593 C15.1545,4.0083 11.9515,0.8053 8.0005,0.8053" id="Fill-2"></path>
                </g>
            </g>
            <g id="小失败面" transform="translate(42.000000, 26.000000)" fill="#FF3D67">
                <g id="Page-1">
                    <path d="M11.3361,10.4437 C11.5801,10.6877 11.5801,11.0837 11.3361,11.3277 C11.2141,11.4497 11.0541,11.5107 10.8941,11.5107 C10.7341,11.5107 10.5741,11.4497 10.4521,11.3277 L8.0011,8.8757 L5.5491,11.3277 C5.4271,11.4497 5.2671,11.5107 5.1071,11.5107 C4.9471,11.5107 4.7871,11.4497 4.6651,11.3277 C4.4211,11.0837 4.4211,10.6877 4.6651,10.4437 L7.1171,7.9927 L4.6651,5.5407 C4.4211,5.2967 4.4211,4.9007 4.6651,4.6567 C4.9091,4.4127 5.3051,4.4127 5.5491,4.6567 L8.0011,7.1087 L10.4521,4.6567 C10.6961,4.4127 11.0921,4.4127 11.3361,4.6567 C11.5801,4.9007 11.5801,5.2967 11.3361,5.5407 L8.8851,7.9927 L11.3361,10.4437 Z M8.0001,0.8057 C4.0491,0.8057 0.8451,4.0087 0.8451,7.9597 C0.8451,11.9107 4.0491,15.1137 8.0001,15.1137 C11.9511,15.1137 15.1541,11.9107 15.1541,7.9597 C15.1541,4.0087 11.9511,0.8057 8.0001,0.8057 L8.0001,0.8057 Z" id="Fill-2"></path>
                </g>
            </g>
            <g id="大成功" transform="translate(10.000000, 110.000000)">
                <g id="Group-2" transform="translate(12.000000, 12.000000)">
                    <g id="Group-8">
                        <g id="Group-7-Copy">
                            <g id="Group-6">
                                <g id="Stroke-11">
                                    <use fill="black" fill-opacity="1" filter="url(#filter-3)" xlink:href="#path-2"></use>
                                    <use fill="url(#linearGradient-1)" fill-rule="evenodd" xlink:href="#path-2"></use>
                                </g>
                            </g>
                        </g>
                        <path d="M33.1151958,57.2160805 C32.3906658,57.2160805 31.6660473,56.9396815 31.1132493,56.3868834 L15.8291971,41.1030082 C14.723601,39.9973236 14.723601,38.2046229 15.8291971,37.0990268 C16.9349701,35.9932537 18.7274939,35.9933422 19.8331785,37.0989383 L33.1151958,50.3808671 L60.1668215,23.3293298 C61.2725061,22.2235567 63.0651183,22.2235567 64.1708029,23.3293298 C65.276399,24.4349259 65.276399,26.2276266 64.1708029,27.3333112 L35.1171422,56.386795 C34.5643442,56.9396815 33.8397257,57.2160805 33.1151958,57.2160805" id="Fill-1" fill="#FFFFFF"></path>
                    </g>
                </g>
            </g>
            <g id="Group" transform="translate(35.000000, 55.000000)" fill-rule="nonzero" fill="#BFBFBF">
                <g id="微博-(1)" transform="translate(0.565217, 0.652174)">
                    <path d="M20.5148112,7.233098 C20.3992953,7.51495671 20.1251377,7.68553513 19.836348,7.68553513 C19.7443204,7.68553513 19.6519077,7.66859281 19.5614203,7.63239783 C19.1863788,7.48222721 19.005789,7.05943915 19.1578848,6.68863322 C19.6480572,5.49150384 19.4097094,3.96823463 18.5656735,2.89932786 C17.9230203,2.08609618 16.6627422,1.18661264 14.3108392,1.51891329 C13.908844,1.5743609 13.5391932,1.29943315 13.4829755,0.903983831 C13.4259877,0.507379358 13.704766,0.140423972 14.105221,0.084206259 C16.4802271,-0.250789746 18.4740309,0.431909009 19.7185218,2.00600517 C20.8759908,3.47036126 21.1955847,5.57082472 20.5148112,7.233098 Z M15.0678532,7.94236541 C15.0678532,7.94236541 18.2757287,8.02130125 18.2757287,10.7201369 C18.2757287,12.6769756 15.9507794,16.6976978 8.51925885,16.6976978 C2.61216264,16.6976978 0.0199866585,13.6026427 0.0199866585,11.2222458 C0.0199866585,7.30741322 7.07531055,0.721083706 9.96205199,2.78458209 C10.7379335,3.3394433 10.8977305,4.90121777 9.90891469,5.66747299 C17.7944126,3.15423286 15.0678532,7.94236541 15.0678532,7.94236541 Z M7.97209871,7.25312076 C4.50970322,7.57232958 1.88094722,9.71476381 2.10119746,12.0381729 C2.31875235,14.362352 5.30214204,15.9868902 8.76376742,15.6676813 C12.2261629,15.3488575 14.8541488,13.2064233 14.6354388,10.8826292 C14.4171138,8.55883506 11.4337241,6.93429698 7.97209871,7.25312076 Z M8.5254197,14.6838712 C6.65098227,14.9976893 4.91169843,13.9638223 4.64023615,12.3754792 C4.36800377,10.7875211 5.66678711,9.24422919 7.54122454,8.93002604 C9.41566195,8.61697805 11.1541757,9.65007493 11.4264081,11.2388031 C11.6978704,12.8279163 10.399087,14.3700531 8.5254197,14.6838712 Z M8.03447728,12.1675506 C7.88199634,11.6180802 7.26668183,11.3069575 6.66099366,11.4721451 C6.05646063,11.6373328 5.68912019,12.2160673 5.84121607,12.7663079 C5.99485217,13.3150082 6.60978162,13.626131 7.21546981,13.4617134 C7.82077293,13.2957556 8.18734326,12.7170211 8.03447728,12.1675506 Z M8.78802575,10.5834431 C8.47690304,10.5834431 8.22430834,10.8333424 8.22430834,11.1409997 C8.22430834,11.449042 8.47690304,11.6977861 8.78802575,11.6977861 C9.09914848,11.6977861 9.35097307,11.449042 9.35097307,11.1409997 C9.35097307,10.8337275 9.09914848,10.5834431 8.78802575,10.5834431 Z M15.0166411,4.14843938 C14.6146459,4.203887 14.2457653,3.9293443 14.1883924,3.53350995 C14.1314046,3.13767557 14.4101828,2.77072019 14.8090976,2.71411741 C16.4363311,2.48385579 17.3073207,3.24433523 17.6812071,3.71833533 C18.2911308,4.4899813 18.4516979,5.55773292 18.0909033,6.43834886 C17.9761575,6.71982251 17.7012298,6.89078599 17.4124401,6.89078599 C17.3204125,6.89078599 17.2287699,6.87384367 17.1375124,6.83764869 C16.7628559,6.68747807 16.5818811,6.26507506 16.733977,5.89426914 C16.8949291,5.49727963 16.8113726,4.97014223 16.5279737,4.61050284 C16.2133855,4.21274323 15.6893285,4.05294627 15.0166411,4.14843938 Z" id="Shape"></path>
                </g>
            </g>
            <g id="Group-Copy" transform="translate(35.000000, 79.000000)" fill-rule="nonzero" fill="url(#linearGradient-1)">
                <g id="微博-(1)" transform="translate(0.565217, 0.652174)">
                    <path d="M20.5148112,7.233098 C20.3992953,7.51495671 20.1251377,7.68553513 19.836348,7.68553513 C19.7443204,7.68553513 19.6519077,7.66859281 19.5614203,7.63239783 C19.1863788,7.48222721 19.005789,7.05943915 19.1578848,6.68863322 C19.6480572,5.49150384 19.4097094,3.96823463 18.5656735,2.89932786 C17.9230203,2.08609618 16.6627422,1.18661264 14.3108392,1.51891329 C13.908844,1.5743609 13.5391932,1.29943315 13.4829755,0.903983831 C13.4259877,0.507379358 13.704766,0.140423972 14.105221,0.084206259 C16.4802271,-0.250789746 18.4740309,0.431909009 19.7185218,2.00600517 C20.8759908,3.47036126 21.1955847,5.57082472 20.5148112,7.233098 Z M15.0678532,7.94236541 C15.0678532,7.94236541 18.2757287,8.02130125 18.2757287,10.7201369 C18.2757287,12.6769756 15.9507794,16.6976978 8.51925885,16.6976978 C2.61216264,16.6976978 0.0199866585,13.6026427 0.0199866585,11.2222458 C0.0199866585,7.30741322 7.07531055,0.721083706 9.96205199,2.78458209 C10.7379335,3.3394433 10.8977305,4.90121777 9.90891469,5.66747299 C17.7944126,3.15423286 15.0678532,7.94236541 15.0678532,7.94236541 Z M7.97209871,7.25312076 C4.50970322,7.57232958 1.88094722,9.71476381 2.10119746,12.0381729 C2.31875235,14.362352 5.30214204,15.9868902 8.76376742,15.6676813 C12.2261629,15.3488575 14.8541488,13.2064233 14.6354388,10.8826292 C14.4171138,8.55883506 11.4337241,6.93429698 7.97209871,7.25312076 Z M8.5254197,14.6838712 C6.65098227,14.9976893 4.91169843,13.9638223 4.64023615,12.3754792 C4.36800377,10.7875211 5.66678711,9.24422919 7.54122454,8.93002604 C9.41566195,8.61697805 11.1541757,9.65007493 11.4264081,11.2388031 C11.6978704,12.8279163 10.399087,14.3700531 8.5254197,14.6838712 Z M8.03447728,12.1675506 C7.88199634,11.6180802 7.26668183,11.3069575 6.66099366,11.4721451 C6.05646063,11.6373328 5.68912019,12.2160673 5.84121607,12.7663079 C5.99485217,13.3150082 6.60978162,13.626131 7.21546981,13.4617134 C7.82077293,13.2957556 8.18734326,12.7170211 8.03447728,12.1675506 Z M8.78802575,10.5834431 C8.47690304,10.5834431 8.22430834,10.8333424 8.22430834,11.1409997 C8.22430834,11.449042 8.47690304,11.6977861 8.78802575,11.6977861 C9.09914848,11.6977861 9.35097307,11.449042 9.35097307,11.1409997 C9.35097307,10.8337275 9.09914848,10.5834431 8.78802575,10.5834431 Z M15.0166411,4.14843938 C14.6146459,4.203887 14.2457653,3.9293443 14.1883924,3.53350995 C14.1314046,3.13767557 14.4101828,2.77072019 14.8090976,2.71411741 C16.4363311,2.48385579 17.3073207,3.24433523 17.6812071,3.71833533 C18.2911308,4.4899813 18.4516979,5.55773292 18.0909033,6.43834886 C17.9761575,6.71982251 17.7012298,6.89078599 17.4124401,6.89078599 C17.3204125,6.89078599 17.2287699,6.87384367 17.1375124,6.83764869 C16.7628559,6.68747807 16.5818811,6.26507506 16.733977,5.89426914 C16.8949291,5.49727963 16.8113726,4.97014223 16.5279737,4.61050284 C16.2133855,4.21274323 15.6893285,4.05294627 15.0166411,4.14843938 Z" id="Shape"></path>
                </g>
            </g>
            <g id="qq-(2)" transform="translate(61.000000, 54.000000)" fill="#BFBFBF">
                <path d="M0.952303152,11.4816551 C0.272545008,13.1739963 0.160071789,14.787632 0.707549816,15.0874411 C1.08629604,15.2954858 1.67602291,14.8195005 2.2310987,13.9536316 C2.45134596,14.901937 2.99419068,15.7527934 3.7704799,16.4406204 C2.95762917,16.7573075 2.42508318,17.2745989 2.42508318,17.8593364 C2.42508318,18.8226542 3.863278,19.600402 5.63706994,19.600402 C7.23740891,19.600402 8.56310856,18.9688276 8.80775211,18.1366927 L9.18843072,18.1366927 C9.43781736,18.9688276 10.7606404,19.600402 12.3628678,19.600402 C14.1386141,19.600402 15.5748546,18.8226322 15.5748546,17.8593364 C15.5748546,17.2745989 15.0432748,16.7610826 14.2285136,16.4406204 C15.0020141,15.7527934 15.5485918,14.9019589 15.7670165,13.9536316 C16.3219825,14.8195005 16.9089425,15.2955077 17.2895992,15.0874411 C17.839866,14.787632 17.7301815,13.1739963 17.0439016,11.4816551 C16.5077104,10.156635 15.7810921,9.17834875 15.2269825,8.95908866 C15.2344924,8.87851771 15.2410581,8.78945289 15.2410581,8.70418509 C15.2410581,8.19066874 15.1041886,7.71652702 14.87081,7.33044052 C14.8754872,7.2995378 14.8754872,7.27047869 14.8754872,7.23957597 C14.8754872,7.00249413 14.8220174,6.78226834 14.7301635,6.59202345 C14.5904833,3.14272644 12.4557098,0.4 8.99907955,0.4 C5.54330564,0.4 3.40574341,3.14274838 3.26606319,6.59206735 C3.1760978,6.78509963 3.12076149,7.00626921 3.12076149,7.24240727 C3.12076149,7.27335389 3.12076149,7.3023691 3.12451644,7.3333157 C2.89579308,7.71657093 2.75887963,8.19069068 2.75887963,8.70609457 C2.75887963,8.79232809 2.76353491,8.87853967 2.76920029,8.96286371 C2.21702309,9.18023629 1.48761599,10.1566351 0.952303152,11.4816551 Z" id="Shape"></path>
            </g>
            <g id="qq-(2)-copy" transform="translate(61.000000, 78.000000)" fill="url(#linearGradient-1)">
                <path d="M0.952303152,11.4816551 C0.272545008,13.1739963 0.160071789,14.787632 0.707549816,15.0874411 C1.08629604,15.2954858 1.67602291,14.8195005 2.2310987,13.9536316 C2.45134596,14.901937 2.99419068,15.7527934 3.7704799,16.4406204 C2.95762917,16.7573075 2.42508318,17.2745989 2.42508318,17.8593364 C2.42508318,18.8226542 3.863278,19.600402 5.63706994,19.600402 C7.23740891,19.600402 8.56310856,18.9688276 8.80775211,18.1366927 L9.18843072,18.1366927 C9.43781736,18.9688276 10.7606404,19.600402 12.3628678,19.600402 C14.1386141,19.600402 15.5748546,18.8226322 15.5748546,17.8593364 C15.5748546,17.2745989 15.0432748,16.7610826 14.2285136,16.4406204 C15.0020141,15.7527934 15.5485918,14.9019589 15.7670165,13.9536316 C16.3219825,14.8195005 16.9089425,15.2955077 17.2895992,15.0874411 C17.839866,14.787632 17.7301815,13.1739963 17.0439016,11.4816551 C16.5077104,10.156635 15.7810921,9.17834875 15.2269825,8.95908866 C15.2344924,8.87851771 15.2410581,8.78945289 15.2410581,8.70418509 C15.2410581,8.19066874 15.1041886,7.71652702 14.87081,7.33044052 C14.8754872,7.2995378 14.8754872,7.27047869 14.8754872,7.23957597 C14.8754872,7.00249413 14.8220174,6.78226834 14.7301635,6.59202345 C14.5904833,3.14272644 12.4557098,0.4 8.99907955,0.4 C5.54330564,0.4 3.40574341,3.14274838 3.26606319,6.59206735 C3.1760978,6.78509963 3.12076149,7.00626921 3.12076149,7.24240727 C3.12076149,7.27335389 3.12076149,7.3023691 3.12451644,7.3333157 C2.89579308,7.71657093 2.75887963,8.19069068 2.75887963,8.70609457 C2.75887963,8.79232809 2.76353491,8.87853967 2.76920029,8.96286371 C2.21702309,9.18023629 1.48761599,10.1566351 0.952303152,11.4816551 Z" id="Shape"></path>
            </g>
        </g>
    </g>
</svg>