<?xml version="1.0" encoding="utf-8"?>
<!-- Generator: Adobe Illustrator 18.0.0, SVG Export Plug-In . SVG Version: 6.00 Build 0)  -->
<!DOCTYPE svg PUBLIC "-//W3C//DTD SVG 1.1//EN" "http://www.w3.org/Graphics/SVG/1.1/DTD/svg11.dtd">
<svg version="1.1" id="图层_1" xmlns="http://www.w3.org/2000/svg" xmlns:xlink="http://www.w3.org/1999/xlink" x="0px" y="0px" viewBox="0 0 180 180" enable-background="new 0 0 180 180" xml:space="preserve" width="180px" height="180px">
    <g>
        <linearGradient id="SVGID_1_" gradientUnits="userSpaceOnUse" x1="34.7582" y1="35.3269" x2="149.0074" y2="149.5761">
            <stop offset="0" style="stop-color:#5EA2FF" />
            <stop offset="0.626" style="stop-color:#00D5FF" />
            <stop offset="1" style="stop-color:#00E3FF" />
        </linearGradient>
        <path fill="url(#SVGID_1_)" d="M157.921,45.016l-66.461,65.446l-4.108-1.751l-3.464,1.605L23.882,49.108
		c-7.838,12.445-12.398,27.161-12.398,42.956c0,44.617,36.169,80.786,80.786,80.786s80.786-36.169,80.786-80.786
		C173.057,74.504,167.439,58.266,157.921,45.016z" />
    </g>
    <g>
        <path fill="#4A4A4A" d="M170.467,98.938L168.48,98.7c0.383-3.177,0.576-6.419,0.576-9.637c0-43.994-35.792-79.786-79.787-79.786
		c-43.994,0-79.786,35.792-79.786,79.786c0,3.059,0.175,6.141,0.52,9.16L8.017,98.45c-0.354-3.095-0.533-6.253-0.533-9.387
		c0-45.097,36.689-81.786,81.786-81.786s81.787,36.689,81.787,81.786C171.057,92.361,170.858,95.684,170.467,98.938z" />
    </g>
    <polygon fill="#FFFFFF" points="3.751,114.036 24,84.064 87.352,119.064 65.303,161.287 " />
    <polygon fill="#FFFFFF" points="87.352,119.064 114.784,160.397 176.666,113.652 154.25,85.064 " />
    <g>
        <rect x="104.405" y="70.365" transform="matrix(0.9494 0.314 -0.314 0.9494 28.0591 -31.4593)" fill="#4A4A4A" width="14.546" height="2" />
    </g>
    <g>
        <rect x="64.83" y="63.502" transform="matrix(0.2905 0.9569 -0.9569 0.2905 114.9953 -12.3576)" fill="#4A4A4A" width="2" height="15.725" />
    </g>
    <g>
        <linearGradient id="SVGID_2_" gradientUnits="userSpaceOnUse" x1="74.2401" y1="23.5957" x2="102.1289" y2="51.4846">
            <stop offset="0" style="stop-color:#5EA2FF" />
            <stop offset="0.626" style="stop-color:#00D5FF" />
            <stop offset="1" style="stop-color:#00E3FF" />
        </linearGradient>
        <path fill="url(#SVGID_2_)" d="M68.8,39.49c-0.531,0.017-0.982-0.416-0.968-0.947c0.282-11.08,7.529-19.265,19.003-19.636
		c15.286-0.495,20.444,8.731,20.646,14.959c0.253,7.846-2.963,11.108-6.355,13.889c-3.394,2.702-7.046,4.924-7.62,9.72l0.07,2.145
		c0.017,0.513-0.386,0.943-0.899,0.96l-9.061,0.293c-0.513,0.017-0.943-0.386-0.959-0.9l-0.087-2.711
		c0.258-7.053,3.472-10.315,6.624-12.927c3.076-2.609,5.764-4.558,5.622-8.927c-0.16-4.934-2.822-7.197-7.109-7.058
		c-5.52,0.178-7.848,4.544-7.988,9.89c-0.013,0.499-0.397,0.907-0.896,0.923L68.8,39.49z" />
    </g>
    <linearGradient id="SVGID_3_" gradientUnits="userSpaceOnUse" x1="83.402" y1="70.4675" x2="94.118" y2="81.1835">
        <stop offset="0" style="stop-color:#5EA2FF" />
        <stop offset="0.626" style="stop-color:#00D5FF" />
        <stop offset="1" style="stop-color:#00E3FF" />
    </linearGradient>
    <circle fill="url(#SVGID_3_)" cx="88.76" cy="75.826" r="7.576" />
    <g>
        <g>
            <g>
                <path fill="#4A4A4A" d="M82.775,59.494c-1.048,0-1.895-0.821-1.928-1.869l-0.087-2.71c0.274-7.559,3.75-11.047,6.985-13.729
				l0.588-0.496c2.781-2.339,4.79-4.029,4.673-7.628c-0.136-4.166-2.224-6.207-6.078-6.091c-5.91,0.191-6.935,5.669-7.021,8.917
				c-0.027,1.031-0.845,1.864-1.863,1.896l-10.024,0.325c-0.001,0-0.002,0-0.004,0c-0.582,0-1.087-0.214-1.451-0.587
				c-0.365-0.375-0.559-0.866-0.545-1.385c0.304-11.951,8.33-20.233,19.971-20.609c0.406-0.013,0.808-0.02,1.201-0.02
				c6.638,0,12.087,1.902,15.758,5.5c2.875,2.817,4.594,6.625,4.718,10.446c0.267,8.257-3.174,11.787-6.721,14.695
				c-0.424,0.338-0.842,0.66-1.256,0.98c-2.959,2.284-5.516,4.259-5.995,8.011l0.066,2.068c0.018,0.513-0.166,1.004-0.519,1.381
				c-0.353,0.377-0.831,0.594-1.347,0.61L82.775,59.494z M87.263,24.965c4.825,0,7.574,2.852,7.742,8.032
				c0.148,4.569-2.539,6.83-5.384,9.224l-0.59,0.498c-3.044,2.522-6.028,5.536-6.271,12.2l0.084,2.572l8.991-0.291l-0.141-2.149
				l0.009-0.075c0.555-4.633,3.713-7.072,6.768-9.43c0.407-0.314,0.816-0.63,1.222-0.953c3.281-2.69,6.216-5.721,5.979-13.075
				c-0.173-5.339-4.499-14.483-19.615-13.992c-10.65,0.344-17.721,7.635-18.034,18.582l9.958-0.323
				c0.102-6.577,3.45-10.638,8.883-10.813C86.999,24.967,87.131,24.965,87.263,24.965z" />
            </g>
        </g>
        <g>
            <path fill="#4A4A4A" d="M87.948,82.022c-1.042,0-2.069-0.189-3.051-0.563c-2.141-0.815-3.835-2.415-4.773-4.505
			c-0.937-2.09-1.004-4.42-0.189-6.561c1.258-3.305,4.479-5.525,8.015-5.525c1.042,0,2.069,0.189,3.051,0.563
			c2.141,0.815,3.836,2.415,4.772,4.505c0.938,2.09,1.005,4.42,0.189,6.561C94.705,79.802,91.483,82.022,87.948,82.022z
			 M87.95,66.868c-2.711,0-5.181,1.703-6.146,4.237c-0.625,1.641-0.574,3.428,0.145,5.03c0.719,1.603,2.018,2.83,3.66,3.455
			c0.754,0.287,1.541,0.433,2.339,0.433c2.711,0,5.181-1.703,6.146-4.237c0.625-1.641,0.574-3.428-0.145-5.03
			c-0.719-1.603-2.019-2.83-3.66-3.455C89.535,67.013,88.749,66.868,87.95,66.868z" />
        </g>
    </g>
    <g>
        <rect x="126.512" y="43.459" transform="matrix(0.7012 0.7129 -0.7129 0.7012 91.5404 -68.5123)" fill="#4A4A4A" width="2" height="63.003" />
    </g>
    <g>
        <rect x="122.824" y="54.58" transform="matrix(0.7386 0.6741 -0.6741 0.7386 81.8188 -64.2981)" fill="#4A4A4A" width="1.999" height="37.557" />
    </g>
    <g>
        <rect x="47.102" y="81.63" transform="matrix(0.6638 0.7479 -0.7479 0.6638 82.6961 -18.7155)" fill="#4A4A4A" width="30.128" height="2.001" />
    </g>
    <circle fill="#FFFFFF" cx="32.016" cy="63.259" r="3.772" />
    <path fill="#4A4A4A" d="M79.688,104.604L31.811,55.768l-1.428,1.4l1.323,1.349c-2.485,0.163-4.462,2.216-4.462,4.741
	c0,2.631,2.141,4.772,4.772,4.772c2.494,0,4.524-1.93,4.732-4.371l41.513,42.344L79.688,104.604z M32.016,66.031
	c-1.528,0-2.772-1.244-2.772-2.772c0-1.529,1.244-2.772,2.772-2.772c1.529,0,2.772,1.244,2.772,2.772
	C34.788,64.787,33.544,66.031,32.016,66.031z" />
    <circle fill="#FFFFFF" cx="154.25" cy="69.08" r="4.308" />
    <path fill="#4A4A4A" d="M154.25,74.389c-2.927,0-5.309-2.381-5.309-5.308c0-2.927,2.382-5.309,5.309-5.309s5.309,2.381,5.309,5.309
	C159.559,72.007,157.177,74.389,154.25,74.389z M154.25,65.772c-1.824,0-3.309,1.484-3.309,3.309s1.484,3.308,3.309,3.308
	s3.309-1.484,3.309-3.308S156.074,65.772,154.25,65.772z" />
    <path fill="#4A4A4A" d="M177.269,114.45c0.214-0.162,0.354-0.402,0.389-0.669c0.035-0.266-0.039-0.535-0.204-0.746l-22.416-28.588
	c-0.001-0.001-0.002-0.001-0.003-0.002c-0.066-0.083-0.146-0.153-0.236-0.212c-0.034-0.023-0.072-0.036-0.108-0.054
	c-0.044-0.022-0.083-0.05-0.13-0.065l-24.5-8l-0.621,1.901l22.207,7.251L98.395,112.33l-10.042-4.28v-6.154h-2v6.176l-9.153,4.24
	L26.58,84.347l19.785-5.824l-0.564-1.919l-22.083,6.5c-0.1,0.029-0.191,0.074-0.275,0.13c-0.015,0.01-0.026,0.025-0.041,0.036
	c-0.077,0.058-0.145,0.126-0.202,0.204c-0.008,0.011-0.021,0.018-0.029,0.03L2.923,113.477c-0.296,0.438-0.2,1.031,0.22,1.353
	L23,130.073v3.433c-1.004-1.493-1.962-3.024-2.869-4.594l-1.731,1c14.585,25.251,41.741,40.938,70.87,40.938
	c28.622,0,54.677-14.569,69.7-38.974l-1.703-1.049c-0.649,1.054-1.326,2.082-2.017,3.099v-2.843L177.269,114.45z M115.029,158.958
	l-26.223-39.512l65.164-33.119l21.28,27.14L115.029,158.958z M87.37,109.805l8.699,3.707l-6.175,3.138l-2.521,1.281l-8.002-4.421
	L87.37,109.805z M24.317,85.382l15.873,8.769l45.824,25.316l-21.046,40.302L5.107,113.816L24.317,85.382z M25,136.33v-4.722
	l39.694,30.472c0.176,0.136,0.391,0.207,0.609,0.207c0.072,0,0.144-0.008,0.216-0.023c0.289-0.063,0.534-0.252,0.67-0.514
	l20.163-38.612v45.653C62.01,167.894,39.365,155.801,25,136.33z M153.25,136.744c-15.031,20.224-38.458,32.106-63.98,32.106
	c-0.307,0-0.611-0.012-0.917-0.015v-46.456l25.599,38.571c0.152,0.23,0.393,0.387,0.665,0.433c0.056,0.01,0.112,0.015,0.168,0.015
	c0.216,0,0.428-0.07,0.603-0.202l37.863-28.601V136.744z" />
</svg>
