<?xml version="1.0" encoding="UTF-8"?>
<svg width="27px" height="30px" viewBox="0 0 27 30" version="1.1" xmlns="http://www.w3.org/2000/svg" xmlns:xlink="http://www.w3.org/1999/xlink">
    <!-- Generator: Sketch 46 (44423) - http://www.bohemiancoding.com/sketch -->
    <title>qq copy</title>
    <desc>Created with Sketch.</desc>
    <defs>
        <linearGradient x1="0%" y1="0%" x2="101.999998%" y2="100.999999%" id="linearGradient-1">
            <stop stop-color="#5EA2FF" offset="0%"></stop>
            <stop stop-color="#00D5FF" offset="62.5956633%"></stop>
            <stop stop-color="#00E3FF" offset="100%"></stop>
        </linearGradient>
    </defs>
    <g id="就看这个别的不用看" stroke="none" stroke-width="1" fill="none" fill-rule="evenodd">
        <g id="qq-copy" fill="url(#linearGradient-1)">
            <path d="M0.924395981,17.3028997 C-0.125195269,19.9447771 -0.29886131,22.4637892 0.546480745,22.9318148 C1.13128981,23.2565889 2.04186686,22.5135384 2.89894036,21.1618491 C3.23901659,22.6422283 4.07720452,23.970482 5.2758461,25.044234 C4.02075115,25.5386074 3.19846513,26.3461399 3.19846513,27.258961 C3.19846513,28.7627757 5.41913246,29.9769011 8.1579838,29.9769011 C10.6290123,29.9769011 12.6759797,28.9909638 13.0537255,27.691936 L13.6415182,27.691936 C14.0265876,28.9909638 16.0691133,29.9769011 18.5430578,29.9769011 C21.2849267,29.9769011 23.5025765,28.7627414 23.5025765,27.258961 C23.5025765,26.3461399 22.6817823,25.5445005 21.4237375,25.044234 C22.6180731,23.970482 23.462025,22.6422625 23.799287,21.1618491 C24.656191,22.5135384 25.5624959,23.2566231 26.1502548,22.9318148 C26.9999029,22.4637892 26.8305429,19.9447771 25.7708816,17.3028997 C24.9429671,15.2344393 23.8210207,13.7072576 22.9654391,13.3649754 C22.9770349,13.2391978 22.9871728,13.1001606 22.9871728,12.9670509 C22.9871728,12.1654115 22.7758372,11.4252391 22.4154853,10.8225277 C22.4227072,10.7742861 22.4227072,10.7289226 22.4227072,10.680681 C22.4227072,10.3105777 22.3401463,9.9667879 22.1983179,9.66980069 C21.9826425,4.2851772 18.6864119,0.00356584822 13.3491476,0.00356584822 C8.01320556,0.00356584822 4.71266899,4.28521145 4.49699355,9.66986923 C4.35808106,9.97120778 4.27263817,10.3164708 4.27263817,10.6851009 C4.27263817,10.733411 4.27263817,10.778706 4.27843607,10.8270161 C3.92527216,11.4253076 3.7138688,12.1654458 3.7138688,12.9700317 C3.7138688,13.104649 3.72105686,13.2392321 3.72980458,13.3708685 C2.87720668,13.7102042 1.75095418,15.2344393 0.924395981,17.3028997 Z" id="Shape"></path>
        </g>
    </g>
</svg>