<?xml version="1.0" encoding="UTF-8"?>
<svg width="36px" height="30px" viewBox="0 0 36 30" version="1.1" xmlns="http://www.w3.org/2000/svg" xmlns:xlink="http://www.w3.org/1999/xlink">
    <!-- Generator: Sketch 46 (44423) - http://www.bohemiancoding.com/sketch -->
    <title>微信 copy</title>
    <desc>Created with Sketch.</desc>
    <defs>
        <linearGradient x1="0%" y1="0%" x2="101.999998%" y2="100.999999%" id="linearGradient-1">
            <stop stop-color="#5EA2FF" offset="0%"></stop>
            <stop stop-color="#00D5FF" offset="62.5956633%"></stop>
            <stop stop-color="#00E3FF" offset="100%"></stop>
        </linearGradient>
    </defs>
    <g id="就看这个别的不用看" stroke="none" stroke-width="1" fill="none" fill-rule="evenodd">
        <g id="微信-copy" fill="url(#linearGradient-1)">
            <g id="Group">
                <path d="M12.8762406,0.0291127721 C5.77522769,0.0291127721 0.0201045278,4.84297279 0.0201045278,10.7814072 C0.0201045278,14.2631167 1.99816324,17.3589204 5.06652843,19.32328 C5.10609926,19.3481875 5.18447758,19.397199 5.18447758,19.397199 L3.94183347,23.2887577 L8.58945588,20.9215391 C8.58945588,20.9215391 8.73500416,20.9636409 8.80820013,20.9844105 C10.0861567,21.3400256 11.4545838,21.532858 12.876321,21.532858 C13.1665338,21.532858 13.4541353,21.5216496 13.7400495,21.5062632 C13.4765118,20.6890154 13.3318875,19.8286615 13.3318875,18.9408691 C13.3318875,13.5199085 18.5763262,9.12461528 25.0422376,9.12461528 C25.2247856,9.12461528 25.4039189,9.12798985 25.5830923,9.13666731 C24.6356827,3.97832035 19.3073217,0.0291127721 12.8762406,0.0291127721 Z M8.40256913,8.8265688 C7.40534439,8.8265688 6.59757753,8.04298632 6.59757753,7.07850291 C6.59757753,6.11225187 7.40530423,5.33035668 8.40256913,5.33035668 C9.40063748,5.33035668 10.2092078,6.11225191 10.2092078,7.07850291 C10.2092078,8.04298629 9.40063748,8.8265688 8.40256913,8.8265688 Z M17.3499925,8.8265688 C16.3518438,8.8265688 15.5449607,8.04298632 15.5449607,7.07850291 C15.5449607,6.11225187 16.3518438,5.33035668 17.3499925,5.33035668 C18.3471369,5.33035668 19.1540601,6.11225191 19.1540601,7.07850291 C19.15402,8.04298629 18.3471369,8.8265688 17.3499925,8.8265688 Z" id="Shape"></path>
                <path d="M35.9989746,19.0045039 C35.9989746,13.9883707 31.1369467,9.92197735 25.140301,9.92197735 C19.1410439,9.92197735 14.2773287,13.9884109 14.2773287,19.0045039 C14.2773287,24.0216012 19.1410439,28.0888785 25.140301,28.0888785 C26.340763,28.0888785 27.4959496,27.925212 28.5758512,27.6238712 C28.6378388,27.6074402 28.7601267,27.5704003 28.7601267,27.5704003 L32.6852704,29.5717194 L31.6363424,26.2838065 C31.6363424,26.2838065 31.7035124,26.2417048 31.7362537,26.2209351 C34.3266356,24.5616123 35.9989746,21.9471665 35.9989746,19.0045039 Z M21.35942,17.3537782 C20.5172647,17.3537782 19.8343166,16.6924434 19.8343166,15.8760393 C19.8343166,15.0614027 20.5172647,14.4008312 21.35942,14.4008312 C22.2024993,14.4008312 22.8853671,15.0614027 22.8853671,15.8760393 C22.8853671,16.6924435 22.2024993,17.3537782 21.35942,17.3537782 Z M28.9168432,17.3537782 C28.0747682,17.3537782 27.3926236,16.6924434 27.3926236,15.8760393 C27.3926236,15.0614027 28.074728,14.4008312 28.9168432,14.4008312 C29.7608465,14.4008312 30.4427902,15.0614027 30.4427902,15.8760393 C30.4427902,16.6924435 29.7608465,17.3537782 28.9168432,17.3537782 Z" id="Shape"></path>
            </g>
        </g>
    </g>
</svg>