<?xml version="1.0" encoding="UTF-8"?>
<svg width="37px" height="30px" viewBox="0 0 37 30" version="1.1" xmlns="http://www.w3.org/2000/svg" xmlns:xlink="http://www.w3.org/1999/xlink">
    <!-- Generator: Sketch 46 (44423) - http://www.bohemiancoding.com/sketch -->
    <title>新浪</title>
    <desc>Created with Sketch.</desc>
    <defs>
        <linearGradient x1="0%" y1="0%" x2="101.999998%" y2="100.999999%" id="linearGradient-1">
            <stop stop-color="#5EA2FF" offset="0%"></stop>
            <stop stop-color="#00D5FF" offset="62.5956633%"></stop>
            <stop stop-color="#00E3FF" offset="100%"></stop>
        </linearGradient>
    </defs>
    <g id="就看这个别的不用看" stroke="none" stroke-width="1" fill="none" fill-rule="evenodd">
        <g id="新浪" fill="url(#linearGradient-1)">
            <g id="Group">
                <path d="M29.6444795,0.269766602 C27.4905303,-0.232271057 25.2766367,0.200455566 24.6559473,0.319556946 C24.6084687,0.323511414 24.5627246,0.367226257 24.5184619,0.376249634 C24.4977939,0.380923096 24.4846777,0.402241272 24.4846777,0.402241272 C23.8716484,0.575123413 23.4246855,1.13849127 23.4246855,1.80435175 C23.4246855,2.59729443 24.0707764,3.25017706 24.8779111,3.25017706 C24.8779111,3.25017706 25.661126,3.14552747 26.1932178,2.9390683 C26.7202871,2.72757617 31.1791846,2.78099744 33.3955713,6.48284662 C34.6032021,9.18389191 33.92629,10.9913353 33.8421367,11.2822404 C33.8421367,11.2822404 33.5544111,11.9838348 33.5544111,12.6753634 C33.5544111,13.4726201 34.2001045,13.9731838 35.0006992,13.9731838 C35.6706738,13.9731838 36.2325752,13.8837409 36.3976299,12.7565738 L36.4063018,12.7565738 C38.7857559,4.86963947 33.4975742,1.16412341 29.6444795,0.269766602 Z" id="Shape"></path>
                <path d="M30.3703877,11.89148 C30.8607461,11.89148 31.2793809,11.529826 31.3486475,11.0578063 C31.3569941,11.0224318 31.3620889,10.9910477 31.3620889,10.9517187 C32.1064609,4.2946958 25.8783564,5.43987372 25.8783564,5.43987372 C25.325127,5.43987372 24.8826084,5.88525464 24.8826084,6.44107306 C24.8826084,6.98639417 25.325127,7.43069659 25.8783564,7.43069659 C30.3521406,6.44973694 29.3647393,10.8990524 29.3647393,10.8990524 C29.3647754,11.450485 29.8145928,11.89148 30.3703877,11.89148 Z" id="Shape"></path>
                <path d="M13.2910215,15.7734373 C7.19754785,16.4829766 7.90130664,22.1626349 7.90130664,22.1626349 C7.90130664,22.1626349 7.83854395,23.9614504 9.53512402,24.8770535 C13.1006016,26.7981699 16.7719482,25.6357001 18.6278018,23.2518751 C20.4832939,20.8676905 19.395335,15.0696498 13.2910215,15.7734373 Z M11.7529922,23.7452488 C10.6168682,23.8780471 9.69913086,23.2244454 9.69913086,22.2781053 C9.69913086,21.3343177 10.5134922,20.3472466 11.6518203,20.2296191 C12.9592139,20.1050894 13.8105391,20.8543531 13.8105391,21.8016998 C13.8104668,22.7447685 12.8880322,23.6160096 11.7529922,23.7452488 Z M15.3463643,20.7009557 C14.9607549,20.9867919 14.4874512,20.947391 14.2842402,20.6038556 C14.0712734,20.2682291 14.1514521,19.730098 14.5403496,19.4485399 C14.9915762,19.1139559 15.4613389,19.211092 15.6652363,19.54564 C15.8701816,19.8888519 15.7232656,20.4046583 15.3463643,20.7009557 Z" id="Shape"></path>
                <path d="M27.4016074,14.3500086 C25.9629434,14.0724409 26.6633418,13.3022544 26.6633418,13.3022544 C26.6633418,13.3022544 28.0708232,10.9917308 26.3840713,9.31273566 C24.2924512,7.23282941 19.2121777,9.57764905 19.2121777,9.57764905 C17.2715205,10.1775059 17.7865937,9.30338873 18.0615645,7.81967242 C18.0615645,6.07000018 17.4586523,3.10943396 12.2898896,4.8591062 C7.12647461,6.61679523 2.69149707,12.776454 2.69149707,12.776454 C-0.391499023,16.8702269 0.0180664062,20.0339808 0.0180664062,20.0339808 C0.788201172,27.018254 8.24702539,28.9361708 14.048835,29.3902156 C20.1517393,29.8658303 28.3904902,27.2969001 30.8873037,22.0171464 C33.3854902,16.7294838 28.8460527,14.6373187 27.4016074,14.3500086 Z M14.5008203,27.4214299 C8.44033594,27.7022331 3.5425332,24.6788987 3.5425332,20.6568455 C3.5425332,16.6283572 8.44037207,13.3993546 14.5008203,13.1210679 C20.5627139,12.8424217 25.4707061,15.3290629 25.4707061,19.3474493 C25.4707061,23.3695385 20.5627139,27.1460911 14.5008203,27.4214299 Z" id="Shape"></path>
            </g>
        </g>
    </g>
</svg>