<?xml version="1.0" encoding="UTF-8"?>
<svg width="16px" height="38px" viewBox="0 0 16 38" version="1.1" xmlns="http://www.w3.org/2000/svg" xmlns:xlink="http://www.w3.org/1999/xlink">
    <!-- Generator: Sketch 46 (44423) - http://www.bohemiancoding.com/sketch -->
    <title>Artboard 2</title>
    <desc>Created with Sketch.</desc>
    <defs></defs>
    <g id="z" stroke="none" stroke-width="1" fill="none" fill-rule="evenodd">
        <g id="Artboard-2" fill-rule="nonzero">
            <path d="M16,8.49382716 C16,9.08641975 15.5,9.58024691 14.9,9.58024691 L14.2,9.58024691 L14.2,9.58024691 C14,9.58024691 13.9,9.67901235 13.8,9.87654321 L13.5,10.6666667 C13.4,10.8641975 13.5,11.0617284 13.6,11.2592593 L13.6,11.2592593 L14.1,11.7530864 C14.5,12.1481481 14.5,12.8395062 14.1,13.2345679 L13.3,14.0246914 C12.9,14.4197531 12.2,14.4197531 11.8,14.0246914 L11.3,13.5308642 L11.3,13.5308642 C11.2,13.4320988 11,13.4320988 10.8,13.5308642 L10,13.8271605 C9.8,13.9259259 9.7,14.0246914 9.7,14.2222222 L9.7,14.2222222 L9.7,14.9135802 L9.7,15.0123457 L9.7,15.0123457 C9.6,15.5061728 9.2,16 8.6,16 L7.5,16 C6.9,16 6.4,15.5061728 6.4,14.9135802 L6.4,14.2222222 L6.3,14.2222222 C6.3,14.0246914 6.1,13.9259259 6,13.8271605 L5.2,13.4320988 C5,13.3333333 4.9,13.3333333 4.7,13.4320988 L4.7,13.4320988 L4.2,13.8271605 C3.8,14.2222222 3.1,14.2222222 2.7,13.8271605 L2,13.1358025 C1.6,12.7407407 1.6,12.0493827 2,11.654321 L2.5,11.1604938 C2.5,11.1604938 2.5,11.1604938 2.5,11.0617284 C2.6,10.962963 2.6,10.7654321 2.5,10.6666667 L2.2,9.87654321 C2.1,9.67901235 2,9.58024691 1.9,9.58024691 L1.9,9.48148148 L1.1,9.48148148 C0.5,9.48148148 0,8.98765432 0,8.39506173 L0,7.30864198 C0,6.71604938 0.5,6.22222222 1.1,6.22222222 L1.7,6.22222222 L1.7,6.22222222 L1.9,6.22222222 L1.9,6.22222222 C2,6.22222222 2.1,6.12345679 2.2,5.92592593 L2.6,5.13580247 C2.7,5.03703704 2.7,4.83950617 2.6,4.74074074 C2.6,4.74074074 2.6,4.74074074 2.6,4.64197531 L2,4.14814815 C1.6,3.75308642 1.6,3.0617284 2,2.66666667 L2.8,1.87654321 C3.2,1.48148148 3.9,1.48148148 4.3,1.87654321 L4.7,2.27160494 C4.7,2.37037037 4.8,2.37037037 4.9,2.4691358 L4.9,2.4691358 L4.9,2.4691358 C5,2.56790123 5.2,2.56790123 5.3,2.4691358 L6.1,2.17283951 C6.2,2.07407407 6.3,1.97530864 6.4,1.87654321 L6.4,1.87654321 L6.4,1.08641975 L6.4,1.08641975 L6.4,0.888888889 C6.5,0.395061728 7,0 7.5,0 L8.6,0 C9.2,0 9.7,0.49382716 9.7,1.08641975 L9.7,1.58024691 C9.5,1.87654321 9.7,2.07407407 9.9,2.17283951 L10.7,2.4691358 C10.9,2.56790123 11.1,2.4691358 11.2,2.37037037 L11.2,2.37037037 L11.7,1.97530864 L12,1.77777778 C12.4,1.58024691 12.9,1.58024691 13.3,1.97530864 L14,2.66666667 C14.4,3.0617284 14.4,3.75308642 14,4.14814815 L13.5,4.64197531 L13.5,4.64197531 C13.4,4.74074074 13.4,4.9382716 13.4,5.13580247 L13.7,5.92592593 C13.8,6.12345679 14,6.22222222 14.1,6.22222222 L14.1,6.22222222 L14.8,6.22222222 L15.1,6.22222222 C15.7,6.51851852 16,6.91358025 16,7.40740741 L16,8.49382716 L16,8.49382716 Z M7.5,4.44444444 C6.2,4.44444444 4.5,6.02469136 4.5,7.90123457 C4.5,9.77777778 6.1,11.3580247 8,11.3580247 C9.9,11.3580247 11.5,9.77777778 11.5,7.90123457 C11.5,6.02469136 9.6,4.34567901 8.5,4.44444444 L7.5,4.44444444 Z" id="XMLID_2409_" fill="#079DD8"></path>
            <path d="M16,28.4938272 C16,29.0864198 15.5,29.5802469 14.9,29.5802469 L14.2,29.5802469 L14.2,29.5802469 C14,29.5802469 13.9,29.6790123 13.8,29.8765432 L13.5,30.6666667 C13.4,30.8641975 13.5,31.0617284 13.6,31.2592593 L13.6,31.2592593 L14.1,31.7530864 C14.5,32.1481481 14.5,32.8395062 14.1,33.2345679 L13.3,34.0246914 C12.9,34.4197531 12.2,34.4197531 11.8,34.0246914 L11.3,33.5308642 L11.3,33.5308642 C11.2,33.4320988 11,33.4320988 10.8,33.5308642 L10,33.8271605 C9.8,33.9259259 9.7,34.0246914 9.7,34.2222222 L9.7,34.2222222 L9.7,34.9135802 L9.7,35.0123457 L9.7,35.0123457 C9.6,35.5061728 9.2,36 8.6,36 L7.5,36 C6.9,36 6.4,35.5061728 6.4,34.9135802 L6.4,34.2222222 L6.3,34.2222222 C6.3,34.0246914 6.1,33.9259259 6,33.8271605 L5.2,33.4320988 C5,33.3333333 4.9,33.3333333 4.7,33.4320988 L4.7,33.4320988 L4.2,33.8271605 C3.8,34.2222222 3.1,34.2222222 2.7,33.8271605 L2,33.1358025 C1.6,32.7407407 1.6,32.0493827 2,31.654321 L2.5,31.1604938 C2.5,31.1604938 2.5,31.1604938 2.5,31.0617284 C2.6,30.962963 2.6,30.7654321 2.5,30.6666667 L2.2,29.8765432 C2.1,29.6790123 2,29.5802469 1.9,29.5802469 L1.9,29.4814815 L1.1,29.4814815 C0.5,29.4814815 0,28.9876543 0,28.3950617 L0,27.308642 C0,26.7160494 0.5,26.2222222 1.1,26.2222222 L1.7,26.2222222 L1.7,26.2222222 L1.9,26.2222222 L1.9,26.2222222 C2,26.2222222 2.1,26.1234568 2.2,25.9259259 L2.6,25.1358025 C2.7,25.037037 2.7,24.8395062 2.6,24.7407407 C2.6,24.7407407 2.6,24.7407407 2.6,24.6419753 L2,24.1481481 C1.6,23.7530864 1.6,23.0617284 2,22.6666667 L2.8,21.8765432 C3.2,21.4814815 3.9,21.4814815 4.3,21.8765432 L4.7,22.2716049 C4.7,22.3703704 4.8,22.3703704 4.9,22.4691358 L4.9,22.4691358 L4.9,22.4691358 C5,22.5679012 5.2,22.5679012 5.3,22.4691358 L6.1,22.1728395 C6.2,22.0740741 6.3,21.9753086 6.4,21.8765432 L6.4,21.8765432 L6.4,21.0864198 L6.4,21.0864198 L6.4,20.8888889 C6.5,20.3950617 7,20 7.5,20 L8.6,20 C9.2,20 9.7,20.4938272 9.7,21.0864198 L9.7,21.5802469 C9.5,21.8765432 9.7,22.0740741 9.9,22.1728395 L10.7,22.4691358 C10.9,22.5679012 11.1,22.4691358 11.2,22.3703704 L11.2,22.3703704 L11.7,21.9753086 L12,21.7777778 C12.4,21.5802469 12.9,21.5802469 13.3,21.9753086 L14,22.6666667 C14.4,23.0617284 14.4,23.7530864 14,24.1481481 L13.5,24.6419753 L13.5,24.6419753 C13.4,24.7407407 13.4,24.9382716 13.4,25.1358025 L13.7,25.9259259 C13.8,26.1234568 14,26.2222222 14.1,26.2222222 L14.1,26.2222222 L14.8,26.2222222 L15.1,26.2222222 C15.7,26.5185185 16,26.9135802 16,27.4074074 L16,28.4938272 L16,28.4938272 Z M7.5,24.4444444 C6.2,24.4444444 4.5,26.0246914 4.5,27.9012346 C4.5,29.7777778 6.1,31.3580247 8,31.3580247 C9.9,31.3580247 11.5,29.7777778 11.5,27.9012346 C11.5,26.0246914 9.6,24.345679 8.5,24.4444444 L7.5,24.4444444 Z" id="XMLID_16_" fill="#07AEFC"></path>
        </g>
    </g>
</svg>