<?xml version="1.0" encoding="UTF-8"?>
<svg width="64px" height="64px" viewBox="0 0 64 64" version="1.1" xmlns="http://www.w3.org/2000/svg" xmlns:xlink="http://www.w3.org/1999/xlink">
    <!-- Generator: Sketch 45.2 (43514) - http://www.bohemiancoding.com/sketch -->
    <title>Group 2 Copy 4</title>
    <desc>Created with Sketch.</desc>
    <defs></defs>
    <g id="就看这个别的不用看" stroke="none" stroke-width="1" fill="none" fill-rule="evenodd">
        <g id="设计中心-上传" transform="translate(-180.000000, -133.000000)">
            <g id="Group-11" transform="translate(176.000000, 121.000000)">
                <g id="Group-10" transform="translate(4.000000, 0.000000)">
                    <g id="Group-2-Copy-4" transform="translate(0.000000, 12.000000)">
                        <rect id="Rectangle-Copy-16" fill="#46E4C6" x="0" y="0" width="64" height="64"></rect>
                        <path d="M18,17.0044623 C18,15.8974283 18.8989839,15 20.0044623,15 L45.4955377,15 C46.6025717,15 47.822998,15.8305664 48.2252023,16.8648058 L50.2747977,22.1351942 C50.6753159,23.165098 51,24.8940411 51,26.0029517 L51,44.5 L20.0022853,44.5 C18.8964537,44.5 18,43.6010161 18,42.4955377 L18,17.0044623 Z" id="Rectangle" fill="#BEF4FF"></path>
                        <path d="M53.9955377,19.5 C55.1025717,19.5 56,20.4031564 56,21.5084941 L56,49.9915059 C56,51.1007666 55.1050616,52 53.9986107,52 L10.0013893,52 C8.8960525,52 8,51.1084602 8,50.0027084 L8,16.0000255 C8,13.7908724 9.79149099,12 12.0015361,12 L21.6074925,12 C22.7174213,12 23.9367213,12.8312872 24.337213,13.87322 L25.7799832,17.62678 C26.1776375,18.6613308 27.3989839,19.5 28.5044623,19.5 L53.9955377,19.5 Z" id="Combined-Shape" fill="#FFFFFF"></path>
                    </g>
                </g>
            </g>
        </g>
    </g>
</svg>