<?xml version="1.0" encoding="UTF-8"?>
<svg width="13px" height="9px" viewBox="0 0 13 9" version="1.1" xmlns="http://www.w3.org/2000/svg" xmlns:xlink="http://www.w3.org/1999/xlink">
    <!-- Generator: Sketch 45.2 (43514) - http://www.bohemiancoding.com/sketch -->
    <title>Page 1</title>
    <desc>Created with Sketch.</desc>
    <defs></defs>
    <g id="就看这个别的不用看" stroke="none" stroke-width="1" fill="none" fill-rule="evenodd">
        <g id="设计中心-上传-打开文件夹-批量管理" transform="translate(-133.000000, -574.000000)" fill="#FFFFFF">
            <g id="侧边内容" transform="translate(0.000000, -73.000000)">
                <g id="Group-7" transform="translate(56.000000, 331.000000)">
                    <g id="Group-3" transform="translate(16.000000, 69.000000)">
                        <g id="Group-4-Copy" transform="translate(55.000000, 239.000000)">
                            <g id="Page-1" transform="translate(6.122939, 8.000000)">
                                <path d="M4.54225,8.72625 C4.29525,8.72625 4.05925,8.62825 3.88525,8.45425 L0.27225,4.84125 C-0.09075,4.47825 -0.09075,3.89025 0.27225,3.52625 C0.63525,3.16325 1.22425,3.16325 1.58725,3.52625 L4.54225,6.48225 L10.75225,0.27225 C11.11525,-0.09075 11.70325,-0.09075 12.06625,0.27225 C12.42925,0.63525 12.42925,1.22425 12.06625,1.58725 L5.19925,8.45425 C5.02525,8.62825 4.78925,8.72625 4.54225,8.72625" id="Fill-2"></path>
                            </g>
                        </g>
                    </g>
                </g>
            </g>
        </g>
    </g>
</svg>