<?xml version="1.0" encoding="UTF-8"?>
<svg width="64px" height="64px" viewBox="0 0 64 64" version="1.1" xmlns="http://www.w3.org/2000/svg" xmlns:xlink="http://www.w3.org/1999/xlink">
    <!-- Generator: Sketch 45.2 (43514) - http://www.bohemiancoding.com/sketch -->
    <title>Group 18</title>
    <desc>Created with Sketch.</desc>
    <defs>
        <linearGradient x1="82.4482664%" y1="-4.27614301%" x2="37.3746608%" y2="94.9914363%" id="linearGradient-1">
            <stop stop-color="#FFDF2B" offset="0%"></stop>
            <stop stop-color="#EB9C00" offset="100%"></stop>
        </linearGradient>
        <linearGradient x1="22.7539438%" y1="0%" x2="74.0692842%" y2="97.7160395%" id="linearGradient-2">
            <stop stop-color="#FDFFDA" offset="0%"></stop>
            <stop stop-color="#FFFCC0" offset="100%"></stop>
        </linearGradient>
    </defs>
    <g id="就看这个别的不用看" stroke="none" stroke-width="1" fill="none" fill-rule="evenodd">
        <g id="设计中心-图案" transform="translate(-84.000000, -134.000000)">
            <g id="侧边内容">
                <g id="Group-19" transform="translate(80.000000, 130.000000)">
                    <g id="Group-18" transform="translate(4.000000, 4.000000)">
                        <rect id="Rectangle-Copy-3" fill="#E3EB4D" x="0" y="0" width="64" height="64"></rect>
                        <path d="M23.2009294,25.5429603 C23.2009294,25.5429603 33.9633925,23.843624 40.1942922,19.878506 C46.4251918,15.9133881 49.8238644,6.85026125 49.8238644,6.85026125 C49.8238644,6.85026125 50.9567552,13.0811609 50.3903098,18.7456152 C49.8238644,24.4100694 46.4251918,28.3751874 46.4251918,28.3751874 C50.9567552,26.6758511 52.6560915,23.2771786 52.6560915,23.2771786 C52.6560915,23.2771786 53.2225369,28.3751874 50.3903098,32.3403054 C47.5580827,36.3054234 43.0265193,38.5712051 43.0265193,38.5712051 C50.3903098,38.5712051 52.6560915,33.4731963 52.6560915,33.4731963 C52.6560915,33.4731963 52.0896461,44.8021048 41.8936284,51.5994499 C31.6976108,58.396795 24.3338202,55.5645679 24.3338202,55.5645679 C24.3338202,55.5645679 29.4318291,53.8652316 32.2640562,50.466559 C35.0962833,47.0678865 33.9633925,41.4034322 33.9633925,41.4034322 C33.396947,45.3685502 31.0447197,46.4831745 31.0447197,46.4831745 C31.6078367,44.848689 29.4318291,41.4034322 31.1311653,37.4383142 C32.8305016,33.4731963 37.9285105,29.5080783 37.9285105,29.5080783 C31.6976108,30.0745237 26.5996019,35.1725325 26.5996019,35.1725325 C26.0331565,34.0396417 26.5996019,32.3403054 26.5996019,32.3403054 C23.2009294,34.0396417 20.9351477,38.5712051 20.9351477,38.5712051 C20.3687023,35.1725325 22.634484,32.9067508 22.634484,32.9067508 C22.634484,32.9067508 19.2358114,33.4731963 16.4035843,37.4383142 C13.5713572,41.4034322 13.5713572,47.0678865 13.5713572,47.0678865 C13.5713572,47.0678865 9.03979375,36.8718688 15.2706934,27.2422966 C21.5015931,17.6127243 33.396947,17.6127243 33.396947,17.6127243 C33.396947,17.6127243 27.1660474,19.878506 23.2009294,25.5429603 Z" id="Path-11" fill="url(#linearGradient-1)"></path>
                        <circle id="Oval-2" fill="url(#linearGradient-2)" cx="21.5" cy="47.5" r="6.5"></circle>
                    </g>
                </g>
            </g>
        </g>
    </g>
</svg>