<?xml version="1.0" encoding="UTF-8"?>
<svg width="64px" height="64px" viewBox="0 0 64 64" version="1.1" xmlns="http://www.w3.org/2000/svg" xmlns:xlink="http://www.w3.org/1999/xlink">
    <!-- Generator: Sketch 45.2 (43514) - http://www.bohemiancoding.com/sketch -->
    <title>Group 11</title>
    <desc>Created with Sketch.</desc>
    <defs>
        <linearGradient x1="1.67249029%" y1="2.84167221%" x2="97.5509586%" y2="95.1496598%" id="linearGradient-1">
            <stop stop-color="#57E0FF" offset="0%"></stop>
            <stop stop-color="#00BBE6" offset="100%"></stop>
        </linearGradient>
        <linearGradient x1="59.5483476%" y1="14.0317435%" x2="50%" y2="100%" id="linearGradient-2">
            <stop stop-color="#03A3D9" offset="0%"></stop>
            <stop stop-color="#3AC6E5" offset="100%"></stop>
        </linearGradient>
        <linearGradient x1="50%" y1="0%" x2="50%" y2="100%" id="linearGradient-3">
            <stop stop-color="#FDFFFF" offset="0%"></stop>
            <stop stop-color="#50DFFF" offset="100%"></stop>
        </linearGradient>
        <linearGradient x1="15.0166253%" y1="10.3848212%" x2="88.4981318%" y2="86.8167981%" id="linearGradient-4">
            <stop stop-color="#D8F8FF" offset="0%"></stop>
            <stop stop-color="#B1F1FF" offset="100%"></stop>
        </linearGradient>
        <linearGradient x1="0%" y1="0%" x2="100%" y2="100%" id="linearGradient-5">
            <stop stop-color="#FFFFFF" offset="0%"></stop>
            <stop stop-color="#E2FAFF" offset="100%"></stop>
        </linearGradient>
    </defs>
    <g id="就看这个别的不用看" stroke="none" stroke-width="1" fill="none" fill-rule="evenodd">
        <g id="设计中心-图案" transform="translate(-180.000000, -343.000000)">
            <g id="侧边内容">
                <g id="Group-19" transform="translate(80.000000, 130.000000)">
                    <g id="Group-11" transform="translate(100.000000, 213.000000)">
                        <rect id="Rectangle-Copy-16" fill="#24C8CB" x="0" y="0" width="64" height="64"></rect>
                        <g id="Group-4" transform="translate(8.000000, 12.000000)">
                            <rect id="Rectangle-40" fill="url(#linearGradient-1)" x="0" y="1" width="48" height="32"></rect>
                            <path d="M1,20.5 C1,20.5 2.5,16 5,16 C7.5,16 9,24.5 12.5,24.5 C16,24.5 19,21.5 23,21.5 C27,21.5 30,27 35,27 C40,27 41,19.5 43,19.5 C45,19.5 45.5,23 47,25 C47,25 47,32.511898 47,32.511898 L1,32.5 L1,20.5 Z" id="Path-6" fill="url(#linearGradient-2)"></path>
                            <path d="M1,26.3333333 C5,20.5 5.96778121,13 9.5,13 C13.0322188,13 16.2291667,28.5 21.5,28.5 C26.7708333,28.5 28.5,24.5 34,24.5 C39.5,24.5 42,29.5 47,29.5 C47,29.5 47,32 47,32 L1,32 L1,26.3333333 Z" id="Path-12" fill="url(#linearGradient-3)"></path>
                            <circle id="Oval-3" fill="url(#linearGradient-4)" cx="37.5" cy="10.5" r="4.5"></circle>
                            <path d="M2,32 L46,32 L46,2 L2,2 L2,32 Z M45.9986107,0 C47.1039475,0 48,0.891539827 48,1.99729162 L48,38.0027084 C48,39.1057821 47.1050616,40 45.9986107,40 L2.00138927,40 C0.896052496,40 0,39.1084602 0,38.0027084 L0,1.99729162 C0,0.894217919 0.894938439,0 2.00138927,0 L45.9986107,0 Z" id="Rectangle-40" fill="url(#linearGradient-5)" fill-rule="nonzero"></path>
                        </g>
                    </g>
                </g>
            </g>
        </g>
    </g>
</svg>