<?xml version="1.0" encoding="UTF-8"?>
<svg width="64px" height="64px" viewBox="0 0 64 64" version="1.1" xmlns="http://www.w3.org/2000/svg" xmlns:xlink="http://www.w3.org/1999/xlink">
    <!-- Generator: Sketch 45.2 (43514) - http://www.bohemiancoding.com/sketch -->
    <title>Group 8</title>
    <desc>Created with Sketch.</desc>
    <defs>
        <linearGradient x1="12.3299919%" y1="0%" x2="100%" y2="100%" id="linearGradient-1">
            <stop stop-color="#7399FF" offset="0%"></stop>
            <stop stop-color="#4461E6" offset="100%"></stop>
        </linearGradient>
    </defs>
    <g id="就看这个别的不用看" stroke="none" stroke-width="1" fill="none" fill-rule="evenodd">
        <g id="设计中心-图案" transform="translate(-180.000000, -447.000000)">
            <g id="侧边内容">
                <g id="Group-19" transform="translate(80.000000, 130.000000)">
                    <g id="Group-8" transform="translate(100.000000, 317.000000)">
                        <rect id="Rectangle-Copy-19" fill="#5C90D9" x="0" y="0" width="64" height="64"></rect>
                        <g id="Group-5" transform="translate(11.000000, 11.000000)">
                            <rect id="Rectangle-12" fill="#E5F0FF" x="0" y="0" width="7" height="7"></rect>
                            <rect id="Rectangle-12-Copy-6" fill="#9DC6FF" x="0" y="7" width="7" height="7"></rect>
                            <rect id="Rectangle-12-Copy" fill="#9DC6FF" x="7" y="0" width="7" height="7"></rect>
                            <rect id="Rectangle-12-Copy-7" fill="#E5F0FF" x="7" y="7" width="7" height="7"></rect>
                            <rect id="Rectangle-12-Copy-2" fill="#E5F0FF" x="14" y="0" width="7" height="7"></rect>
                            <rect id="Rectangle-12-Copy-8" fill="#9DC6FF" x="14" y="7" width="7" height="7"></rect>
                            <rect id="Rectangle-12-Copy-3" fill="#9DC6FF" x="21" y="0" width="7" height="7"></rect>
                            <rect id="Rectangle-12-Copy-9" fill="#E5F0FF" x="21" y="7" width="7" height="7"></rect>
                            <rect id="Rectangle-12-Copy-4" fill="#E5F0FF" x="28" y="0" width="7" height="7"></rect>
                            <rect id="Rectangle-12-Copy-10" fill="#9DC6FF" x="28" y="7" width="7" height="7"></rect>
                            <rect id="Rectangle-12-Copy-5" fill="#9DC6FF" x="35" y="0" width="7" height="7"></rect>
                            <rect id="Rectangle-12-Copy-11" fill="#E5F0FF" x="35" y="7" width="7" height="7"></rect>
                            <rect id="Rectangle-12-Copy-17" fill="#E5F0FF" x="0" y="14" width="7" height="7"></rect>
                            <rect id="Rectangle-12-Copy-16" fill="#9DC6FF" x="7" y="14" width="7" height="7"></rect>
                            <rect id="Rectangle-12-Copy-15" fill="#E5F0FF" x="14" y="14" width="7" height="7"></rect>
                            <rect id="Rectangle-12-Copy-14" fill="#9DC6FF" x="21" y="14" width="7" height="7"></rect>
                            <rect id="Rectangle-12-Copy-13" fill="#E5F0FF" x="28" y="14" width="7" height="7"></rect>
                            <rect id="Rectangle-12-Copy-12" fill="#9DC6FF" x="35" y="14" width="7" height="7"></rect>
                            <rect id="Rectangle-12-Copy-23" fill="#9DC6FF" x="0" y="21" width="7" height="7"></rect>
                            <rect id="Rectangle-12-Copy-22" fill="#E5F0FF" x="7" y="21" width="7" height="7"></rect>
                            <rect id="Rectangle-12-Copy-21" fill="#9DC6FF" x="14" y="21" width="7" height="7"></rect>
                            <rect id="Rectangle-12-Copy-20" fill="#E5F0FF" x="21" y="21" width="7" height="7"></rect>
                            <rect id="Rectangle-12-Copy-19" fill="#9DC6FF" x="28" y="21" width="7" height="7"></rect>
                            <rect id="Rectangle-12-Copy-18" fill="#E5F0FF" x="35" y="21" width="7" height="7"></rect>
                            <rect id="Rectangle-12-Copy-29" fill="#E5F0FF" x="0" y="28" width="7" height="7"></rect>
                            <rect id="Rectangle-12-Copy-28" fill="#9DC6FF" x="7" y="28" width="7" height="7"></rect>
                            <rect id="Rectangle-12-Copy-27" fill="#E5F0FF" x="14" y="28" width="7" height="7"></rect>
                            <rect id="Rectangle-12-Copy-26" fill="#9DC6FF" x="21" y="28" width="7" height="7"></rect>
                            <rect id="Rectangle-12-Copy-25" fill="#E5F0FF" x="28" y="28" width="7" height="7"></rect>
                            <rect id="Rectangle-12-Copy-24" fill="#9DC6FF" x="35" y="28" width="7" height="7"></rect>
                            <rect id="Rectangle-12-Copy-35" fill="#9DC6FF" x="0" y="35" width="7" height="7"></rect>
                            <rect id="Rectangle-12-Copy-34" fill="#E5F0FF" x="7" y="35" width="7" height="7"></rect>
                            <rect id="Rectangle-12-Copy-33" fill="#9DC6FF" x="14" y="35" width="7" height="7"></rect>
                            <rect id="Rectangle-12-Copy-32" fill="#E5F0FF" x="21" y="35" width="7" height="7"></rect>
                            <rect id="Rectangle-12-Copy-31" fill="#9DC6FF" x="28" y="35" width="7" height="7"></rect>
                            <rect id="Rectangle-12-Copy-30" fill="#E5F0FF" x="35" y="35" width="7" height="7"></rect>
                        </g>
                        <path d="M38,42.5 L38,43.0018986 C38,44.1132936 38.8954305,45 40,45 C41.1122704,45 42,44.1054196 42,43.0018986 L42,40.4990507 L42,29.0045076 C42,23.47556 37.5228475,19 32,19 C26.4759382,19 22,23.4791706 22,29.0045076 L22,40.4990507 L22,43.0018986 C22,44.1132936 22.8954305,45 24,45 C25.1122704,45 26,44.1054196 26,43.0018986 L26,42.5 L26,41 C26,39.8954305 26.8877296,39 28,39 C29.1045695,39 30,39.8877296 30,41 L30,42.5 L30,43.0018986 C30,44.1132936 30.8954305,45 32,45 C33.1122704,45 34,44.1054196 34,43.0018986 L34,42.5 L34,41 C34,39.8954305 34.8877296,39 36,39 C37.1045695,39 38,39.8877296 38,41 L38,42.5 Z" id="Combined-Shape" fill="url(#linearGradient-1)"></path>
                        <circle id="Oval-7" fill="#FFFFFF" cx="27" cy="29" r="2"></circle>
                        <circle id="Oval-7-Copy" fill="#FFFFFF" cx="34" cy="29" r="2"></circle>
                    </g>
                </g>
            </g>
        </g>
    </g>
</svg>