<svg width="36px" height="36px" viewBox="0 0 64 64" version="1.1" xmlns="http://www.w3.org/2000/svg" xmlns:xlink="http://www.w3.org/1999/xlink">
    <defs>
        <linearGradient x1="0%" y1="0%" x2="101.999998%" y2="100.999999%" id="linearGradient-1">
            <stop stop-color="#5EA2FF" offset="0%"></stop>
            <stop stop-color="#00D5FF" offset="62.5956633%"></stop>
            <stop stop-color="#00E3FF" offset="100%"></stop>
        </linearGradient>
    </defs>
    <g id="Page-1" stroke="none" stroke-width="1" fill="none" fill-rule="evenodd" class="fontLoad">
        <g id="Artboard" fill-rule="nonzero" fill="url(#linearGradient-1)">
            <g id="加载" transform="translate(7.000000, 6.000000)">
                <path d="M11,8 C11,12.418278 14.581722,16 19,16 C23.418278,16 27,12.418278 27,8 C27,3.581722 23.418278,2.71558832e-16 19,0 C14.581722,-2.60243881e-16 11,3.581722 11,8 L11,8 Z" id="Shape"></path>
                <path d="M1.31881038e-15,23.9999999 C-3.7265705e-08,26.5008591 1.33419242,28.8117482 3.49999997,30.0621778 C5.66580752,31.3126074 8.33419248,31.3126074 10.5,30.0621778 C12.6658076,28.8117482 14,26.5008591 14,23.9999999 C14,20.1340067 10.8659932,17 7,17 C3.13400675,17 3.76802966e-16,20.1340067 0,23.9999999 L1.31881038e-15,23.9999999 Z" id="Shape" fill-opacity="0.9"></path>
                <path d="M6,41 C5.99999997,43.1435935 7.1435935,45.1243556 8.99999997,46.1961524 C10.8564064,47.2679492 13.1435936,47.2679492 15,46.1961524 C16.8564065,45.1243556 18,43.1435935 18,41 C18,37.6862915 15.3137085,35 12,35 C8.6862915,35 6,37.6862915 6,41 L6,41 Z" id="Shape" fill-opacity="0.8"></path>
                <path d="M22,47 C22,49.7614237 24.2385763,52 27,52 C29.7614237,52 32,49.7614237 32,47 C32,44.2385763 29.7614237,42 27,42 C24.2385763,42 22,44.2385763 22,47 Z" id="Shape" fill-opacity="0.6"></path>
                <path d="M36,40.5 C36,42.9852814 38.0147186,45 40.5,45 C42.9852814,45 45,42.9852814 45,40.5 C45,38.0147186 42.9852814,36 40.5,36 C38.0147186,36 36,38.0147186 36,40.5 L36,40.5 Z" id="Shape" fill-opacity="0.4"></path>
                <path d="M42,29 C42,31.209139 43.790861,33 46,33 C48.209139,33 50,31.209139 50,29 C50,26.790861 48.209139,25 46,25 C43.790861,25 42,26.790861 42,29 Z" id="Shape" fill-opacity="0.3"></path>
                <path d="M42,18 C42,19.6568542 43.3431458,21 45,21 C46.6568542,21 48,19.6568542 48,18 C48,16.3431458 46.6568542,15 45,15 C43.3431458,15 42,16.3431458 42,18 L42,18 Z" id="Shape" fill-opacity="0.2"></path>
                <path d="M36,11.5 C36,12.8807119 37.1192881,14 38.5,14 C39.8807119,14 41,12.8807119 41,11.5 C41,10.1192881 39.8807119,9 38.5,9 C37.1192881,9 36,10.1192881 36,11.5 Z" id="Shape" fill-opacity="0.1"></path>
            </g>
        </g>
    </g>
</svg>