<?xml version="1.0" encoding="UTF-8"?>
<svg width="8px" height="11px" viewBox="0 0 8 11" version="1.1" xmlns="http://www.w3.org/2000/svg" xmlns:xlink="http://www.w3.org/1999/xlink">
    <!-- Generator: Sketch 45.2 (43514) - http://www.bohemiancoding.com/sketch -->
    <title>Page 1 Copy</title>
    <desc>Created with Sketch.</desc>
    <defs></defs>
    <g id="Symbols" stroke="none" stroke-width="1" fill="none" fill-rule="evenodd">
        <g id="Group-Copy-5" transform="translate(-374.000000, -488.000000)" stroke="#FFFFFF" fill="#FFFFFF">
            <g transform="translate(351.000000, 453.000000)" id="Page-1-Copy">
                <g transform="translate(24.000000, 35.000000)">
                    <path d="M5.199015,10.4421625 C5.080215,10.4421625 4.961865,10.3963292 4.871415,10.3042042 L0.473115,5.8345375 C0.385815,5.74607917 0.336765,5.6255375 0.336765,5.5004125 C0.336765,5.37482917 0.385815,5.2542875 0.472665,5.16582917 L4.861065,0.6961625 C5.042415,0.511454167 5.336265,0.511454167 5.517165,0.6961625 C5.698515,0.880870833 5.698515,1.1801625 5.517165,1.36487083 L1.457715,5.49949583 L5.526615,9.6350375 C5.708415,9.8192875 5.708415,10.1185792 5.527515,10.3032875 C5.437065,10.3958708 5.317815,10.4421625 5.199015,10.4421625" id="Fill-2"></path>
                </g>
            </g>
        </g>
    </g>
</svg>