<?xml version="1.0" encoding="UTF-8"?>
<svg width="116px" height="50px" viewBox="0 0 116 50" version="1.1" xmlns="http://www.w3.org/2000/svg" xmlns:xlink="http://www.w3.org/1999/xlink">
    <!-- Generator: Sketch 45.1 (43504) - http://www.bohemiancoding.com/sketch -->
    <title>LOGO-彩色</title>
    <desc>Created with Sketch.</desc>
    <defs>
        <linearGradient x1="0%" y1="0%" x2="101.999998%" y2="100.999999%" id="linearGradient-1">
            <stop stop-color="#5EA2FF" offset="0%"></stop>
            <stop stop-color="#00D5FF" offset="62.5956633%"></stop>
            <stop stop-color="#00E3FF" offset="100%"></stop>
        </linearGradient>
    </defs>
    <g id="Page-1" stroke="none" stroke-width="1" fill="none" fill-rule="evenodd">
        <g id="输入手机号后-copy-7" transform="translate(-625.000000, -201.000000)">
            <g id="LOGO-彩色" transform="translate(625.000000, 201.000000)">
                <g id="Group" transform="translate(39.000000, 44.000000)" fill-rule="nonzero" fill="#4F4F4F">
                    <path d="M3.96656535,1.12340426 L1.36778116,1.12340426 L1.36778116,4.08510638 L3.96656535,4.08510638 L3.96656535,3.06382979 L4.92401216,3.26808511 L4.92401216,3.82978723 C4.92401216,4.23829787 4.83282675,4.54468085 4.69604863,4.69787234 C4.55927052,4.85106383 4.28571429,4.95319149 3.87537994,4.95319149 L1.36778116,4.95319149 C0.957446809,4.95319149 0.683890578,4.85106383 0.547112462,4.69787234 C0.410334347,4.54468085 0.319148936,4.23829787 0.319148936,3.82978723 L0.319148936,1.3787234 C0.319148936,0.970212766 0.410334347,0.663829787 0.547112462,0.510638298 C0.683890578,0.357446809 0.957446809,0.255319149 1.36778116,0.255319149 L3.87537994,0.255319149 C4.28571429,0.255319149 4.55927052,0.357446809 4.69604863,0.510638298 C4.83282675,0.663829787 4.92401216,0.970212766 4.92401216,1.3787234 L4.92401216,1.83829787 L3.96656535,1.99148936 L3.96656535,1.12340426 Z" id="Shape"></path>
                    <polygon id="Shape" points="6.93009119 4.95319149 6.93009119 0.255319149 7.88753799 0.255319149 7.88753799 2.09361702 10.9422492 2.09361702 10.9422492 0.255319149 11.899696 0.255319149 11.899696 4.95319149 10.9422492 4.95319149 10.9422492 2.96170213 7.88753799 2.96170213 7.88753799 4.95319149"></polygon>
                    <path d="M15,0.306382979 L15,4.08510638 L17.781155,4.08510638 L17.781155,0.306382979 L18.7386018,0.306382979 L18.7386018,3.88085106 C18.7386018,4.2893617 18.6474164,4.59574468 18.5106383,4.74893617 C18.3738602,4.90212766 18.100304,5.00425532 17.6899696,5.00425532 L15.0455927,5.00425532 C14.6352584,5.00425532 14.3617021,4.90212766 14.224924,4.74893617 C14.0881459,4.59574468 13.9969605,4.2893617 13.9969605,3.88085106 L13.9969605,0.306382979 L15,0.306382979 Z" id="Shape"></path>
                    <path d="M19.9240122,4.95319149 L22.2948328,0.255319149 L23.2522796,0.255319149 L25.6231003,4.95319149 L24.5288754,4.95319149 L24.0273556,3.93191489 L21.3829787,3.93191489 L20.881459,4.95319149 L19.9240122,4.95319149 Z M21.7933131,3.11489362 L23.6170213,3.11489362 L22.7051672,1.22553191 L21.7933131,3.11489362 Z" id="Shape"></path>
                    <path d="M26.9452888,4.95319149 L26.9452888,0.255319149 L27.6291793,0.255319149 L30.5471125,3.01276596 C30.6382979,3.11489362 30.7294833,3.16595745 30.8206687,3.26808511 C30.9118541,3.37021277 30.9574468,3.4212766 31.0486322,3.52340426 C31.0486322,3.26808511 31.0030395,3.06382979 31.0030395,2.96170213 L31.0030395,2.70638298 L31.0030395,0.255319149 L31.8693009,0.255319149 L31.8693009,4.95319149 L31.1854103,4.95319149 L28.1306991,2.04255319 C28.0395137,1.99148936 27.993921,1.8893617 27.9483283,1.83829787 C27.9027356,1.78723404 27.8571429,1.73617021 27.8115502,1.63404255 C27.8115502,1.78723404 27.8571429,1.94042553 27.8571429,2.04255319 L27.8571429,2.4 L27.8571429,4.90212766 L26.9452888,4.90212766 L26.9452888,4.95319149 Z" id="Shape"></path>
                    <path d="M37.887538,1.12340426 L34.8328267,1.12340426 L34.8328267,4.08510638 L37.887538,4.08510638 L37.887538,3.06382979 L36.2917933,3.06382979 L36.2917933,2.24680851 L38.8449848,2.24680851 L38.8449848,3.88085106 C38.8449848,4.2893617 38.7537994,4.59574468 38.6170213,4.74893617 C38.4802432,4.90212766 38.2066869,5.00425532 37.7963526,5.00425532 L34.9240122,5.00425532 C34.5136778,5.00425532 34.2401216,4.90212766 34.1033435,4.74893617 C33.9665653,4.59574468 33.8753799,4.2893617 33.8753799,3.88085106 L33.8753799,1.42978723 C33.8753799,1.0212766 33.9665653,0.714893617 34.1033435,0.561702128 C34.2401216,0.408510638 34.5136778,0.306382979 34.9240122,0.306382979 L37.7963526,0.306382979 C38.2066869,0.306382979 38.4802432,0.408510638 38.6170213,0.561702128 C38.7537994,0.714893617 38.8449848,0.970212766 38.8449848,1.3787234 L38.8449848,1.48085106 L37.887538,1.68510638 L37.887538,1.12340426 Z" id="Shape"></path>
                    <polygon id="Shape" points="40.8966565 4.95319149 40.8966565 0.255319149 41.8541033 0.255319149 41.8541033 2.19574468 44.1793313 0.255319149 45.5927052 0.255319149 42.8115502 2.45106383 45.9118541 4.90212766 44.3617021 4.90212766 41.8541033 2.85957447 41.8541033 4.90212766 40.8966565 4.90212766"></polygon>
                    <polygon id="Shape" points="47.325228 4.95319149 47.325228 0.255319149 48.2826748 0.255319149 48.2826748 4.95319149"></polygon>
                    <polygon id="Shape" points="52.3404255 1.12340426 52.3404255 4.95319149 51.3829787 4.95319149 51.3829787 1.12340426 49.4680851 1.12340426 49.4680851 0.306382979 54.2553191 0.306382979 54.2553191 1.12340426"></polygon>
                    <path d="M55.3039514,3.57446809 L55.4407295,3.57446809 C55.5319149,3.57446809 55.5775076,3.57446809 55.5775076,3.62553191 C55.6231003,3.67659574 55.6231003,3.7787234 55.6231003,3.88085106 L55.6231003,4.59574468 C55.6231003,4.74893617 55.6231003,4.85106383 55.5775076,4.85106383 C55.5319149,4.90212766 55.4407295,4.90212766 55.3039514,4.90212766 L54.5744681,4.90212766 C54.4832827,4.90212766 54.43769,4.90212766 54.43769,4.85106383 C54.3920973,4.8 54.3920973,4.69787234 54.3920973,4.59574468 L54.3920973,3.88085106 C54.3920973,3.72765957 54.3920973,3.67659574 54.43769,3.62553191 C54.4832827,3.57446809 54.5744681,3.57446809 54.7112462,3.57446809 L55.3039514,3.57446809 Z" id="Shape"></path>
                    <path d="M60.9118541,1.12340426 L58.3130699,1.12340426 L58.3130699,4.08510638 L60.9118541,4.08510638 L60.9118541,3.06382979 L61.8693009,3.26808511 L61.8693009,3.82978723 C61.8693009,4.23829787 61.7781155,4.54468085 61.6413374,4.69787234 C61.5045593,4.85106383 61.231003,4.95319149 60.8206687,4.95319149 L58.3586626,4.95319149 C57.9483283,4.95319149 57.674772,4.85106383 57.5379939,4.69787234 C57.4012158,4.54468085 57.3100304,4.23829787 57.3100304,3.82978723 L57.3100304,1.3787234 C57.3100304,0.970212766 57.4012158,0.663829787 57.5379939,0.510638298 C57.674772,0.357446809 57.9483283,0.255319149 58.3586626,0.255319149 L60.8662614,0.255319149 C61.2765957,0.255319149 61.550152,0.357446809 61.6869301,0.510638298 C61.8237082,0.663829787 61.9148936,0.970212766 61.9148936,1.3787234 L61.9148936,1.83829787 L60.9574468,1.99148936 L60.9574468,1.12340426 L60.9118541,1.12340426 Z" id="Shape"></path>
                    <path d="M63.7841945,1.3787234 C63.7841945,0.970212766 63.8753799,0.663829787 64.0121581,0.510638298 C64.1489362,0.357446809 64.4224924,0.255319149 64.8328267,0.255319149 L67.887538,0.255319149 C68.2978723,0.255319149 68.5714286,0.357446809 68.7082067,0.510638298 C68.8449848,0.663829787 68.9361702,0.970212766 68.9361702,1.3787234 L68.9361702,3.82978723 C68.9361702,4.23829787 68.8449848,4.54468085 68.7082067,4.69787234 C68.5714286,4.85106383 68.2978723,4.95319149 67.887538,4.95319149 L64.8328267,4.95319149 C64.4224924,4.95319149 64.1489362,4.85106383 64.0121581,4.69787234 C63.8753799,4.54468085 63.7841945,4.23829787 63.7841945,3.82978723 L63.7841945,1.3787234 Z M64.7416413,4.08510638 L67.9331307,4.08510638 L67.9331307,1.12340426 L64.7416413,1.12340426 L64.7416413,4.08510638 Z" id="Shape"></path>
                    <path d="M70.9878419,4.95319149 L70.9878419,0.255319149 L71.7629179,0.255319149 L73.7234043,3.06382979 L75.6382979,0.255319149 L76.4133739,0.255319149 L76.4133739,4.95319149 L75.5015198,4.95319149 L75.5015198,2.04255319 L75.5015198,1.83829787 C75.5015198,1.73617021 75.5015198,1.63404255 75.5471125,1.53191489 C75.5015198,1.63404255 75.4559271,1.73617021 75.4103343,1.83829787 C75.3647416,1.94042553 75.3191489,1.99148936 75.3191489,2.04255319 L73.768997,4.39148936 L73.5866261,4.39148936 L72.0364742,2.04255319 C71.9908815,1.94042553 71.9452888,1.8893617 71.899696,1.78723404 C71.8541033,1.68510638 71.8085106,1.63404255 71.8085106,1.58297872 L71.8085106,1.83829787 L71.8085106,2.09361702 L71.8085106,5.00425532 L70.9878419,5.00425532 L70.9878419,4.95319149 Z" id="Shape"></path>
                </g>
                <g id="img_logo_1" transform="translate(39.000000, 22.000000)">
                    <g id="Page-1">
                        <g id="Group-3" fill="#4F4F4F">
                            <path d="M19.5161494,19.8515883 L19.5161494,0.235666406 L24.0020688,0.235666406 L24.0020688,18.1080023 C24.0020688,19.3671586 23.4934857,19.8515883 22.0135237,19.8515883 L19.5161494,19.8515883 Z M15.770211,19.1250727 L15.770211,0.235666406 L17.7587561,0.235666406 L17.7587561,19.1735414 L15.770211,19.1735414 L15.770211,19.1250727 Z M9.3880596,3.28713516 L4.80958105,3.28713516 L4.57842931,4.78837734 L-4.9233599e-05,4.78837734 L0.73993176,0.235666406 L13.1342441,0.235666406 L14.0590973,4.78837734 L9.57317793,4.78837734 L9.3880596,3.28713516 Z M2.03477541,19.8515883 C0.647618761,19.8515883 0.0462303495,19.3189477 0.0462303495,18.1080023 L0.0462303495,6.14447109 L14.1053769,6.14447109 L14.1053769,14.087932 C14.1053769,15.589432 13.6428272,16.1705414 12.1165857,16.1705414 L7.1220832,16.1705414 L7.1220832,14.087932 L8.5557656,14.087932 C9.52689834,14.087932 9.61921134,13.894057 9.61921134,13.0708617 L9.61921134,8.08193203 L4.30099798,8.08193203 L4.30099798,17.0424633 C4.30099798,17.7689789 4.53214972,18.0595336 5.22585113,18.0595336 L14.0590973,18.0595336 L14.0590973,19.8031195 L2.03477541,19.8031195 L2.03477541,19.8515883 Z M50.5622318,3.83100329 L45.0416833,3.83100329 L45.0416833,3.00885648 L31.9585637,3.00885648 L31.9585637,3.83100329 L26.4377682,3.83100329 L26.4377682,1.07386329 L35.7163891,1.07386329 L35.6235362,0.348273026 L41.0514787,0.348273026 L41.2836109,1.07386329 L50.5622318,1.07386329 L50.5622318,3.83100329 Z M26.4841055,10.8709125 L30.3273876,10.144587 L26.4841055,9.51517358 L26.4841055,7.14237276 L37.3193856,8.88550245 L45.0522869,7.52976355 C45.330064,7.48130748 45.4227386,7.14237276 45.3761548,6.9972623 C45.3761548,6.94880623 45.2834803,6.80343803 45.0522869,6.80343803 L28.5678037,6.80343803 C27.1786716,6.80343803 26.4841055,6.27067904 26.4841055,5.2541326 L26.4841055,4.52754934 L32.8278747,4.52754934 C32.8278747,5.15722047 33.0129773,5.2541326 33.6612061,5.2541326 L50.5622318,5.2541326 L50.5622318,7.82049995 C50.5622318,8.78884806 50.0530148,9.41826144 48.6638826,9.66028403 L45.0983777,10.2899552 L50.516141,11.2098472 L50.516141,13.582648 L38.1063797,11.5003259 L26.4377682,13.582648 L26.4377682,10.8709125 L26.4841055,10.8709125 Z M50.5622318,13.9309211 L50.5622318,18.1044837 C50.5622318,19.3664207 49.9589411,19.8515625 48.474298,19.8515625 L26.4377682,19.8515625 L26.4377682,13.9309211 L50.5622318,13.9309211 Z M45.3198017,17.085376 L45.3198017,15.9205707 L31.6337723,15.9205707 L31.6337723,18.1530496 L44.2527453,18.1530496 C45.2269498,18.1044837 45.3198017,17.9104787 45.3198017,17.085376 Z M76.9819559,6.24127969 L76.9819559,18.1078734 C76.9819559,19.3188187 76.4268471,19.8514594 74.9931647,19.8514594 L63.4316386,19.8514594 L63.4316386,6.24127969 L64.3564918,6.24127969 L64.3564918,0.2355375 L69.3512404,0.2355375 L69.3512404,1.25260781 L76.9356763,1.25260781 L76.9356763,3.2385375 L69.3512404,3.2385375 L69.3512404,6.24127969 L76.9819559,6.24127969 Z M72.3109182,17.0908031 L72.3109182,8.17899844 L67.9638376,8.17899844 L67.9638376,18.1078734 L71.2935059,18.1078734 C72.1723256,18.1078734 72.3109182,17.9142562 72.3109182,17.0908031 Z M61.2579752,16.6548422 L61.99771,19.8514594 L58.5754826,19.8514594 L57.8355016,16.6548422 L61.2579752,16.6548422 Z M56.3557857,19.8514594 L53.0258713,19.8514594 L53.6732931,15.1533422 L53.0258713,15.1533422 L53.0258713,0.2355375 L61.99771,0.2355375 L61.99771,13.2161391 C61.99771,14.6689125 61.4891269,15.2018109 60.009165,15.2018109 L58.43689,15.2018109 L58.43689,2.17299844 L56.4483449,2.17299844 L56.4483449,14.6207016 L57.1880797,14.6207016 L56.3557857,19.8514594 Z" id="Combined-Shape"></path>
                        </g>
                        <g id="Group-12" transform="translate(52.875536, 0.000000)"></g>
                    </g>
                </g>
                <g id="Page-1">
                    <g id="Group-6">
                        <g id="Group-3">
                            <polygon id="Clip-8" fill="url(#linearGradient-1)" points="17.7525359 46.1594472 8.80593301 41.8605951 10.6774282 48.7474227 29.758122 48.7474227 30.8530024 37.933234"></polygon>
                            <path d="M27.2132871,33.741141 C26.1395072,33.741141 25.2696986,32.8598882 25.2696986,31.7733064 C25.2696986,30.6861312 26.1395072,29.8048784 27.2132871,29.8048784 C28.287067,29.8048784 29.1568756,30.6861312 29.1568756,31.7733064 C29.1568756,32.8598882 28.287067,33.741141 27.2132871,33.741141 M32.0406077,29.6333753 C30.4932392,29.4357611 29.8613971,28.6755692 30.0559904,27.4566512 C30.2505837,26.2377331 31.9509306,23.7779399 28.7928923,21.0712772 L33.4092081,18.85776 L31.222378,14.4295387 L26.72739,16.7664907 L20.1668995,0.0381163488 L0.000117224882,11.8463108 L7.53240191,25.1309745 L0.121444976,28.6981198 L2.06503349,33.8639823 L7.92451914,31.0315111 C7.92451914,31.0315111 5.14804785,36.6436377 8.46609809,40.0511486 C8.46609809,40.0511486 12.1633708,44.0829545 20.1135622,42.1714963 C28.0637536,40.2600382 31.99489,34.9226726 32.701756,33.5322515 C33.4092081,32.1424238 33.58739,29.8303962 32.0406077,29.6333753" id="Fill-1" fill="url(#linearGradient-1)"></path>
                            <path d="M7.92639474,31.0220161 L28.7414306,21.1134112 L6.83678947,35.7172837 C6.83678947,35.7172837 6.71135885,33.2361268 7.92639474,31.0220161" id="Fill-4" fill="#29B1F1"></path>
                        </g>
                    </g>
                    <g id="Group-9" transform="translate(8.726255, 37.575130)"></g>
                </g>
            </g>
        </g>
    </g>
</svg>