<?xml version="1.0" encoding="UTF-8"?>
<svg width="68px" height="68px" viewBox="0 0 68 68" version="1.1" xmlns="http://www.w3.org/2000/svg" xmlns:xlink="http://www.w3.org/1999/xlink">
    <!-- Generator: Sketch 45.1 (43504) - http://www.bohemiancoding.com/sketch -->
    <title>Group 17</title>
    <desc>Created with Sketch.</desc>
    <defs>
        <linearGradient x1="9.5050275%" y1="12.0350658%" x2="86.7196267%" y2="105.108117%" id="linearGradient-1">
            <stop stop-color="#5EA2FF" offset="0%"></stop>
            <stop stop-color="#00D5FF" offset="58.88%"></stop>
            <stop stop-color="#00E3FF" offset="100%"></stop>
        </linearGradient>
    </defs>
    <g id="Page-1" stroke="none" stroke-width="1" fill="none" fill-rule="evenodd">
        <g id="输入手机号后-copy-7" transform="translate(-649.000000, -328.000000)">
            <g id="Group-5" transform="translate(519.000000, 329.000000)">
                <g id="Group-17" transform="translate(130.853753, 0.000000)">
                    <path d="M41.4162327,27.6795983 C41.8642338,27.6795983 42.3005683,27.6986793 42.746236,27.7416114 C41.7405668,21.2183088 35.4825511,16.1904762 27.9061986,16.1904762 C19.6321777,16.1904762 12.9238275,22.1914376 12.9238275,29.5900793 C12.9238275,33.7282622 15.0238328,37.427583 18.3161744,39.8890266 C17.8961734,42.0404047 17.3735054,44.8715419 17.4481722,44.7761371 C17.5625058,44.733205 20.4581798,43.0898574 22.2758511,42.0141684 C24.0141888,42.6414549 25.9111936,42.9920675 27.9061986,42.9920675 C28.1161991,42.9920675 28.321533,42.9872973 28.5315335,42.9801419 C28.2981996,42.0571005 28.1791993,41.1078229 28.1791993,40.1179981 C28.176866,33.2512382 34.1035476,27.6795983 41.4162327,27.6795983 L41.4162327,27.6795983 Z M33.7908801,23.3052886 C34.8268827,23.3052886 35.6645515,24.1615466 35.6645515,25.2157696 C35.6645515,26.2747628 34.8245494,27.1334059 33.7908801,27.1334059 C32.7572108,27.1334059 31.9172087,26.2723776 31.9172087,25.2157696 C31.9172087,24.1591615 32.7595442,23.3052886 33.7908801,23.3052886 L33.7908801,23.3052886 Z M22.2898511,27.1334059 C21.2538485,27.1334059 20.4208464,26.2723776 20.4208464,25.2157696 C20.4208464,24.1591615 21.2585152,23.3052886 22.2898511,23.3052886 C23.3235204,23.3052886 24.1635225,24.1615466 24.1635225,25.2157696 C24.1635225,26.2747628 23.3235204,27.1334059 22.2898511,27.1334059 L22.2898511,27.1334059 Z M54.9262668,39.7077575 C54.9262668,33.5159865 49.1792523,28.4976944 42.0882344,28.4976944 C34.9948832,28.4976944 29.2455353,33.5183716 29.2455353,39.7077575 C29.2455353,45.8995286 34.9948832,50.924976 42.0882344,50.924976 C44.0179059,50.924976 45.8449105,50.5505122 47.4899147,49.8826786 C49.183919,50.8081051 51.0272569,51.7788489 51.1205905,51.8074703 C51.185924,51.8790239 50.8219231,50.068718 50.4252554,48.2393311 C53.1762624,46.1762025 54.9262668,43.1256342 54.9262668,39.7077575 L54.9262668,39.7077575 Z M37.2722222,37.248699 C36.2362196,37.248699 35.3962175,36.392441 35.3962175,35.338218 C35.3962175,34.28161 36.2362196,33.4205817 37.2722222,33.4205817 C38.3058915,33.4205817 39.1412269,34.28161 39.1412269,35.338218 C39.1412269,36.392441 38.3035582,37.248699 37.2722222,37.248699 L37.2722222,37.248699 Z M46.6312458,37.248699 C45.5975766,37.248699 44.7552411,36.392441 44.7552411,35.338218 C44.7552411,34.28161 45.5975766,33.4205817 46.6312458,33.4205817 C47.6649151,33.4205817 48.5072506,34.28161 48.5072506,35.338218 C48.5072506,36.392441 47.6649151,37.248699 46.6312458,37.248699 L46.6312458,37.248699 Z" id="Shape" fill="url(#linearGradient-1)"></path>
                    <ellipse id="Oval-Copy" stroke="#07AEFC" cx="33.1173079" cy="33.1904762" rx="33.1173079" ry="33.1904762"></ellipse>
                </g>
            </g>
        </g>
    </g>
</svg>