<?xml version="1.0" encoding="UTF-8"?>
<svg width="68px" height="68px" viewBox="0 0 68 68" version="1.1" xmlns="http://www.w3.org/2000/svg" xmlns:xlink="http://www.w3.org/1999/xlink">
    <!-- Generator: Sketch 45.1 (43504) - http://www.bohemiancoding.com/sketch -->
    <title>Group 18</title>
    <desc>Created with Sketch.</desc>
    <defs></defs>
    <g id="Page-1" stroke="none" stroke-width="1" fill="none" fill-rule="evenodd">
        <g id="输入手机号后-copy-5" transform="translate(-518.000000, -328.000000)">
            <g id="Group-5" transform="translate(519.000000, 329.000000)">
                <g id="Group-18">
                    <path d="M17.3174775,36.0640913 C15.9833612,39.3470203 15.7617188,42.476325 16.8379628,43.0571509 C17.5817433,43.4612037 18.738972,42.5373538 19.828003,40.8580094 C20.2606318,42.6972914 21.3262199,44.3471737 22.8500108,45.6813897 C21.2537599,46.2958867 20.2094835,47.2997053 20.2094835,48.4318949 C20.2094835,50.3006391 23.033292,51.8095238 26.5156339,51.8095238 C29.6569876,51.8095238 32.2591537,50.5847388 32.7407995,48.970632 L33.4888423,48.970632 C33.9790129,50.5847388 36.5747855,51.8095238 39.7204015,51.8095238 C43.2070057,51.8095238 46.0265518,50.3006391 46.0265518,48.4318949 C46.0265518,47.2976009 44.9822755,46.3022 43.3838934,45.6813897 C44.9012908,44.3471737 45.9754036,42.6972914 46.40377,40.8580094 C47.492801,42.5373538 48.6457674,43.4612037 49.391679,43.0571509 C50.4721854,42.476325 50.2569366,39.3470203 48.9100332,36.0640913 C47.8572322,33.494568 46.4314753,31.5963616 45.3424443,31.1712644 C45.3573625,31.0155357 45.3701496,30.8429715 45.3701496,30.6767206 C45.3701496,29.6813197 45.1016214,28.7616787 44.6434185,28.0124975 C44.6519432,27.9535731 44.6519432,27.8967532 44.6519432,27.8357244 C44.6519432,27.3769561 44.5475156,26.9497544 44.3663656,26.5793727 C44.0914439,19.8893527 39.9015515,14.5714286 33.1158865,14.5714286 C26.3323527,14.5714286 22.1360668,19.8914571 21.8611451,26.5793727 C21.6842575,26.9539633 21.5755675,27.3832694 21.5755675,27.8399333 C21.5755675,27.9009621 21.5755675,27.9556776 21.581961,28.0167064 C21.1322828,28.7595743 20.8637546,29.6792153 20.8637546,30.6788251 C20.8637546,30.845076 20.8722793,31.0134313 20.8850664,31.1775777 C19.7981665,31.6005705 18.3681473,33.494568 17.3174775,36.0640913 L17.3174775,36.0640913 Z" id="Shape" fill="#07AEFC"></path>
                    <ellipse id="Oval" stroke="#07AEFC" cx="33.1173079" cy="33.1904762" rx="33.1173079" ry="33.1904762"></ellipse>
                </g>
            </g>
        </g>
    </g>
</svg>