<?xml version="1.0" encoding="UTF-8"?>
<svg width="68px" height="68px" viewBox="0 0 68 68" version="1.1" xmlns="http://www.w3.org/2000/svg" xmlns:xlink="http://www.w3.org/1999/xlink">
    <!-- Generator: Sketch 45.1 (43504) - http://www.bohemiancoding.com/sketch -->
    <title>Group 11</title>
    <desc>Created with Sketch.</desc>
    <defs>
        <linearGradient x1="26.3398263%" y1="17.7416686%" x2="78.3309263%" y2="83.6881367%" id="linearGradient-1">
            <stop stop-color="#5EA2FF" offset="0%"></stop>
            <stop stop-color="#00D5FF" offset="58.88%"></stop>
            <stop stop-color="#00E3FF" offset="100%"></stop>
        </linearGradient>
    </defs>
    <g id="Page-1" stroke="none" stroke-width="1" fill="none" fill-rule="evenodd">
        <g id="输入手机号后-copy-7" transform="translate(-780.000000, -328.000000)">
            <g id="Group-5" transform="translate(519.000000, 329.000000)">
                <g id="Group-11" transform="translate(261.707506, 0.000000)">
                    <path d="M44.8102615,33.5302002 C43.0524098,33.1899864 43.9075165,32.2645097 43.9075165,32.2645097 C43.9075165,32.2645097 45.6272576,29.4666674 43.564521,27.4301427 C41.0111104,24.9106572 34.7966998,27.7465653 34.7966998,27.7465653 C32.4266965,28.4698171 33.0531396,27.415868 33.3889893,25.6196342 C33.3889893,23.4998404 32.6553601,19.9192684 26.3337634,22.0295458 C20.0193124,24.1636142 14.6004607,31.6221479 14.6004607,31.6221479 C10.8322745,36.5754707 11.3300943,40.4082292 11.3300943,40.4082292 C12.2709499,48.8683714 21.3889123,51.1927693 28.4822488,51.7423454 C35.9423999,52.3157128 46.0178913,49.2085852 49.0667397,42.8135171 C52.1274978,36.4089325 46.5776408,33.8751723 44.8102615,33.5302002 L44.8102615,33.5302002 L44.8102615,33.5302002 M29.0348526,49.3584696 C21.6271036,49.6986834 15.6342108,46.0396006 15.6342108,41.1695468 C15.6342108,36.2899766 21.6271036,32.3834655 29.0348526,32.0456308 C36.4497473,31.705417 42.4497858,34.7221381 42.4497858,39.5874336 C42.4497858,44.4479709 36.4497473,49.0253931 29.0348526,49.3584696 L29.0348526,49.3584696 L29.0348526,49.3584696 M27.5580666,35.2479231 C20.1050613,36.1067846 20.9696956,42.9848136 20.9696956,42.9848136 C20.9696956,42.9848136 20.8934744,45.1640853 22.9657386,46.2727541 C27.3222572,48.6019102 31.8169268,47.1934726 34.079744,44.3052238 C36.349707,41.4241124 35.0182177,34.396199 27.5580666,35.2479231 L27.5580666,35.2479231 L27.5580666,35.2479231 M25.6787374,44.9095197 C24.2877003,45.0665415 23.1634374,44.2766744 23.1634374,43.1299397 C23.1634374,41.9903424 24.1566951,40.7912671 25.5477322,40.6485201 C27.1459957,40.4986357 28.1845097,41.4027004 28.1845097,42.5565724 C28.1940374,43.6937906 27.0626287,44.7501188 25.6787374,44.9095197 L25.6787374,44.9095197 L25.6787374,44.9095197 M30.0733666,41.2218874 C29.5993659,41.5692386 29.0181792,41.5240353 28.7728422,41.1005524 C28.5132137,40.6937233 28.613254,40.0442242 29.0872547,39.7063895 C29.6374765,39.2995604 30.2115175,39.4208954 30.4640003,39.8277245 C30.7069554,40.2321745 30.5330758,40.8602615 30.0733666,41.2218874 L30.0733666,41.2218874 L30.0733666,41.2218874 M48.4426786,30.551545 C49.0453025,30.551545 49.550268,30.1137873 49.6431626,29.54042 C49.6503084,29.4952168 49.6574541,29.4571509 49.6574541,29.4119477 C50.5673448,21.3514972 42.9547513,22.7385228 42.9547513,22.7385228 C42.2830519,22.7385228 41.7399758,23.2738243 41.7399758,23.9518728 C41.7399758,24.6156466 42.2830519,25.150948 42.9547513,25.150948 C48.4212414,23.9590101 47.2207573,29.3500906 47.2207573,29.3500906 C47.2112296,30.0162435 47.7614515,30.551545 48.4426786,30.551545 L48.4426786,30.551545 L48.4426786,30.551545 M47.5542251,16.4790644 C44.9245933,15.8676312 42.2115945,16.3957953 41.4541462,16.5385423 C41.3922165,16.5456797 41.3398144,16.6003994 41.2850304,16.6075367 C41.2612113,16.6146741 41.2397741,16.6384653 41.2397741,16.6384653 C40.4918534,16.8502067 39.9487773,17.5282553 39.9487773,18.3347761 C39.9487773,19.2911814 40.7371905,20.0834276 41.7233024,20.0834276 C41.7233024,20.0834276 42.6784494,19.9549552 43.3287117,19.707527 C43.9694462,19.4505823 49.4287905,19.5195767 52.1346435,23.9994551 C53.6114295,27.2731209 52.7849057,29.45953 52.6777196,29.8140185 C52.6777196,29.8140185 52.3251965,30.6657426 52.3251965,31.503192 C52.3251965,32.4691138 53.1136097,33.080547 54.0997216,33.080547 C54.9167177,33.080547 55.6050905,32.9663493 55.8051712,31.603115 L55.812317,31.603115 C58.7301602,22.0438205 52.2632668,17.5568047 47.5542251,16.4790644 L47.5542251,16.4790644 L47.5542251,16.4790644" id="Shape" fill="url(#linearGradient-1)"></path>
                    <ellipse id="Oval-Copy-2" stroke="#07AEFC" cx="33.1173079" cy="33.1904762" rx="33.1173079" ry="33.1904762"></ellipse>
                </g>
            </g>
        </g>
    </g>
</svg>