<?xml version="1.0" encoding="UTF-8"?>
<svg width="16px" height="16px" viewBox="0 0 16 16" version="1.1" xmlns="http://www.w3.org/2000/svg" xmlns:xlink="http://www.w3.org/1999/xlink">
    <!-- Generator: Sketch 45.2 (43514) - http://www.bohemiancoding.com/sketch -->
    <title>小失败面 copy</title>
    <desc>Created with Sketch.</desc>
    <defs></defs>
    <g id="就看这个别的不用看" stroke="none" stroke-width="1" fill="none" fill-rule="evenodd">
        <g id="右边栏及弹出框" transform="translate(-5616.000000, -3952.000000)" fill="#BFBFBF">
            <g id="小失败面-copy" transform="translate(5616.000000, 3952.000000)">
                <g id="Page-1">
                    <path d="M11.3361,10.4437 C11.5801,10.6877 11.5801,11.0837 11.3361,11.3277 C11.2141,11.4497 11.0541,11.5107 10.8941,11.5107 C10.7341,11.5107 10.5741,11.4497 10.4521,11.3277 L8.0011,8.8757 L5.5491,11.3277 C5.4271,11.4497 5.2671,11.5107 5.1071,11.5107 C4.9471,11.5107 4.7871,11.4497 4.6651,11.3277 C4.4211,11.0837 4.4211,10.6877 4.6651,10.4437 L7.1171,7.9927 L4.6651,5.5407 C4.4211,5.2967 4.4211,4.9007 4.6651,4.6567 C4.9091,4.4127 5.3051,4.4127 5.5491,4.6567 L8.0011,7.1087 L10.4521,4.6567 C10.6961,4.4127 11.0921,4.4127 11.3361,4.6567 C11.5801,4.9007 11.5801,5.2967 11.3361,5.5407 L8.8851,7.9927 L11.3361,10.4437 Z M8.0001,0.8057 C4.0491,0.8057 0.8451,4.0087 0.8451,7.9597 C0.8451,11.9107 4.0491,15.1137 8.0001,15.1137 C11.9511,15.1137 15.1541,11.9107 15.1541,7.9597 C15.1541,4.0087 11.9511,0.8057 8.0001,0.8057 L8.0001,0.8057 Z" id="Fill-2"></path>
                </g>
            </g>
        </g>
    </g>
</svg>