<?xml version="1.0" encoding="UTF-8"?>
<svg width="8px" height="8px" viewBox="0 0 8 8" version="1.1" xmlns="http://www.w3.org/2000/svg" xmlns:xlink="http://www.w3.org/1999/xlink">
    <!-- Generator: Sketch 45.2 (43514) - http://www.bohemiancoding.com/sketch -->
    <title>关闭</title>
    <desc>Created with Sketch.</desc>
    <defs></defs>
    <g id="就看这个别的不用看" stroke="none" stroke-width="1" fill="none" fill-rule="evenodd">
        <g id="右边栏及弹出框" transform="translate(-6919.000000, -7095.000000)" fill="#FFFFFF">
            <g id="关闭" transform="translate(6919.000000, 7095.000000)">
                <path d="M7.85440732,7.12599331 L4.68783101,3.96931002 L7.7714017,0.845947279 C7.96655323,0.652161995 7.96655323,0.339124236 7.7714017,0.145338962 C7.57625017,-0.0484463106 7.39875942,-0.0484463208 7.2036079,0.145338962 L4.02201993,3.30552968 L0.851911457,0.145338962 C0.656759929,-0.0484463208 0.341515159,-0.0484463208 0.146363642,0.145338962 C-0.0487878755,0.339124246 -0.0487878858,0.652162006 0.146363642,0.845947279 L3.32265338,4 L0.147246677,7.15405273 C-0.0479048507,7.34783801 -0.0479048507,7.66087577 0.147246677,7.85466104 C0.342398205,8.04844631 0.657642975,8.04844632 0.852794492,7.85466104 L3.99641181,4.66991835 L7.2036079,7.85466105 C7.39875943,8.04844633 7.65925581,8.02038692 7.85352429,7.8274785 C8.04779277,7.63457008 8.04955885,7.3197786 7.85440732,7.12599331 Z" id="Shape"></path>
            </g>
        </g>
    </g>
</svg>