<?xml version="1.0" encoding="UTF-8"?>
<svg width="74px" height="32px" viewBox="0 0 74 32" version="1.1" xmlns="http://www.w3.org/2000/svg" xmlns:xlink="http://www.w3.org/1999/xlink">
    <!-- Generator: Sketch 46.2 (44496) - http://www.bohemiancoding.com/sketch -->
    <title>LOGO-彩色</title>
    <desc>Created with Sketch.</desc>
    <defs></defs>
    <g id="Symbols" stroke="none" stroke-width="1" fill="none" fill-rule="evenodd">
        <g id="LOGO-彩色">
            <g id="Group" transform="translate(25.000000, 28.000000)" fill-rule="nonzero" fill="#FFFFFF">
                <path d="M2.52417795,0.74893617 L0.87040619,0.74893617 L0.87040619,2.72340426 L2.52417795,2.72340426 L2.52417795,2.04255319 L3.13346228,2.1787234 L3.13346228,2.55319149 C3.13346228,2.82553191 3.0754352,3.02978723 2.98839458,3.13191489 C2.90135397,3.23404255 2.72727273,3.30212766 2.46615087,3.30212766 L0.87040619,3.30212766 C0.609284333,3.30212766 0.435203095,3.23404255 0.348162476,3.13191489 C0.261121857,3.02978723 0.203094778,2.82553191 0.203094778,2.55319149 L0.203094778,0.919148936 C0.203094778,0.646808511 0.261121857,0.442553191 0.348162476,0.340425532 C0.435203095,0.238297872 0.609284333,0.170212766 0.87040619,0.170212766 L2.46615087,0.170212766 C2.72727273,0.170212766 2.90135397,0.238297872 2.98839458,0.340425532 C3.0754352,0.442553191 3.13346228,0.646808511 3.13346228,0.919148936 L3.13346228,1.22553191 L2.52417795,1.32765957 L2.52417795,0.74893617 Z" id="Shape"></path>
                <polygon id="Shape" points="4.41005803 3.30212766 4.41005803 0.170212766 5.01934236 0.170212766 5.01934236 1.39574468 6.96324952 1.39574468 6.96324952 0.170212766 7.57253385 0.170212766 7.57253385 3.30212766 6.96324952 3.30212766 6.96324952 1.97446809 5.01934236 1.97446809 5.01934236 3.30212766"></polygon>
                <path d="M9.54545455,0.204255319 L9.54545455,2.72340426 L11.3152805,2.72340426 L11.3152805,0.204255319 L11.9245648,0.204255319 L11.9245648,2.58723404 C11.9245648,2.85957447 11.8665377,3.06382979 11.7794971,3.16595745 C11.6924565,3.26808511 11.5183752,3.33617021 11.2572534,3.33617021 L9.57446809,3.33617021 C9.31334623,3.33617021 9.13926499,3.26808511 9.05222437,3.16595745 C8.96518375,3.06382979 8.90715667,2.85957447 8.90715667,2.58723404 L8.90715667,0.204255319 L9.54545455,0.204255319 Z" id="Shape"></path>
                <path d="M12.6789168,3.30212766 L14.1876209,0.170212766 L14.7969052,0.170212766 L16.3056093,3.30212766 L15.6092843,3.30212766 L15.2901354,2.6212766 L13.6073501,2.6212766 L13.2882012,3.30212766 L12.6789168,3.30212766 Z M13.868472,2.07659574 L15.0290135,2.07659574 L14.4487427,0.817021277 L13.868472,2.07659574 Z" id="Shape"></path>
                <path d="M17.1470019,3.30212766 L17.1470019,0.170212766 L17.582205,0.170212766 L19.4390716,2.00851064 C19.4970986,2.07659574 19.5551257,2.1106383 19.6131528,2.1787234 C19.6711799,2.24680851 19.7001934,2.28085106 19.7582205,2.34893617 C19.7582205,2.1787234 19.729207,2.04255319 19.729207,1.97446809 L19.729207,1.80425532 L19.729207,0.170212766 L20.2804642,0.170212766 L20.2804642,3.30212766 L19.8452611,3.30212766 L17.901354,1.36170213 C17.8433269,1.32765957 17.8143133,1.25957447 17.7852998,1.22553191 C17.7562863,1.19148936 17.7272727,1.15744681 17.6982592,1.0893617 C17.6982592,1.19148936 17.7272727,1.29361702 17.7272727,1.36170213 L17.7272727,1.6 L17.7272727,3.26808511 L17.1470019,3.26808511 L17.1470019,3.30212766 Z" id="Shape"></path>
                <path d="M24.1102515,0.74893617 L22.1663443,0.74893617 L22.1663443,2.72340426 L24.1102515,2.72340426 L24.1102515,2.04255319 L23.0947776,2.04255319 L23.0947776,1.49787234 L24.7195358,1.49787234 L24.7195358,2.58723404 C24.7195358,2.85957447 24.6615087,3.06382979 24.5744681,3.16595745 C24.4874275,3.26808511 24.3133462,3.33617021 24.0522244,3.33617021 L22.2243714,3.33617021 C21.9632495,3.33617021 21.7891683,3.26808511 21.7021277,3.16595745 C21.615087,3.06382979 21.55706,2.85957447 21.55706,2.58723404 L21.55706,0.953191489 C21.55706,0.680851064 21.615087,0.476595745 21.7021277,0.374468085 C21.7891683,0.272340426 21.9632495,0.204255319 22.2243714,0.204255319 L24.0522244,0.204255319 C24.3133462,0.204255319 24.4874275,0.272340426 24.5744681,0.374468085 C24.6615087,0.476595745 24.7195358,0.646808511 24.7195358,0.919148936 L24.7195358,0.987234043 L24.1102515,1.12340426 L24.1102515,0.74893617 Z" id="Shape"></path>
                <polygon id="Shape" points="26.0251451 3.30212766 26.0251451 0.170212766 26.6344294 0.170212766 26.6344294 1.46382979 28.1141199 0.170212766 29.0135397 0.170212766 27.2437137 1.63404255 29.2166344 3.26808511 28.2301741 3.26808511 26.6344294 1.90638298 26.6344294 3.26808511 26.0251451 3.26808511"></polygon>
                <polygon id="Shape" points="30.1160542 3.30212766 30.1160542 0.170212766 30.7253385 0.170212766 30.7253385 3.30212766"></polygon>
                <polygon id="Shape" points="33.3075435 0.74893617 33.3075435 3.30212766 32.6982592 3.30212766 32.6982592 0.74893617 31.4796905 0.74893617 31.4796905 0.204255319 34.5261122 0.204255319 34.5261122 0.74893617"></polygon>
                <path d="M35.1934236,2.38297872 L35.2804642,2.38297872 C35.3384913,2.38297872 35.3675048,2.38297872 35.3675048,2.41702128 C35.3965184,2.45106383 35.3965184,2.51914894 35.3965184,2.58723404 L35.3965184,3.06382979 C35.3965184,3.16595745 35.3965184,3.23404255 35.3675048,3.23404255 C35.3384913,3.26808511 35.2804642,3.26808511 35.1934236,3.26808511 L34.729207,3.26808511 C34.6711799,3.26808511 34.6421663,3.26808511 34.6421663,3.23404255 C34.6131528,3.2 34.6131528,3.13191489 34.6131528,3.06382979 L34.6131528,2.58723404 C34.6131528,2.48510638 34.6131528,2.45106383 34.6421663,2.41702128 C34.6711799,2.38297872 34.729207,2.38297872 34.8162476,2.38297872 L35.1934236,2.38297872 Z" id="Shape"></path>
                <path d="M38.762089,0.74893617 L37.1083172,0.74893617 L37.1083172,2.72340426 L38.762089,2.72340426 L38.762089,2.04255319 L39.3713733,2.1787234 L39.3713733,2.55319149 C39.3713733,2.82553191 39.3133462,3.02978723 39.2263056,3.13191489 C39.139265,3.23404255 38.9651838,3.30212766 38.7040619,3.30212766 L37.1373308,3.30212766 C36.8762089,3.30212766 36.7021277,3.23404255 36.615087,3.13191489 C36.5280464,3.02978723 36.4700193,2.82553191 36.4700193,2.55319149 L36.4700193,0.919148936 C36.4700193,0.646808511 36.5280464,0.442553191 36.615087,0.340425532 C36.7021277,0.238297872 36.8762089,0.170212766 37.1373308,0.170212766 L38.7330754,0.170212766 C38.9941973,0.170212766 39.1682785,0.238297872 39.2553191,0.340425532 C39.3423598,0.442553191 39.4003868,0.646808511 39.4003868,0.919148936 L39.4003868,1.22553191 L38.7911025,1.32765957 L38.7911025,0.74893617 L38.762089,0.74893617 Z" id="Shape"></path>
                <path d="M40.589942,0.919148936 C40.589942,0.646808511 40.6479691,0.442553191 40.7350097,0.340425532 C40.8220503,0.238297872 40.9961315,0.170212766 41.2572534,0.170212766 L43.2011605,0.170212766 C43.4622824,0.170212766 43.6363636,0.238297872 43.7234043,0.340425532 C43.8104449,0.442553191 43.868472,0.646808511 43.868472,0.919148936 L43.868472,2.55319149 C43.868472,2.82553191 43.8104449,3.02978723 43.7234043,3.13191489 C43.6363636,3.23404255 43.4622824,3.30212766 43.2011605,3.30212766 L41.2572534,3.30212766 C40.9961315,3.30212766 40.8220503,3.23404255 40.7350097,3.13191489 C40.6479691,3.02978723 40.589942,2.82553191 40.589942,2.55319149 L40.589942,0.919148936 Z M41.1992263,2.72340426 L43.2301741,2.72340426 L43.2301741,0.74893617 L41.1992263,0.74893617 L41.1992263,2.72340426 Z" id="Shape"></path>
                <path d="M45.1740812,3.30212766 L45.1740812,0.170212766 L45.6673114,0.170212766 L46.9148936,2.04255319 L48.1334623,0.170212766 L48.6266925,0.170212766 L48.6266925,3.30212766 L48.0464217,3.30212766 L48.0464217,1.36170213 L48.0464217,1.22553191 C48.0464217,1.15744681 48.0464217,1.0893617 48.0754352,1.0212766 C48.0464217,1.0893617 48.0174081,1.15744681 47.9883946,1.22553191 C47.959381,1.29361702 47.9303675,1.32765957 47.9303675,1.36170213 L46.9439072,2.92765957 L46.827853,2.92765957 L45.8413926,1.36170213 C45.8123791,1.29361702 45.7833656,1.25957447 45.754352,1.19148936 C45.7253385,1.12340426 45.696325,1.0893617 45.696325,1.05531915 L45.696325,1.22553191 L45.696325,1.39574468 L45.696325,3.33617021 L45.1740812,3.33617021 L45.1740812,3.30212766 Z" id="Shape"></path>
            </g>
            <g id="img_logo_1" transform="translate(25.000000, 14.000000)">
                <g id="Page-1">
                    <g id="Group-3" fill="#FFFFFF">
                        <path d="M12.4193678,12.9035324 L12.4193678,0.153183164 L15.2740438,0.153183164 L15.2740438,11.7702015 C15.2740438,12.5886531 14.9504,12.9035324 14.008606,12.9035324 L12.4193678,12.9035324 Z M10.0355888,12.4312972 L10.0355888,0.153183164 L11.3010266,0.153183164 L11.3010266,12.4628019 L10.0355888,12.4628019 L10.0355888,12.4312972 Z M5.97421974,2.13663785 L3.06064249,2.13663785 L2.91354592,3.11244527 L-3.13304721e-05,3.11244527 L0.470865665,0.153183164 L8.35815536,0.153183164 L8.94669828,3.11244527 L6.09202232,3.11244527 L5.97421974,2.13663785 Z M1.29485708,12.9035324 C0.41212103,12.9035324 0.0294193133,12.557316 0.0294193133,11.7702015 L0.0294193133,3.99390621 L8.97614893,3.99390621 L8.97614893,9.15715582 C8.97614893,10.1331308 8.68179914,10.5108519 7.71055451,10.5108519 L4.53223476,10.5108519 L4.53223476,9.15715582 L5.44457811,9.15715582 C6.06257167,9.15715582 6.12131631,9.03113707 6.12131631,8.49606012 L6.12131631,5.25325582 L2.73699871,5.25325582 L2.73699871,11.0776011 C2.73699871,11.5498363 2.88409528,11.7386968 3.32554163,11.7386968 L8.94669828,11.7386968 L8.94669828,12.8720277 L1.29485708,12.8720277 L1.29485708,12.9035324 Z M32.1759657,2.49015214 L28.6628894,2.49015214 L28.6628894,1.95575671 L20.3372678,1.95575671 L20.3372678,2.49015214 L16.8240343,2.49015214 L16.8240343,0.698011137 L22.7286112,0.698011137 L22.669523,0.226377467 L26.1236683,0.226377467 L26.2713888,0.698011137 L32.1759657,0.698011137 L32.1759657,2.49015214 Z M16.8535217,7.06609311 L19.2992466,6.59398152 L16.8535217,6.18486283 L16.8535217,4.64254229 L23.7486999,5.77557659 L28.6696371,4.89434631 C28.8464044,4.86284986 28.9053791,4.64254229 28.8757349,4.54822049 C28.8757349,4.51672405 28.8167602,4.42223472 28.6696371,4.42223472 L18.1795115,4.42223472 C17.2955183,4.42223472 16.8535217,4.07594137 16.8535217,3.41518619 L16.8535217,2.94290707 L20.8904657,2.94290707 C20.8904657,3.35219331 21.0082583,3.41518619 21.4207675,3.41518619 L32.1759657,3.41518619 L32.1759657,5.08332497 C32.1759657,5.71275124 31.8519185,6.12186994 30.9679253,6.27918462 L28.6989676,6.68847086 L32.1466352,7.28640068 L32.1466352,8.82872122 L24.2495144,7.47521181 L16.8240343,8.82872122 L16.8240343,7.06609311 L16.8535217,7.06609311 Z M32.1759657,9.05509868 L32.1759657,11.7679144 C32.1759657,12.5881735 31.7920534,12.9035156 30.8472805,12.9035156 L16.8240343,12.9035156 L16.8240343,9.05509868 L32.1759657,9.05509868 Z M28.8398738,11.1054944 L28.8398738,10.348371 L20.1305824,10.348371 L20.1305824,11.7994822 L28.1608379,11.7994822 C28.7807862,11.7679144 28.8398738,11.6418111 28.8398738,11.1054944 Z M48.9885174,4.0568318 L48.9885174,11.7701177 C48.9885174,12.5572322 48.6352663,12.9034486 47.722923,12.9034486 L40.3655882,12.9034486 L40.3655882,4.0568318 L40.9541311,4.0568318 L40.9541311,0.153099375 L44.1326075,0.153099375 L44.1326075,0.814195078 L48.9590667,0.814195078 L48.9590667,2.10504937 L44.1326075,2.10504937 L44.1326075,4.0568318 L48.9885174,4.0568318 Z M46.0160388,11.109022 L46.0160388,5.31634898 L43.2497148,5.31634898 L43.2497148,11.7701177 L45.3685946,11.7701177 C45.9278436,11.7701177 46.0160388,11.6442666 46.0160388,11.109022 Z M38.9823479,10.8256474 L39.4530882,12.9034486 L37.2753071,12.9034486 L36.8044101,10.8256474 L38.9823479,10.8256474 Z M35.8627727,12.9034486 L33.7437363,12.9034486 L34.155732,9.84967242 L33.7437363,9.84967242 L33.7437363,0.153099375 L39.4530882,0.153099375 L39.4530882,8.59049039 C39.4530882,9.53479312 39.1294444,9.88117711 38.1876504,9.88117711 L37.1871118,9.88117711 L37.1871118,1.41244898 L35.921674,1.41244898 L35.921674,9.50345602 L36.3924144,9.50345602 L35.8627727,12.9034486 Z" id="Combined-Shape"></path>
                    </g>
                    <g id="Group-12" transform="translate(33.648069, 0.000000)"></g>
                </g>
            </g>
            <g id="Page-1">
                <g id="Group-6">
                    <g id="Group-3">
                        <polygon id="Clip-8" fill="#FFFFFF" points="11.486935 29.2029156 5.69795666 26.4832336 6.90892415 30.8402062 19.2552554 30.8402062 19.9637074 23.9985766"></polygon>
                        <path d="M17.6085975,21.3464361 C16.9137988,21.3464361 16.3509814,20.7889089 16.3509814,20.1014796 C16.3509814,19.4136749 16.9137988,18.8561476 17.6085975,18.8561476 C18.3033963,18.8561476 18.8662136,19.4136749 18.8662136,20.1014796 C18.8662136,20.7889089 18.3033963,21.3464361 17.6085975,21.3464361 M20.7321579,18.7476456 C19.7309195,18.6226243 19.3220805,18.1416867 19.4479938,17.3705344 C19.5739071,16.5993822 20.6741316,15.0431865 18.630695,13.330808 L21.6177229,11.9304196 L20.2027152,9.12889185 L17.2941935,10.6073716 L13.0491703,0.0241144248 L7.58513941e-05,7.49460476 L4.87390712,15.899188 L0.0785820433,18.1559533 L1.33619814,21.4241521 L5.12763003,19.6321805 C5.12763003,19.6321805 3.33108978,23.1827096 5.47806347,25.3384818 C5.47806347,25.3384818 7.87041641,27.8892161 13.0146579,26.6799262 C18.1588994,25.4706364 20.7025759,22.0939357 21.1599598,21.2142815 C21.6177229,20.3350028 21.733017,18.8722914 20.7321579,18.7476456" id="Fill-1" fill="#FFFFFF"></path>
                        <path d="M5.12884365,19.6261735 L18.5973963,13.3574642 L4.42380495,22.5966489 C4.42380495,22.5966489 4.34264396,21.0269373 5.12884365,19.6261735" id="Fill-4" fill="#F2F2F2"></path>
                    </g>
                </g>
                <g id="Group-9" transform="translate(5.646400, 23.772021)"></g>
            </g>
        </g>
    </g>
</svg>