<?xml version="1.0" encoding="UTF-8"?>
<svg width="81px" height="35px" viewBox="0 0 81 35" version="1.1" xmlns="http://www.w3.org/2000/svg" xmlns:xlink="http://www.w3.org/1999/xlink">
    <!-- Generator: Sketch 46.2 (44496) - http://www.bohemiancoding.com/sketch -->
    <title>LOGO-彩色</title>
    <desc>Created with Sketch.</desc>
    <defs>
        <linearGradient x1="0%" y1="0%" x2="101.999998%" y2="100.999999%" id="linearGradient-1">
            <stop stop-color="#5EA2FF" offset="0%"></stop>
            <stop stop-color="#00D5FF" offset="62.5956633%"></stop>
            <stop stop-color="#00E3FF" offset="100%"></stop>
        </linearGradient>
    </defs>
    <g id="Page-1" stroke="none" stroke-width="1" fill="none" fill-rule="evenodd">
        <g id="LOGO-彩色">
            <g id="Group" transform="translate(27.232759, 30.800000)" fill-rule="nonzero" fill="#4F4F4F">
                <path d="M2.76975684,0.786382979 L0.955088565,0.786382979 L0.955088565,2.85957447 L2.76975684,2.85957447 L2.76975684,2.14468085 L3.43831883,2.28765957 L3.43831883,2.68085106 C3.43831883,2.96680851 3.37464626,3.1812766 3.27913741,3.28851064 C3.18362855,3.39574468 2.99261084,3.46723404 2.70608427,3.46723404 L0.955088565,3.46723404 C0.668561996,3.46723404 0.477544283,3.39574468 0.382035426,3.28851064 C0.28652657,3.1812766 0.222853999,2.96680851 0.222853999,2.68085106 L0.222853999,0.965106383 C0.222853999,0.679148936 0.28652657,0.464680851 0.382035426,0.357446809 C0.477544283,0.250212766 0.668561996,0.178723404 0.955088565,0.178723404 L2.70608427,0.178723404 C2.99261084,0.178723404 3.18362855,0.250212766 3.27913741,0.357446809 C3.37464626,0.464680851 3.43831883,0.679148936 3.43831883,0.965106383 L3.43831883,1.28680851 L2.76975684,1.39404255 L2.76975684,0.786382979 Z" id="Shape"></path>
                <polygon id="Shape" points="4.8391154 3.46723404 4.8391154 0.178723404 5.50767739 0.178723404 5.50767739 1.46553191 7.64070852 1.46553191 7.64070852 0.178723404 8.30927052 0.178723404 8.30927052 3.46723404 7.64070852 3.46723404 7.64070852 2.07319149 5.50767739 2.07319149 5.50767739 3.46723404"></polygon>
                <path d="M10.4741379,0.214468085 L10.4741379,2.85957447 L12.4161513,2.85957447 L12.4161513,0.214468085 L13.0847133,0.214468085 L13.0847133,2.71659574 C13.0847133,3.00255319 13.0210408,3.21702128 12.9255319,3.32425532 C12.8300231,3.43148936 12.6390053,3.50297872 12.3524788,3.50297872 L10.5059742,3.50297872 C10.2194476,3.50297872 10.0284299,3.43148936 9.93292108,3.32425532 C9.83741222,3.21702128 9.77373965,3.00255319 9.77373965,2.71659574 L9.77373965,0.214468085 L10.4741379,0.214468085 Z" id="Shape"></path>
                <path d="M13.9124568,3.46723404 L15.5679436,0.178723404 L16.2365056,0.178723404 L17.8919925,3.46723404 L17.1279216,3.46723404 L16.7777225,2.75234043 L14.9312179,2.75234043 L14.5810188,3.46723404 L13.9124568,3.46723404 Z M15.2177445,2.18042553 L16.4911959,2.18042553 L15.8544702,0.85787234 L15.2177445,2.18042553 Z" id="Shape"></path>
                <path d="M18.8152447,3.46723404 L18.8152447,0.178723404 L19.292789,0.178723404 L21.3303113,2.10893617 C21.3939839,2.18042553 21.4576564,2.21617021 21.521329,2.28765957 C21.5850016,2.35914894 21.6168379,2.39489362 21.6805104,2.46638298 C21.6805104,2.28765957 21.6486741,2.14468085 21.6486741,2.07319149 L21.6486741,1.89446809 L21.6486741,0.178723404 L22.2535636,0.178723404 L22.2535636,3.46723404 L21.7760193,3.46723404 L19.6429882,1.42978723 C19.5793156,1.39404255 19.5474793,1.32255319 19.515643,1.28680851 C19.4838067,1.25106383 19.4519704,1.21531915 19.4201342,1.14382979 C19.4201342,1.25106383 19.4519704,1.35829787 19.4519704,1.42978723 L19.4519704,1.68 L19.4519704,3.43148936 L18.8152447,3.43148936 L18.8152447,3.46723404 Z" id="Shape"></path>
                <path d="M26.4559533,0.786382979 L24.3229221,0.786382979 L24.3229221,2.85957447 L26.4559533,2.85957447 L26.4559533,2.14468085 L25.3416833,2.14468085 L25.3416833,1.57276596 L27.1245152,1.57276596 L27.1245152,2.71659574 C27.1245152,3.00255319 27.0608427,3.21702128 26.9653338,3.32425532 C26.869825,3.43148936 26.6788073,3.50297872 26.3922807,3.50297872 L24.3865947,3.50297872 C24.1000681,3.50297872 23.9090504,3.43148936 23.8135416,3.32425532 C23.7180327,3.21702128 23.6543601,3.00255319 23.6543601,2.71659574 L23.6543601,1.00085106 C23.6543601,0.714893617 23.7180327,0.500425532 23.8135416,0.393191489 C23.9090504,0.285957447 24.1000681,0.214468085 24.3865947,0.214468085 L26.3922807,0.214468085 C26.6788073,0.214468085 26.869825,0.285957447 26.9653338,0.393191489 C27.0608427,0.500425532 27.1245152,0.679148936 27.1245152,0.965106383 L27.1245152,1.03659574 L26.4559533,1.17957447 L26.4559533,0.786382979 Z" id="Shape"></path>
                <polygon id="Shape" points="28.5571481 3.46723404 28.5571481 0.178723404 29.2257101 0.178723404 29.2257101 1.53702128 30.8493607 0.178723404 31.8362855 0.178723404 29.8942721 1.71574468 32.0591395 3.43148936 30.9767058 3.43148936 29.2257101 2.00170213 29.2257101 3.43148936 28.5571481 3.43148936"></polygon>
                <polygon id="Shape" points="33.0460644 3.46723404 33.0460644 0.178723404 33.7146263 0.178723404 33.7146263 3.46723404"></polygon>
                <polygon id="Shape" points="36.5480558 0.786382979 36.5480558 3.46723404 35.8794938 3.46723404 35.8794938 0.786382979 34.5423698 0.786382979 34.5423698 0.214468085 37.8851798 0.214468085 37.8851798 0.786382979"></polygon>
                <path d="M38.6174143,2.50212766 L38.7129232,2.50212766 C38.7765957,2.50212766 38.808432,2.50212766 38.808432,2.53787234 C38.8402683,2.57361702 38.8402683,2.64510638 38.8402683,2.71659574 L38.8402683,3.21702128 C38.8402683,3.32425532 38.8402683,3.39574468 38.808432,3.39574468 C38.7765957,3.43148936 38.7129232,3.43148936 38.6174143,3.43148936 L38.1080337,3.43148936 C38.0443612,3.43148936 38.0125249,3.43148936 38.0125249,3.39574468 C37.9806886,3.36 37.9806886,3.28851064 37.9806886,3.21702128 L37.9806886,2.71659574 C37.9806886,2.6093617 37.9806886,2.57361702 38.0125249,2.53787234 C38.0443612,2.50212766 38.1080337,2.50212766 38.2035426,2.50212766 L38.6174143,2.50212766 Z" id="Shape"></path>
                <path d="M42.5332774,0.786382979 L40.7186092,0.786382979 L40.7186092,2.85957447 L42.5332774,2.85957447 L42.5332774,2.14468085 L43.2018394,2.28765957 L43.2018394,2.68085106 C43.2018394,2.96680851 43.1381669,3.1812766 43.042658,3.28851064 C42.9471491,3.39574468 42.7561314,3.46723404 42.4696049,3.46723404 L40.7504454,3.46723404 C40.4639189,3.46723404 40.2729012,3.39574468 40.1773923,3.28851064 C40.0818835,3.1812766 40.0182109,2.96680851 40.0182109,2.68085106 L40.0182109,0.965106383 C40.0182109,0.679148936 40.0818835,0.464680851 40.1773923,0.357446809 C40.2729012,0.250212766 40.4639189,0.178723404 40.7504454,0.178723404 L42.5014411,0.178723404 C42.7879677,0.178723404 42.9789854,0.250212766 43.0744943,0.357446809 C43.1700031,0.464680851 43.2336757,0.679148936 43.2336757,0.965106383 L43.2336757,1.28680851 L42.5651137,1.39404255 L42.5651137,0.786382979 L42.5332774,0.786382979 Z" id="Shape"></path>
                <path d="M44.5389634,0.965106383 C44.5389634,0.679148936 44.602636,0.464680851 44.6981448,0.357446809 C44.7936537,0.250212766 44.9846714,0.178723404 45.271198,0.178723404 L47.4042291,0.178723404 C47.6907557,0.178723404 47.8817734,0.250212766 47.9772823,0.357446809 C48.0727911,0.464680851 48.1364637,0.679148936 48.1364637,0.965106383 L48.1364637,2.68085106 C48.1364637,2.96680851 48.0727911,3.1812766 47.9772823,3.28851064 C47.8817734,3.39574468 47.6907557,3.46723404 47.4042291,3.46723404 L45.271198,3.46723404 C44.9846714,3.46723404 44.7936537,3.39574468 44.6981448,3.28851064 C44.602636,3.1812766 44.5389634,2.96680851 44.5389634,2.68085106 L44.5389634,0.965106383 Z M45.2075254,2.85957447 L47.4360654,2.85957447 L47.4360654,0.786382979 L45.2075254,0.786382979 L45.2075254,2.85957447 Z" id="Shape"></path>
                <path d="M49.5690965,3.46723404 L49.5690965,0.178723404 L50.1103134,0.178723404 L51.4792737,2.14468085 L52.8163977,0.178723404 L53.3576145,0.178723404 L53.3576145,3.46723404 L52.7208888,3.46723404 L52.7208888,1.42978723 L52.7208888,1.28680851 C52.7208888,1.21531915 52.7208888,1.14382979 52.7527251,1.07234043 C52.7208888,1.14382979 52.6890525,1.21531915 52.6572162,1.28680851 C52.6253799,1.35829787 52.5935437,1.39404255 52.5935437,1.42978723 L51.5111099,3.07404255 L51.3837648,3.07404255 L50.3013311,1.42978723 C50.2694948,1.35829787 50.2376585,1.32255319 50.2058222,1.25106383 C50.173986,1.17957447 50.1421497,1.14382979 50.1421497,1.10808511 L50.1421497,1.28680851 L50.1421497,1.46553191 L50.1421497,3.50297872 L49.5690965,3.50297872 L49.5690965,3.46723404 Z" id="Shape"></path>
            </g>
            <g id="img_logo_1" transform="translate(27.232759, 15.400000)">
                <g id="Page-1">
                    <g id="Group-3" fill="#4F4F4F">
                        <path d="M13.6276561,13.8961118 L13.6276561,0.164966484 L16.7600653,0.164966484 L16.7600653,12.6756016 C16.7600653,13.557011 16.404934,13.8961118 15.3715123,13.8961118 L13.6276561,13.8961118 Z M11.0119577,13.3875509 L11.0119577,0.164966484 L12.4005107,0.164966484 L12.4005107,13.421479 L11.0119577,13.421479 L11.0119577,13.3875509 Z M6.55545541,2.30099461 L3.35841436,2.30099461 L3.19700667,3.35186414 L-3.43786338e-05,3.35186414 L0.516676487,0.164966484 L9.17132565,0.164966484 L9.81712829,3.35186414 L6.68471907,3.35186414 L6.55545541,2.30099461 Z M1.42083456,13.8961118 C0.452216549,13.8961118 0.0322815371,13.5232634 0.0322815371,12.6756016 L0.0322815371,4.30112977 L9.8494442,4.30112977 L9.8494442,9.86155242 C9.8494442,10.9126024 9.52645694,11.319379 8.46071929,11.319379 L4.97317879,11.319379 L4.97317879,9.86155242 L5.9742846,9.86155242 C6.65240315,9.86155242 6.71686309,9.72583992 6.71686309,9.1496032 L6.71686309,5.65735242 L3.00328307,5.65735242 L3.00328307,11.9297243 C3.00328307,12.4382852 3.16469076,12.6416735 3.64908571,12.6416735 L9.81712829,12.6416735 L9.81712829,13.8621837 L1.42083456,13.8621837 L1.42083456,13.8961118 Z M35.306386,2.6817023 L31.4515202,2.6817023 L31.4515202,2.10619954 L22.3158936,2.10619954 L22.3158936,2.6817023 L18.4608554,2.6817023 L18.4608554,0.751704302 L24.9398924,0.751704302 L24.8750554,0.243791118 L28.6652567,0.243791118 L28.827349,0.751704302 L35.306386,0.751704302 L35.306386,2.6817023 Z M18.4932116,7.60963874 L21.1768827,7.10121087 L18.4932116,6.6606215 L18.4932116,4.99966093 L26.0592261,6.21985171 L31.4589245,5.27083448 C31.6528895,5.23691524 31.7176019,4.99966093 31.6850736,4.89808361 C31.6850736,4.86416436 31.6203612,4.76240662 31.4589245,4.76240662 L19.9482078,4.76240662 C18.9782103,4.76240662 18.4932116,4.38947533 18.4932116,3.67789282 L18.4932116,3.16928454 L22.9229125,3.16928454 C22.9229125,3.61005433 23.0521652,3.67789282 23.5048077,3.67789282 L35.306386,3.67789282 L35.306386,5.47434997 C35.306386,6.15219364 34.950812,6.59278301 33.9808146,6.76219882 L31.4911086,7.20296861 L35.2742019,7.84689304 L35.2742019,9.50785362 L26.6087651,8.0502281 L18.4608554,9.50785362 L18.4608554,7.60963874 L18.4932116,7.60963874 Z M35.306386,9.75164474 L35.306386,12.6731386 C35.306386,13.5564945 34.8851227,13.8960938 33.8484322,13.8960938 L18.4608554,13.8960938 L18.4608554,9.75164474 L35.306386,9.75164474 Z M31.6457236,11.9597632 L31.6457236,11.1443995 L22.0890997,11.1443995 L22.0890997,12.7071347 L30.9006239,12.7071347 C31.5808873,12.6731386 31.6457236,12.5373351 31.6457236,11.9597632 Z M53.7546416,4.36889578 L53.7546416,12.6755114 C53.7546416,13.5231731 53.3670225,13.8960216 52.3659167,13.8960216 L44.2927821,13.8960216 L44.2927821,4.36889578 L44.9385848,4.36889578 L44.9385848,0.16487625 L48.4262972,0.16487625 L48.4262972,0.876825469 L53.7223257,0.876825469 L53.7223257,2.26697625 L48.4262972,2.26697625 L48.4262972,4.36889578 L53.7546416,4.36889578 Z M50.4929687,11.9635622 L50.4929687,5.72529891 L47.4575073,5.72529891 L47.4575073,12.6755114 L49.7825343,12.6755114 C50.3961929,12.6755114 50.4929687,12.5399794 50.4929687,11.9635622 Z M42.7749654,11.6583895 L43.2915044,13.8960216 L40.9018456,13.8960216 L40.3851347,11.6583895 L42.7749654,11.6583895 Z M39.3518849,13.8960216 L37.026686,13.8960216 L37.478765,10.6073395 L37.026686,10.6073395 L37.026686,0.16487625 L43.2915044,0.16487625 L43.2915044,9.25129734 C43.2915044,10.2682387 42.9363731,10.6412677 41.9029514,10.6412677 L40.8050697,10.6412677 L40.8050697,1.52109891 L39.4165167,1.52109891 L39.4165167,10.2344911 L39.9330557,10.2344911 L39.3518849,13.8960216 Z" id="Combined-Shape"></path>
                    </g>
                    <g id="Group-12" transform="translate(36.921711, 0.000000)"></g>
                </g>
            </g>
            <g id="Page-1">
                <g id="Group-6">
                    <g id="Group-3">
                        <polygon id="Clip-8" fill="url(#linearGradient-1)" points="12.3961673 32.3116131 6.14897047 29.3024165 7.4557904 34.1231959 20.7793783 34.1231959 21.5439068 26.5532638"></polygon>
                        <path d="M19.0023815,23.6187987 C18.2525869,23.6187987 17.6452205,23.0019217 17.6452205,22.2413145 C17.6452205,21.4802919 18.2525869,20.8634149 19.0023815,20.8634149 C19.7521761,20.8634149 20.3595424,21.4802919 20.3595424,22.2413145 C20.3595424,23.0019217 19.7521761,23.6187987 19.0023815,23.6187987 M22.3731829,20.7433627 C21.2926929,20.6050327 20.8514928,20.0728985 20.9873726,19.2196558 C21.1232524,18.3664132 22.3105636,16.6445579 20.1053817,14.749894 L23.3288436,13.200432 L21.8018329,10.1006771 L18.6630913,11.7365435 L14.0820591,0.0266814442 L8.18553054e-05,8.29241753 L5.25969444,17.5916822 L0.0848020954,20.0886839 L1.44196304,23.7047876 L5.53350043,21.7220578 C5.53350043,21.7220578 3.59475755,25.6505464 5.91167194,28.035804 C5.91167194,28.035804 8.49338824,30.8580681 14.044815,29.5200474 C19.5962417,28.1820267 22.3412594,24.4458708 22.8348468,23.472576 C23.3288436,22.4996966 23.4532637,20.8812773 22.3731829,20.7433627" id="Fill-1" fill="url(#linearGradient-1)"></path>
                        <path d="M5.53481012,21.7154113 L20.0694472,14.7793878 L4.77396506,25.0020986 C4.77396506,25.0020986 4.68637989,23.2652887 5.53481012,21.7154113" id="Fill-4" fill="#29B1F1"></path>
                    </g>
                </g>
                <g id="Group-9" transform="translate(6.093333, 26.302591)"></g>
            </g>
        </g>
    </g>
</svg>