<?xml version="1.0" encoding="UTF-8"?>
<svg width="20px" height="23px" viewBox="0 0 20 23" version="1.1" xmlns="http://www.w3.org/2000/svg" xmlns:xlink="http://www.w3.org/1999/xlink">
    <!-- Generator: Sketch 46.2 (44496) - http://www.bohemiancoding.com/sketch -->
    <title>苹果</title>
    <desc>Created with Sketch.</desc>
    <defs></defs>
    <g id="Page-1" stroke="none" stroke-width="1" fill="none" fill-rule="evenodd">
        <g id="苹果" fill-rule="nonzero" fill="#FFFFFF">
            <path d="M16.6888176,12.3795282 C16.6578942,8.10201897 19.2217259,7.99132558 19.3369859,7.92280109 C17.8948305,5.94613323 15.6514778,5.63513751 14.8530916,5.60614638 C12.944274,5.42429293 11.1282265,6.63928477 10.158356,6.63928477 C9.19129668,6.63928477 7.69572819,5.60351084 6.1130119,5.62986639 C4.03270986,5.65885752 2.11264731,6.7605204 1.03876168,8.50789477 C-1.12306571,12.0263635 0.484951538,17.23686 2.59336577,20.0885328 C3.6222719,21.485378 4.85077459,23.0535345 6.46441429,22.9981878 C8.01620714,22.9402056 8.60375192,22.0546584 10.4816462,22.0546584 C12.3595404,22.0546584 12.8852384,22.9981878 14.5298015,22.9665611 C16.1996655,22.93757 17.2594951,21.5433603 18.2799676,20.1412439 C19.4634908,18.5203763 19.9498316,17.0312865 19.9779438,16.9522198 C19.941398,16.9364064 16.7197411,15.231201 16.6860065,12.3795282 L16.6888176,12.3795282 L16.6888176,12.3795282 Z" id="Shape"></path>
            <path d="M9.99530527,5.75373756 C9.99530527,2.58052678 12.739055,0.0055874804 16.1265738,0.0055874804 C16.1265738,3.18143382 13.3800129,5.75373756 9.99530527,5.75373756 Z" id="Shape"></path>
        </g>
    </g>
</svg>