<?xml version="1.0" encoding="UTF-8"?>
<svg width="120px" height="120px" viewBox="0 0 120 120" version="1.1" xmlns="http://www.w3.org/2000/svg" xmlns:xlink="http://www.w3.org/1999/xlink">
    <!-- Generator: Sketch 43.2 (39069) - http://www.bohemiancoding.com/sketch -->
    <title>保存遇到问题</title>
    <desc>Created with Sketch.</desc>
    <defs>
        <filter x="-7.1%" y="-5.2%" width="114.3%" height="117.5%" filterUnits="objectBoundingBox" id="filter-1">
            <feOffset dx="0" dy="2" in="SourceAlpha" result="shadowOffsetOuter1"></feOffset>
            <feGaussianBlur stdDeviation="2" in="shadowOffsetOuter1" result="shadowBlurOuter1"></feGaussianBlur>
            <feColorMatrix values="0 0 0 0 0.989795918   0 0 0 0 0.270295831   0 0 0 0 0.417666264  0 0 0 0.399343297 0" type="matrix" in="shadowBlurOuter1" result="shadowMatrixOuter1"></feColorMatrix>
            <feMerge>
                <feMergeNode in="shadowMatrixOuter1"></feMergeNode>
                <feMergeNode in="SourceGraphic"></feMergeNode>
            </feMerge>
        </filter>
        <linearGradient x1="49.9997228%" y1="100%" x2="50%" y2="0%" id="linearGradient-2">
            <stop stop-color="#5EA2FF" offset="0%"></stop>
            <stop stop-color="#00D5FF" offset="62.5956633%"></stop>
            <stop stop-color="#00E3FF" offset="100%"></stop>
        </linearGradient>
        <filter x="-11.4%" y="-8.6%" width="121.4%" height="121.4%" filterUnits="objectBoundingBox" id="filter-3">
            <feOffset dx="0" dy="2" in="SourceAlpha" result="shadowOffsetOuter1"></feOffset>
            <feGaussianBlur stdDeviation="2" in="shadowOffsetOuter1" result="shadowBlurOuter1"></feGaussianBlur>
            <feColorMatrix values="0 0 0 0 0.0712506455   0 0 0 0 0.673596693   0 0 0 0 0.954931973  0 0 0 1 0" type="matrix" in="shadowBlurOuter1" result="shadowMatrixOuter1"></feColorMatrix>
            <feMerge>
                <feMergeNode in="shadowMatrixOuter1"></feMergeNode>
                <feMergeNode in="SourceGraphic"></feMergeNode>
            </feMerge>
        </filter>
        <path d="M34.3584463,60.3142725 C46.6956401,60.3142725 56.9721365,51.4913783 59.2224794,39.811046 C59.3379102,39.2119057 60.2709052,39.0526444 60.3432948,38.4392725 C60.45939,37.4555746 60.6084463,36.0072129 60.6084463,34.9923028 C60.6084463,34.5578033 59.6694725,34.1258598 59.647846,33.6967329 C58.9733971,20.3138457 47.9088845,9.67033309 34.3584463,9.67033309 C31.2677875,9.67033309 28.4792421,10.1150395 25.7410221,11.1286664 C25.1197905,11.3586323 24.3495539,10.5872984 23.7523857,10.8635149 C23.0939428,11.1680736 21.8598346,11.6987086 21.2334463,12.0566967 C20.8949695,12.2501401 21.1400465,13.3865158 20.8115898,13.5948998 C13.7340444,18.0851316 9.03647661,25.9901293 9.03647661,34.9923028 C9.03647661,40.8337434 11.0144399,46.2132059 14.3371469,50.4974707 C14.583782,50.8154795 13.8131611,51.3911667 14.0743554,51.6968482 C14.7878002,52.5318085 16.0435857,53.8865364 16.8584463,54.6223135 C17.1737852,54.9070484 18.0319941,54.3535283 18.3614246,54.6223135 C22.7223685,58.1804455 28.2912164,60.3142725 34.3584463,60.3142725 Z" id="path-4"></path>
        <path d="M30.3584463,57.3142725 C42.6956401,57.3142725 52.9721365,48.4913783 55.2224794,36.811046 C55.3379102,36.2119057 56.2709052,36.0526444 56.3432948,35.4392725 C56.45939,34.4555746 56.6084463,33.0072129 56.6084463,31.9923028 C56.6084463,31.5578033 55.6694725,31.1258598 55.647846,30.6967329 C54.9733971,17.3138457 43.9088845,6.67033309 30.3584463,6.67033309 C27.2677875,6.67033309 24.4792421,7.11503949 21.7410221,8.12866643 C21.1197905,8.35863226 20.3495539,7.58729843 19.7523857,7.86351491 C19.0939428,8.16807363 17.8598346,8.69870862 17.2334463,9.05669673 C16.8949695,9.25014009 17.1400465,10.3865158 16.8115898,10.5948998 C9.73404437,15.0851316 5.03647661,22.9901293 5.03647661,31.9923028 C5.03647661,37.8337434 7.01443992,43.2132059 10.3371469,47.4974707 C10.583782,47.8154795 9.81316105,48.3911667 10.0743554,48.6968482 C10.7878002,49.5318085 12.0435857,50.8865364 12.8584463,51.6223135 C13.1737852,51.9070484 14.0319941,51.3535283 14.3614246,51.6223135 C18.7223685,55.1804455 24.2912164,57.3142725 30.3584463,57.3142725 Z" id="path-6"></path>
        <filter x="-30.1%" y="-30.6%" width="160.1%" height="161.2%" filterUnits="objectBoundingBox" id="filter-7">
            <feGaussianBlur stdDeviation="9.5" in="SourceAlpha" result="shadowBlurInner1"></feGaussianBlur>
            <feOffset dx="-12" dy="11" in="shadowBlurInner1" result="shadowOffsetInner1"></feOffset>
            <feComposite in="shadowOffsetInner1" in2="SourceAlpha" operator="arithmetic" k2="-1" k3="1" result="shadowInnerInner1"></feComposite>
            <feColorMatrix values="0 0 0 0 1   0 0 0 0 0.976187658   0 0 0 0 0.976187658  0 0 0 0.5 0" type="matrix" in="shadowInnerInner1"></feColorMatrix>
        </filter>
        <circle id="path-8" cx="30.6508141" cy="48.6508141" r="4.65081406"></circle>
        <filter x="-26.9%" y="-26.9%" width="153.8%" height="153.8%" filterUnits="objectBoundingBox" id="filter-9">
            <feGaussianBlur stdDeviation="1.5" in="SourceAlpha" result="shadowBlurInner1"></feGaussianBlur>
            <feOffset dx="0" dy="1" in="shadowBlurInner1" result="shadowOffsetInner1"></feOffset>
            <feComposite in="shadowOffsetInner1" in2="SourceAlpha" operator="arithmetic" k2="-1" k3="1" result="shadowInnerInner1"></feComposite>
            <feColorMatrix values="0 0 0 0 0.740490846   0 0 0 0 0.917380759   0 0 0 0 1  0 0 0 1 0" type="matrix" in="shadowInnerInner1"></feColorMatrix>
        </filter>
        <path d="M15.466729,22.8367658 C16.3658622,23.6736107 18.2627375,23.4989714 19.7035185,22.3237743 C21.1442994,21.0527983 21.5833917,19.2380772 20.6842585,18.3934051 C19.7851253,17.5887319 17.88825,18.0727396 16.447469,19.3515428 C15.0066881,20.5345672 14.5675958,22.0399198 15.466729,22.8367658 Z" id="path-10"></path>
        <filter x="-40.7%" y="-46.7%" width="181.4%" height="193.4%" filterUnits="objectBoundingBox" id="filter-11">
            <feGaussianBlur stdDeviation="1.5" in="SourceAlpha" result="shadowBlurInner1"></feGaussianBlur>
            <feOffset dx="0" dy="1" in="shadowBlurInner1" result="shadowOffsetInner1"></feOffset>
            <feComposite in="shadowOffsetInner1" in2="SourceAlpha" operator="arithmetic" k2="-1" k3="1" result="shadowInnerInner1"></feComposite>
            <feColorMatrix values="0 0 0 0 0.740490846   0 0 0 0 0.917380759   0 0 0 0 1  0 0 0 1 0" type="matrix" in="shadowInnerInner1"></feColorMatrix>
        </filter>
        <path d="M13.7743724,46.8222817 C14.6735056,47.6591265 16.5703809,47.4844872 18.0111619,46.3092902 C19.4519429,45.0383142 19.8910351,43.2235931 18.9919019,42.378921 C18.0927687,41.5742477 16.1958934,42.0582554 14.7551125,43.3370587 C13.3143315,44.520083 12.8752392,46.0254357 13.7743724,46.8222817 Z" id="path-12"></path>
        <filter x="-40.7%" y="-46.7%" width="181.4%" height="193.4%" filterUnits="objectBoundingBox" id="filter-13">
            <feGaussianBlur stdDeviation="1.5" in="SourceAlpha" result="shadowBlurInner1"></feGaussianBlur>
            <feOffset dx="0" dy="1" in="shadowBlurInner1" result="shadowOffsetInner1"></feOffset>
            <feComposite in="shadowOffsetInner1" in2="SourceAlpha" operator="arithmetic" k2="-1" k3="1" result="shadowInnerInner1"></feComposite>
            <feColorMatrix values="0 0 0 0 0.740490846   0 0 0 0 0.917380759   0 0 0 0 1  0 0 0 1 0" type="matrix" in="shadowInnerInner1"></feColorMatrix>
        </filter>
        <path d="M25.0098846,54.8378265 C27.5,55.1652196 28.9330805,53.0946958 28.998278,51.6756878 C29.0634755,50.2566799 27.2692303,48.7978535 24.990719,48.4173081 C22.7122078,48.0367626 20.9265432,49.4525003 21.0023256,51.5794468 C21.078108,53.7063933 22.5197692,54.5104335 25.0098846,54.8378265 Z" id="path-14"></path>
        <filter x="-31.3%" y="-38.4%" width="162.5%" height="176.7%" filterUnits="objectBoundingBox" id="filter-15">
            <feGaussianBlur stdDeviation="1.5" in="SourceAlpha" result="shadowBlurInner1"></feGaussianBlur>
            <feOffset dx="0" dy="1" in="shadowBlurInner1" result="shadowOffsetInner1"></feOffset>
            <feComposite in="shadowOffsetInner1" in2="SourceAlpha" operator="arithmetic" k2="-1" k3="1" result="shadowInnerInner1"></feComposite>
            <feColorMatrix values="0 0 0 0 0.871922348   0 0 0 0 0.959224258   0 0 0 0 1  0 0 0 1 0" type="matrix" in="shadowInnerInner1"></feColorMatrix>
        </filter>
        <path d="M51.0065489,26.2584397 C52.1111184,25.9750846 52.4955168,25.0390709 52.4955168,23.8980285 C52.4955168,22.7569861 52.1111184,21.3835952 51.0065489,21.1002401 C49.9019794,20.8168851 49.0065489,21.9715874 49.0065489,23.6793399 C49.0065489,25.3870925 49.9019794,26.5417948 51.0065489,26.2584397 Z" id="path-16"></path>
        <filter x="-71.7%" y="-47.7%" width="243.3%" height="195.5%" filterUnits="objectBoundingBox" id="filter-17">
            <feGaussianBlur stdDeviation="1.5" in="SourceAlpha" result="shadowBlurInner1"></feGaussianBlur>
            <feOffset dx="0" dy="1" in="shadowBlurInner1" result="shadowOffsetInner1"></feOffset>
            <feComposite in="shadowOffsetInner1" in2="SourceAlpha" operator="arithmetic" k2="-1" k3="1" result="shadowInnerInner1"></feComposite>
            <feColorMatrix values="0 0 0 0 0.858408302   0 0 0 0 0.954921827   0 0 0 0 1  0 0 0 1 0" type="matrix" in="shadowInnerInner1"></feColorMatrix>
        </filter>
        <path d="M73.6048894,28.3298937 C72.5897198,26.3680042 73.3562769,25.6146138 75.3081536,26.6424681 L77.9668266,28.0425199 C78.4543385,28.2992427 79.2384869,28.2740433 79.7140825,27.9887479 L81.631026,26.8388316 C83.5287691,25.700433 84.1437115,26.303304 82.9919273,28.2062169 L81.8091287,30.1603699 C81.5236031,30.6320992 81.5059185,31.414514 81.7626193,31.8948265 L83.1796663,34.5462608 C84.222119,36.4967922 83.5058993,37.2069218 81.5682943,36.1258795 L78.9912717,34.6880889 C78.5046462,34.4165873 77.7323468,34.4276744 77.2546597,34.7199707 L75.1798468,35.9895469 C73.2948522,37.1429733 72.6876512,36.5357442 73.81515,34.6474569 L74.9411491,32.7616812 C75.2242886,32.2874912 75.2450222,31.4995701 74.9943052,31.0150412 L73.6048894,28.3298937 Z" id="path-18"></path>
        <filter x="-19.0%" y="-19.1%" width="138.1%" height="138.3%" filterUnits="objectBoundingBox" id="filter-19">
            <feGaussianBlur stdDeviation="1.5" in="SourceAlpha" result="shadowBlurInner1"></feGaussianBlur>
            <feOffset dx="0" dy="1" in="shadowBlurInner1" result="shadowOffsetInner1"></feOffset>
            <feComposite in="shadowOffsetInner1" in2="SourceAlpha" operator="arithmetic" k2="-1" k3="1" result="shadowInnerInner1"></feComposite>
            <feColorMatrix values="0 0 0 0 0.0450599747   0 0 0 0 1   0 0 0 0 0.878686288  0 0 0 1 0" type="matrix" in="shadowInnerInner1"></feColorMatrix>
        </filter>
        <path d="M23.2782573,67.4042568 C22.6162051,66.1247926 23.1228859,65.6370238 24.3822904,66.3002237 L24.7272547,66.4818812 C25.2207998,66.7417811 26.0021002,66.7237995 26.4703972,66.4428823 L26.4868782,66.4329958 C27.7255664,65.6899443 28.1221063,66.0914498 27.3780349,67.3207626 L27.3579693,67.3539138 C27.0731146,67.8245347 27.0514045,68.5975015 27.3136281,69.0881476 L27.5023597,69.441283 C28.180213,70.7096131 27.7048657,71.166003 26.4483124,70.4649379 L26.1289808,70.2867741 C25.644198,70.0163007 24.8622914,70.0350138 24.401247,70.3171265 L24.2995899,70.3793304 C23.0734713,71.1295913 22.6831459,70.726847 23.4192818,69.4939977 L23.4095086,69.5103654 C23.6931208,69.0353836 23.7187005,68.2554454 23.4673303,67.7696541 L23.2782573,67.4042568 Z" id="path-20"></path>
        <filter x="-45.9%" y="-46.2%" width="191.7%" height="192.6%" filterUnits="objectBoundingBox" id="filter-21">
            <feGaussianBlur stdDeviation="1.5" in="SourceAlpha" result="shadowBlurInner1"></feGaussianBlur>
            <feOffset dx="0" dy="1" in="shadowBlurInner1" result="shadowOffsetInner1"></feOffset>
            <feComposite in="shadowOffsetInner1" in2="SourceAlpha" operator="arithmetic" k2="-1" k3="1" result="shadowInnerInner1"></feComposite>
            <feColorMatrix values="0 0 0 0 0.694436818   0 0 0 0 1   0 0 0 0 0.423532197  0 0 0 1 0" type="matrix" in="shadowInnerInner1"></feColorMatrix>
        </filter>
        <circle id="path-22" cx="31" cy="18" r="3"></circle>
        <filter x="-33.3%" y="-33.3%" width="166.7%" height="166.7%" filterUnits="objectBoundingBox" id="filter-23">
            <feGaussianBlur stdDeviation="1.5" in="SourceAlpha" result="shadowBlurInner1"></feGaussianBlur>
            <feOffset dx="0" dy="1" in="shadowBlurInner1" result="shadowOffsetInner1"></feOffset>
            <feComposite in="shadowOffsetInner1" in2="SourceAlpha" operator="arithmetic" k2="-1" k3="1" result="shadowInnerInner1"></feComposite>
            <feColorMatrix values="0 0 0 0 0.868177787   0 0 0 0 1   0 0 0 0 0.270517677  0 0 0 1 0" type="matrix" in="shadowInnerInner1"></feColorMatrix>
        </filter>
        <circle id="path-24" cx="64.5" cy="80.5" r="3.5"></circle>
        <filter x="-28.6%" y="-28.6%" width="157.1%" height="157.1%" filterUnits="objectBoundingBox" id="filter-25">
            <feGaussianBlur stdDeviation="1.5" in="SourceAlpha" result="shadowBlurInner1"></feGaussianBlur>
            <feOffset dx="0" dy="1" in="shadowBlurInner1" result="shadowOffsetInner1"></feOffset>
            <feComposite in="shadowOffsetInner1" in2="SourceAlpha" operator="arithmetic" k2="-1" k3="1" result="shadowInnerInner1"></feComposite>
            <feColorMatrix values="0 0 0 0 0.868177787   0 0 0 0 1   0 0 0 0 0.270517677  0 0 0 1 0" type="matrix" in="shadowInnerInner1"></feColorMatrix>
        </filter>
        <circle id="path-26" cx="13.5" cy="63.5" r="1.5"></circle>
        <filter x="-66.7%" y="-66.7%" width="233.3%" height="233.3%" filterUnits="objectBoundingBox" id="filter-27">
            <feGaussianBlur stdDeviation="1.5" in="SourceAlpha" result="shadowBlurInner1"></feGaussianBlur>
            <feOffset dx="0" dy="1" in="shadowBlurInner1" result="shadowOffsetInner1"></feOffset>
            <feComposite in="shadowOffsetInner1" in2="SourceAlpha" operator="arithmetic" k2="-1" k3="1" result="shadowInnerInner1"></feComposite>
            <feColorMatrix values="0 0 0 0 0.868177787   0 0 0 0 1   0 0 0 0 0.270517677  0 0 0 1 0" type="matrix" in="shadowInnerInner1"></feColorMatrix>
        </filter>
        <filter x="-24.3%" y="-21.4%" width="147.1%" height="147.1%" filterUnits="objectBoundingBox" id="filter-28">
            <feOffset dx="0" dy="2" in="SourceAlpha" result="shadowOffsetOuter1"></feOffset>
            <feGaussianBlur stdDeviation="5" in="shadowOffsetOuter1" result="shadowBlurOuter1"></feGaussianBlur>
            <feColorMatrix values="0 0 0 0 0.1251381   0 0 0 0 0.721472538   0 0 0 0 1  0 0 0 1 0" type="matrix" in="shadowBlurOuter1" result="shadowMatrixOuter1"></feColorMatrix>
            <feMerge>
                <feMergeNode in="shadowMatrixOuter1"></feMergeNode>
                <feMergeNode in="SourceGraphic"></feMergeNode>
            </feMerge>
        </filter>
        <path d="M34.3584463,60.3142725 C46.6956401,60.3142725 56.9721365,51.4913783 59.2224794,39.811046 C59.3379102,39.2119057 60.2709052,39.0526444 60.3432948,38.4392725 C60.45939,37.4555746 60.6084463,36.0072129 60.6084463,34.9923028 C60.6084463,34.5578033 59.6694725,34.1258598 59.647846,33.6967329 C58.9733971,20.3138457 47.9088845,9.67033309 34.3584463,9.67033309 C31.2677875,9.67033309 28.4792421,10.1150395 25.7410221,11.1286664 C25.1197905,11.3586323 24.3495539,10.5872984 23.7523857,10.8635149 C23.0939428,11.1680736 21.8598346,11.6987086 21.2334463,12.0566967 C20.8949695,12.2501401 21.1400465,13.3865158 20.8115898,13.5948998 C13.7340444,18.0851316 9.03647661,25.9901293 9.03647661,34.9923028 C9.03647661,40.8337434 11.0144399,46.2132059 14.3371469,50.4974707 C14.583782,50.8154795 13.8131611,51.3911667 14.0743554,51.6968482 C14.7878002,52.5318085 16.0435857,53.8865364 16.8584463,54.6223135 C17.1737852,54.9070484 18.0319941,54.3535283 18.3614246,54.6223135 C22.7223685,58.1804455 28.2912164,60.3142725 34.3584463,60.3142725 Z" id="path-29"></path>
        <path d="M30.3584463,57.3142725 C42.6956401,57.3142725 52.9721365,48.4913783 55.2224794,36.811046 C55.3379102,36.2119057 56.2709052,36.0526444 56.3432948,35.4392725 C56.45939,34.4555746 56.6084463,33.0072129 56.6084463,31.9923028 C56.6084463,31.5578033 55.6694725,31.1258598 55.647846,30.6967329 C54.9733971,17.3138457 43.9088845,6.67033309 30.3584463,6.67033309 C27.2677875,6.67033309 24.4792421,7.11503949 21.7410221,8.12866643 C21.1197905,8.35863226 20.3495539,7.58729843 19.7523857,7.86351491 C19.0939428,8.16807363 17.8598346,8.69870862 17.2334463,9.05669673 C16.8949695,9.25014009 17.1400465,10.3865158 16.8115898,10.5948998 C9.73404437,15.0851316 5.03647661,22.9901293 5.03647661,31.9923028 C5.03647661,37.8337434 7.01443992,43.2132059 10.3371469,47.4974707 C10.583782,47.8154795 9.81316105,48.3911667 10.0743554,48.6968482 C10.7878002,49.5318085 12.0435857,50.8865364 12.8584463,51.6223135 C13.1737852,51.9070484 14.0319941,51.3535283 14.3614246,51.6223135 C18.7223685,55.1804455 24.2912164,57.3142725 30.3584463,57.3142725 Z" id="path-31"></path>
        <filter x="-30.1%" y="-30.6%" width="160.1%" height="161.2%" filterUnits="objectBoundingBox" id="filter-32">
            <feGaussianBlur stdDeviation="9.5" in="SourceAlpha" result="shadowBlurInner1"></feGaussianBlur>
            <feOffset dx="-12" dy="11" in="shadowBlurInner1" result="shadowOffsetInner1"></feOffset>
            <feComposite in="shadowOffsetInner1" in2="SourceAlpha" operator="arithmetic" k2="-1" k3="1" result="shadowInnerInner1"></feComposite>
            <feColorMatrix values="0 0 0 0 1   0 0 0 0 0.976187658   0 0 0 0 0.976187658  0 0 0 0.5 0" type="matrix" in="shadowInnerInner1"></feColorMatrix>
        </filter>
        <circle id="path-33" cx="28.6508141" cy="25.6508141" r="4.65081406"></circle>
        <filter x="-26.9%" y="-26.9%" width="153.8%" height="153.8%" filterUnits="objectBoundingBox" id="filter-34">
            <feGaussianBlur stdDeviation="1.5" in="SourceAlpha" result="shadowBlurInner1"></feGaussianBlur>
            <feOffset dx="0" dy="1" in="shadowBlurInner1" result="shadowOffsetInner1"></feOffset>
            <feComposite in="shadowOffsetInner1" in2="SourceAlpha" operator="arithmetic" k2="-1" k3="1" result="shadowInnerInner1"></feComposite>
            <feColorMatrix values="0 0 0 0 0.740490846   0 0 0 0 0.917380759   0 0 0 0 1  0 0 0 1 0" type="matrix" in="shadowInnerInner1"></feColorMatrix>
        </filter>
        <path d="M15.466729,22.8367658 C16.3658622,23.6736107 18.2627375,23.4989714 19.7035185,22.3237743 C21.1442994,21.0527983 21.5833917,19.2380772 20.6842585,18.3934051 C19.7851253,17.5887319 17.88825,18.0727396 16.447469,19.3515428 C15.0066881,20.5345672 14.5675958,22.0399198 15.466729,22.8367658 Z" id="path-35"></path>
        <filter x="-40.7%" y="-46.7%" width="181.4%" height="193.4%" filterUnits="objectBoundingBox" id="filter-36">
            <feGaussianBlur stdDeviation="1.5" in="SourceAlpha" result="shadowBlurInner1"></feGaussianBlur>
            <feOffset dx="0" dy="1" in="shadowBlurInner1" result="shadowOffsetInner1"></feOffset>
            <feComposite in="shadowOffsetInner1" in2="SourceAlpha" operator="arithmetic" k2="-1" k3="1" result="shadowInnerInner1"></feComposite>
            <feColorMatrix values="0 0 0 0 0.740490846   0 0 0 0 0.917380759   0 0 0 0 1  0 0 0 1 0" type="matrix" in="shadowInnerInner1"></feColorMatrix>
        </filter>
        <path d="M13.7743724,46.8222817 C14.6735056,47.6591265 16.5703809,47.4844872 18.0111619,46.3092902 C19.4519429,45.0383142 19.8910351,43.2235931 18.9919019,42.378921 C18.0927687,41.5742477 16.1958934,42.0582554 14.7551125,43.3370587 C13.3143315,44.520083 12.8752392,46.0254357 13.7743724,46.8222817 Z" id="path-37"></path>
        <filter x="-40.7%" y="-46.7%" width="181.4%" height="193.4%" filterUnits="objectBoundingBox" id="filter-38">
            <feGaussianBlur stdDeviation="1.5" in="SourceAlpha" result="shadowBlurInner1"></feGaussianBlur>
            <feOffset dx="0" dy="1" in="shadowBlurInner1" result="shadowOffsetInner1"></feOffset>
            <feComposite in="shadowOffsetInner1" in2="SourceAlpha" operator="arithmetic" k2="-1" k3="1" result="shadowInnerInner1"></feComposite>
            <feColorMatrix values="0 0 0 0 0.740490846   0 0 0 0 0.917380759   0 0 0 0 1  0 0 0 1 0" type="matrix" in="shadowInnerInner1"></feColorMatrix>
        </filter>
        <path d="M25.0098846,54.8378265 C27.5,55.1652196 28.9330805,53.0946958 28.998278,51.6756878 C29.0634755,50.2566799 27.2692303,48.7978535 24.990719,48.4173081 C22.7122078,48.0367626 20.9265432,49.4525003 21.0023256,51.5794468 C21.078108,53.7063933 22.5197692,54.5104335 25.0098846,54.8378265 Z" id="path-39"></path>
        <filter x="-31.3%" y="-38.4%" width="162.5%" height="176.7%" filterUnits="objectBoundingBox" id="filter-40">
            <feGaussianBlur stdDeviation="1.5" in="SourceAlpha" result="shadowBlurInner1"></feGaussianBlur>
            <feOffset dx="0" dy="1" in="shadowBlurInner1" result="shadowOffsetInner1"></feOffset>
            <feComposite in="shadowOffsetInner1" in2="SourceAlpha" operator="arithmetic" k2="-1" k3="1" result="shadowInnerInner1"></feComposite>
            <feColorMatrix values="0 0 0 0 0.871922348   0 0 0 0 0.959224258   0 0 0 0 1  0 0 0 1 0" type="matrix" in="shadowInnerInner1"></feColorMatrix>
        </filter>
        <path d="M51.0065489,26.2584397 C52.1111184,25.9750846 52.4955168,25.0390709 52.4955168,23.8980285 C52.4955168,22.7569861 52.1111184,21.3835952 51.0065489,21.1002401 C49.9019794,20.8168851 49.0065489,21.9715874 49.0065489,23.6793399 C49.0065489,25.3870925 49.9019794,26.5417948 51.0065489,26.2584397 Z" id="path-41"></path>
        <filter x="-71.7%" y="-47.7%" width="243.3%" height="195.5%" filterUnits="objectBoundingBox" id="filter-42">
            <feGaussianBlur stdDeviation="1.5" in="SourceAlpha" result="shadowBlurInner1"></feGaussianBlur>
            <feOffset dx="0" dy="1" in="shadowBlurInner1" result="shadowOffsetInner1"></feOffset>
            <feComposite in="shadowOffsetInner1" in2="SourceAlpha" operator="arithmetic" k2="-1" k3="1" result="shadowInnerInner1"></feComposite>
            <feColorMatrix values="0 0 0 0 0.858408302   0 0 0 0 0.954921827   0 0 0 0 1  0 0 0 1 0" type="matrix" in="shadowInnerInner1"></feColorMatrix>
        </filter>
        <linearGradient x1="0%" y1="0%" x2="101.999998%" y2="100.999999%" id="linearGradient-43">
            <stop stop-color="#5EF8FF" offset="0%"></stop>
            <stop stop-color="#00D5FF" offset="62.5956633%"></stop>
            <stop stop-color="#00E3FF" offset="100%"></stop>
        </linearGradient>
        <linearGradient x1="0%" y1="0%" x2="101.999998%" y2="100.999999%" id="linearGradient-44">
            <stop stop-color="#5ECBFF" offset="0%"></stop>
            <stop stop-color="#00D5FF" offset="62.5956633%"></stop>
            <stop stop-color="#00E3FF" offset="100%"></stop>
        </linearGradient>
        <linearGradient x1="0%" y1="0%" x2="101.999998%" y2="100.999999%" id="linearGradient-45">
            <stop stop-color="#5ECBFF" offset="0%"></stop>
            <stop stop-color="#00D5FF" offset="62.5956633%"></stop>
            <stop stop-color="#00E3FF" offset="100%"></stop>
        </linearGradient>
        <linearGradient x1="0%" y1="0%" x2="101.999998%" y2="100.999999%" id="linearGradient-46">
            <stop stop-color="#5EC4FF" offset="0%"></stop>
            <stop stop-color="#00D1FF" offset="100%"></stop>
        </linearGradient>
        <linearGradient x1="0%" y1="0%" x2="101.999998%" y2="100.999999%" id="linearGradient-47">
            <stop stop-color="#5EA2FF" offset="0%"></stop>
            <stop stop-color="#00D5FF" offset="62.5956633%"></stop>
            <stop stop-color="#00E3FF" offset="100%"></stop>
        </linearGradient>
        <linearGradient x1="0%" y1="0%" x2="101.999998%" y2="100.999999%" id="linearGradient-48">
            <stop stop-color="#5ECCFF" offset="0%"></stop>
            <stop stop-color="#00DDFF" offset="100%"></stop>
        </linearGradient>
    </defs>
    <g id="Page-1" stroke="none" stroke-width="1" fill="none" fill-rule="evenodd">
        <g id="保存遇到问题">
            <g filter="url(#filter-1)" transform="translate(4.000000, 12.000000)">
                <g id="Group-7" transform="translate(11.000000, 0.000000)">
                    <g id="Group-6">
                        <circle id="Oval-Copy" stroke="#07AEFC" fill="url(#linearGradient-2)" cx="48" cy="48.5" r="48"></circle>
                        <g id="Group-4-Copy" filter="url(#filter-3)" transform="translate(6.000000, 8.000000)">
                            <g id="Group-2">
                                <g id="Oval-2-Copy">
                                    <mask id="mask-5" fill="white">
                                        <use xlink:href="#path-4"></use>
                                    </mask>
                                    <use id="Mask" fill="#F8F8F8" transform="translate(34.822461, 34.992303) rotate(-300.000000) translate(-34.822461, -34.992303) " xlink:href="#path-4"></use>
                                    <g mask="url(#mask-5)" transform="translate(30.822461, 31.992303) rotate(-300.000000) translate(-30.822461, -31.992303) ">
                                        <use fill="#FFFFFF" fill-rule="evenodd" xlink:href="#path-6"></use>
                                        <use fill="black" fill-opacity="1" filter="url(#filter-7)" xlink:href="#path-6"></use>
                                    </g>
                                </g>
                                <g id="Oval-3">
                                    <use fill="#FFFFFF" fill-rule="evenodd" xlink:href="#path-8"></use>
                                    <use fill="black" fill-opacity="1" filter="url(#filter-9)" xlink:href="#path-8"></use>
                                    <use stroke="#F8F8F8" stroke-width="1" xlink:href="#path-8"></use>
                                </g>
                                <g id="Oval-3-Copy-3" opacity="0.512511322">
                                    <use fill="#FFFFFF" fill-rule="evenodd" xlink:href="#path-10"></use>
                                    <use fill="black" fill-opacity="1" filter="url(#filter-11)" xlink:href="#path-10"></use>
                                    <use stroke="#F8F8F8" stroke-width="1" xlink:href="#path-10"></use>
                                </g>
                                <g id="Oval-3-Copy-4" opacity="0.512511322" transform="translate(16.383137, 44.663921) rotate(-75.000000) translate(-16.383137, -44.663921) ">
                                    <use fill="#FFFFFF" fill-rule="evenodd" xlink:href="#path-12"></use>
                                    <use fill="black" fill-opacity="1" filter="url(#filter-13)" xlink:href="#path-12"></use>
                                    <use stroke="#F8F8F8" stroke-width="1" xlink:href="#path-12"></use>
                                </g>
                                <g id="Oval-3-Copy-2">
                                    <use fill="#FFFFFF" fill-rule="evenodd" xlink:href="#path-14"></use>
                                    <use fill="black" fill-opacity="1" filter="url(#filter-15)" xlink:href="#path-14"></use>
                                    <use stroke="#F8F8F8" stroke-width="1" xlink:href="#path-14"></use>
                                </g>
                                <g id="Oval-3-Copy" transform="translate(50.751033, 23.679340) rotate(-13.000000) translate(-50.751033, -23.679340) ">
                                    <use fill="#FFFFFF" fill-rule="evenodd" xlink:href="#path-16"></use>
                                    <use fill="black" fill-opacity="1" filter="url(#filter-17)" xlink:href="#path-16"></use>
                                    <use stroke="#F9F9F9" stroke-width="1" xlink:href="#path-16"></use>
                                </g>
                            </g>
                            <ellipse id="Oval-2-Copy-2" stroke="#07AEFC" fill="#4F4F4F" cx="25.5" cy="19" rx="1.5" ry="1"></ellipse>
                            <ellipse id="Oval-2-Copy-3" stroke="#07AEFC" fill="#4F4F4F" transform="translate(16.791854, 24.730226) rotate(-40.000000) translate(-16.791854, -24.730226) " cx="16.7918543" cy="24.7302259" rx="1.5" ry="1"></ellipse>
                            <g id="Group-3" transform="translate(25.562178, 26.830127) rotate(-30.000000) translate(-25.562178, -26.830127) translate(18.562178, 21.830127)">
                                <path d="M7,9.0625 C10.5898509,9.0625 13.5,6.15235087 13.5,2.5625 C13.5,0.395833333 0.770833333,0.395833333 0.5,2.5625 C0.5,6.15235087 3.41014913,9.0625 7,9.0625 Z" id="Oval-4" fill="#4F4F4F" transform="translate(7.000000, 5.000000) rotate(-180.000000) translate(-7.000000, -5.000000) "></path>
                                <path d="M7,8 C9.209139,8 11,6.209139 11,4 C11,2.66666667 3.16666667,2.66666667 3,4 C3,6.209139 4.790861,8 7,8 Z" id="Oval-4-Copy" fill="#FF7575" transform="translate(7.000000, 5.500000) rotate(-180.000000) translate(-7.000000, -5.500000) "></path>
                                <path d="M7,7.36937099 C9.209139,7.36937099 11,9.07850999 11,6.86937099 C11,5.53603765 3.16666667,5.53603765 3,6.86937099 C3,9.07850999 4.790861,7.36937099 7,7.36937099 Z" id="Oval-4-Copy-2" fill="#FD456A" transform="translate(7.000000, 6.934685) rotate(-180.000000) translate(-7.000000, -6.934685) "></path>
                            </g>
                        </g>
                        <g id="Rectangle" opacity="0.651721014" transform="translate(78.407167, 31.407167) rotate(-315.000000) translate(-78.407167, -31.407167) ">
                            <use fill="#DEFF45" fill-rule="evenodd" xlink:href="#path-18"></use>
                            <use fill="black" fill-opacity="1" filter="url(#filter-19)" xlink:href="#path-18"></use>
                        </g>
                        <g id="Rectangle-Copy" opacity="0.651721014" transform="translate(25.399056, 68.399056) rotate(-315.000000) translate(-25.399056, -68.399056) ">
                            <use fill="#F8E81C" fill-rule="evenodd" xlink:href="#path-20"></use>
                            <use fill="black" fill-opacity="1" filter="url(#filter-21)" xlink:href="#path-20"></use>
                        </g>
                        <circle id="Oval-5" fill="#7AFFB2" cx="71" cy="17" r="1"></circle>
                        <circle id="Oval-5-Copy-5" fill="#7AFFB2" cx="48.5" cy="9.5" r="1.5"></circle>
                        <circle id="Oval-5-Copy-4" fill="#45EDF8" cx="7.5" cy="37.5" r="1.5"></circle>
                        <g id="Oval-5-Copy" opacity="0.452898551">
                            <use fill="#7AFFB2" fill-rule="evenodd" xlink:href="#path-22"></use>
                            <use fill="black" fill-opacity="1" filter="url(#filter-23)" xlink:href="#path-22"></use>
                        </g>
                        <g id="Oval-5-Copy-3" opacity="0.452898551">
                            <use fill="#7AFFB2" fill-rule="evenodd" xlink:href="#path-24"></use>
                            <use fill="black" fill-opacity="1" filter="url(#filter-25)" xlink:href="#path-24"></use>
                        </g>
                        <g id="Oval-5-Copy-2" opacity="0.452898551">
                            <use fill="#7AFFB2" fill-rule="evenodd" xlink:href="#path-26"></use>
                            <use fill="black" fill-opacity="1" filter="url(#filter-27)" xlink:href="#path-26"></use>
                        </g>
                        <g id="Group-4" filter="url(#filter-28)" transform="translate(22.000000, 18.000000)">
                            <g id="Group-2">
                                <g id="Oval-2-Copy">
                                    <mask id="mask-30" fill="white">
                                        <use xlink:href="#path-29"></use>
                                    </mask>
                                    <use id="Mask" fill="#F8F8F8" transform="translate(34.822461, 34.992303) rotate(-300.000000) translate(-34.822461, -34.992303) " xlink:href="#path-29"></use>
                                    <g mask="url(#mask-30)" transform="translate(30.822461, 31.992303) rotate(-300.000000) translate(-30.822461, -31.992303) ">
                                        <use fill="#FFFFFF" fill-rule="evenodd" xlink:href="#path-31"></use>
                                        <use fill="black" fill-opacity="1" filter="url(#filter-32)" xlink:href="#path-31"></use>
                                    </g>
                                </g>
                                <g id="Oval-3">
                                    <use fill="#FFFFFF" fill-rule="evenodd" xlink:href="#path-33"></use>
                                    <use fill="black" fill-opacity="1" filter="url(#filter-34)" xlink:href="#path-33"></use>
                                    <use stroke="#F8F8F8" stroke-width="1" xlink:href="#path-33"></use>
                                </g>
                                <g id="Oval-3-Copy-3" opacity="0.512511322">
                                    <use fill="#FFFFFF" fill-rule="evenodd" xlink:href="#path-35"></use>
                                    <use fill="black" fill-opacity="1" filter="url(#filter-36)" xlink:href="#path-35"></use>
                                    <use stroke="#F8F8F8" stroke-width="1" xlink:href="#path-35"></use>
                                </g>
                                <g id="Oval-3-Copy-4" opacity="0.512511322" transform="translate(16.383137, 44.663921) rotate(-75.000000) translate(-16.383137, -44.663921) ">
                                    <use fill="#FFFFFF" fill-rule="evenodd" xlink:href="#path-37"></use>
                                    <use fill="black" fill-opacity="1" filter="url(#filter-38)" xlink:href="#path-37"></use>
                                    <use stroke="#F8F8F8" stroke-width="1" xlink:href="#path-37"></use>
                                </g>
                                <g id="Oval-3-Copy-2">
                                    <use fill="#FFFFFF" fill-rule="evenodd" xlink:href="#path-39"></use>
                                    <use fill="black" fill-opacity="1" filter="url(#filter-40)" xlink:href="#path-39"></use>
                                    <use stroke="#F8F8F8" stroke-width="1" xlink:href="#path-39"></use>
                                </g>
                                <g id="Oval-3-Copy" transform="translate(50.751033, 23.679340) rotate(-13.000000) translate(-50.751033, -23.679340) ">
                                    <use fill="#FFFFFF" fill-rule="evenodd" xlink:href="#path-41"></use>
                                    <use fill="black" fill-opacity="1" filter="url(#filter-42)" xlink:href="#path-41"></use>
                                    <use stroke="#F9F9F9" stroke-width="1" xlink:href="#path-41"></use>
                                </g>
                            </g>
                            <circle id="Oval-2-Copy-2" stroke="#07AEFC" fill="#4F4F4F" cx="42.5" cy="31.5" r="1.5"></circle>
                            <circle id="Oval-2-Copy-3" stroke="#07AEFC" fill="#4F4F4F" cx="27.5" cy="31.5" r="1.5"></circle>
                            <g id="Group-3" transform="translate(28.000000, 35.000000)">
                                <path d="M7,9.0625 C10.5898509,9.0625 13.5,6.15235087 13.5,2.5625 C13.5,0.395833333 0.770833333,0.395833333 0.5,2.5625 C0.5,6.15235087 3.41014913,9.0625 7,9.0625 Z" id="Oval-4" fill="#4F4F4F" transform="translate(7.000000, 5.000000) rotate(-180.000000) translate(-7.000000, -5.000000) "></path>
                                <path d="M7,8 C9.209139,8 11,6.209139 11,4 C11,2.66666667 3.16666667,2.66666667 3,4 C3,6.209139 4.790861,8 7,8 Z" id="Oval-4-Copy" fill="#FF7575" transform="translate(7.000000, 5.500000) rotate(-180.000000) translate(-7.000000, -5.500000) "></path>
                                <path d="M7,7.36937099 C9.209139,7.36937099 11,9.07850999 11,6.86937099 C11,5.53603765 3.16666667,5.53603765 3,6.86937099 C3,9.07850999 4.790861,7.36937099 7,7.36937099 Z" id="Oval-4-Copy-2" fill="#FD456A" transform="translate(7.000000, 6.934685) rotate(-180.000000) translate(-7.000000, -6.934685) "></path>
                            </g>
                        </g>
                    </g>
                    <g id="Group-5" transform="translate(25.000000, 68.000000)">
                        <path d="M17.0017379,0.523096209 C15.9345617,0.23419815 14.2007224,0.236181895 13.1361112,0.52562074 L4.36388881,2.91054947 C3.29613834,3.20084179 1.96789557,4.19227197 1.38263524,5.14873325 L0.0479203198,7.32999015 C-0.530830092,8.2758126 -0.362678885,9.68091738 0.410051987,10.454913 L1.75093548,11.797991 C2.92402392,12.9729994 5.16960328,14.2832484 6.76430225,14.7238853 L11.45792,16.0207955 C13.0536375,16.4617139 15.6165017,16.3650929 17.1709757,15.809015 L20.0560233,14.7769545 C21.0912989,14.4066081 22.2886671,13.2834884 22.7290032,12.2716522 L24.2015524,8.88792224 C24.6425228,7.87462843 24.5274221,6.29056986 23.9448181,5.35039391 L22.8051819,3.51130821 C22.222421,2.57087908 20.876634,1.57207946 19.8177065,1.28541443 L17.0017379,0.523096209 Z" id="Path-2" fill="url(#linearGradient-43)"></path>
                        <path d="M4.71537745,3.79955276 C3.65294132,4.09826854 2.44571251,5.15947366 2.01240336,6.18533518 L2.2801937,5.55134024 C1.46577354,7.47948391 2.41362847,8.5056516 4.40508113,7.8407476 L9.20957193,6.23662956 C10.2520924,5.88855398 11.8415187,5.10233059 12.6730065,4.38057104 C12.6730065,4.38057104 13.2638889,4.34042553 13.4444444,3.07446809 C13.4444444,3.25531915 13.4444444,3.07446809 13.4444444,3.07446809 C13.2450083,2.17553652 12.2235733,1.68853966 11.1596226,1.98768128 L4.71537745,3.79955276 Z" id="Path-3" fill="url(#linearGradient-44)" opacity="0.49926404"></path>
                        <path d="M16.5768677,9.13701677 C14.3958688,8.40882726 11.0696487,8.82542997 9.12687326,10.0808849 L9.69196069,9.71571565 C7.75844133,10.9651891 7.90434528,12.6931438 10.0301313,13.5803377 L12.3185637,14.5354118 C14.4388496,15.4203101 17.5502521,14.8922598 19.2518717,13.3704701 L18.877379,13.7053858 C20.5862533,12.1771079 20.2140818,10.3514058 18.0225218,9.61969013 L16.5768677,9.13701677 Z" id="Path-4" fill="url(#linearGradient-45)"></path>
                    </g>
                </g>
                <path d="M105.692604,15 L86.5872681,15 C86.5872681,15 85.2327907,15.2709909 85.2327907,16.6259454 C85.2327907,17.9808999 86.5877452,18.2518908 86.5877452,18.2518908 C86.5877452,18.2518908 88.6201769,18.0815246 88.6201769,19.8778362 C88.6201769,21.6741478 86.9942315,21.639277 86.9942315,21.639277 L80.7614408,21.639277 C80.7614408,21.639277 79,21.5361396 79,23.4007179 C79,25.2652962 80.7614408,25.0266633 80.7614408,25.0266633 L104.337649,25.0266633 C104.337649,25.0266633 105.966199,25.0633377 105.966199,23.4007179 C105.966199,21.738098 104.337649,21.7747725 104.337649,21.7747725 L102.43588,21.7747725 C102.43588,21.7747725 101.221254,21.3682861 101.221254,20.0133316 C101.221254,18.6583771 102.440713,18.3873862 102.440713,18.3873862 L105.966199,18.3873862 C105.966199,18.3873862 107.454044,18.2270526 107.454044,16.6259454 C107.454044,15.0248382 105.692604,15 105.692604,15 Z" id="Path-5" fill="url(#linearGradient-46)"></path>
                <circle id="Oval-2" fill="url(#linearGradient-47)" cx="110.5" cy="16.5" r="1.5"></circle>
                <path d="M26.6926036,57 L7.58726808,57 C7.58726808,57 6.23279068,57.2709909 6.23279068,58.6259454 C6.23279068,59.9808999 7.58774517,60.2518908 7.58774517,60.2518908 C7.58774517,60.2518908 9.62017692,60.0815246 9.62017692,61.8778362 C9.62017692,63.6741478 7.99423152,63.639277 7.99423152,63.639277 L1.76144084,63.639277 C1.76144084,63.639277 -2.27373675e-13,63.5361396 -2.27373675e-13,65.4007179 C-2.27049992e-13,67.2652962 1.76144084,67.0266633 1.76144084,67.0266633 L25.3376491,67.0266633 C25.3376491,67.0266633 26.9661992,67.0633377 26.9661992,65.4007179 C26.9661992,63.738098 25.3376491,63.7747725 25.3376491,63.7747725 L23.4358798,63.7747725 C23.4358798,63.7747725 22.2212537,63.3682861 22.2212537,62.0133316 C22.2212537,60.6583771 23.4407128,60.3873862 23.4407128,60.3873862 L26.9661992,60.3873862 C26.9661992,60.3873862 28.4540444,60.2270526 28.4540444,58.6259454 C28.4540444,57.0248382 26.6926036,57 26.6926036,57 Z" id="Path-5-Copy" fill="url(#linearGradient-48)" transform="translate(14.227022, 62.018287) rotate(-180.000000) translate(-14.227022, -62.018287) "></path>
            </g>
        </g>
    </g>
</svg>