<?xml version="1.0" encoding="UTF-8"?>
<svg width="16px" height="32px" viewBox="0 0 16 32" version="1.1" xmlns="http://www.w3.org/2000/svg" xmlns:xlink="http://www.w3.org/1999/xlink">
    <!-- Generator: Sketch 46.2 (44496) - http://www.bohemiancoding.com/sketch -->
    <title>Artboard</title>
    <desc>Created with Sketch.</desc>
    <defs></defs>
    <g id="Symbols" stroke="none" stroke-width="1" fill="none" fill-rule="evenodd">
        <g id="Artboard" fill="#626262">
            <g id="Group-22" transform="translate(0.000000, 16.000000)">
                <g id="Group-18">
                    <g id="Group-16" transform="translate(9.000000, 1.000000)">
                        <rect id="Rectangle-8" transform="translate(3.000000, 5.500000) rotate(-270.000000) translate(-3.000000, -5.500000) " x="2.5" y="2.5" width="1" height="6"></rect>
                        <rect id="Rectangle-8" transform="translate(0.500000, 3.000000) rotate(-360.000000) translate(-0.500000, -3.000000) " x="0" y="0" width="1" height="6"></rect>
                    </g>
                    <g id="Group-16-Copy-2" transform="translate(12.000000, 12.000000) scale(1, -1) translate(-12.000000, -12.000000) translate(9.000000, 9.000000)">
                        <rect id="Rectangle-8" transform="translate(3.000000, 5.500000) rotate(-270.000000) translate(-3.000000, -5.500000) " x="2.5" y="2.5" width="1" height="6"></rect>
                        <rect id="Rectangle-8" transform="translate(0.500000, 3.000000) rotate(-360.000000) translate(-0.500000, -3.000000) " x="0" y="0" width="1" height="6"></rect>
                    </g>
                    <g id="Group-16-Copy" transform="translate(4.000000, 4.000000) scale(-1, 1) translate(-4.000000, -4.000000) translate(1.000000, 1.000000)">
                        <rect id="Rectangle-8" transform="translate(3.000000, 5.500000) rotate(-270.000000) translate(-3.000000, -5.500000) " x="2.5" y="2.5" width="1" height="6"></rect>
                        <rect id="Rectangle-8" transform="translate(0.500000, 3.000000) rotate(-360.000000) translate(-0.500000, -3.000000) " x="0" y="0" width="1" height="6"></rect>
                    </g>
                    <g id="Group-16-Copy-3" transform="translate(3.500000, 11.500000) scale(-1, -1) translate(-3.500000, -11.500000) translate(0.000000, 8.000000)">
                        <rect id="Rectangle-8" transform="translate(3.500000, 6.000000) rotate(-270.000000) translate(-3.500000, -6.000000) " x="3" y="3" width="1" height="6"></rect>
                        <rect id="Rectangle-8" transform="translate(0.500000, 3.000000) rotate(-360.000000) translate(-0.500000, -3.000000) " x="0" y="0" width="1" height="6"></rect>
                    </g>
                </g>
                <rect id="Rectangle-10" transform="translate(9.010408, 9.010408) rotate(45.000000) translate(-9.010408, -9.010408) " x="1.01040764" y="8.51040764" width="16" height="1"></rect>
            </g>
            <g id="Group-18">
                <g id="Group-16" transform="translate(9.000000, 1.000000)">
                    <rect id="Rectangle-8" transform="translate(3.000000, 5.500000) rotate(-270.000000) translate(-3.000000, -5.500000) " x="2.5" y="2.5" width="1" height="6"></rect>
                    <rect id="Rectangle-8" transform="translate(0.500000, 3.000000) rotate(-360.000000) translate(-0.500000, -3.000000) " x="0" y="0" width="1" height="6"></rect>
                </g>
                <g id="Group-16-Copy-2" transform="translate(12.000000, 12.000000) scale(1, -1) translate(-12.000000, -12.000000) translate(9.000000, 9.000000)">
                    <rect id="Rectangle-8" transform="translate(3.000000, 5.500000) rotate(-270.000000) translate(-3.000000, -5.500000) " x="2.5" y="2.5" width="1" height="6"></rect>
                    <rect id="Rectangle-8" transform="translate(0.500000, 3.000000) rotate(-360.000000) translate(-0.500000, -3.000000) " x="0" y="0" width="1" height="6"></rect>
                </g>
                <g id="Group-16-Copy" transform="translate(4.000000, 4.000000) scale(-1, 1) translate(-4.000000, -4.000000) translate(1.000000, 1.000000)">
                    <rect id="Rectangle-8" transform="translate(3.000000, 5.500000) rotate(-270.000000) translate(-3.000000, -5.500000) " x="2.5" y="2.5" width="1" height="6"></rect>
                    <rect id="Rectangle-8" transform="translate(0.500000, 3.000000) rotate(-360.000000) translate(-0.500000, -3.000000) " x="0" y="0" width="1" height="6"></rect>
                </g>
                <g id="Group-16-Copy-3" transform="translate(4.000000, 12.000000) scale(-1, -1) translate(-4.000000, -12.000000) translate(1.000000, 9.000000)">
                    <rect id="Rectangle-8" transform="translate(3.000000, 5.500000) rotate(-270.000000) translate(-3.000000, -5.500000) " x="2.5" y="2.5" width="1" height="6"></rect>
                    <rect id="Rectangle-8" transform="translate(0.500000, 3.000000) rotate(-360.000000) translate(-0.500000, -3.000000) " x="0" y="0" width="1" height="6"></rect>
                </g>
            </g>
        </g>
    </g>
</svg>