<?xml version="1.0" encoding="UTF-8"?>
<svg width="16px" height="32px" viewBox="0 0 16 32" version="1.1" xmlns="http://www.w3.org/2000/svg" xmlns:xlink="http://www.w3.org/1999/xlink">
    <!-- Generator: Sketch 46.2 (44496) - http://www.bohemiancoding.com/sketch -->
    <title>Artboard 2</title>
    <desc>Created with Sketch.</desc>
    <defs></defs>
    <g id="Symbols" stroke="none" stroke-width="1" fill="none" fill-rule="evenodd">
        <g id="Artboard-2" fill="#626262">
            <g id="Group-19" transform="translate(0.000000, 16.000000)">
                <g id="Group-21" transform="translate(1.000000, 2.000000)">
                    <g id="眼睛-(1)" transform="translate(0.000000, 1.000000)" fill-rule="nonzero">
                        <path d="M6.9997533,0.999686449 C9.63531049,0.999686449 11.9038636,2.63695454 12.9654841,5 L14,5 C12.8787745,2.06927882 10.1693199,0 6.9997533,0 C3.83068012,0 1.12122553,2.06929569 0,5 L1.03453176,5 C2.09613643,2.63695454 4.36468949,0.999686449 6.9997533,0.999686449 Z" id="Shape"></path>
                        <path d="M6.9997533,8.9998955 C4.36468949,8.9998955 2.09613641,7.36279851 1.03453176,5 L0,5 C1.1212096,7.93092056 3.8306642,10 6.9997533,10 C10.1693199,10 12.8787745,7.93092056 14,5 L12.9654841,5 C11.9038636,7.36279851 9.63532642,8.9998955 6.9997533,8.9998955 Z" id="Shape"></path>
                        <path d="M5,5 C5,6.10463403 5.8953688,7 6.99999368,7 C8.10464386,7 9,6.10463403 9,5 C9,3.89535332 8.10464384,3 6.99999368,3 C5.89535616,2.99999999 5,3.89535332 5,5 Z M8,5.00000505 C8,5.55218493 7.5520945,6 6.99983818,6 C6.44758187,6 6,5.55218493 6,5.00000505 C6,4.44782518 6.44758187,4 6.99983818,4 C7.5520945,4 8,4.44782518 8,5.00000505 Z" id="Shape"></path>
                    </g>
                    <rect id="Rectangle-10" transform="translate(7.010408, 6.010408) rotate(45.000000) translate(-7.010408, -6.010408) " x="-0.98959236" y="5.51040764" width="16" height="1"></rect>
                </g>
            </g>
            <g id="Group-19" fill-rule="nonzero">
                <g id="眼睛-(1)" transform="translate(1.000000, 3.000000)">
                    <path d="M6.9997533,0.999686449 C9.63531049,0.999686449 11.9038636,2.63695454 12.9654841,5 L14,5 C12.8787745,2.06927882 10.1693199,0 6.9997533,0 C3.83068012,0 1.12122553,2.06929569 0,5 L1.03453176,5 C2.09613643,2.63695454 4.36468949,0.999686449 6.9997533,0.999686449 Z" id="Shape"></path>
                    <path d="M6.9997533,8.9998955 C4.36468949,8.9998955 2.09613641,7.36279851 1.03453176,5 L0,5 C1.1212096,7.93092056 3.8306642,10 6.9997533,10 C10.1693199,10 12.8787745,7.93092056 14,5 L12.9654841,5 C11.9038636,7.36279851 9.63532642,8.9998955 6.9997533,8.9998955 Z" id="Shape"></path>
                    <path d="M5,5 C5,6.10463403 5.8953688,7 6.99999368,7 C8.10464386,7 9,6.10463403 9,5 C9,3.89535332 8.10464384,3 6.99999368,3 C5.89535616,2.99999999 5,3.89535332 5,5 Z M8,5.00000505 C8,5.55218493 7.5520945,6 6.99983818,6 C6.44758187,6 6,5.55218493 6,5.00000505 C6,4.44782518 6.44758187,4 6.99983818,4 C7.5520945,4 8,4.44782518 8,5.00000505 Z" id="Shape"></path>
                </g>
            </g>
        </g>
    </g>
</svg>