<?xml version="1.0" encoding="UTF-8"?>
<svg width="14px" height="14px" viewBox="0 0 14 14" version="1.1" xmlns="http://www.w3.org/2000/svg" xmlns:xlink="http://www.w3.org/1999/xlink">
    <!-- Generator: Sketch 46.2 (44496) - http://www.bohemiancoding.com/sketch -->
    <title>Artboard 4</title>
    <desc>Created with Sketch.</desc>
    <defs></defs>
    <g id="Symbols" stroke="none" stroke-width="1" fill="none" fill-rule="evenodd">
        <g id="Artboard-4">
            <g id="Group-24">
                <rect id="Rectangle-271-Copy-2" fill="#108EE9" x="0" y="0" width="14" height="14" rx="2"></rect>
                <path d="M5.07776062,4 C5.05899461,4 5.04127116,4.00104256 5.02250516,4.00417022 C4.89322824,4.02189367 4.78063222,4.09800024 4.71599376,4.21059627 L3.0552024,7.11619924 C2.94052126,7.31636995 3.0103725,7.57075356 3.21054321,7.6854347 C3.41071392,7.80011583 3.66509753,7.73026459 3.77977867,7.53009388 L5.16846297,5.0988538 L10.2874119,10.233441 C10.4500506,10.3960797 10.7138172,10.3971223 10.8774984,10.2344836 C11.0401371,10.0718449 11.0411797,9.80807827 10.878541,9.64439701 L5.39261246,4.14178759 L5.3728039,4.12197903 C5.29356966,4.04274479 5.18722897,4 5.07776062,4 L5.07776062,4 Z" id="Shape" stroke="#FFFFFF" fill="#FFFFFF" transform="translate(7.000000, 7.177971) scale(1, -1) translate(-7.000000, -7.177971) "></path>
            </g>
        </g>
    </g>
</svg>