<?xml version="1.0" encoding="UTF-8"?>
<svg width="43px" height="43px" viewBox="0 0 43 43" version="1.1" xmlns="http://www.w3.org/2000/svg" xmlns:xlink="http://www.w3.org/1999/xlink">
    <!-- Generator: Sketch 46.2 (44496) - http://www.bohemiancoding.com/sketch -->
    <title>Group 18</title>
    <desc>Created with Sketch.</desc>
    <defs>
        <linearGradient x1="11.2056306%" y1="22.8019214%" x2="88.7715411%" y2="92.5803899%" id="linearGradient-1">
            <stop stop-color="#5EA2FF" offset="0%"></stop>
            <stop stop-color="#00D5FF" offset="58.88%"></stop>
            <stop stop-color="#00E3FF" offset="100%"></stop>
        </linearGradient>
    </defs>
    <g id="ui--1.8" stroke="none" stroke-width="1" fill="none" fill-rule="evenodd">
        <g id="Group-18" transform="translate(1.000000, 1.000000)">
            <path d="M10.7197206,22.2748799 C9.89388705,24.3025713 9.75668786,26.2353772 10.4228954,26.5941226 C10.8833042,26.8436847 11.5996423,26.2730715 12.2737652,25.2358293 C12.5415675,26.3718565 13.2011789,27.3909014 14.1444233,28.214976 C13.1563253,28.5945182 12.5099061,29.2145239 12.5099061,29.9138175 C12.5099061,31.0680418 14.2578765,32 16.4134867,32 C18.3580213,32 19.9687925,31.2435151 20.2669369,30.2465668 L20.7299841,30.2465668 C21.0334054,31.2435151 22.6402189,32 24.587392,32 C26.7456407,32 28.4909726,31.0680418 28.4909726,29.9138175 C28.4909726,29.2132241 27.8445534,28.5984176 26.8551362,28.214976 C27.7944229,27.3909014 28.4593113,26.3718565 28.7244751,25.2358293 C29.398598,26.2730715 30.1122976,26.8436847 30.5740256,26.5941226 C31.2428716,26.2353772 31.1096301,24.3025713 30.2758812,22.2748799 C29.6241851,20.6878214 28.741625,19.5153998 28.0675021,19.2528398 C28.0767366,19.1566544 28.084652,19.0500706 28.084652,18.9473863 C28.084652,18.3325798 27.9184299,17.7645663 27.6347969,17.3018367 C27.6400738,17.2654422 27.6400738,17.2303476 27.6400738,17.1926533 C27.6400738,16.9092964 27.5754319,16.6454366 27.463298,16.4166714 C27.2931182,12.2846002 24.6995259,9 20.4991201,9 C16.3000336,9 13.7024836,12.2859 13.5323039,16.4166714 C13.4228084,16.6480362 13.355528,16.9131958 13.355528,17.1952529 C13.355528,17.2329472 13.355528,17.266742 13.3594857,17.3044363 C13.0811296,17.7632665 12.9149075,18.33128 12.9149075,18.9486861 C12.9149075,19.0513704 12.9201844,19.1553546 12.9280998,19.2567392 C12.2552961,19.5179994 11.3700975,20.6878214 10.7197206,22.2748799 L10.7197206,22.2748799 Z" id="Shape" fill="url(#linearGradient-1)"></path>
            <circle id="Oval" stroke="#07AEFC" cx="20.5" cy="20.5" r="20.5"></circle>
        </g>
    </g>
</svg>