<?xml version="1.0" encoding="UTF-8"?>
<svg width="22px" height="23px" viewBox="0 0 22 23" version="1.1" xmlns="http://www.w3.org/2000/svg" xmlns:xlink="http://www.w3.org/1999/xlink">
    <!-- Generator: Sketch 46.2 (44496) - http://www.bohemiancoding.com/sketch -->
    <title>分享</title>
    <desc>Created with Sketch.</desc>
    <defs>
        <linearGradient x1="36.9723689%" y1="4.2109933%" x2="59.4141124%" y2="75.8431893%" id="linearGradient-1">
            <stop stop-color="#5EA2FF" offset="0%"></stop>
            <stop stop-color="#00D5FF" offset="62.5956633%"></stop>
            <stop stop-color="#00E3FF" offset="100%"></stop>
        </linearGradient>
    </defs>
    <g id="ui--1.8" stroke="none" stroke-width="1" fill="none" fill-rule="evenodd">
        <g id="分享" fill-rule="nonzero" fill="url(#linearGradient-1)">
            <path d="M10.861746,2.36869649 L2.0358452,2.36869649 C2.0358452,2.36869649 0.0121744246,2.77844712 0.0121744246,4.4893357 L0.0121744246,20.8506064 C0.0121744246,20.8506064 0.264950098,23 2.0358452,23 L18.3387773,23 C18.3387773,23 20.5873818,22.9424912 20.362448,20.8793608 C20.1653563,18.8162304 20.362448,14.4815001 20.362448,14.4815001 L18.3387773,14.4815001 L18.3387773,20.1676887 C18.3876485,20.3617642 18.3463262,20.5671107 18.2259441,20.7284 C18.073224,20.8625968 17.8650706,20.9185128 17.6639761,20.8793608 C17.0734335,20.8218519 11.395872,20.8506064 3.41328947,20.8793608 C3.41328947,20.8793608 2.06441984,21.0806418 2.06441984,19.4632051 C2.06441984,17.8457684 2.0358452,5.90549139 2.0358452,5.90549139 C2.0358452,5.90549139 1.83948614,4.69780532 3.3854475,4.4893357 C4.95925083,4.28086608 10.8588153,4.4893357 10.8588153,4.4893357 L10.8588153,2.36869649 L10.861746,2.36869649 Z M21.992668,6.4086939 C22.0022315,6.22119622 21.9306557,6.03845343 21.7955762,5.90549139 L21.5149586,5.61075847 L21.2336083,5.31602556 L16.427207,0.219302844 C16.309583,0.0803716048 16.1350464,3.84650507e-07 15.950963,3.84650507e-07 C15.7668796,3.84650507e-07 15.5923429,0.0803716048 15.474719,0.219302844 L14.9970096,0.715316756 C14.7177526,0.994841097 14.7177526,1.44219749 14.9970096,1.72172183 L17.835424,4.69780532 C12.0171873,4.13709394 6.45172636,8.05488503 4.87792301,14.2442761 C4.7570384,14.7107541 4.66310536,15.1835591 4.5965727,15.6604317 L6.62024348,16.2211431 C6.67327183,15.7421687 6.76738898,15.2684371 6.90159379,14.8049874 C8.33472198,9.32726855 13.4788901,5.99175466 18.7073169,6.96221668 L15.0526935,10.8009331 C14.7719149,11.077043 14.7719149,11.5240396 15.0526935,11.8001495 L15.5304029,12.303352 C15.6481701,12.4420508 15.822654,12.5222493 16.0066469,12.5222493 C16.1906398,12.5222493 16.3651237,12.4420508 16.4828909,12.303352 L21.2892922,7.1706863 L21.5706425,6.87595339 C21.7595912,6.76985329 21.907653,6.60563673 21.9919353,6.4086939 L21.992668,6.4086939 Z" id="Shape"></path>
        </g>
    </g>
</svg>