<?xml version="1.0" encoding="UTF-8"?>
<svg width="131px" height="88px" viewBox="0 0 131 88" version="1.1" xmlns="http://www.w3.org/2000/svg" xmlns:xlink="http://www.w3.org/1999/xlink">
    <!-- Generator: Sketch 46.2 (44496) - http://www.bohemiancoding.com/sketch -->
    <title>Artboard 8</title>
    <desc>Created with Sketch.</desc>
    <defs>
        <linearGradient x1="11.2056306%" y1="22.8019214%" x2="88.7715411%" y2="92.5803899%" id="linearGradient-1">
            <stop stop-color="#5EA2FF" offset="0%"></stop>
            <stop stop-color="#00D5FF" offset="58.88%"></stop>
            <stop stop-color="#00E3FF" offset="100%"></stop>
        </linearGradient>
        <linearGradient x1="9.5050275%" y1="12.0350658%" x2="86.7196267%" y2="105.108117%" id="linearGradient-2">
            <stop stop-color="#5EA2FF" offset="0%"></stop>
            <stop stop-color="#00D5FF" offset="58.88%"></stop>
            <stop stop-color="#00E3FF" offset="100%"></stop>
        </linearGradient>
        <linearGradient x1="26.3398263%" y1="17.7416686%" x2="78.3309263%" y2="83.6881367%" id="linearGradient-3">
            <stop stop-color="#5EA2FF" offset="0%"></stop>
            <stop stop-color="#00D5FF" offset="58.88%"></stop>
            <stop stop-color="#00E3FF" offset="100%"></stop>
        </linearGradient>
    </defs>
    <g id="Symbols" stroke="none" stroke-width="1" fill="none" fill-rule="evenodd">
        <g id="Artboard-8">
            <g id="Group-18" transform="translate(1.000000, 1.000000)">
                <path d="M10.7197206,22.2748799 C9.89388705,24.3025713 9.75668786,26.2353772 10.4228954,26.5941226 C10.8833042,26.8436847 11.5996423,26.2730715 12.2737652,25.2358293 C12.5415675,26.3718565 13.2011789,27.3909014 14.1444233,28.214976 C13.1563253,28.5945182 12.5099061,29.2145239 12.5099061,29.9138175 C12.5099061,31.0680418 14.2578765,32 16.4134867,32 C18.3580213,32 19.9687925,31.2435151 20.2669369,30.2465668 L20.7299841,30.2465668 C21.0334054,31.2435151 22.6402189,32 24.587392,32 C26.7456407,32 28.4909726,31.0680418 28.4909726,29.9138175 C28.4909726,29.2132241 27.8445534,28.5984176 26.8551362,28.214976 C27.7944229,27.3909014 28.4593113,26.3718565 28.7244751,25.2358293 C29.398598,26.2730715 30.1122976,26.8436847 30.5740256,26.5941226 C31.2428716,26.2353772 31.1096301,24.3025713 30.2758812,22.2748799 C29.6241851,20.6878214 28.741625,19.5153998 28.0675021,19.2528398 C28.0767366,19.1566544 28.084652,19.0500706 28.084652,18.9473863 C28.084652,18.3325798 27.9184299,17.7645663 27.6347969,17.3018367 C27.6400738,17.2654422 27.6400738,17.2303476 27.6400738,17.1926533 C27.6400738,16.9092964 27.5754319,16.6454366 27.463298,16.4166714 C27.2931182,12.2846002 24.6995259,9 20.4991201,9 C16.3000336,9 13.7024836,12.2859 13.5323039,16.4166714 C13.4228084,16.6480362 13.355528,16.9131958 13.355528,17.1952529 C13.355528,17.2329472 13.355528,17.266742 13.3594857,17.3044363 C13.0811296,17.7632665 12.9149075,18.33128 12.9149075,18.9486861 C12.9149075,19.0513704 12.9201844,19.1553546 12.9280998,19.2567392 C12.2552961,19.5179994 11.3700975,20.6878214 10.7197206,22.2748799 L10.7197206,22.2748799 Z" id="Shape" fill="#07AEFC"></path>
                <circle id="Oval" stroke="#07AEFC" cx="20.5" cy="20.5" r="20.5"></circle>
            </g>
            <g id="Group-18-Copy-2" transform="translate(1.000000, 43.000000)">
                <path d="M10.7197206,22.2748799 C9.89388705,24.3025713 9.75668786,26.2353772 10.4228954,26.5941226 C10.8833042,26.8436847 11.5996423,26.2730715 12.2737652,25.2358293 C12.5415675,26.3718565 13.2011789,27.3909014 14.1444233,28.214976 C13.1563253,28.5945182 12.5099061,29.2145239 12.5099061,29.9138175 C12.5099061,31.0680418 14.2578765,32 16.4134867,32 C18.3580213,32 19.9687925,31.2435151 20.2669369,30.2465668 L20.7299841,30.2465668 C21.0334054,31.2435151 22.6402189,32 24.587392,32 C26.7456407,32 28.4909726,31.0680418 28.4909726,29.9138175 C28.4909726,29.2132241 27.8445534,28.5984176 26.8551362,28.214976 C27.7944229,27.3909014 28.4593113,26.3718565 28.7244751,25.2358293 C29.398598,26.2730715 30.1122976,26.8436847 30.5740256,26.5941226 C31.2428716,26.2353772 31.1096301,24.3025713 30.2758812,22.2748799 C29.6241851,20.6878214 28.741625,19.5153998 28.0675021,19.2528398 C28.0767366,19.1566544 28.084652,19.0500706 28.084652,18.9473863 C28.084652,18.3325798 27.9184299,17.7645663 27.6347969,17.3018367 C27.6400738,17.2654422 27.6400738,17.2303476 27.6400738,17.1926533 C27.6400738,16.9092964 27.5754319,16.6454366 27.463298,16.4166714 C27.2931182,12.2846002 24.6995259,9 20.4991201,9 C16.3000336,9 13.7024836,12.2859 13.5323039,16.4166714 C13.4228084,16.6480362 13.355528,16.9131958 13.355528,17.1952529 C13.355528,17.2329472 13.355528,17.266742 13.3594857,17.3044363 C13.0811296,17.7632665 12.9149075,18.33128 12.9149075,18.9486861 C12.9149075,19.0513704 12.9201844,19.1553546 12.9280998,19.2567392 C12.2552961,19.5179994 11.3700975,20.6878214 10.7197206,22.2748799 L10.7197206,22.2748799 Z" id="Shape" fill="url(#linearGradient-1)"></path>
                <circle id="Oval" stroke="#07AEFC" cx="20.5" cy="20.5" r="20.5"></circle>
            </g>
            <g id="Group-17" transform="translate(44.000000, 1.000000)">
                <path d="M25.6371313,17.0962225 C25.9144492,17.0962225 26.1845453,17.1080078 26.4604189,17.1345247 C25.8378979,13.105426 21.9641131,10 17.2742625,10 C12.1525471,10 8,13.7064762 8,18.2762254 C8,20.8321619 9.29992778,23.1170365 11.3379257,24.63734 C11.0779401,25.9661323 10.7544025,27.7147759 10.8006222,27.6558494 C10.871396,27.6293325 12.663852,26.6143237 13.7890117,25.9499275 C14.8650631,26.3373692 16.0393311,26.553924 17.2742625,26.553924 C17.4042553,26.553924 17.5313594,26.5509777 17.6613521,26.5465582 C17.5169157,25.9764444 17.4432532,25.3901259 17.4432532,24.7787636 C17.4418088,20.5375295 21.1104939,17.0962225 25.6371313,17.0962225 L25.6371313,17.0962225 Z M20.9169491,14.394443 C21.5582468,14.394443 22.0767735,14.9233082 22.0767735,15.5744459 C22.0767735,16.2285299 21.5568024,16.7588683 20.9169491,16.7588683 C20.2770957,16.7588683 19.7571246,16.2270568 19.7571246,15.5744459 C19.7571246,14.921835 20.2785401,14.394443 20.9169491,14.394443 L20.9169491,14.394443 Z M13.7976779,16.7588683 C13.1563802,16.7588683 12.6407422,16.2270568 12.6407422,15.5744459 C12.6407422,14.921835 13.1592689,14.394443 13.7976779,14.394443 C14.4375312,14.394443 14.9575024,14.9233082 14.9575024,15.5744459 C14.9575024,16.2285299 14.4375312,16.7588683 13.7976779,16.7588683 L13.7976779,16.7588683 Z M34,24.5253796 C34,20.7010505 30.442531,17.6015171 26.0531082,17.6015171 C21.662241,17.6015171 18.1033276,20.7025236 18.1033276,24.5253796 C18.1033276,28.3497088 21.662241,31.4536616 26.0531082,31.4536616 C27.2475974,31.4536616 28.3785345,31.2223752 29.3968113,30.8098897 C30.4454197,31.3814767 31.5864674,31.9810537 31.644242,31.9987317 C31.6846842,32.0429265 31.4593634,30.9247964 31.2138215,29.794881 C32.9167268,28.5205956 34,26.6364211 34,24.5253796 L34,24.5253796 Z M23.0719404,23.0065494 C22.4306427,23.0065494 21.9106716,22.4776841 21.9106716,21.8265464 C21.9106716,21.1739356 22.4306427,20.642124 23.0719404,20.642124 C23.7117938,20.642124 24.2288762,21.1739356 24.2288762,21.8265464 C24.2288762,22.4776841 23.7103494,23.0065494 23.0719404,23.0065494 L23.0719404,23.0065494 Z M28.8652853,23.0065494 C28.2254319,23.0065494 27.7040164,22.4776841 27.7040164,21.8265464 C27.7040164,21.1739356 28.2254319,20.642124 28.8652853,20.642124 C29.5051386,20.642124 30.0265541,21.1739356 30.0265541,21.8265464 C30.0265541,22.4776841 29.5051386,23.0065494 28.8652853,23.0065494 L28.8652853,23.0065494 Z" id="Shape" fill="#07AEFC"></path>
                <circle id="Oval-Copy" stroke="#07AEFC" cx="20.5" cy="20.5" r="20.5"></circle>
            </g>
            <g id="Group-17-Copy-2" transform="translate(44.000000, 43.000000)">
                <path d="M25.6371313,17.0962225 C25.9144492,17.0962225 26.1845453,17.1080078 26.4604189,17.1345247 C25.8378979,13.105426 21.9641131,10 17.2742625,10 C12.1525471,10 8,13.7064762 8,18.2762254 C8,20.8321619 9.29992778,23.1170365 11.3379257,24.63734 C11.0779401,25.9661323 10.7544025,27.7147759 10.8006222,27.6558494 C10.871396,27.6293325 12.663852,26.6143237 13.7890117,25.9499275 C14.8650631,26.3373692 16.0393311,26.553924 17.2742625,26.553924 C17.4042553,26.553924 17.5313594,26.5509777 17.6613521,26.5465582 C17.5169157,25.9764444 17.4432532,25.3901259 17.4432532,24.7787636 C17.4418088,20.5375295 21.1104939,17.0962225 25.6371313,17.0962225 L25.6371313,17.0962225 Z M20.9169491,14.394443 C21.5582468,14.394443 22.0767735,14.9233082 22.0767735,15.5744459 C22.0767735,16.2285299 21.5568024,16.7588683 20.9169491,16.7588683 C20.2770957,16.7588683 19.7571246,16.2270568 19.7571246,15.5744459 C19.7571246,14.921835 20.2785401,14.394443 20.9169491,14.394443 L20.9169491,14.394443 Z M13.7976779,16.7588683 C13.1563802,16.7588683 12.6407422,16.2270568 12.6407422,15.5744459 C12.6407422,14.921835 13.1592689,14.394443 13.7976779,14.394443 C14.4375312,14.394443 14.9575024,14.9233082 14.9575024,15.5744459 C14.9575024,16.2285299 14.4375312,16.7588683 13.7976779,16.7588683 L13.7976779,16.7588683 Z M34,24.5253796 C34,20.7010505 30.442531,17.6015171 26.0531082,17.6015171 C21.662241,17.6015171 18.1033276,20.7025236 18.1033276,24.5253796 C18.1033276,28.3497088 21.662241,31.4536616 26.0531082,31.4536616 C27.2475974,31.4536616 28.3785345,31.2223752 29.3968113,30.8098897 C30.4454197,31.3814767 31.5864674,31.9810537 31.644242,31.9987317 C31.6846842,32.0429265 31.4593634,30.9247964 31.2138215,29.794881 C32.9167268,28.5205956 34,26.6364211 34,24.5253796 L34,24.5253796 Z M23.0719404,23.0065494 C22.4306427,23.0065494 21.9106716,22.4776841 21.9106716,21.8265464 C21.9106716,21.1739356 22.4306427,20.642124 23.0719404,20.642124 C23.7117938,20.642124 24.2288762,21.1739356 24.2288762,21.8265464 C24.2288762,22.4776841 23.7103494,23.0065494 23.0719404,23.0065494 L23.0719404,23.0065494 Z M28.8652853,23.0065494 C28.2254319,23.0065494 27.7040164,22.4776841 27.7040164,21.8265464 C27.7040164,21.1739356 28.2254319,20.642124 28.8652853,20.642124 C29.5051386,20.642124 30.0265541,21.1739356 30.0265541,21.8265464 C30.0265541,22.4776841 29.5051386,23.0065494 28.8652853,23.0065494 L28.8652853,23.0065494 Z" id="Shape" fill="url(#linearGradient-2)"></path>
                <circle id="Oval-Copy" stroke="#07AEFC" cx="20.5" cy="20.5" r="20.5"></circle>
            </g>
            <g id="Group-11" transform="translate(87.000000, 1.000000)">
                <path d="M27.7380747,20.7098295 C26.649944,20.4996975 27.179265,19.9280795 27.179265,19.9280795 C27.179265,19.9280795 28.2438048,18.2000004 26.9669468,16.942147 C25.3863559,15.3859941 21.5395632,17.1375845 21.5395632,17.1375845 C20.0725035,17.5842988 20.4602791,16.9333302 20.668174,15.8238917 C20.668174,14.5146073 20.2140489,12.3030776 16.3009068,13.6064841 C12.392188,14.9245853 9.03785551,19.5313266 9.03785551,19.5313266 C6.70530432,22.5907319 7.01346057,24.9580239 7.01346057,24.9580239 C7.59586115,30.1834058 13.2399863,31.6190634 17.6308443,31.9585075 C22.2487649,32.3126461 28.4856116,30.3935379 30.3728844,26.4436429 C32.2675293,22.4878701 28.8321031,20.9229005 27.7380747,20.7098295 L27.7380747,20.7098295 L27.7380747,20.7098295 M17.9729125,30.4861136 C13.3874295,30.6962456 9.67775893,28.4362239 9.67775893,25.4282495 C9.67775893,22.4143973 13.3874295,20.0015522 17.9729125,19.7928896 C22.5628189,19.5827576 26.2769127,21.4460265 26.2769127,24.4510619 C26.2769127,27.4531585 22.5628189,30.2803899 17.9729125,30.4861136 L17.9729125,30.4861136 L17.9729125,30.4861136 M17.0587648,21.770776 C12.4452675,22.3012493 12.9804863,26.5494437 12.9804863,26.5494437 C12.9804863,26.5494437 12.9333045,27.8954644 14.2160602,28.5802305 C16.912796,30.0188269 19.6950489,29.1489095 21.0957592,27.3649912 C22.5008927,25.5854812 21.6766853,21.2447112 17.0587648,21.770776 L17.0587648,21.770776 L17.0587648,21.770776 M15.895438,27.7382328 C15.0343698,27.8352168 14.338438,27.3473577 14.338438,26.6390804 C14.338438,25.9352115 14.9532761,25.1946062 15.8143443,25.1064389 C16.8036881,25.0138632 17.4465404,25.5722561 17.4465404,26.2849418 C17.4524381,26.9873413 16.752083,27.6397793 15.895438,27.7382328 L15.895438,27.7382328 L15.895438,27.7382328 M18.6157648,25.4605775 C18.3223529,25.6751179 17.9625915,25.6471983 17.810725,25.3856353 C17.650012,25.1343585 17.7119381,24.7331973 18.00535,24.5245347 C18.3459438,24.2732579 18.7012819,24.3482001 18.8575716,24.5994769 C19.0079637,24.8492842 18.9003302,25.2372204 18.6157648,25.4605775 L18.6157648,25.4605775 L18.6157648,25.4605775 M29.9865833,18.8700719 C30.3596145,18.8700719 30.6721941,18.5996922 30.7296969,18.2455535 C30.7341202,18.2176339 30.7385435,18.1941226 30.7385435,18.166203 C31.3017765,13.1876895 26.5894923,14.0443817 26.5894923,14.0443817 C26.1737025,14.0443817 25.837532,14.3750091 25.837532,14.7938038 C25.837532,15.2037817 26.1737025,15.5344091 26.5894923,15.5344091 C29.9733134,14.7982121 29.2301997,18.1279971 29.2301997,18.1279971 C29.224302,18.5394445 29.5648957,18.8700719 29.9865833,18.8700719 L29.9865833,18.8700719 L29.9865833,18.8700719 M29.4366202,10.1782457 C27.8088474,9.80059572 26.1294695,10.1268147 25.6606002,10.214982 C25.622265,10.2193904 25.5898275,10.2531879 25.5559155,10.2575962 C25.5411712,10.2620046 25.5279013,10.2766991 25.5279013,10.2766991 C25.0649297,10.4074806 24.7287593,10.8262753 24.7287593,11.3244205 C24.7287593,11.9151414 25.2167962,12.40447 25.827211,12.40447 C25.827211,12.40447 26.4184582,12.3251194 26.8209781,12.1722961 C27.2176002,12.0135949 30.596998,12.0562091 32.2719526,14.8231929 C33.1861004,16.8451629 32.6744725,18.1955921 32.6081231,18.4145409 C32.6081231,18.4145409 32.3899072,18.9406057 32.3899072,19.4578539 C32.3899072,20.0544526 32.8779441,20.4321026 33.4883589,20.4321026 C33.994089,20.4321026 34.4201998,20.3615687 34.5440521,19.519571 L34.5484754,19.519571 C36.3546544,13.6153009 32.3515719,10.8439088 29.4366202,10.1782457 L29.4366202,10.1782457 L29.4366202,10.1782457" id="Shape" fill="#07AEFC"></path>
                <circle id="Oval-Copy-2" stroke="#07AEFC" cx="20.5" cy="20.5" r="20.5"></circle>
            </g>
            <g id="Group-11-Copy-5" transform="translate(87.000000, 43.000000)">
                <path d="M27.7380747,20.7098295 C26.649944,20.4996975 27.179265,19.9280795 27.179265,19.9280795 C27.179265,19.9280795 28.2438048,18.2000004 26.9669468,16.942147 C25.3863559,15.3859941 21.5395632,17.1375845 21.5395632,17.1375845 C20.0725035,17.5842988 20.4602791,16.9333302 20.668174,15.8238917 C20.668174,14.5146073 20.2140489,12.3030776 16.3009068,13.6064841 C12.392188,14.9245853 9.03785551,19.5313266 9.03785551,19.5313266 C6.70530432,22.5907319 7.01346057,24.9580239 7.01346057,24.9580239 C7.59586115,30.1834058 13.2399863,31.6190634 17.6308443,31.9585075 C22.2487649,32.3126461 28.4856116,30.3935379 30.3728844,26.4436429 C32.2675293,22.4878701 28.8321031,20.9229005 27.7380747,20.7098295 L27.7380747,20.7098295 L27.7380747,20.7098295 M17.9729125,30.4861136 C13.3874295,30.6962456 9.67775893,28.4362239 9.67775893,25.4282495 C9.67775893,22.4143973 13.3874295,20.0015522 17.9729125,19.7928896 C22.5628189,19.5827576 26.2769127,21.4460265 26.2769127,24.4510619 C26.2769127,27.4531585 22.5628189,30.2803899 17.9729125,30.4861136 L17.9729125,30.4861136 L17.9729125,30.4861136 M17.0587648,21.770776 C12.4452675,22.3012493 12.9804863,26.5494437 12.9804863,26.5494437 C12.9804863,26.5494437 12.9333045,27.8954644 14.2160602,28.5802305 C16.912796,30.0188269 19.6950489,29.1489095 21.0957592,27.3649912 C22.5008927,25.5854812 21.6766853,21.2447112 17.0587648,21.770776 L17.0587648,21.770776 L17.0587648,21.770776 M15.895438,27.7382328 C15.0343698,27.8352168 14.338438,27.3473577 14.338438,26.6390804 C14.338438,25.9352115 14.9532761,25.1946062 15.8143443,25.1064389 C16.8036881,25.0138632 17.4465404,25.5722561 17.4465404,26.2849418 C17.4524381,26.9873413 16.752083,27.6397793 15.895438,27.7382328 L15.895438,27.7382328 L15.895438,27.7382328 M18.6157648,25.4605775 C18.3223529,25.6751179 17.9625915,25.6471983 17.810725,25.3856353 C17.650012,25.1343585 17.7119381,24.7331973 18.00535,24.5245347 C18.3459438,24.2732579 18.7012819,24.3482001 18.8575716,24.5994769 C19.0079637,24.8492842 18.9003302,25.2372204 18.6157648,25.4605775 L18.6157648,25.4605775 L18.6157648,25.4605775 M29.9865833,18.8700719 C30.3596145,18.8700719 30.6721941,18.5996922 30.7296969,18.2455535 C30.7341202,18.2176339 30.7385435,18.1941226 30.7385435,18.166203 C31.3017765,13.1876895 26.5894923,14.0443817 26.5894923,14.0443817 C26.1737025,14.0443817 25.837532,14.3750091 25.837532,14.7938038 C25.837532,15.2037817 26.1737025,15.5344091 26.5894923,15.5344091 C29.9733134,14.7982121 29.2301997,18.1279971 29.2301997,18.1279971 C29.224302,18.5394445 29.5648957,18.8700719 29.9865833,18.8700719 L29.9865833,18.8700719 L29.9865833,18.8700719 M29.4366202,10.1782457 C27.8088474,9.80059572 26.1294695,10.1268147 25.6606002,10.214982 C25.622265,10.2193904 25.5898275,10.2531879 25.5559155,10.2575962 C25.5411712,10.2620046 25.5279013,10.2766991 25.5279013,10.2766991 C25.0649297,10.4074806 24.7287593,10.8262753 24.7287593,11.3244205 C24.7287593,11.9151414 25.2167962,12.40447 25.827211,12.40447 C25.827211,12.40447 26.4184582,12.3251194 26.8209781,12.1722961 C27.2176002,12.0135949 30.596998,12.0562091 32.2719526,14.8231929 C33.1861004,16.8451629 32.6744725,18.1955921 32.6081231,18.4145409 C32.6081231,18.4145409 32.3899072,18.9406057 32.3899072,19.4578539 C32.3899072,20.0544526 32.8779441,20.4321026 33.4883589,20.4321026 C33.994089,20.4321026 34.4201998,20.3615687 34.5440521,19.519571 L34.5484754,19.519571 C36.3546544,13.6153009 32.3515719,10.8439088 29.4366202,10.1782457 L29.4366202,10.1782457 L29.4366202,10.1782457" id="Shape" fill="url(#linearGradient-3)"></path>
                <circle id="Oval-Copy-2" stroke="#07AEFC" cx="20.5" cy="20.5" r="20.5"></circle>
            </g>
        </g>
    </g>
</svg>