<?xml version="1.0" encoding="UTF-8"?>
<svg width="43px" height="43px" viewBox="0 0 43 43" version="1.1" xmlns="http://www.w3.org/2000/svg" xmlns:xlink="http://www.w3.org/1999/xlink">
    <!-- Generator: Sketch 46.2 (44496) - http://www.bohemiancoding.com/sketch -->
    <title>Group 17</title>
    <desc>Created with Sketch.</desc>
    <defs>
        <linearGradient x1="9.5050275%" y1="12.0350658%" x2="86.7196267%" y2="105.108117%" id="linearGradient-1">
            <stop stop-color="#5EA2FF" offset="0%"></stop>
            <stop stop-color="#00D5FF" offset="58.88%"></stop>
            <stop stop-color="#00E3FF" offset="100%"></stop>
        </linearGradient>
    </defs>
    <g id="ui--1.8" stroke="none" stroke-width="1" fill="none" fill-rule="evenodd">
        <g id="Group-17" transform="translate(1.000000, 1.000000)">
            <path d="M25.6371313,17.0962225 C25.9144492,17.0962225 26.1845453,17.1080078 26.4604189,17.1345247 C25.8378979,13.105426 21.9641131,10 17.2742625,10 C12.1525471,10 8,13.7064762 8,18.2762254 C8,20.8321619 9.29992778,23.1170365 11.3379257,24.63734 C11.0779401,25.9661323 10.7544025,27.7147759 10.8006222,27.6558494 C10.871396,27.6293325 12.663852,26.6143237 13.7890117,25.9499275 C14.8650631,26.3373692 16.0393311,26.553924 17.2742625,26.553924 C17.4042553,26.553924 17.5313594,26.5509777 17.6613521,26.5465582 C17.5169157,25.9764444 17.4432532,25.3901259 17.4432532,24.7787636 C17.4418088,20.5375295 21.1104939,17.0962225 25.6371313,17.0962225 L25.6371313,17.0962225 Z M20.9169491,14.394443 C21.5582468,14.394443 22.0767735,14.9233082 22.0767735,15.5744459 C22.0767735,16.2285299 21.5568024,16.7588683 20.9169491,16.7588683 C20.2770957,16.7588683 19.7571246,16.2270568 19.7571246,15.5744459 C19.7571246,14.921835 20.2785401,14.394443 20.9169491,14.394443 L20.9169491,14.394443 Z M13.7976779,16.7588683 C13.1563802,16.7588683 12.6407422,16.2270568 12.6407422,15.5744459 C12.6407422,14.921835 13.1592689,14.394443 13.7976779,14.394443 C14.4375312,14.394443 14.9575024,14.9233082 14.9575024,15.5744459 C14.9575024,16.2285299 14.4375312,16.7588683 13.7976779,16.7588683 L13.7976779,16.7588683 Z M34,24.5253796 C34,20.7010505 30.442531,17.6015171 26.0531082,17.6015171 C21.662241,17.6015171 18.1033276,20.7025236 18.1033276,24.5253796 C18.1033276,28.3497088 21.662241,31.4536616 26.0531082,31.4536616 C27.2475974,31.4536616 28.3785345,31.2223752 29.3968113,30.8098897 C30.4454197,31.3814767 31.5864674,31.9810537 31.644242,31.9987317 C31.6846842,32.0429265 31.4593634,30.9247964 31.2138215,29.794881 C32.9167268,28.5205956 34,26.6364211 34,24.5253796 L34,24.5253796 Z M23.0719404,23.0065494 C22.4306427,23.0065494 21.9106716,22.4776841 21.9106716,21.8265464 C21.9106716,21.1739356 22.4306427,20.642124 23.0719404,20.642124 C23.7117938,20.642124 24.2288762,21.1739356 24.2288762,21.8265464 C24.2288762,22.4776841 23.7103494,23.0065494 23.0719404,23.0065494 L23.0719404,23.0065494 Z M28.8652853,23.0065494 C28.2254319,23.0065494 27.7040164,22.4776841 27.7040164,21.8265464 C27.7040164,21.1739356 28.2254319,20.642124 28.8652853,20.642124 C29.5051386,20.642124 30.0265541,21.1739356 30.0265541,21.8265464 C30.0265541,22.4776841 29.5051386,23.0065494 28.8652853,23.0065494 L28.8652853,23.0065494 Z" id="Shape" fill="url(#linearGradient-1)"></path>
            <circle id="Oval-Copy" stroke="#07AEFC" cx="20.5" cy="20.5" r="20.5"></circle>
        </g>
    </g>
</svg>