<?xml version="1.0" encoding="UTF-8"?>
<svg width="64px" height="64px" viewBox="0 0 64 64" version="1.1" xmlns="http://www.w3.org/2000/svg" xmlns:xlink="http://www.w3.org/1999/xlink">
    <!-- Generator: Sketch 45.2 (43514) - http://www.bohemiancoding.com/sketch -->
    <title>Group 38</title>
    <desc>Created with Sketch.</desc>
    <defs>
        <linearGradient x1="59.5483476%" y1="14.0317435%" x2="50%" y2="100%" id="linearGradient-1">
            <stop stop-color="#03A3D9" offset="0%"></stop>
            <stop stop-color="#03A2D9" offset="100%"></stop>
        </linearGradient>
        <linearGradient x1="50%" y1="0%" x2="50%" y2="100%" id="linearGradient-2">
            <stop stop-color="#FDFFFF" offset="0%"></stop>
            <stop stop-color="#50DFFF" offset="100%"></stop>
        </linearGradient>
        <linearGradient x1="-38.4528466%" y1="-57.6457282%" x2="70.8422322%" y2="82.2633138%" id="linearGradient-3">
            <stop stop-color="#FDFFFF" offset="0%"></stop>
            <stop stop-color="#50DFFF" offset="100%"></stop>
        </linearGradient>
        <linearGradient x1="1.67249029%" y1="2.84167221%" x2="97.5509586%" y2="95.1496598%" id="linearGradient-4">
            <stop stop-color="#8EE8FD" offset="0%"></stop>
            <stop stop-color="#00BBE6" offset="100%"></stop>
        </linearGradient>
    </defs>
    <g id="z" stroke="none" stroke-width="1" fill="none" fill-rule="evenodd">
        <g id="设计中心-图案-copy" transform="translate(-276.000000, -78.000000)">
            <g id="Group-38" transform="translate(276.000000, 78.000000)">
                <rect id="Rectangle-57-Copy-3" fill="#24C8CB" x="0" y="0" width="64" height="64"></rect>
                <g id="Group-31-Copy-3" transform="translate(12.000000, 10.000000)">
                    <g id="Group-7-Copy">
                        <path d="M29.3697643,44.5165805 L3.08876429,38.6417913 C1.3657881,38.2567525 0.279288095,36.5397936 0.662930952,34.8061365 L7.6993119,2.93434961 C8.08197857,1.20069256 9.78835952,0.10745727 11.5113357,0.492496115 L37.7923357,6.36728524 C39.5153119,6.75232408 40.6018119,8.47026526 40.2191452,10.2039223 L33.1827643,42.074727 C32.8000976,43.808384 31.0927405,44.9016193 29.3697643,44.5165805" id="Fill-1" fill="#FEFEFE"></path>
                        <path d="M29.3697643,44.5165805 L3.08876429,38.6417913 C1.3657881,38.2567525 0.279288095,36.5397936 0.662930952,34.8061365 L7.6993119,2.93434961 C8.08197857,1.20069256 9.78835952,0.10745727 11.5113357,0.492496115 L37.7923357,6.36728524 C39.5153119,6.75232408 40.6018119,8.47026526 40.2191452,10.2039223 L33.1827643,42.074727 C32.8000976,43.808384 31.0927405,44.9016193 29.3697643,44.5165805 Z" id="Stroke-3" fill="url(#linearGradient-1)"></path>
                        <path d="M27.2511381,34.6989739 L9.22870952,30.6707997 C7.50573333,30.2857608 6.41923333,28.5678196 6.8019,26.8341626 L10.815019,8.65875749 C11.1976857,6.92510044 12.9050429,5.83186515 14.628019,6.21788624 L32.6494714,10.2460605 C34.3724476,10.6310993 35.4589476,12.3490405 35.076281,14.0826976 L31.0641381,32.2571204 C30.6814714,33.9907775 28.9741143,35.0840128 27.2511381,34.6989739" id="Fill-5" fill="#F4EB37"></path>
                    </g>
                    <g id="Group-28-Copy" transform="translate(10.982143, 11.803279)">
                        <path d="M17.6071081,10.6830974 C16.5712754,15.3945933 11.9509932,18.3657624 7.2887706,17.3182159 C2.62557261,16.2716548 -0.31513894,11.6045048 0.720693786,6.89300897 C1.75652651,2.18151315 6.37680864,-0.789656047 11.0400066,0.257890504 C15.7022293,1.30445159 18.6429408,5.97160161 17.6071081,10.6830974" id="Fill-8" fill="#FEFEFE"></path>
                        <path d="M17.6071081,10.6830974 C16.5712754,15.3945933 11.9509932,18.3657624 7.2887706,17.3182159 C2.62557261,16.2716548 -0.31513894,11.6045048 0.720693786,6.89300897 C1.75652651,2.18151315 6.37680864,-0.789656047 11.0400066,0.257890504 C15.7022293,1.30445159 18.6429408,5.97160161 17.6071081,10.6830974 Z" id="Stroke-10" stroke="#231F20" stroke-width="1.44"></path>
                        <g id="Group-15" transform="translate(6.827523, 9.954841)">
                            <path d="M0.754051112,0.434293288 C0.610673135,1.08864033 1.01837378,1.73707461 1.66601307,1.88193758 C2.31365236,2.02778602 2.95543949,1.61487727 3.09881747,0.96053022" id="Fill-12" fill="#FEFEFE"></path>
                            <path d="M0.754051112,0.434293288 C0.610673135,1.08864033 1.01837378,1.73707461 1.66601307,1.88193758 C2.31365236,2.02778602 2.95543949,1.61487727 3.09881747,0.96053022" id="Stroke-14" stroke="#231F20" stroke-width="1.2" stroke-linecap="round"></path>
                        </g>
                        <path d="M12.1449924,7.70985877 C12.1040273,7.89709663 11.9196842,8.01535212 11.7343657,7.9739627 C11.5490472,7.93257328 11.432004,7.74632088 11.4729691,7.55908302 C11.5149096,7.37184516 11.6982774,7.25358967 11.8835958,7.29497909 C12.0689143,7.33636851 12.1859575,7.52262091 12.1449924,7.70985877" id="Fill-16" fill="#FEFEFE"></path>
                        <path d="M12.1449924,7.70985877 C12.1040273,7.89709663 11.9196842,8.01535212 11.7343657,7.9739627 C11.5490472,7.93257328 11.432004,7.74632088 11.4729691,7.55908302 C11.5149096,7.37184516 11.6982774,7.25358967 11.8835958,7.29497909 C12.0689143,7.33636851 12.1859575,7.52262091 12.1449924,7.70985877 Z" id="Stroke-18" stroke="#231F20" stroke-width="1.2" stroke-linecap="round"></path>
                        <path d="M7.58693827,6.68685023 C7.54597313,6.87408809 7.36163002,6.99234358 7.17631155,6.95095416 C6.99099308,6.90956474 6.87394983,6.72331234 6.91491497,6.53607448 C6.95685546,6.34883662 7.14022321,6.23058113 7.32554169,6.27197055 C7.51086016,6.31335998 7.62790341,6.49961237 7.58693827,6.68685023" id="Fill-20" fill="#FEFEFE"></path>
                        <path d="M7.58693827,6.68685023 C7.54597313,6.87408809 7.36163002,6.99234358 7.17631155,6.95095416 C6.99099308,6.90956474 6.87394983,6.72331234 6.91491497,6.53607448 C6.95685546,6.34883662 7.14022321,6.23058113 7.32554169,6.27197055 C7.51086016,6.31335998 7.62790341,6.49961237 7.58693827,6.68685023 Z" id="Stroke-22" stroke="#231F20" stroke-width="1.2" stroke-linecap="round"></path>
                        <path d="M12.7444489,10.5793282 C12.7034838,10.7665661 12.5191407,10.8848216 12.3338222,10.8434322 C12.1485037,10.8020427 12.0314605,10.6157903 12.0724256,10.4285525 C12.1143661,10.2413146 12.2977338,10.1230591 12.4830523,10.1644486 C12.6683708,10.205838 12.785414,10.3920904 12.7444489,10.5793282 Z" id="Stroke-24" stroke="#F4EB37" stroke-width="1.2"></path>
                        <path d="M5.82651032,9.02663365 C5.78554518,9.21387151 5.60120207,9.332127 5.41588359,9.29073758 C5.23056512,9.24934816 5.11352188,9.06309576 5.15448701,8.8758579 C5.19642751,8.68862004 5.37979526,8.57036455 5.56511373,8.61175397 C5.75043221,8.6531434 5.86747545,8.83939579 5.82651032,9.02663365 Z" id="Stroke-26" stroke="#F4EB37" stroke-width="1.2"></path>
                    </g>
                    <g id="Group-37-Copy" transform="translate(3.660714, 2.950820)">
                        <path d="M23.7641564,31.8563538 L5.61299622,27.8149724 C3.87771306,27.4286711 2.78345235,25.7050974 3.16885235,23.9657562 L7.21063653,5.7307596 C7.59603653,3.99141843 9.31558908,2.89459876 11.0508722,3.28188549 L29.2010493,7.32326687 C30.9363324,7.70956814 32.0305932,9.43314191 31.6451932,11.1724831 L27.6043921,29.4064942 C27.2189921,31.1458354 25.4994396,32.2426551 23.7641564,31.8563538 Z" id="Stroke-29" stroke="#231F20" stroke-width="1.44" stroke-linecap="round" stroke-linejoin="round"></path>
                        <path d="M30.4618579,39.2258388 L3.34818133,39.2258388 C1.57062214,39.2258388 0.129304796,37.7811509 0.129304796,35.9994349 L0.129304796,3.24463501 C0.129304796,1.46291896 1.57062214,0.0182310547 3.34818133,0.0182310547 L30.4618579,0.0182310547 C32.239417,0.0182310547 33.6807344,1.46291896 33.6807344,3.24463501 L33.6807344,35.9994349 C33.6807344,37.7811509 32.239417,39.2258388 30.4618579,39.2258388" id="Fill-31" fill="#FEFEFE"></path>
                        <path d="M30.4618579,39.2258388 L3.34818133,39.2258388 C1.57062214,39.2258388 0.129304796,37.7811509 0.129304796,35.9994349 L0.129304796,3.24463501 C0.129304796,1.46291896 1.57062214,0.0182310547 3.34818133,0.0182310547 L30.4618579,0.0182310547 C32.239417,0.0182310547 33.6807344,1.46291896 33.6807344,3.24463501 L33.6807344,35.9994349 C33.6807344,37.7811509 32.239417,39.2258388 30.4618579,39.2258388 Z" id="Stroke-33" fill="url(#linearGradient-3)"></path>
                        <path d="M7.65433811,30.0742436 C5.87677893,30.0742436 4.43546158,28.6295556 4.43546158,26.8478396 L4.43546158,8.16938491 C4.43546158,6.38766885 5.87677893,4.94298095 7.65433811,4.94298095 L26.2479218,4.94298095 C28.025481,4.94298095 29.4667983,6.38766885 29.4667983,8.16938491 L29.4667983,26.8478396 C29.4667983,28.6295556 28.025481,30.0742436 26.2479218,30.0742436 L7.65433811,30.0742436 Z" id="Fill-35" fill="url(#linearGradient-4)"></path>
                    </g>
                    <g id="二维码-copy" transform="translate(10.250000, 10.327869)" fill-rule="nonzero" fill="#FFFFFF">
                        <path d="M1.4911509,18.6010486 L7.45091308,18.6010486 L1.4911509,18.6010486 Z M2.97746039,13.9507865 L5.95492078,13.9507865 L5.95492078,17.0492818 L2.97746039,17.0492818 L2.97746039,13.9507865 Z M10.4283735,10.8522911 L11.9195244,10.8522911 L11.9195244,17.05432 L10.4283735,17.05432 L10.4283735,10.8522911 Z" id="Shape"></path>
                        <path d="M0,20.1528154 L8.93722257,20.1528154 L8.93722257,10.8522911 L0,10.8522911 L0,20.1528154 Z M1.4911509,18.6010486 L1.4911509,12.4040579 L7.45091308,12.4040579 L7.45091308,18.6060868 L1.4911509,18.6060868 L1.4911509,18.6010486 L1.4911509,18.6010486 Z M10.4283735,18.6010486 L13.4058339,18.6010486 L13.4058339,20.1528154 L10.4283735,20.1528154 L10.4283735,18.6010486 Z M17.8744451,13.9507865 L19.365596,13.9507865 L19.365596,15.5025532 L17.8744451,15.5025532 L17.8744451,13.9507865 Z M14.8969848,10.8522911 L19.365596,10.8522911 L19.365596,12.4040579 L14.8969848,12.4040579 L14.8969848,10.8522911 Z M13.4058339,3.09849537 L16.3832943,3.09849537 L16.3832943,6.19699073 L13.4058339,6.19699073 L13.4058339,3.09849537 Z" id="Shape"></path>
                        <path d="M19.365596,0 L10.4283735,0 L10.4283735,9.30052431 L19.365596,9.30052431 L19.365596,0 Z M17.8744451,7.74875752 L11.9195244,7.74875752 L11.9195244,1.55176679 L17.8792865,1.55176679 L17.8792865,7.74875752 L17.8744451,7.74875752 Z M0,9.30052431 L8.93722257,9.30052431 L8.93722257,0 L0,0 L0,9.30052431 Z M1.4911509,1.55176679 L7.45091308,1.55176679 L7.45091308,7.75379572 L1.4911509,7.75379572 L1.4911509,1.55176679 Z M17.8744451,18.6010486 L14.8969848,18.6010486 L14.8969848,20.1528154 L19.365596,20.1528154 L19.365596,17.05432 L17.8744451,17.05432 L17.8744451,18.6010486 L17.8744451,18.6010486 Z M13.4058339,13.9507865 L13.4058339,17.0492818 L16.3832943,17.0492818 L16.3832943,15.497515 L14.8921434,15.497515 L14.8921434,13.9457483 L13.4058339,13.9457483 L13.4058339,13.9507865 Z" id="Shape"></path>
                        <polygon id="Shape" points="2.97746039 3.09849537 5.95492078 3.09849537 5.95492078 6.19699073 2.97746039 6.19699073"></polygon>
                    </g>
                </g>
            </g>
        </g>
    </g>
</svg>