<?xml version="1.0" encoding="UTF-8"?>
<svg width="64px" height="64px" viewBox="0 0 64 64" version="1.1" xmlns="http://www.w3.org/2000/svg" xmlns:xlink="http://www.w3.org/1999/xlink">
    <!-- Generator: Sketch 45.2 (43514) - http://www.bohemiancoding.com/sketch -->
    <title>Group 42</title>
    <desc>Created with Sketch.</desc>
    <defs>
        <linearGradient x1="20.7480987%" y1="9.27614849%" x2="77.8292277%" y2="100%" id="linearGradient-1">
            <stop stop-color="#E5F0FF" offset="0%"></stop>
            <stop stop-color="#D3F1FF" offset="76.4708227%"></stop>
            <stop stop-color="#80E0FF" offset="100%"></stop>
        </linearGradient>
    </defs>
    <g id="z" stroke="none" stroke-width="1" fill="none" fill-rule="evenodd">
        <g id="设计中心-图案-copy" transform="translate(-84.000000, -78.000000)">
            <g id="Group-42" transform="translate(84.000000, 78.000000)">
                <rect id="Rectangle-25-Copy-2" fill="#49A5D8" x="0" y="0" width="64" height="64"></rect>
                <g id="静态表格-copy" transform="translate(13.000000, 15.000000)">
                    <path d="M37.148442,0 L1.83240887,0 C0.818924479,0.0189944134 0.0003409303,0.816759777 0.0003409303,1.82346369 L0.0003409303,32.1765363 C-0.0191491542,33.1642458 0.799434394,33.9810056 1.83240887,34 L37.1679321,34 C38.1814165,33.9810056 39,33.1832402 39,32.1765363 L39,1.82346369 C39,0.83575419 38.1814165,0.0189944134 37.148442,0 Z M37.148442,7.29385475 L37.148442,14.3977654 L26.5848162,14.3977654 L26.5848162,7.29385475 L37.148442,7.29385475 Z M14.2086125,23.3061453 L14.2086125,16.2212291 L24.7722383,16.2212291 L24.7722383,23.3061453 L14.2086125,23.3061453 L14.2086125,23.3061453 Z M24.7722383,25.1296089 L24.7722383,32.1765363 L14.2086125,32.1765363 L14.2086125,25.1296089 L24.7722383,25.1296089 Z M12.3765446,23.3061453 L1.83240887,23.3061453 L1.83240887,16.2212291 L12.3960347,16.2212291 L12.3765446,23.3061453 L12.3765446,23.3061453 Z M24.7722383,7.29385475 L24.7722383,14.3977654 L14.2086125,14.3977654 L14.2086125,7.29385475 L24.7722383,7.29385475 L24.7722383,7.29385475 Z M26.6043063,16.2212291 L37.1679321,16.2212291 L37.1679321,23.3061453 L26.6043063,23.3061453 L26.6043063,16.2212291 L26.6043063,16.2212291 Z M3.9596816,2.08196491 C4.99265608,2.0629705 5.8502198,2.86073586 5.86970988,3.86743977 C5.88919996,4.87414368 5.07061642,5.70989787 4.03764194,5.72889229 C3.00466746,5.7478867 2.14710374,4.95012134 2.12761366,3.94341743 L2.12761366,3.9054286 C2.10812357,2.9177191 2.92670712,2.10095933 3.9596816,2.08196491 C3.94019152,2.08196491 3.9596816,2.08196491 3.9596816,2.08196491 Z M8.92331796,2.08196491 C9.95629244,2.0629705 10.8138562,2.86073586 10.8333462,3.86743977 C10.8528363,4.87414368 10.0342528,5.70989787 9.0012783,5.72889229 C7.96830382,5.7478867 7.11074011,4.95012134 7.09125002,3.94341743 L7.09125002,3.9054286 C7.07175994,2.9177191 7.89034349,2.10095933 8.92331796,2.08196491 C8.90382788,2.08196491 8.92331796,2.08196491 8.92331796,2.08196491 Z M13.8869543,1.99458906 C14.9199288,1.97559464 15.7774925,2.77336001 15.7969826,3.78006392 C15.8164727,4.78676783 14.9978891,5.62252202 13.9649147,5.64151643 C12.9319402,5.66051085 12.0743765,4.86274548 12.0548864,3.85604157 L12.0548864,3.81805274 C12.0353963,2.83034325 12.8539798,2.01358347 13.8869543,1.99458906 C13.8674642,1.99458906 13.8869543,1.99458906 13.8869543,1.99458906 Z M3.66447681,7.29385475 L12.3960347,7.29385475 L12.3960347,14.3977654 L1.83240887,14.3977654 L1.83240887,7.29385475 L3.66447681,7.29385475 Z M1.83240887,25.1296089 L12.3960347,25.1296089 L12.3960347,32.1765363 L1.83240887,32.1765363 L1.83240887,25.1296089 Z M26.6043063,32.1765363 L26.6043063,25.1296089 L37.1679321,25.1296089 L37.1679321,32.1765363 L26.6043063,32.1765363 Z" id="Shape" fill="url(#linearGradient-1)" fill-rule="nonzero"></path>
                    <ellipse id="Oval-9" fill="#FF6159" cx="3.90049733" cy="3.81805274" rx="1.0641337" ry="1.04254254"></ellipse>
                    <ellipse id="Oval-9-Copy" fill="#FFBF2F" cx="8.8641337" cy="3.81805274" rx="1.0641337" ry="1.04254254"></ellipse>
                    <ellipse id="Oval-9-Copy-2" fill="#28CA42" cx="13.8277701" cy="3.73067689" rx="1.0641337" ry="1.04254254"></ellipse>
                </g>
            </g>
        </g>
    </g>
</svg>