<?xml version="1.0" encoding="UTF-8"?>
<svg width="20px" height="40px" viewBox="0 0 20 40" version="1.1" xmlns="http://www.w3.org/2000/svg" xmlns:xlink="http://www.w3.org/1999/xlink">
    <!-- Generator: Sketch 46.2 (44496) - http://www.bohemiancoding.com/sketch -->
    <title>Artboard 3</title>
    <desc>Created with Sketch.</desc>
    <defs>
        <linearGradient x1="0%" y1="0%" x2="101.999998%" y2="100.999999%" id="linearGradient-1">
            <stop stop-color="#5EA2FF" offset="0%"></stop>
            <stop stop-color="#00D5FF" offset="62.5956633%"></stop>
            <stop stop-color="#00E3FF" offset="100%"></stop>
        </linearGradient>
    </defs>
    <g id="Symbols" stroke="none" stroke-width="1" fill="none" fill-rule="evenodd">
        <g id="关闭" fill="#9B9B9B">
            <g transform="translate(2.000000, 2.000000)" id="Fill-1">
                <polygon points="15.5931445 1.29073828 14.7092578 0.406851562 8 7.11610937 1.29332031 0.409429687 0.409433594 1.29331641 7.11611328 7.99999609 0.406855469 14.7092539 1.29074219 15.5931406 8 8.88388281 14.7066797 15.5905625 15.5905664 14.7066758 8.88388672 7.99999609"></polygon>
            </g>
        </g>
        <g id="关闭-copy-3" transform="translate(0.000000, 20.000000)" fill="url(#linearGradient-1)">
            <g id="关闭" transform="translate(2.000000, 2.000000)">
                <polygon id="Fill-1" points="15.5931445 1.29073828 14.7092578 0.406851562 8 7.11610937 1.29332031 0.409429687 0.409433594 1.29331641 7.11611328 7.99999609 0.406855469 14.7092539 1.29074219 15.5931406 8 8.88388281 14.7066797 15.5905625 15.5905664 14.7066758 8.88388672 7.99999609"></polygon>
            </g>
        </g>
        <g id="Artboard-3"></g>
    </g>
</svg>