<?xml version="1.0" encoding="UTF-8"?>
<svg width="20px" height="40px" viewBox="0 0 20 40" version="1.1" xmlns="http://www.w3.org/2000/svg" xmlns:xlink="http://www.w3.org/1999/xlink">
    <!-- Generator: Sketch 46.2 (44496) - http://www.bohemiancoding.com/sketch -->
    <title>Artboard 9</title>
    <desc>Created with Sketch.</desc>
    <defs>
        <circle id="path-1" cx="10" cy="10" r="10"></circle>
        <linearGradient x1="0%" y1="0%" x2="101.999998%" y2="100.999999%" id="linearGradient-2">
            <stop stop-color="#5EA2FF" offset="0%"></stop>
            <stop stop-color="#00D5FF" offset="62.5956633%"></stop>
            <stop stop-color="#00E3FF" offset="100%"></stop>
        </linearGradient>
        <circle id="path-3" cx="10" cy="10" r="10"></circle>
    </defs>
    <g id="ui--1.8" stroke="none" stroke-width="1" fill="none" fill-rule="evenodd">
        <g id="Artboard-9">
            <g id="Group-76">
                <g id="Oval-2-Copy-17">
                    <use fill="#9B9B9B" fill-rule="evenodd" xlink:href="#path-1"></use>
                    <circle stroke="#FFFFFF" stroke-width="2" cx="10" cy="10" r="9"></circle>
                </g>
                <g id="Page-1" transform="translate(3.000000, 3.000000)" fill="#FFFFFF">
                    <g id="Group-6" transform="translate(2.130732, 0.776488)">
                        <path d="M9.54687454,5.02975473 C9.38582673,4.4079362 9.10768429,3.83605327 8.72012332,3.33000449 C8.34593405,2.84139766 7.88618771,2.43471473 7.35362771,2.12126498 C6.82108137,1.8077879 6.24235551,1.60323766 5.6335399,1.51325522 C5.39818966,1.47845327 5.16221112,1.46147571 4.92654673,1.46219961 L5.69567259,0.572441561 L5.03435356,0.000790829268 L3.23022478,2.0878562 L5.31729015,3.89197132 L5.88895454,3.23065229 L4.85554966,2.33735668 C5.57076527,2.32057034 6.27829112,2.50263863 6.91021698,2.87460156 C7.80460527,3.40102888 8.44045112,4.24423863 8.70063259,5.24890595 C8.91262673,6.06751668 8.85582088,6.91251571 8.53636137,7.69254107 C8.22724137,8.44732546 7.67747161,9.09829132 6.98831649,9.52551668 L7.44890966,10.2684728 C7.87530185,10.0041255 8.25582868,9.67470888 8.57989112,9.28936059 C8.89951454,8.90929815 9.15703259,8.48352059 9.3452882,8.0238562 C9.73683746,7.06781327 9.80655063,6.03246888 9.54687454,5.02975473" id="Fill-2"></path>
                        <path d="M3.81771941,9.22999512 L4.85111063,10.1232907 C4.13592234,10.1400634 3.42836917,9.95800878 2.79645698,9.58604585 C1.90206868,9.05961854 1.26620917,8.21640878 1.00604137,7.2117278 C0.794033561,6.39313073 0.850839415,5.54813171 1.17031259,4.76809268 C1.47943259,4.01332195 2.029216,3.36236976 2.71835746,2.93513073 L2.25776429,2.19217463 C1.83135844,2.45652195 1.45084527,2.78593854 1.12678283,3.17127317 C0.807159415,3.55133561 0.549627707,3.97712683 0.361372098,4.43679122 C-0.0301771707,5.39282049 -0.0998766829,6.42815122 0.159799415,7.43087902 C0.32084722,8.05271122 0.598989659,8.62459415 0.986550634,9.13065659 C1.36072624,9.61924976 1.82047259,10.0259327 2.35304624,10.3393961 C2.88559259,10.6528595 3.46431844,10.8574098 4.07313405,10.9473922 C4.30374478,10.9814839 4.53491551,10.9984888 4.76585405,10.9984888 C4.77063454,10.9984888 4.77541502,10.9983932 4.78018185,10.9983795 L4.01100137,11.8881922 L4.67232039,12.4598566 L6.47643551,10.3727912 L4.3893838,8.5686761 L3.81771941,9.22999512 Z" id="Fill-4"></path>
                    </g>
                </g>
            </g>
            <g id="Group-76-Copy" transform="translate(0.000000, 20.000000)">
                <g id="Oval-2-Copy-17">
                    <use fill="url(#linearGradient-2)" fill-rule="evenodd" xlink:href="#path-3"></use>
                    <circle stroke="#FFFFFF" stroke-width="2" cx="10" cy="10" r="9"></circle>
                </g>
                <g id="Page-1" transform="translate(3.000000, 3.000000)" fill="#FFFFFF">
                    <g id="Group-6" transform="translate(2.130732, 0.776488)">
                        <path d="M9.54687454,5.02975473 C9.38582673,4.4079362 9.10768429,3.83605327 8.72012332,3.33000449 C8.34593405,2.84139766 7.88618771,2.43471473 7.35362771,2.12126498 C6.82108137,1.8077879 6.24235551,1.60323766 5.6335399,1.51325522 C5.39818966,1.47845327 5.16221112,1.46147571 4.92654673,1.46219961 L5.69567259,0.572441561 L5.03435356,0.000790829268 L3.23022478,2.0878562 L5.31729015,3.89197132 L5.88895454,3.23065229 L4.85554966,2.33735668 C5.57076527,2.32057034 6.27829112,2.50263863 6.91021698,2.87460156 C7.80460527,3.40102888 8.44045112,4.24423863 8.70063259,5.24890595 C8.91262673,6.06751668 8.85582088,6.91251571 8.53636137,7.69254107 C8.22724137,8.44732546 7.67747161,9.09829132 6.98831649,9.52551668 L7.44890966,10.2684728 C7.87530185,10.0041255 8.25582868,9.67470888 8.57989112,9.28936059 C8.89951454,8.90929815 9.15703259,8.48352059 9.3452882,8.0238562 C9.73683746,7.06781327 9.80655063,6.03246888 9.54687454,5.02975473" id="Fill-2"></path>
                        <path d="M3.81771941,9.22999512 L4.85111063,10.1232907 C4.13592234,10.1400634 3.42836917,9.95800878 2.79645698,9.58604585 C1.90206868,9.05961854 1.26620917,8.21640878 1.00604137,7.2117278 C0.794033561,6.39313073 0.850839415,5.54813171 1.17031259,4.76809268 C1.47943259,4.01332195 2.029216,3.36236976 2.71835746,2.93513073 L2.25776429,2.19217463 C1.83135844,2.45652195 1.45084527,2.78593854 1.12678283,3.17127317 C0.807159415,3.55133561 0.549627707,3.97712683 0.361372098,4.43679122 C-0.0301771707,5.39282049 -0.0998766829,6.42815122 0.159799415,7.43087902 C0.32084722,8.05271122 0.598989659,8.62459415 0.986550634,9.13065659 C1.36072624,9.61924976 1.82047259,10.0259327 2.35304624,10.3393961 C2.88559259,10.6528595 3.46431844,10.8574098 4.07313405,10.9473922 C4.30374478,10.9814839 4.53491551,10.9984888 4.76585405,10.9984888 C4.77063454,10.9984888 4.77541502,10.9983932 4.78018185,10.9983795 L4.01100137,11.8881922 L4.67232039,12.4598566 L6.47643551,10.3727912 L4.3893838,8.5686761 L3.81771941,9.22999512 Z" id="Fill-4"></path>
                    </g>
                </g>
            </g>
        </g>
    </g>
</svg>