<?xml version="1.0" encoding="UTF-8"?>
<svg width="24px" height="24px" viewBox="0 0 24 24" version="1.1" xmlns="http://www.w3.org/2000/svg" xmlns:xlink="http://www.w3.org/1999/xlink">
    <!-- Generator: Sketch 46.2 (44496) - http://www.bohemiancoding.com/sketch -->
    <title>Artboard</title>
    <desc>Created with Sketch.</desc>
    <defs>
        <linearGradient x1="0%" y1="0%" x2="101.999998%" y2="100.999999%" id="linearGradient-1">
            <stop stop-color="#5EA2FF" offset="0%"></stop>
            <stop stop-color="#00D5FF" offset="62.5956633%"></stop>
            <stop stop-color="#00E3FF" offset="100%"></stop>
        </linearGradient>
        <circle id="path-2" cx="12" cy="12" r="12"></circle>
    </defs>
    <g id="Page-1" stroke="none" stroke-width="1" fill="none" fill-rule="evenodd">
        <g id="Artboard">
            <g id="Group-Copy">
                <g id="Oval-2-Copy-4">
                    <use fill="url(#linearGradient-1)" fill-rule="evenodd" xlink:href="#path-2"></use>
                    <circle stroke="#FFFFFF" stroke-width="2.4" cx="12" cy="12" r="10.8"></circle>
                </g>
                <g id="旋转" transform="translate(12.360488, 12.200120) rotate(-75.000000) translate(-12.360488, -12.200120) translate(4.860488, 2.200120)" fill="#FFFFFF">
                    <g transform="translate(0.400000, 0.000000)" id="Group-5">
                        <g transform="translate(0.525000, 1.031250)">
                            <path d="M13.1028806,6.90540187 C12.8818181,6.05178937 12.4999931,5.26672687 11.9679619,4.57203937 C11.4542869,3.90127687 10.8231619,3.34301437 10.0920806,2.91272062 C9.36101812,2.48238937 8.56656187,2.20158937 7.73079938,2.07806437 C7.40771813,2.03028937 7.08377437,2.00700187 6.76026187,2.00797687 L7.81609312,0.786545625 L6.90825562,0.001801875 L4.43160563,2.86685812 L7.29666187,5.34348937 L8.08140562,4.43565187 L6.66281812,3.20938312 C7.64462437,3.18635812 8.61589312,3.43627687 9.48338062,3.94687687 C10.7111494,4.66953937 11.5840369,5.82707062 11.9412244,7.20624562 C12.1817494,8.13502687 12.1683244,9.10998937 11.9024119,10.0257206 C11.6439244,10.9157831 11.1560869,11.7275269 10.4916244,12.3731831 L11.3278931,13.2338269 C12.1412681,12.4434394 12.7384369,11.4498206 13.0548056,10.3603706 C13.3808306,9.23760187 13.3974619,8.04288937 13.1028806,6.90540187" id="Fill-1"></path>
                            <path d="M5.2380975,12.6713569 L6.65674125,13.8976631 C5.674935,13.9207069 4.70362875,13.6707694 3.83614125,13.1601319 C2.60835375,12.4374694 1.73546625,11.2799381 1.37831625,9.90074437 C1.13775375,8.97196312 1.1511975,7.99701937 1.41711,7.08128812 C1.67557875,6.19124437 2.163435,5.37950062 2.8278975,4.73382562 L1.99161,3.87321937 C1.17825375,4.66356937 0.58110375,5.65718812 0.26471625,6.74665687 C-0.0613275,7.86940687 -0.07794,9.06410062 0.2166225,10.2015881 C0.43770375,11.0552194 0.81952875,11.8402819 1.35156,12.5349881 C1.86521625,13.2057131 2.49634125,13.7639944 3.22744125,14.1943069 C3.95850375,14.6246194 4.75296,14.9054194 5.5887225,15.0289444 C5.9052975,15.0757444 6.22266,15.0990881 6.539685,15.0990881 C6.5462475,15.0990881 6.55279125,15.0989569 6.559335,15.0989381 L5.50342875,16.3204444 L6.41126625,17.1052069 L8.8878975,14.2401506 L6.02286,11.7635194 L5.2380975,12.6713569 Z" id="Fill-3"></path>
                        </g>
                    </g>
                </g>
            </g>
        </g>
    </g>
</svg>