<?xml version="1.0" encoding="UTF-8"?>
<svg width="20px" height="20px" viewBox="0 0 20 20" version="1.1" xmlns="http://www.w3.org/2000/svg" xmlns:xlink="http://www.w3.org/1999/xlink">
    <!-- Generator: Sketch 46.2 (44496) - http://www.bohemiancoding.com/sketch -->
    <title>Artboard 2</title>
    <desc>Created with Sketch.</desc>
    <defs>
        <circle id="path-1" cx="10" cy="10" r="10"></circle>
    </defs>
    <g id="Page-1" stroke="none" stroke-width="1" fill="none" fill-rule="evenodd">
        <g id="Artboard-2">
            <g id="Group">
                <g id="Oval-2-Copy-4">
                    <use fill="#9B9B9B" fill-rule="evenodd" xlink:href="#path-1"></use>
                    <circle stroke="#FFFFFF" stroke-width="2" cx="10" cy="10" r="9"></circle>
                </g>
                <g id="旋转" transform="translate(2.000000, 2.000000)" fill="#FFFFFF">
                    <g transform="translate(2.000000, 0.000000)" id="Group-5">
                        <g transform="translate(0.437500, 0.859375)">
                            <path d="M10.9190672,5.75450156 C10.7348484,5.04315781 10.4166609,4.38893906 9.97330156,3.81003281 C9.54523906,3.25106406 9.01930156,2.78584531 8.41006719,2.42726719 C7.80084844,2.06865781 7.13880156,1.83465781 6.44233281,1.73172031 C6.17309844,1.69190781 5.90314531,1.67250156 5.63355156,1.67331406 L6.51341094,0.655454688 L5.75687969,0.0015015625 L3.69300469,2.38904844 L6.08055156,4.45290781 L6.73450469,3.69637656 L5.55234844,2.67448594 C6.37052031,2.65529844 7.17991094,2.86356406 7.90281719,3.28906406 C8.92595781,3.89128281 9.65336406,4.85589219 9.95102031,6.00520469 C10.1514578,6.77918906 10.1402703,7.59165781 9.91867656,8.35476719 C9.70327031,9.09648594 9.29673906,9.77293906 8.74302031,10.3109859 L9.43991094,11.0281891 C10.1177234,10.3695328 10.6153641,9.54151719 10.8790047,8.63364219 C11.1506922,7.69800156 11.1645516,6.70240781 10.9190672,5.75450156" id="Fill-1"></path>
                            <path d="M4.36508125,10.5594641 L5.54728437,11.5813859 C4.7291125,11.6005891 3.91969062,11.3923078 3.19678437,10.9667766 C2.17362813,10.3645578 1.44622187,9.39994844 1.14859687,8.25062031 C0.948128125,7.47663594 0.95933125,6.66418281 1.180925,5.90107344 C1.39631562,5.15937031 1.8028625,4.48291719 2.35658125,3.94485469 L1.659675,3.22768281 C0.981878125,3.88630781 0.484253125,4.71432344 0.220596875,5.62221406 C-0.05110625,6.55783906 -0.06495,7.55341719 0.18051875,8.50132344 C0.364753125,9.21268281 0.682940625,9.86690156 1.1263,10.4458234 C1.55434688,11.0047609 2.08028437,11.4699953 2.68953438,11.8285891 C3.29875312,12.1871828 3.9608,12.4211828 4.65726875,12.5241203 C4.92108125,12.5631203 5.18555,12.5825734 5.4497375,12.5825734 C5.45520625,12.5825734 5.46065937,12.5824641 5.4661125,12.5824484 L4.58619062,13.6003703 L5.34272187,14.2543391 L7.40658125,11.8667922 L5.01905,9.80293281 L4.36508125,10.5594641 Z" id="Fill-3"></path>
                        </g>
                    </g>
                </g>
            </g>
        </g>
    </g>
</svg>