<?xml version="1.0" encoding="UTF-8"?>
<svg width="20px" height="20px" viewBox="0 0 20 20" version="1.1" xmlns="http://www.w3.org/2000/svg" xmlns:xlink="http://www.w3.org/1999/xlink">
    <!-- Generator: Sketch 44.1 (41455) - http://www.bohemiancoding.com/sketch -->
    <title>素材左右居中@2x</title>
    <desc>Created with Sketch.</desc>
    <defs></defs>
    <g id="Symbols" stroke="none" stroke-width="1" fill="none" fill-rule="evenodd">
        <g id="素材左右居中" fill="#626262">
            <g transform="translate(3.000000, 2.000000)" id="Fill-1">
                <path d="M1.29947266,12.3208789 L12.6403516,12.3208789 L12.6403516,9.87337891 L1.29947266,9.87337891 L1.29947266,12.3208789 Z M3.14601563,6.07179687 L10.7938086,6.07179687 L10.7938086,3.62427734 L3.14601563,3.62427734 L3.14601563,6.07179687 Z M13.8903516,8.62337891 L7.59492188,8.62337891 L7.59492188,7.32177734 L12.0438086,7.32177734 L12.0438086,2.37427734 L7.59492188,2.37427734 L7.59492188,0.499628906 L6.34492188,0.499628906 L6.34492188,2.37427734 L1.89601563,2.37427734 L1.89601563,7.32177734 L6.34492188,7.32177734 L6.34492188,8.62337891 L0.0494726563,8.62337891 L0.0494726563,13.5708789 L6.34492188,13.5708789 L6.34492188,15.4455078 L7.59492188,15.4455078 L7.59492188,13.5708789 L13.8903516,13.5708789 L13.8903516,8.62337891 Z"></path>
            </g>
        </g>
    </g>
</svg>