<?xml version="1.0" encoding="UTF-8"?>
<svg width="14px" height="12px" viewBox="0 0 14 12" version="1.1" xmlns="http://www.w3.org/2000/svg" xmlns:xlink="http://www.w3.org/1999/xlink">
    <!-- Generator: Sketch 45.2 (43514) - http://www.bohemiancoding.com/sketch -->
    <title>收藏彩</title>
    <desc>Created with Sketch.</desc>
    <defs></defs>
    <g id="就看这个别的不用看" stroke="none" stroke-width="1" fill="none" fill-rule="evenodd">
        <g id="右边栏及弹出框" transform="translate(-8949.000000, -6549.000000)" fill="#FF3D67">
            <g id="收藏彩" transform="translate(8948.000000, 6547.000000)">
                <g id="Page-1-Copy-3" transform="translate(0.888889, 1.777778)">
                    <path d="M13.0752,2.80728889 C12.8707556,2.32462222 12.5792,1.89084444 12.2067556,1.51928889 C11.8352,1.14684444 11.4014222,0.855288889 10.9187556,0.650844444 C10.4183111,0.439288889 9.88764444,0.331733333 9.34008889,0.331733333 C8.54008889,0.331733333 7.76942222,0.5664 7.11075556,1.00195556 C6.45297778,0.5664 5.68231111,0.331733333 4.88231111,0.331733333 C4.33475556,0.331733333 3.80408889,0.439288889 3.30364444,0.650844444 C2.82097778,0.855288889 2.3872,1.14684444 2.01564444,1.51928889 C1.6432,1.89084444 1.35164444,2.32462222 1.1472,2.80728889 C0.935644444,3.30773333 0.828088889,3.8384 0.828088889,4.38506667 C0.828088889,5.30951111 1.15964444,6.28995556 1.81386667,7.29973333 C2.30364444,8.05617778 2.98008889,8.83751111 3.82275556,9.62328889 C5.23253333,10.9344 6.62453333,11.8081778 6.68231111,11.8455111 L7.11164444,12.1130667 L7.54008889,11.8455111 C7.59875556,11.8081778 8.98986667,10.9344 10.3996444,9.62328889 C11.2423111,8.83751111 11.9187556,8.05617778 12.4085333,7.29973333 C13.0627556,6.28995556 13.3943111,5.30951111 13.3943111,4.38506667 C13.3943111,3.8384 13.2867556,3.30773333 13.0752,2.80728889" id="Fill-2"></path>
                </g>
            </g>
        </g>
    </g>
</svg>