<?xml version="1.0" encoding="UTF-8"?>
<svg width="34px" height="34px" viewBox="0 0 34 34" version="1.1" xmlns="http://www.w3.org/2000/svg" xmlns:xlink="http://www.w3.org/1999/xlink">
    <!-- Generator: Sketch 46.2 (44496) - http://www.bohemiancoding.com/sketch -->
    <title>Group 5</title>
    <desc>Created with Sketch.</desc>
    <defs>
        <linearGradient x1="0%" y1="0%" x2="101.999998%" y2="100.999999%" id="linearGradient-1">
            <stop stop-color="#5EA2FF" offset="0%"></stop>
            <stop stop-color="#00D5FF" offset="62.5956633%"></stop>
            <stop stop-color="#00E3FF" offset="100%"></stop>
        </linearGradient>
    </defs>
    <g id="Page-1" stroke="none" stroke-width="1" fill="none" fill-rule="evenodd">
        <g id="Artboard-4" transform="translate(-2499.000000, -197.000000)">
            <g id="Group-7-Copy-8" transform="translate(2469.000000, 118.000000)">
                <g id="Group-66" transform="translate(30.000000, 79.000000)">
                    <g id="Group-5">
                        <g id="模板" transform="translate(5.000000, 4.000000)" fill-rule="nonzero" fill="url(#linearGradient-1)">
                            <path d="M17.996081,2.905875 L2.57161465,2.905875 C1.15268346,2.90819601 0.00287419651,4.02260394 0,5.3983125 L0,24.5067187 C0.00239539779,25.8827568 1.15234449,26.9976776 2.57161465,27 L17.996081,27 C19.415748,26.9986047 20.5662565,25.8831416 20.5676956,24.5067188 L20.5676956,5.3983125 C20.5648214,4.02260394 19.4150122,2.90819601 17.996081,2.905875 Z M18.8576372,24.5100937 C18.8571585,24.9695045 18.4734057,25.3419453 17.999562,25.342875 L2.57422543,25.342875 C2.10038171,25.3419453 1.71662891,24.9695045 1.71615028,24.5100938 L1.71615028,5.4016875 C1.71615028,4.94184375 2.10341543,4.56975 2.57422543,4.56975 L17.9986918,4.56975 C18.4738531,4.56975 18.8567669,4.94521875 18.8567669,5.4016875 L18.8567669,24.5100937 L18.8576372,24.5100937 Z M23.9999962,2.4991875 L23.9999962,21.5940937 C23.9980903,22.9694233 22.8503934,24.0847999 21.4318626,24.0899062 L21.4318626,22.4294062 C21.9035827,22.4247689 22.2827838,22.0514624 22.2803649,21.5940937 L22.2803649,2.4991875 C22.2827871,2.04167857 21.9037224,1.66812934 21.4318626,1.66303125 L5.99347211,1.66303125 C5.52154934,1.66766962 5.14245848,2.0416281 5.14584008,2.4991875 L3.43317083,2.4991875 C3.4321984,1.12347021 4.57889746,0.00604167998 5.99782341,0 L21.4362139,0 C22.8553986,0.00511658693 24.0024057,1.12322478 23.9999962,2.4991875 L23.9999962,2.4991875 Z M3.36355013,7.15415625 L9.51453907,7.15415625 L9.51453907,15.8641875 L3.36355013,15.8641875 L3.36355013,7.15415625 Z M3.36355013,17.6065312 L9.51453907,17.6065312 L9.51453907,22.831875 L3.36355013,22.831875 L3.36355013,17.6065312 Z M11.0566376,7.15415625 L17.2084968,7.15415625 L17.2084968,12.3795 L11.0566376,12.3795 L11.0566376,7.15415625 L11.0566376,7.15415625 Z M11.0566376,14.1218438 L17.2084968,14.1218438 L17.2084968,22.831875 L11.0566376,22.831875 L11.0566376,14.1218438 L11.0566376,14.1218438 Z" id="Shape"></path>
                        </g>
                        <rect id="Rectangle-22" stroke="url(#linearGradient-1)" stroke-width="2.195456" x="1.097728" y="1.097728" width="31.804544" height="31.804544" rx="3.2768"></rect>
                    </g>
                </g>
            </g>
        </g>
    </g>
</svg>