<?xml version="1.0" encoding="UTF-8"?>
<svg width="20px" height="32px" viewBox="0 0 32 32" version="1.1" xmlns="http://www.w3.org/2000/svg" xmlns:xlink="http://www.w3.org/1999/xlink">
    <!-- Generator: Sketch 46.2 (44496) - http://www.bohemiancoding.com/sketch -->
    <title>Artboard</title>
    <desc>Created with Sketch.</desc>
    <defs></defs>
    <g id="Page-1" stroke="none" stroke-width="1" fill="none" fill-rule="evenodd">
        <g id="Artboard" fill="#BFBFBF">
            <path d="M23.9640773,31.5957285 C24.4800906,31.0730814 24.4774058,30.232316 23.9559851,29.7149626 L10.2021485,16.0865092 L23.8974865,2.26793355 C24.4149367,1.74524858 24.4110796,0.904483206 23.8896211,0.385692961 C23.3666879,-0.13188727 22.524678,-0.127841302 22.0070765,0.393595815 L7.45229624,15.080767 C7.42975897,15.1034925 7.42446496,15.1327217 7.4031377,15.155258 C7.39791933,15.1607409 7.3912262,15.1619887 7.38585659,15.1672069 C7.12913567,15.426602 7,15.7660088 7,16.1037896 C7,16.4455786 7.13174485,16.7888423 7.39379758,17.0482374 L22.0815705,31.6024213 C22.6044282,32.1212116 23.4464759,32.1171657 23.9640773,31.5957285 L23.9640773,31.5957285 Z" id="Shape-Copy-2" transform="translate(15.674540, 15.994585) scale(-1, 1) translate(-15.674540, -15.994585) "></path>
        </g>
    </g>
</svg>