<?xml version="1.0" encoding="UTF-8"?>
<svg width="34px" height="34px" viewBox="0 0 34 34" version="1.1" xmlns="http://www.w3.org/2000/svg" xmlns:xlink="http://www.w3.org/1999/xlink">
    <!-- Generator: Sketch 46.2 (44496) - http://www.bohemiancoding.com/sketch -->
    <title>Shape</title>
    <desc>Created with Sketch.</desc>
    <defs>
        <linearGradient x1="0%" y1="0%" x2="101.999998%" y2="100.999999%" id="linearGradient-1">
            <stop stop-color="#5EA2FF" offset="0%"></stop>
            <stop stop-color="#00D5FF" offset="62.5956633%"></stop>
            <stop stop-color="#00E3FF" offset="100%"></stop>
        </linearGradient>
    </defs>
    <g id="Page-1" stroke="none" stroke-width="1" fill="none" fill-rule="evenodd">
        <g id="Artboard-4" transform="translate(-2499.000000, -368.000000)" fill-rule="nonzero" fill="url(#linearGradient-1)">
            <g id="Group-7-Copy-8" transform="translate(2469.000000, 118.000000)">
                <g id="Group-69" transform="translate(30.000000, 250.000000)">
                    <path d="M29.75,34 L4.25,34 C1.90594285,34 0,32.0940572 0,29.75 L0,4.25 C0,1.90594285 1.90594285,0 4.25,0 L29.75,0 C32.0938143,0 34,1.90594285 34,4.25 L34,29.75 C34,32.0940572 32.0938143,34 29.75,34 Z M31.875,4.25 C31.875,3.0787 30.9210572,2.125 29.75,2.125 L4.25,2.125 C3.0787,2.125 2.125,3.0787 2.125,4.25 L2.125,29.75 C2.125,30.9215428 3.0787,31.875 4.25,31.875 L29.75,31.875 C30.9210572,31.875 31.875,30.9215428 31.875,29.75 L31.875,4.25 Z M28.6862857,20.1875 C28.4839857,20.1875 28.2795,20.1294572 28.0978429,20.009 L25.5568286,18.3155572 L21.6118572,21.471 L29.2890572,26.7490143 C29.7725857,27.0822143 29.8949857,27.7432714 29.563,28.2265571 C29.3565714,28.5264857 29.0245857,28.6872571 28.6862857,28.6872571 C28.4788857,28.6872571 28.2690572,28.6270285 28.0854572,28.5005 L11.6782714,17.221 L5.90191427,21.0715 C5.72025712,21.1919572 5.51577142,21.25 5.31347142,21.25 C4.97007142,21.25 4.63274285,21.0841286 4.42825715,20.7769143 C4.10234288,20.2880428 4.2342143,19.6291714 4.72284288,19.3035 L11.0978429,15.0535 C11.1012429,15.0513143 11.1051286,15.0513143 11.1082857,15.0493714 C11.186,14.9983714 11.2736715,14.9745714 11.3594,14.9466428 C11.4050572,14.9311 11.4475572,14.9019571 11.4944286,14.8937 C11.5357143,14.8854428 11.5794286,14.8968572 11.6219286,14.8937 C11.7154286,14.8886 11.8077143,14.8781572 11.8978143,14.8968572 C11.9323,14.9029286 11.9624143,14.926 11.9954429,14.9362 C12.0950143,14.9672857 12.1936143,14.9995857 12.2808,15.0576286 C12.2827429,15.0595714 12.2859,15.0595714 12.2890572,15.0617572 L19.7816858,20.2134857 L24.8360286,16.1699143 L24.8452572,16.1813286 C25.1957,15.9001 25.6928286,15.8525 26.0894143,16.116 L29.2769143,18.241 C29.7655429,18.5666714 29.8974143,19.2255428 29.5715001,19.7144143 C29.3670143,20.0216286 29.0296857,20.1875 28.6862857,20.1875 Z M19.6561286,13.8125 C17.0196714,13.8125 14.875,11.6678286 14.875,9.03137142 C14.875,6.39467142 17.0194286,4.25 19.6561286,4.25 C22.2928286,4.25 24.4375,6.39467142 24.4375,9.03137142 C24.4375,11.6678286 22.2928286,13.8125 19.6561286,13.8125 Z M19.6561286,6.375 C18.1909714,6.375 17,7.56621427 17,9.03137142 C17,10.4962857 18.1909714,11.6875 19.6561286,11.6875 C21.1212857,11.6875 22.3125,10.4962857 22.3125,9.03137142 C22.3125,7.56621427 21.1212857,6.375 19.6561286,6.375 Z" id="Shape"></path>
                </g>
            </g>
        </g>
    </g>
</svg>