<?xml version="1.0" encoding="UTF-8"?>
<svg width="18px" height="36px" viewBox="0 0 18 36" version="1.1" xmlns="http://www.w3.org/2000/svg" xmlns:xlink="http://www.w3.org/1999/xlink">
    <!-- Generator: Sketch 46.2 (44496) - http://www.bohemiancoding.com/sketch -->
    <title>Artboard 6</title>
    <desc>Created with Sketch.</desc>
    <defs></defs>
    <g id="ui--1.8" stroke="none" stroke-width="1" fill="none" fill-rule="evenodd">
        <g id="Artboard-6">
            <g id="收藏灰" fill="#9B9B9B">
                <g id="Page-1" transform="translate(1.000000, 2.000000)">
                    <path d="M14.7096,3.1582 C14.4796,2.6152 14.1516,2.1272 13.7326,1.7092 C13.3146,1.2902 12.8266,0.9622 12.2836,0.7322 C11.7206,0.4942 11.1236,0.3732 10.5076,0.3732 C9.6076,0.3732 8.7406,0.6372 7.9996,1.1272 C7.2596,0.6372 6.3926,0.3732 5.4926,0.3732 C4.8766,0.3732 4.2796,0.4942 3.7166,0.7322 C3.1736,0.9622 2.6856,1.2902 2.2676,1.7092 C1.8486,2.1272 1.5206,2.6152 1.2906,3.1582 C1.0526,3.7212 0.9316,4.3182 0.9316,4.9332 C0.9316,5.9732 1.3046,7.0762 2.0406,8.2122 C2.5916,9.0632 3.3526,9.9422 4.3006,10.8262 C5.8866,12.3012 7.4526,13.2842 7.5176,13.3262 L8.0006,13.6272 L8.4826,13.3262 C8.5486,13.2842 10.1136,12.3012 11.6996,10.8262 C12.6476,9.9422 13.4086,9.0632 13.9596,8.2122 C14.6956,7.0762 15.0686,5.9732 15.0686,4.9332 C15.0686,4.3182 14.9476,3.7212 14.7096,3.1582" id="Fill-2"></path>
                </g>
            </g>
            <g id="收藏彩" transform="translate(0.000000, 18.000000)" fill="#FF3D67">
                <g id="Page-1-Copy-3" transform="translate(1.000000, 2.000000)">
                    <path d="M14.7096,3.1582 C14.4796,2.6152 14.1516,2.1272 13.7326,1.7092 C13.3146,1.2902 12.8266,0.9622 12.2836,0.7322 C11.7206,0.4942 11.1236,0.3732 10.5076,0.3732 C9.6076,0.3732 8.7406,0.6372 7.9996,1.1272 C7.2596,0.6372 6.3926,0.3732 5.4926,0.3732 C4.8766,0.3732 4.2796,0.4942 3.7166,0.7322 C3.1736,0.9622 2.6856,1.2902 2.2676,1.7092 C1.8486,2.1272 1.5206,2.6152 1.2906,3.1582 C1.0526,3.7212 0.9316,4.3182 0.9316,4.9332 C0.9316,5.9732 1.3046,7.0762 2.0406,8.2122 C2.5916,9.0632 3.3526,9.9422 4.3006,10.8262 C5.8866,12.3012 7.4526,13.2842 7.5176,13.3262 L8.0006,13.6272 L8.4826,13.3262 C8.5486,13.2842 10.1136,12.3012 11.6996,10.8262 C12.6476,9.9422 13.4086,9.0632 13.9596,8.2122 C14.6956,7.0762 15.0686,5.9732 15.0686,4.9332 C15.0686,4.3182 14.9476,3.7212 14.7096,3.1582" id="Fill-2"></path>
                </g>
            </g>
        </g>
    </g>
</svg>