<?xml version="1.0" encoding="UTF-8"?>
<svg width="48px" height="172px" viewBox="0 0 48 172" version="1.1" xmlns="http://www.w3.org/2000/svg" xmlns:xlink="http://www.w3.org/1999/xlink">
    <!-- Generator: Sketch 46 (44423) - http://www.bohemiancoding.com/sketch -->
    <title>Artboard</title>
    <desc>Created with Sketch.</desc>
    <defs>
        <linearGradient x1="0%" y1="0%" x2="101.999998%" y2="100.999999%" id="linearGradient-1">
            <stop stop-color="#5EA2FF" offset="0%"></stop>
            <stop stop-color="#00D5FF" offset="62.5956633%"></stop>
            <stop stop-color="#00E3FF" offset="100%"></stop>
        </linearGradient>
    </defs>
    <g id="Symbols" stroke="none" stroke-width="1" fill="none" fill-rule="evenodd">
        <g id="Page-1" transform="translate(0.000000, 24.000000)" fill="#9B9B9B">
            <path d="M12.6372891,19.4472656 L19.4472656,19.4472656 L19.4472656,4.55273438 L12.6372891,4.55273438 L12.6372891,19.4472656 Z M4.55273438,19.4472656 L11.3247891,19.4472656 L11.3247891,11.1621797 L4.55273438,11.1621797 L4.55273438,19.4472656 Z M4.55273438,9.84967969 L11.3247891,9.84967969 L11.3247891,4.55273438 L4.55273438,4.55273438 L4.55273438,9.84967969 Z M3.24023438,20.7597656 L20.7597656,20.7597656 L20.7597656,3.24023438 L3.24023438,3.24023438 L3.24023438,20.7597656 Z" id="Fill-1"></path>
        </g>
        <g id="Page-1-Copy-4" transform="translate(24.000000, 24.000000)" fill="url(#linearGradient-1)">
            <path d="M12.6372891,19.4472656 L19.4472656,19.4472656 L19.4472656,4.55273438 L12.6372891,4.55273438 L12.6372891,19.4472656 Z M4.55273438,19.4472656 L11.3247891,19.4472656 L11.3247891,11.1621797 L4.55273438,11.1621797 L4.55273438,19.4472656 Z M4.55273438,9.84967969 L11.3247891,9.84967969 L11.3247891,4.55273438 L4.55273438,4.55273438 L4.55273438,9.84967969 Z M3.24023438,20.7597656 L20.7597656,20.7597656 L20.7597656,3.24023438 L3.24023438,3.24023438 L3.24023438,20.7597656 Z" id="Fill-1"></path>
        </g>
        <g id="Group-18" fill="#9B9B9B">
            <path d="M11.3102109,18.3079219 C9.44107031,18.3079219 7.68377344,17.5800234 6.36208594,16.2583359 C5.04039844,14.9366484 4.3125,13.179375 4.3125,11.3102109 C4.3125,9.44104688 5.04039844,7.68377344 6.36208594,6.36208594 C7.68377344,5.040375 9.44107031,4.3125 11.3102109,4.3125 C13.1793516,4.3125 14.9366484,5.040375 16.2583359,6.36208594 C17.5800234,7.68377344 18.3079219,9.44104688 18.3079219,11.3102109 C18.3079219,13.179375 17.5800234,14.9366484 16.2583359,16.2583359 C14.9366484,17.5800234 13.1793516,18.3079219 11.3102109,18.3079219 L11.3102109,18.3079219 Z M20.7691406,19.9657031 L17.5743984,16.7709609 C18.1548047,16.1066719 18.6223125,15.3602578 18.9671016,14.545125 C19.4006016,13.5201797 19.6204219,12.4317891 19.6204219,11.3102109 C19.6204219,10.1886328 19.4006016,9.10024219 18.9671016,8.07529687 C18.5485078,7.08564844 17.9493984,6.19699219 17.1864141,5.43400781 C16.4234297,4.67102344 15.5347734,4.07191406 14.545125,3.65332031 C13.5201797,3.21982031 12.4317891,3 11.3102109,3 C10.1886328,3 9.10024219,3.21982031 8.07529687,3.65332031 C7.08564844,4.07191406 6.19699219,4.67102344 5.43400781,5.43400781 C4.67102344,6.19699219 4.07191406,7.08564844 3.65332031,8.07529687 C3.21982031,9.10024219 3,10.1886328 3,11.3102109 C3,12.4317891 3.21982031,13.5201797 3.65332031,14.545125 C4.07191406,15.5347734 4.67102344,16.4234297 5.43400781,17.1864141 C6.19699219,17.9493984 7.08564844,18.5485078 8.07529687,18.9671016 C9.10024219,19.400625 10.1886328,19.6204219 11.3102109,19.6204219 C12.4317891,19.6204219 13.5201797,19.400625 14.545125,18.9671016 C15.3057422,18.6453984 16.0064062,18.2166328 16.6364766,17.6892187 L19.8410625,20.8937812 L20.7691406,19.9657031 Z" id="Fill-1"></path>
        </g>
        <g id="Group-18-Copy" transform="translate(24.000000, 0.000000)" fill="url(#linearGradient-1)">
            <path d="M11.3102109,18.3079219 C9.44107031,18.3079219 7.68377344,17.5800234 6.36208594,16.2583359 C5.04039844,14.9366484 4.3125,13.179375 4.3125,11.3102109 C4.3125,9.44104688 5.04039844,7.68377344 6.36208594,6.36208594 C7.68377344,5.040375 9.44107031,4.3125 11.3102109,4.3125 C13.1793516,4.3125 14.9366484,5.040375 16.2583359,6.36208594 C17.5800234,7.68377344 18.3079219,9.44104688 18.3079219,11.3102109 C18.3079219,13.179375 17.5800234,14.9366484 16.2583359,16.2583359 C14.9366484,17.5800234 13.1793516,18.3079219 11.3102109,18.3079219 L11.3102109,18.3079219 Z M20.7691406,19.9657031 L17.5743984,16.7709609 C18.1548047,16.1066719 18.6223125,15.3602578 18.9671016,14.545125 C19.4006016,13.5201797 19.6204219,12.4317891 19.6204219,11.3102109 C19.6204219,10.1886328 19.4006016,9.10024219 18.9671016,8.07529687 C18.5485078,7.08564844 17.9493984,6.19699219 17.1864141,5.43400781 C16.4234297,4.67102344 15.5347734,4.07191406 14.545125,3.65332031 C13.5201797,3.21982031 12.4317891,3 11.3102109,3 C10.1886328,3 9.10024219,3.21982031 8.07529687,3.65332031 C7.08564844,4.07191406 6.19699219,4.67102344 5.43400781,5.43400781 C4.67102344,6.19699219 4.07191406,7.08564844 3.65332031,8.07529687 C3.21982031,9.10024219 3,10.1886328 3,11.3102109 C3,12.4317891 3.21982031,13.5201797 3.65332031,14.545125 C4.07191406,15.5347734 4.67102344,16.4234297 5.43400781,17.1864141 C6.19699219,17.9493984 7.08564844,18.5485078 8.07529687,18.9671016 C9.10024219,19.400625 10.1886328,19.6204219 11.3102109,19.6204219 C12.4317891,19.6204219 13.5201797,19.400625 14.545125,18.9671016 C15.3057422,18.6453984 16.0064062,18.2166328 16.6364766,17.6892187 L19.8410625,20.8937812 L20.7691406,19.9657031 Z" id="Fill-1"></path>
        </g>
        <g id="Group-21" transform="translate(0.000000, 48.000000)" fill="#9B9B9B">
            <g id="Group-2" transform="translate(2.000000, 4.000000)">
                <path d="M1.65928281,14.495757 L1.65928281,13.2636477 L7.12589219,8.78966328 L11.2943922,13.2189523 L15.4590484,10.6510227 L18.3407125,13.2568742 L18.3407125,14.495757 L1.65928281,14.495757 Z M18.3407125,1.50423359 L18.3407125,11.4873195 L15.6086734,9.01679609 L11.5166031,11.5399836 L7.24235312,6.99831172 L1.65928281,11.5676164 L1.65928281,1.50423359 L18.3407125,1.50423359 Z M0.346782812,15.808257 L19.6532125,15.808257 L19.6532125,0.191733594 L0.346782812,0.191733594 L0.346782812,15.808257 Z" id="Fill-1"></path>
                <path d="M12.906707,3.79958281 C12.2105664,3.79958281 11.6442227,4.36592656 11.6442227,5.06206719 C11.6442227,5.75820781 12.2105664,6.32455156 12.906707,6.32455156 C13.6028477,6.32455156 14.1691914,5.75820781 14.1691914,5.06206719 C14.1691914,4.36592656 13.6028477,3.79958281 12.906707,3.79958281 M12.906707,7.63705156 C11.4868633,7.63705156 10.3317227,6.48191094 10.3317227,5.06206719 C10.3317227,3.64222344 11.4868633,2.48708281 12.906707,2.48708281 C14.3265508,2.48708281 15.4816914,3.64222344 15.4816914,5.06206719 C15.4816914,6.48191094 14.3265508,7.63705156 12.906707,7.63705156" id="Fill-2"></path>
            </g>
        </g>
        <g id="Group-21-Copy" transform="translate(24.000000, 48.000000)" fill="url(#linearGradient-1)">
            <g id="Group-2" transform="translate(2.000000, 4.000000)">
                <path d="M1.65928281,14.495757 L1.65928281,13.2636477 L7.12589219,8.78966328 L11.2943922,13.2189523 L15.4590484,10.6510227 L18.3407125,13.2568742 L18.3407125,14.495757 L1.65928281,14.495757 Z M18.3407125,1.50423359 L18.3407125,11.4873195 L15.6086734,9.01679609 L11.5166031,11.5399836 L7.24235312,6.99831172 L1.65928281,11.5676164 L1.65928281,1.50423359 L18.3407125,1.50423359 Z M0.346782812,15.808257 L19.6532125,15.808257 L19.6532125,0.191733594 L0.346782812,0.191733594 L0.346782812,15.808257 Z" id="Fill-1"></path>
                <path d="M12.906707,3.79958281 C12.2105664,3.79958281 11.6442227,4.36592656 11.6442227,5.06206719 C11.6442227,5.75820781 12.2105664,6.32455156 12.906707,6.32455156 C13.6028477,6.32455156 14.1691914,5.75820781 14.1691914,5.06206719 C14.1691914,4.36592656 13.6028477,3.79958281 12.906707,3.79958281 M12.906707,7.63705156 C11.4868633,7.63705156 10.3317227,6.48191094 10.3317227,5.06206719 C10.3317227,3.64222344 11.4868633,2.48708281 12.906707,2.48708281 C14.3265508,2.48708281 15.4816914,3.64222344 15.4816914,5.06206719 C15.4816914,6.48191094 14.3265508,7.63705156 12.906707,7.63705156" id="Fill-2"></path>
            </g>
        </g>
        <g id="Group-28" transform="translate(0.000000, 72.000000)" fill-rule="nonzero" fill="#9B9B9B">
            <path d="M19.2349002,5.26263276 L16.9866884,5.26263276 L16.9866884,3.50422787 C16.9866884,2.67502747 16.3109735,2 15.4809287,2 L8.51105499,2 C7.68101018,2 7.00529532,2.67502747 7.00529532,3.50422787 L7.00529532,5.26263276 L4.7570835,5.26263276 C3.23463951,5.26263276 2,6.50018311 2,8.0169115 L2,19.2173672 C2,20.7382625 3.23881059,21.971646 4.7570835,21.971646 L19.2349002,21.971646 C20.7573442,21.971646 21.9919837,20.7340956 21.9919837,19.2173672 L21.9919837,8.0169115 C21.9919837,6.49601628 20.7531731,5.26263276 19.2349002,5.26263276 L19.2349002,5.26263276 Z M8.13148676,3.50422787 C8.13148676,3.29588606 8.29832994,3.12921261 8.50688391,3.12921261 L15.4767576,3.12921261 C15.6853116,3.12921261 15.8521548,3.29588606 15.8521548,3.50422787 L15.8521548,5.24179858 L8.13148676,5.24179858 L8.13148676,3.50422787 L8.13148676,3.50422787 Z M3.12619145,10.9336968 L3.12619145,9.72531434 L3.12619145,8.01274466 C3.12619145,7.11687487 3.85613035,6.3835117 4.7570835,6.3835117 L19.2349002,6.3835117 C20.1316823,6.3835117 20.8657923,7.11270804 20.8657923,8.01274466 L20.8657923,9.72531434 L20.8657923,10.9336968 L20.8657923,12.0587426 L17.6749165,12.0587426 L17.6749165,10.4836785 C17.6749165,10.0003255 17.282835,9.60864293 16.7989898,9.60864293 L14.4298167,9.60864293 C13.9459715,9.60864293 13.55389,10.0003255 13.55389,10.4836785 L13.55389,12.0587426 L10.2337108,12.0587426 L10.2337108,10.4836785 C10.2337108,10.0003255 9.84162933,9.60864293 9.35778411,9.60864293 L6.988611,9.60864293 C6.50476578,9.60864293 6.11268432,10.0003255 6.11268432,10.4836785 L6.11268432,12.0587426 L3.12619145,12.0587426 L3.12619145,10.9336968 L3.12619145,10.9336968 Z M16.544554,10.7378555 L16.544554,14.5130092 L14.6759104,14.5130092 L14.6759104,10.7378555 L16.544554,10.7378555 L16.544554,10.7378555 Z M9.09917719,10.7378555 L9.09917719,14.5130092 L7.2305336,14.5130092 L7.2305336,10.7378555 L9.09917719,10.7378555 L9.09917719,10.7378555 Z M19.2349002,20.8424334 L4.7570835,20.8424334 C3.86030143,20.8424334 3.12619145,20.113237 3.12619145,19.2132004 L3.12619145,13.1879552 L6.10017108,13.1879552 L6.10017108,14.7630193 C6.10017108,15.2463723 6.49225255,15.6380549 6.97609776,15.6380549 L9.34527088,15.6380549 C9.82911609,15.6380549 10.2211976,15.2463723 10.2211976,14.7630193 L10.2211976,13.1879552 L13.5413768,13.1879552 L13.5413768,14.7630193 C13.5413768,15.2463723 13.9334582,15.6380549 14.4173035,15.6380549 L16.7864766,15.6380549 C17.2703218,15.6380549 17.6624033,15.2463723 17.6624033,14.7630193 L17.6624033,13.1879552 L20.853279,13.1879552 L20.853279,19.2132004 C20.8616212,20.113237 20.1316823,20.8424334 19.2349002,20.8424334 L19.2349002,20.8424334 Z" id="Shape"></path>
        </g>
        <g id="Group-28-Copy" transform="translate(24.000000, 72.000000)" fill-rule="nonzero" fill="url(#linearGradient-1)">
            <path d="M19.2349002,5.26263276 L16.9866884,5.26263276 L16.9866884,3.50422787 C16.9866884,2.67502747 16.3109735,2 15.4809287,2 L8.51105499,2 C7.68101018,2 7.00529532,2.67502747 7.00529532,3.50422787 L7.00529532,5.26263276 L4.7570835,5.26263276 C3.23463951,5.26263276 2,6.50018311 2,8.0169115 L2,19.2173672 C2,20.7382625 3.23881059,21.971646 4.7570835,21.971646 L19.2349002,21.971646 C20.7573442,21.971646 21.9919837,20.7340956 21.9919837,19.2173672 L21.9919837,8.0169115 C21.9919837,6.49601628 20.7531731,5.26263276 19.2349002,5.26263276 L19.2349002,5.26263276 Z M8.13148676,3.50422787 C8.13148676,3.29588606 8.29832994,3.12921261 8.50688391,3.12921261 L15.4767576,3.12921261 C15.6853116,3.12921261 15.8521548,3.29588606 15.8521548,3.50422787 L15.8521548,5.24179858 L8.13148676,5.24179858 L8.13148676,3.50422787 L8.13148676,3.50422787 Z M3.12619145,10.9336968 L3.12619145,9.72531434 L3.12619145,8.01274466 C3.12619145,7.11687487 3.85613035,6.3835117 4.7570835,6.3835117 L19.2349002,6.3835117 C20.1316823,6.3835117 20.8657923,7.11270804 20.8657923,8.01274466 L20.8657923,9.72531434 L20.8657923,10.9336968 L20.8657923,12.0587426 L17.6749165,12.0587426 L17.6749165,10.4836785 C17.6749165,10.0003255 17.282835,9.60864293 16.7989898,9.60864293 L14.4298167,9.60864293 C13.9459715,9.60864293 13.55389,10.0003255 13.55389,10.4836785 L13.55389,12.0587426 L10.2337108,12.0587426 L10.2337108,10.4836785 C10.2337108,10.0003255 9.84162933,9.60864293 9.35778411,9.60864293 L6.988611,9.60864293 C6.50476578,9.60864293 6.11268432,10.0003255 6.11268432,10.4836785 L6.11268432,12.0587426 L3.12619145,12.0587426 L3.12619145,10.9336968 L3.12619145,10.9336968 Z M16.544554,10.7378555 L16.544554,14.5130092 L14.6759104,14.5130092 L14.6759104,10.7378555 L16.544554,10.7378555 L16.544554,10.7378555 Z M9.09917719,10.7378555 L9.09917719,14.5130092 L7.2305336,14.5130092 L7.2305336,10.7378555 L9.09917719,10.7378555 L9.09917719,10.7378555 Z M19.2349002,20.8424334 L4.7570835,20.8424334 C3.86030143,20.8424334 3.12619145,20.113237 3.12619145,19.2132004 L3.12619145,13.1879552 L6.10017108,13.1879552 L6.10017108,14.7630193 C6.10017108,15.2463723 6.49225255,15.6380549 6.97609776,15.6380549 L9.34527088,15.6380549 C9.82911609,15.6380549 10.2211976,15.2463723 10.2211976,14.7630193 L10.2211976,13.1879552 L13.5413768,13.1879552 L13.5413768,14.7630193 C13.5413768,15.2463723 13.9334582,15.6380549 14.4173035,15.6380549 L16.7864766,15.6380549 C17.2703218,15.6380549 17.6624033,15.2463723 17.6624033,14.7630193 L17.6624033,13.1879552 L20.853279,13.1879552 L20.853279,19.2132004 C20.8616212,20.113237 20.1316823,20.8424334 19.2349002,20.8424334 L19.2349002,20.8424334 Z" id="Shape"></path>
        </g>
        <g id="Page-1" transform="translate(0.000000, 96.000000)" fill="#9B9B9B">
            <polygon id="Fill-1" points="3.17248594 3.18510703 3.17248594 5.88276328 4.48498594 5.88276328 4.48498594 4.49760703 11.3437594 4.49760703 11.3437594 19.6025836 9.53907187 19.6025836 9.53907187 20.9150836 14.4609469 20.9150836 14.4609469 19.6025836 12.6562594 19.6025836 12.6562594 4.49760703 19.5041812 4.49760703 19.5041812 5.88276328 20.8166812 5.88276328 20.8166812 3.18510703"></polygon>
        </g>
        <g id="Page-1-Copy-5" transform="translate(24.000000, 96.000000)" fill="url(#linearGradient-1)">
            <polygon id="Fill-1" points="3.17248594 3.18510703 3.17248594 5.88276328 4.48498594 5.88276328 4.48498594 4.49760703 11.3437594 4.49760703 11.3437594 19.6025836 9.53907187 19.6025836 9.53907187 20.9150836 14.4609469 20.9150836 14.4609469 19.6025836 12.6562594 19.6025836 12.6562594 4.49760703 19.5041812 4.49760703 19.5041812 5.88276328 20.8166812 5.88276328 20.8166812 3.18510703"></polygon>
        </g>
        <g id="Group-29" transform="translate(0.000000, 120.000000)" fill="#9B9B9B">
            <path d="M3.3125,14.9330078 L7.55311719,18.3040234 L3.3125,18.3040234 L3.3125,14.9330078 Z M3.3125,8.79796094 L3.3125,6.01628125 L18.7700234,18.3040234 L14.9258281,18.3040234 L15.0593984,18.136 L3.3125,8.79796094 Z M3.3125,10.4746328 L13.1615703,18.3040234 L9.66230469,18.3040234 L3.3125,13.2563125 L3.3125,10.4746328 Z M19.9939063,17.6002656 L4.53638281,5.31252344 L19.9939063,5.31252344 L19.9939063,17.6002656 Z M2,19.6165234 L21.3064062,19.6165234 L21.3064062,4 L2,4 L2,19.6165234 Z" id="Fill-1"></path>
        </g>
        <g id="Group-29-Copy" transform="translate(24.000000, 120.000000)" fill="url(#linearGradient-1)">
            <path d="M3.3125,14.9330078 L7.55311719,18.3040234 L3.3125,18.3040234 L3.3125,14.9330078 Z M3.3125,8.79796094 L3.3125,6.01628125 L18.7700234,18.3040234 L14.9258281,18.3040234 L15.0593984,18.136 L3.3125,8.79796094 Z M3.3125,10.4746328 L13.1615703,18.3040234 L9.66230469,18.3040234 L3.3125,13.2563125 L3.3125,10.4746328 Z M19.9939063,17.6002656 L4.53638281,5.31252344 L19.9939063,5.31252344 L19.9939063,17.6002656 Z M2,19.6165234 L21.3064062,19.6165234 L21.3064062,4 L2,4 L2,19.6165234 Z" id="Fill-1"></path>
        </g>
        <g id="Group-30" transform="translate(0.000000, 144.000000)" fill="#9B9B9B">
            <g id="Group-2" transform="translate(3.000000, 3.000000)">
                <polygon id="Fill-1" points="12.9665461 4.47125547 8.98137422 0.486083594 5.04982734 4.41760703 5.97788203 5.34568516 8.34392109 2.97969297 8.34392109 14.4583727 9.65642109 14.4583727 9.65642109 3.01726328 12.038468 5.39933359"></polygon>
                <polygon id="Fill-2" points="17.4140625 18.5547789 0.57796875 18.5547789 0.57796875 7.40720078 5.21472656 7.40720078 5.21472656 8.71970078 1.89046875 8.71970078 1.89046875 17.2422789 16.1015625 17.2422789 16.1015625 8.71970078 12.7815469 8.71970078 12.7815469 7.40720078 17.4140625 7.40720078"></polygon>
            </g>
        </g>
        <g id="Group-30-Copy" transform="translate(24.000000, 144.000000)" fill="url(#linearGradient-1)">
            <g id="Group-2" transform="translate(3.000000, 3.000000)">
                <polygon id="Fill-1" points="12.9665461 4.47125547 8.98137422 0.486083594 5.04982734 4.41760703 5.97788203 5.34568516 8.34392109 2.97969297 8.34392109 14.4583727 9.65642109 14.4583727 9.65642109 3.01726328 12.038468 5.39933359"></polygon>
                <polygon id="Fill-2" points="17.4140625 18.5547789 0.57796875 18.5547789 0.57796875 7.40720078 5.21472656 7.40720078 5.21472656 8.71970078 1.89046875 8.71970078 1.89046875 17.2422789 16.1015625 17.2422789 16.1015625 8.71970078 12.7815469 8.71970078 12.7815469 7.40720078 17.4140625 7.40720078"></polygon>
            </g>
        </g>
        <g id="Artboard"></g>
    </g>
</svg>